<svg width="36" height="36" viewBox="0 0 36 36" fill="none" xmlns="http://www.w3.org/2000/svg">
<path d="M32.25 18C32.25 25.8698 25.8698 32.25 18 32.25C10.1302 32.25 3.75 25.8698 3.75 18C3.75 10.1302 10.1302 3.75 18 3.75C25.8698 3.75 32.25 10.1302 32.25 18Z" fill="#DD8903"/>
<path d="M28.79 8.70978C30.941 11.205 32.2497 14.4473 32.2497 18C32.2497 25.8698 25.8695 32.25 17.9997 32.25C14.447 32.25 11.2047 30.9413 8.70947 28.7903C11.3225 31.8233 15.1827 33.75 19.4997 33.75C27.3695 33.75 33.7497 27.3698 33.7497 19.5C33.7497 15.183 31.823 11.3228 28.79 8.70978Z" fill="#FFAB00"/>
<path d="M30.75 16.5C30.75 24.3698 24.3698 30.75 16.5 30.75C8.63025 30.75 2.25 24.3698 2.25 16.5C2.25 8.63025 8.63025 2.25 16.5 2.25C24.3698 2.25 30.75 8.63025 30.75 16.5Z" fill="#FFAB00"/>
<path d="M16.5 5.25C10.287 5.25 5.25 10.287 5.25 16.5C5.25 22.713 10.287 27.75 16.5 27.75C22.713 27.75 27.75 22.713 27.75 16.5C27.75 10.287 22.713 5.25 16.5 5.25ZM26.112 14.859L24.6322 15.108C24.5572 14.6632 24.444 14.22 24.2948 13.7902L25.7115 13.2983C25.8885 13.806 26.0228 14.331 26.112 14.859ZM25.0583 11.826L23.7428 12.5468C23.5252 12.1493 23.2725 11.7668 22.9928 11.4097L24.1717 10.4843C24.5033 10.9043 24.801 11.3565 25.0583 11.826ZM17.2748 6.78075L17.1547 8.27625C16.7032 8.2395 16.242 8.24325 15.7913 8.27925L15.6667 6.786C16.197 6.74025 16.7453 6.738 17.2748 6.78075ZM14.0782 7.053L14.4487 8.5065C14.0107 8.61825 13.5787 8.76825 13.164 8.952L12.5557 7.581C13.047 7.36275 13.5592 7.1865 14.0782 7.053ZM11.145 8.352L11.9692 9.6045C11.5912 9.8535 11.2312 10.1363 10.8975 10.4453L9.87825 9.34275C10.2727 8.979 10.6995 8.6445 11.145 8.352ZM8.79 10.5292L9.978 11.4472C9.6975 11.8095 9.447 12.1943 9.23325 12.591L7.91325 11.8777C8.166 11.4105 8.46075 10.9567 8.79 10.5292ZM7.269 13.356L8.688 13.8397C8.5425 14.2695 8.4315 14.7135 8.3595 15.159L6.87825 14.919C6.9645 14.3903 7.09575 13.8645 7.269 13.356ZM6.75 16.5203L8.25 16.5157C8.2515 16.9718 8.28975 17.43 8.364 17.8755L6.88425 18.123C6.79725 17.5972 6.7515 17.058 6.75 16.5203ZM7.93125 21.1553C7.67325 20.6835 7.455 20.187 7.28025 19.683L8.69925 19.194C8.84625 19.62 9.03075 20.0393 9.2475 20.4375L7.93125 21.1553ZM9.90675 23.682C9.51 23.3175 9.1425 22.92 8.8155 22.5L9.9975 21.5775C10.2743 21.9323 10.5855 22.269 10.9215 22.578L9.90675 23.682ZM12.5933 25.4355C12.1013 25.2203 11.6235 24.9623 11.1757 24.6698L11.9985 23.4142C12.375 23.6618 12.7785 23.8793 13.1948 24.0615L12.5933 25.4355ZM15.7073 26.2178C15.171 26.175 14.6363 26.0873 14.1188 25.9568L14.4847 24.5025C14.922 24.612 15.3735 24.6855 15.8273 24.723L15.7073 26.2178ZM17.313 26.2178L17.1885 24.723C17.6415 24.6847 18.0938 24.6098 18.5333 24.498L18.9008 25.9523C18.3825 26.0835 17.8477 26.1728 17.313 26.2178ZM18.4995 8.49375L18.861 7.038C19.3808 7.16775 19.8945 7.34175 20.3873 7.5555L19.788 8.931C19.3725 8.7495 18.939 8.60325 18.4995 8.49375ZM20.4247 25.4272L19.818 24.0548C20.235 23.871 20.6377 23.6528 21.0157 23.4053L21.8377 24.6593C21.3915 24.9525 20.9167 25.2105 20.4247 25.4272ZM20.988 9.57675L21.8055 8.31975C22.2547 8.6115 22.6823 8.94225 23.0775 9.30375L22.065 10.4115C21.7313 10.1048 21.3682 9.82425 20.988 9.57675ZM23.1068 23.6715L22.0905 22.5682C22.4258 22.2593 22.7355 21.9225 23.013 21.5655L24.1965 22.4872C23.8688 22.908 23.502 23.3062 23.1068 23.6715ZM25.0778 21.1395L23.7593 20.4247C23.976 20.0243 24.1605 19.605 24.306 19.1782L25.7257 19.6642C25.5517 20.1698 25.3342 20.6663 25.0778 21.1395ZM24.639 17.8583C24.7125 17.4113 24.75 16.9537 24.75 16.5L26.0265 16.4678L26.2485 16.4708C26.25 17.0363 26.2058 17.5755 26.118 18.1027L24.639 17.8583Z" fill="#FFCC80"/>
<path d="M15.324 20.7912C14.7168 20.7912 14.202 20.668 13.7796 20.4216C13.366 20.1752 13.0228 19.81 12.75 19.326L13.806 18.5472C13.982 18.864 14.1844 19.0972 14.4132 19.2468C14.642 19.3876 14.8884 19.458 15.1524 19.458C15.5572 19.458 15.8608 19.3348 16.0632 19.0884C16.2656 18.842 16.3668 18.4108 16.3668 17.7948V12H17.898V17.9268C17.898 18.3228 17.8496 18.6968 17.7528 19.0488C17.656 19.392 17.502 19.6956 17.2908 19.9596C17.0796 20.2148 16.8112 20.4172 16.4856 20.5668C16.16 20.7164 15.7728 20.7912 15.324 20.7912Z" fill="#FFAB00"/>
</svg>
