<svg width="438" height="234" viewBox="0 0 438 234" fill="none" xmlns="http://www.w3.org/2000/svg">
<path fill-rule="evenodd" clip-rule="evenodd" d="M25.2417 233.876C25.2584 233.532 25.2645 233.188 25.2417 232.838C25.2242 232.593 25.1808 232.344 25.1415 232.096C24.8998 230.572 24.2345 229.107 23.096 227.766C21.9575 226.426 20.356 225.208 18.4034 224.146C16.6207 223.161 14.5525 222.31 12.4674 221.607C10.3823 220.905 8.27262 220.353 6.41118 219.92C2.20327 219.156 -0.206911 218.632 0.0139697 218.484C0.247608 218.339 3.12684 218.589 8.11572 219.172C10.4058 219.537 13.0229 220.059 15.656 220.767C18.2891 221.474 20.9239 222.37 23.2161 223.442C25.629 224.584 27.6453 225.908 29.0718 227.362C30.4984 228.816 31.3442 230.398 31.5785 232.025C31.6167 232.29 31.6312 232.556 31.6387 232.817C31.6512 233.175 31.6316 233.525 31.5986 233.876H25.2415L25.2417 233.876Z" fill="#00892C"/>
<path fill-rule="evenodd" clip-rule="evenodd" d="M46.1555 233.876C46.2914 233.535 46.4428 233.194 46.5566 232.849C47.2313 230.804 47.4455 228.819 47.2518 226.946C47.0273 224.752 46.2337 222.71 45.1663 220.889C44.0988 219.069 42.7676 217.474 41.53 216.15C40.2925 214.826 39.1709 213.772 38.482 213.035C37.7932 212.297 37.5331 211.875 37.974 211.819C38.4149 211.763 39.5107 212.078 41.022 212.736C42.5333 213.394 44.4717 214.396 46.4497 215.706C48.4276 217.016 50.4265 218.637 52.0644 220.518C53.7023 222.399 54.9602 224.539 55.46 226.851C55.8843 228.822 55.7902 230.915 55.0857 233.061C54.9957 233.335 54.8994 233.605 54.7916 233.876H46.1553L46.1555 233.876Z" fill="#00892C"/>
<path fill-rule="evenodd" clip-rule="evenodd" d="M64.3868 233.876C66.1004 232.436 67.8715 231.065 69.5006 229.781C71.256 228.397 72.842 227.105 74.1331 225.921C74.8861 225.228 75.5446 224.575 76.0782 223.966C76.6119 223.357 77.0158 222.794 77.3216 222.279C77.621 221.769 77.8158 221.306 77.9433 220.903C78.0707 220.499 78.1249 220.156 78.1638 219.871C78.2028 219.586 78.2402 219.36 78.3042 219.205C78.3683 219.05 78.4688 218.964 78.6451 218.954C78.8215 218.943 79.0694 219.008 79.3471 219.15C79.6247 219.292 79.9387 219.514 80.2294 219.805C80.5202 220.097 80.7756 220.46 80.9514 220.892C81.1271 221.324 81.2045 221.821 81.1519 222.372C81.1018 222.928 80.9337 223.54 80.6104 224.195C80.2872 224.85 79.8193 225.551 79.2268 226.281C78.2164 227.528 76.8641 228.876 75.2762 230.294C73.9885 231.444 72.5325 232.646 71.085 233.876H64.3867L64.3868 233.876Z" fill="#00892C"/>
<path fill-rule="evenodd" clip-rule="evenodd" d="M92.4237 233.876C92.461 233.618 92.5108 233.364 92.5441 233.103C92.5479 233.077 92.5408 233.05 92.5441 233.024C92.8155 230.822 92.9443 228.721 93.0975 226.8C93.2508 224.878 93.4448 223.137 93.7232 221.676C94.0017 220.215 94.3615 219.035 94.8061 218.217C95.2507 217.399 95.7668 216.946 96.2981 216.946C96.8295 216.946 97.3375 217.396 97.8142 218.21C98.2909 219.024 98.7433 220.2 99.1618 221.656C99.5803 223.113 99.9607 224.852 100.197 226.787C100.432 228.721 100.518 230.852 100.245 233.096C100.242 233.122 100.248 233.148 100.245 233.175C100.216 233.411 100.162 233.642 100.124 233.876H92.4237L92.4237 233.876Z" fill="#00892C"/>
<path fill-rule="evenodd" clip-rule="evenodd" d="M112.58 233.876C112.743 232.774 113.088 231.716 113.62 230.748C114.265 229.574 115.172 228.53 116.179 227.678C117.186 226.825 118.277 226.164 119.184 225.727C120.091 225.289 120.797 225.074 121.132 225.111C121.466 225.148 121.4 225.435 121.099 225.916C120.798 226.396 120.284 227.073 119.778 227.916C119.272 228.759 118.786 229.768 118.441 230.9C118.16 231.82 117.983 232.824 117.863 233.876H112.58L112.58 233.876Z" fill="#00892C"/>
<path fill-rule="evenodd" clip-rule="evenodd" d="M179.878 216.048C179.679 216.047 179.357 216.115 178.935 216.255C178.453 216.415 177.841 216.671 177.17 217.014C176.5 217.357 175.775 217.789 175.085 218.313C174.394 218.837 173.744 219.454 173.24 220.148C172.778 220.784 172.449 221.484 172.277 222.239C172.106 222.994 172.103 223.803 172.297 224.647C172.587 225.893 173.255 227.219 174.303 228.589C175.35 229.959 176.773 231.373 178.394 232.804C178.724 233.096 179.059 233.381 179.396 233.667C179.528 233.779 179.665 233.888 179.797 234H186.496C186.158 233.713 185.828 233.433 185.493 233.142C185.169 232.86 184.853 232.577 184.531 232.291C182.947 230.886 181.518 229.52 180.379 228.218C179.24 226.915 178.398 225.677 177.893 224.51C177.549 223.723 177.346 222.969 177.291 222.266C177.236 221.564 177.329 220.911 177.512 220.312C177.906 219.007 178.761 217.962 179.377 217.238C179.685 216.876 179.921 216.591 180.038 216.391C180.155 216.191 180.145 216.077 179.958 216.053C179.935 216.05 179.906 216.047 179.878 216.047L179.878 216.048Z" fill="#00892C"/>
<path fill-rule="evenodd" clip-rule="evenodd" d="M147.439 216.172C147.366 216.168 147.268 216.175 147.198 216.204C147.128 216.233 147.095 216.29 147.078 216.329C147.042 216.398 147.039 216.487 147.078 216.59C147.156 216.794 147.38 217.068 147.703 217.395C148.345 218.045 149.428 218.938 150.731 220.025C153.302 222.171 156.792 225.119 159.502 228.596C160.817 230.286 161.917 232.103 162.674 234H170.435C169.612 231.928 168.225 229.954 166.542 228.144C164.878 226.352 162.922 224.72 160.92 223.277C158.917 221.833 156.877 220.579 155.008 219.547C153.108 218.498 151.412 217.684 150.106 217.114C149.444 216.824 148.9 216.603 148.472 216.446C148.253 216.365 148.07 216.307 147.92 216.263C147.822 216.222 147.707 216.217 147.631 216.204C147.556 216.192 147.512 216.175 147.439 216.171L147.439 216.172Z" fill="#00892C"/>
<path fill-rule="evenodd" clip-rule="evenodd" d="M133.334 219.635C132.926 219.672 133.068 220.123 133.594 220.907C134.121 221.69 135.026 222.81 136.081 224.194C137.136 225.577 138.338 227.219 139.249 229.053C140.011 230.585 140.569 232.252 140.653 233.999H147.01C146.835 232.144 146.06 230.391 144.985 228.802C143.706 226.912 142.032 225.248 140.393 223.877C138.753 222.506 137.152 221.432 135.901 220.704C134.649 219.977 133.741 219.597 133.334 219.634L133.334 219.635Z" fill="#00892C"/>
<path fill-rule="evenodd" clip-rule="evenodd" d="M197.673 219.986C197.198 219.986 196.753 220.349 196.319 220.992C195.885 221.636 195.452 222.562 195.029 223.713C194.606 224.864 194.204 226.236 193.89 227.768C193.576 229.3 193.359 230.992 193.482 232.777C193.486 232.836 193.499 232.893 193.503 232.952C193.526 233.26 193.566 233.568 193.611 233.871H200.488C200.452 233.554 200.408 233.235 200.381 232.911C200.376 232.854 200.363 232.8 200.359 232.742C200.236 231.002 200.243 229.332 200.209 227.809C200.175 226.286 200.107 224.909 199.908 223.748C199.709 222.588 199.394 221.648 199.005 220.998C198.617 220.348 198.147 219.986 197.673 219.986L197.673 219.986Z" fill="#00892C"/>
<path fill-rule="evenodd" clip-rule="evenodd" d="M203.981 221.431C203.559 221.466 203.592 221.856 203.881 222.528C204.169 223.201 204.716 224.158 205.284 225.34C205.853 226.522 206.427 227.933 206.889 229.506C207.295 230.892 207.602 232.409 207.831 234H214.248C213.984 232.351 213.488 230.77 212.764 229.331C211.955 227.722 210.88 226.286 209.716 225.1C208.552 223.914 207.304 222.977 206.267 222.348C205.23 221.719 204.403 221.395 203.981 221.431L203.981 221.431Z" fill="#00892C"/>
<path d="M428 231.727H18.0544V234H428V231.727Z" fill="#00892C"/>
<path fill-rule="evenodd" clip-rule="evenodd" d="M25.2417 233.876C25.2584 233.532 25.2645 233.188 25.2417 232.838C25.2242 232.593 25.1808 232.344 25.1415 232.096C24.8998 230.572 24.2345 229.107 23.096 227.766C21.9575 226.426 20.356 225.208 18.4034 224.146C16.6207 223.161 14.5525 222.31 12.4674 221.607C10.3823 220.905 8.27262 220.353 6.41118 219.92C2.20327 219.156 -0.206911 218.632 0.0139697 218.484C0.247608 218.339 3.12684 218.589 8.11572 219.172C10.4058 219.537 13.0229 220.059 15.656 220.767C18.2891 221.474 20.9239 222.37 23.2161 223.442C25.629 224.584 27.6453 225.908 29.0718 227.362C30.4984 228.816 31.3442 230.398 31.5785 232.025C31.6167 232.29 31.6312 232.556 31.6387 232.817C31.6512 233.175 31.6316 233.525 31.5986 233.876H25.2415L25.2417 233.876Z" fill="#00892C"/>
<path fill-rule="evenodd" clip-rule="evenodd" d="M46.1555 233.876C46.2914 233.535 46.4428 233.194 46.5566 232.849C47.2313 230.804 47.4455 228.819 47.2518 226.946C47.0273 224.752 46.2337 222.71 45.1663 220.889C44.0988 219.069 42.7676 217.474 41.53 216.15C40.2925 214.826 39.1709 213.772 38.482 213.035C37.7932 212.297 37.5331 211.875 37.974 211.819C38.4149 211.763 39.5107 212.078 41.022 212.736C42.5333 213.394 44.4717 214.396 46.4497 215.706C48.4276 217.016 50.4265 218.637 52.0644 220.518C53.7023 222.399 54.9602 224.539 55.46 226.851C55.8843 228.822 55.7902 230.915 55.0857 233.061C54.9957 233.335 54.8994 233.605 54.7916 233.876H46.1553L46.1555 233.876Z" fill="#00892C"/>
<path fill-rule="evenodd" clip-rule="evenodd" d="M64.3868 233.876C66.1004 232.436 67.8715 231.065 69.5006 229.781C71.256 228.397 72.842 227.105 74.1331 225.921C74.8861 225.228 75.5446 224.575 76.0782 223.966C76.6119 223.357 77.0158 222.794 77.3216 222.279C77.621 221.769 77.8158 221.306 77.9433 220.903C78.0707 220.499 78.1249 220.156 78.1638 219.871C78.2028 219.586 78.2402 219.36 78.3042 219.205C78.3683 219.05 78.4688 218.964 78.6451 218.954C78.8215 218.943 79.0694 219.008 79.3471 219.15C79.6247 219.292 79.9387 219.514 80.2294 219.805C80.5202 220.097 80.7756 220.46 80.9514 220.892C81.1271 221.324 81.2045 221.821 81.1519 222.372C81.1018 222.928 80.9337 223.54 80.6104 224.195C80.2872 224.85 79.8193 225.551 79.2268 226.281C78.2164 227.528 76.8641 228.876 75.2762 230.294C73.9885 231.444 72.5325 232.646 71.085 233.876H64.3867L64.3868 233.876Z" fill="#00892C"/>
<path fill-rule="evenodd" clip-rule="evenodd" d="M92.4237 233.876C92.461 233.618 92.5108 233.364 92.5441 233.103C92.5479 233.077 92.5408 233.05 92.5441 233.024C92.8155 230.822 92.9443 228.721 93.0975 226.8C93.2508 224.878 93.4448 223.137 93.7232 221.676C94.0017 220.215 94.3615 219.035 94.8061 218.217C95.2507 217.399 95.7668 216.946 96.2981 216.946C96.8295 216.946 97.3375 217.396 97.8142 218.21C98.2909 219.024 98.7433 220.2 99.1618 221.656C99.5803 223.113 99.9607 224.852 100.197 226.787C100.432 228.721 100.518 230.852 100.245 233.096C100.242 233.122 100.248 233.148 100.245 233.175C100.216 233.411 100.162 233.642 100.124 233.876H92.4237L92.4237 233.876Z" fill="#00892C"/>
<path fill-rule="evenodd" clip-rule="evenodd" d="M112.58 233.876C112.743 232.774 113.088 231.716 113.62 230.748C114.265 229.574 115.172 228.53 116.179 227.678C117.186 226.825 118.277 226.164 119.184 225.727C120.091 225.289 120.797 225.074 121.132 225.111C121.466 225.148 121.4 225.435 121.099 225.916C120.798 226.396 120.284 227.073 119.778 227.916C119.272 228.759 118.786 229.768 118.441 230.9C118.16 231.82 117.983 232.824 117.863 233.876H112.58L112.58 233.876Z" fill="#00892C"/>
<path fill-rule="evenodd" clip-rule="evenodd" d="M179.878 216.048C179.679 216.047 179.357 216.115 178.935 216.255C178.453 216.415 177.841 216.671 177.17 217.014C176.5 217.357 175.775 217.789 175.085 218.313C174.394 218.837 173.744 219.454 173.24 220.148C172.778 220.784 172.449 221.484 172.277 222.239C172.106 222.994 172.103 223.803 172.297 224.647C172.587 225.893 173.255 227.219 174.303 228.589C175.35 229.959 176.773 231.373 178.394 232.804C178.724 233.096 179.059 233.381 179.396 233.667C179.528 233.779 179.665 233.888 179.797 234H186.496C186.158 233.713 185.828 233.433 185.493 233.142C185.169 232.86 184.853 232.577 184.531 232.291C182.947 230.886 181.518 229.52 180.379 228.218C179.24 226.915 178.398 225.677 177.893 224.51C177.549 223.723 177.346 222.969 177.291 222.266C177.236 221.564 177.329 220.911 177.512 220.312C177.906 219.007 178.761 217.962 179.377 217.238C179.685 216.876 179.921 216.591 180.038 216.391C180.155 216.191 180.145 216.077 179.958 216.053C179.935 216.05 179.906 216.047 179.878 216.047L179.878 216.048Z" fill="#00892C"/>
<path fill-rule="evenodd" clip-rule="evenodd" d="M147.439 216.172C147.366 216.168 147.268 216.175 147.198 216.204C147.128 216.233 147.095 216.29 147.078 216.329C147.042 216.398 147.039 216.487 147.078 216.59C147.156 216.794 147.38 217.068 147.703 217.395C148.345 218.045 149.428 218.938 150.731 220.025C153.302 222.171 156.792 225.119 159.502 228.596C160.817 230.286 161.917 232.103 162.674 234H170.435C169.612 231.928 168.225 229.954 166.542 228.144C164.878 226.352 162.922 224.72 160.92 223.277C158.917 221.833 156.877 220.579 155.008 219.547C153.108 218.498 151.412 217.684 150.106 217.114C149.444 216.824 148.9 216.603 148.472 216.446C148.253 216.365 148.07 216.307 147.92 216.263C147.822 216.222 147.707 216.217 147.631 216.204C147.556 216.192 147.512 216.175 147.439 216.171L147.439 216.172Z" fill="#00892C"/>
<path fill-rule="evenodd" clip-rule="evenodd" d="M133.334 219.635C132.926 219.672 133.068 220.123 133.594 220.907C134.121 221.69 135.026 222.81 136.081 224.194C137.136 225.577 138.338 227.219 139.249 229.053C140.011 230.585 140.569 232.252 140.653 233.999H147.01C146.835 232.144 146.06 230.391 144.985 228.802C143.706 226.912 142.032 225.248 140.393 223.877C138.753 222.506 137.152 221.432 135.901 220.704C134.649 219.977 133.741 219.597 133.334 219.634L133.334 219.635Z" fill="#00892C"/>
<path fill-rule="evenodd" clip-rule="evenodd" d="M197.673 219.986C197.198 219.986 196.753 220.349 196.319 220.992C195.885 221.636 195.452 222.562 195.029 223.713C194.606 224.864 194.204 226.236 193.89 227.768C193.576 229.3 193.359 230.992 193.482 232.777C193.486 232.836 193.499 232.893 193.503 232.952C193.526 233.26 193.566 233.568 193.611 233.871H200.488C200.452 233.554 200.408 233.235 200.381 232.911C200.376 232.854 200.363 232.8 200.359 232.742C200.236 231.002 200.243 229.332 200.209 227.809C200.175 226.286 200.107 224.909 199.908 223.748C199.709 222.588 199.394 221.648 199.005 220.998C198.617 220.348 198.147 219.986 197.673 219.986L197.673 219.986Z" fill="#00892C"/>
<path fill-rule="evenodd" clip-rule="evenodd" d="M203.981 221.431C203.559 221.466 203.592 221.856 203.881 222.528C204.169 223.201 204.716 224.158 205.284 225.34C205.853 226.522 206.427 227.933 206.889 229.506C207.295 230.892 207.602 232.409 207.831 234H214.248C213.984 232.351 213.488 230.77 212.764 229.331C211.955 227.722 210.88 226.286 209.716 225.1C208.552 223.914 207.304 222.977 206.267 222.348C205.23 221.719 204.403 221.395 203.981 221.431L203.981 221.431Z" fill="#00892C"/>
<path fill-rule="evenodd" clip-rule="evenodd" d="M30.414 232.125C30.4311 231.772 30.4374 231.419 30.414 231.06C30.396 230.808 30.3514 230.552 30.311 230.297C30.0629 228.732 29.3796 227.228 28.2104 225.851C27.0413 224.474 25.3966 223.224 23.3913 222.133C21.5606 221.121 19.4367 220.247 17.2953 219.526C15.154 218.805 12.9875 218.238 11.0758 217.793C6.75454 217.009 4.27934 216.47 4.50651 216.319C4.74645 216.169 7.70332 216.426 12.8265 217.025C15.1782 217.399 17.8658 217.936 20.5701 218.662C23.2742 219.389 25.98 220.31 28.3343 221.41C30.8122 222.583 32.8829 223.942 34.3479 225.436C35.8129 226.929 36.6815 228.553 36.9223 230.224C36.9615 230.496 36.9763 230.769 36.984 231.037C36.9968 231.405 36.9767 231.765 36.9428 232.125H30.4145L30.414 232.125Z" fill="#00892C"/>
<path fill-rule="evenodd" clip-rule="evenodd" d="M51.8925 232.125C52.032 231.775 52.1875 231.425 52.3044 231.071C52.9973 228.971 53.2173 226.932 53.0183 225.008C52.7878 222.756 51.9728 220.658 50.8766 218.788C49.7804 216.919 48.4132 215.281 47.1424 213.922C45.8715 212.562 44.7196 211.479 44.0121 210.722C43.3047 209.965 43.0376 209.531 43.4905 209.474C43.9432 209.416 45.0686 209.74 46.6207 210.415C48.1727 211.091 50.1633 212.12 52.1946 213.466C54.2259 214.811 56.2787 216.475 57.9607 218.407C59.6428 220.339 60.9345 222.536 61.4479 224.911C61.8836 226.935 61.7869 229.084 61.0635 231.288C60.971 231.569 60.8721 231.846 60.7614 232.125H51.8928L51.8925 232.125Z" fill="#00892C"/>
<path fill-rule="evenodd" clip-rule="evenodd" d="M70.618 232.125C72.3778 230.647 74.1966 229.239 75.8696 227.92C77.6723 226.498 79.3011 225.172 80.6269 223.956C81.4002 223.245 82.0765 222.573 82.6246 221.948C83.1726 221.323 83.5873 220.745 83.9014 220.216C84.2088 219.693 84.409 219.217 84.5398 218.803C84.6707 218.388 84.7264 218.036 84.7664 217.743C84.8063 217.45 84.8448 217.218 84.9105 217.059C84.9763 216.9 85.0796 216.812 85.2606 216.801C85.4417 216.79 85.6963 216.857 85.9814 217.003C86.2665 217.149 86.589 217.376 86.8876 217.676C87.1862 217.975 87.4485 218.348 87.629 218.792C87.8095 219.235 87.8889 219.746 87.8349 220.311C87.7835 220.882 87.6109 221.511 87.2789 222.184C86.9469 222.856 86.4663 223.577 85.8578 224.326C84.8203 225.606 83.4314 226.991 81.8007 228.447C80.4783 229.628 78.9831 230.862 77.4965 232.125H70.6179L70.618 232.125Z" fill="#00892C"/>
<path fill-rule="evenodd" clip-rule="evenodd" d="M99.4057 232.125C99.4439 231.861 99.4951 231.599 99.5292 231.331C99.5331 231.305 99.526 231.277 99.5292 231.25C99.8081 228.989 99.9403 226.832 100.098 224.858C100.255 222.885 100.454 221.097 100.74 219.597C101.026 218.097 101.396 216.884 101.852 216.044C102.309 215.204 102.839 214.739 103.385 214.739C103.93 214.739 104.452 215.201 104.941 216.037C105.431 216.873 105.896 218.081 106.325 219.577C106.755 221.072 107.146 222.859 107.388 224.845C107.63 226.831 107.718 229.021 107.438 231.325C107.434 231.352 107.441 231.378 107.438 231.405C107.408 231.648 107.352 231.885 107.314 232.125H99.406L99.4057 232.125Z" fill="#00892C"/>
<path fill-rule="evenodd" clip-rule="evenodd" d="M120.108 232.125C120.274 230.993 120.629 229.907 121.176 228.912C121.838 227.707 122.77 226.635 123.804 225.76C124.838 224.885 125.958 224.206 126.889 223.756C127.821 223.307 128.546 223.086 128.89 223.124C129.234 223.162 129.165 223.457 128.856 223.95C128.547 224.444 128.019 225.139 127.5 226.005C126.98 226.87 126.481 227.907 126.126 229.069C125.838 230.013 125.656 231.045 125.533 232.125H120.108L120.108 232.125Z" fill="#00892C"/>
<path fill-rule="evenodd" clip-rule="evenodd" d="M189.221 213.816C189.017 213.816 188.686 213.885 188.253 214.029C187.759 214.194 187.13 214.456 186.441 214.809C185.752 215.161 185.008 215.605 184.299 216.143C183.59 216.681 182.922 217.315 182.405 218.027C181.93 218.681 181.592 219.4 181.416 220.175C181.24 220.95 181.237 221.78 181.437 222.648C181.734 223.928 182.42 225.289 183.496 226.696C184.572 228.103 186.032 229.555 187.697 231.025C188.037 231.324 188.381 231.617 188.727 231.911C188.863 232.026 189.002 232.138 189.139 232.253H196.017C195.671 231.958 195.332 231.671 194.988 231.372C194.655 231.082 194.331 230.792 193.999 230.498C192.373 229.055 190.906 227.652 189.736 226.315C188.566 224.977 187.701 223.705 187.182 222.507C186.83 221.699 186.621 220.924 186.565 220.203C186.508 219.481 186.604 218.811 186.791 218.195C187.196 216.855 188.074 215.782 188.706 215.039C189.023 214.667 189.266 214.375 189.386 214.17C189.506 213.964 189.495 213.847 189.304 213.822C189.28 213.819 189.25 213.816 189.221 213.816L189.221 213.816Z" fill="#00892C"/>
<path fill-rule="evenodd" clip-rule="evenodd" d="M155.903 213.944C155.828 213.94 155.728 213.948 155.656 213.978C155.584 214.007 155.55 214.065 155.533 214.105C155.496 214.176 155.493 214.268 155.533 214.374C155.612 214.583 155.843 214.865 156.174 215.2C156.834 215.868 157.946 216.784 159.284 217.901C161.924 220.105 165.509 223.132 168.291 226.703C169.642 228.439 170.771 230.305 171.548 232.253H179.519C178.674 230.125 177.25 228.098 175.521 226.239C173.812 224.399 171.803 222.723 169.747 221.241C167.691 219.758 165.595 218.471 163.676 217.411C161.725 216.333 159.983 215.497 158.642 214.912C157.962 214.614 157.404 214.387 156.964 214.226C156.739 214.143 156.551 214.084 156.397 214.038C156.297 213.996 156.178 213.99 156.1 213.978C156.023 213.965 155.978 213.948 155.903 213.944L155.903 213.944Z" fill="#00892C"/>
<path fill-rule="evenodd" clip-rule="evenodd" d="M141.419 217.5C141 217.538 141.146 218.001 141.687 218.806C142.228 219.611 143.157 220.761 144.241 222.182C145.324 223.602 146.558 225.289 147.495 227.172C148.277 228.746 148.849 230.457 148.936 232.252H155.465C155.285 230.346 154.489 228.546 153.385 226.914C152.072 224.974 150.352 223.264 148.668 221.856C146.985 220.449 145.341 219.346 144.055 218.599C142.77 217.852 141.838 217.461 141.419 217.5L141.419 217.5Z" fill="#00892C"/>
<path fill-rule="evenodd" clip-rule="evenodd" d="M207.498 217.861C207.01 217.861 206.553 218.234 206.107 218.895C205.661 219.556 205.217 220.507 204.783 221.689C204.349 222.871 203.936 224.28 203.613 225.853C203.29 227.427 203.067 229.164 203.194 230.997C203.198 231.058 203.211 231.117 203.216 231.178C203.239 231.494 203.28 231.809 203.326 232.121H210.389C210.352 231.795 210.307 231.468 210.279 231.135C210.274 231.076 210.261 231.021 210.257 230.961C210.13 229.174 210.137 227.46 210.102 225.895C210.067 224.331 209.998 222.917 209.793 221.725C209.588 220.533 209.265 219.568 208.866 218.901C208.467 218.234 207.985 217.861 207.498 217.861L207.498 217.861Z" fill="#00892C"/>
<path fill-rule="evenodd" clip-rule="evenodd" d="M213.972 219.345C213.539 219.381 213.573 219.781 213.87 220.472C214.166 221.162 214.728 222.145 215.311 223.359C215.895 224.573 216.485 226.022 216.959 227.637C217.376 229.061 217.691 230.619 217.927 232.252H224.517C224.246 230.559 223.736 228.936 222.993 227.458C222.162 225.806 221.058 224.331 219.863 223.112C218.668 221.894 217.386 220.933 216.321 220.286C215.255 219.64 214.406 219.308 213.973 219.344L213.972 219.345Z" fill="#00892C"/>
<path fill-rule="evenodd" clip-rule="evenodd" d="M43.3063 232.667C43.3209 232.363 43.3264 232.058 43.3063 231.748C43.2908 231.531 43.2523 231.311 43.2175 231.091C43.0036 229.742 42.4146 228.445 41.4068 227.258C40.399 226.072 38.9814 224.994 37.2529 224.054C35.6748 223.181 33.844 222.428 31.9983 221.806C30.1526 221.185 28.285 220.696 26.6372 220.313C22.9123 219.636 20.7788 219.173 20.9743 219.042C21.1812 218.913 23.7299 219.134 28.1462 219.651C30.1734 219.973 32.4901 220.436 34.8208 221.062C37.1517 221.688 39.4841 222.482 41.5133 223.43C43.6492 224.441 45.4341 225.614 46.6969 226.901C47.9597 228.188 48.7084 229.588 48.9159 231.028C48.9497 231.263 48.9625 231.498 48.9691 231.729C48.9802 232.046 48.9627 232.356 48.9336 232.667H43.3062L43.3063 232.667Z" fill="#00892C"/>
<path fill-rule="evenodd" clip-rule="evenodd" d="M61.82 232.667C61.9403 232.365 62.0743 232.064 62.175 231.758C62.7723 229.948 62.9619 228.19 62.7904 226.532C62.5917 224.591 61.8892 222.782 60.9443 221.171C59.9994 219.559 58.8209 218.148 57.7254 216.976C56.63 215.804 55.6371 214.871 55.0273 214.218C54.4175 213.565 54.1873 213.191 54.5776 213.142C54.9679 213.092 55.9379 213.371 57.2757 213.954C58.6136 214.536 60.3294 215.423 62.0803 216.583C63.8313 217.742 65.6007 219.177 67.0506 220.842C68.5005 222.507 69.614 224.402 70.0564 226.448C70.432 228.193 70.3487 230.046 69.7251 231.945C69.6454 232.188 69.5601 232.427 69.4647 232.667H61.8199L61.82 232.667Z" fill="#00892C"/>
<path fill-rule="evenodd" clip-rule="evenodd" d="M77.9593 232.667C79.4762 231.393 81.044 230.179 82.486 229.042C84.04 227.817 85.4439 226.674 86.5868 225.625C87.2533 225.012 87.8363 224.433 88.3087 223.894C88.7811 223.356 89.1386 222.857 89.4093 222.401C89.6743 221.95 89.8468 221.54 89.9596 221.183C90.0725 220.826 90.1204 220.522 90.1549 220.27C90.1894 220.017 90.2225 219.817 90.2792 219.68C90.3358 219.543 90.4249 219.467 90.581 219.458C90.737 219.448 90.9565 219.506 91.2023 219.632C91.448 219.757 91.726 219.953 91.9834 220.212C92.2407 220.47 92.4669 220.791 92.6225 221.173C92.778 221.556 92.8465 221.996 92.8 222.483C92.7556 222.976 92.6068 223.518 92.3207 224.097C92.0345 224.677 91.6203 225.298 91.0957 225.944C90.2014 227.048 89.0042 228.241 87.5986 229.496C86.4587 230.514 85.1699 231.578 83.8884 232.667H77.9593L77.9593 232.667Z" fill="#00892C"/>
<path fill-rule="evenodd" clip-rule="evenodd" d="M102.775 232.667C102.808 232.439 102.852 232.213 102.881 231.982C102.884 231.96 102.879 231.936 102.881 231.913C103.122 229.964 103.236 228.104 103.371 226.403C103.507 224.702 103.679 223.16 103.925 221.867C104.172 220.574 104.49 219.529 104.884 218.805C105.277 218.081 105.734 217.68 106.204 217.68C106.675 217.68 107.124 218.079 107.546 218.799C107.968 219.52 108.369 220.561 108.739 221.85C109.11 223.139 109.446 224.679 109.655 226.391C109.864 228.103 109.94 229.991 109.698 231.977C109.695 232 109.7 232.023 109.698 232.046C109.672 232.255 109.625 232.46 109.591 232.667H102.774L102.775 232.667Z" fill="#00892C"/>
<path fill-rule="evenodd" clip-rule="evenodd" d="M120.615 232.667C120.758 231.691 121.064 230.755 121.535 229.897C122.106 228.859 122.909 227.934 123.8 227.18C124.692 226.426 125.657 225.84 126.46 225.453C127.263 225.066 127.888 224.875 128.185 224.908C128.481 224.941 128.422 225.195 128.155 225.62C127.889 226.046 127.434 226.644 126.986 227.391C126.539 228.137 126.108 229.03 125.803 230.033C125.554 230.846 125.397 231.735 125.291 232.667H120.615H120.615Z" fill="#00892C"/>
<path fill-rule="evenodd" clip-rule="evenodd" d="M180.192 216.884C180.016 216.884 179.731 216.944 179.358 217.068C178.931 217.21 178.389 217.436 177.796 217.74C177.202 218.044 176.561 218.426 175.949 218.89C175.338 219.354 174.763 219.9 174.316 220.514C173.907 221.077 173.616 221.697 173.464 222.365C173.313 223.033 173.31 223.749 173.482 224.497C173.738 225.6 174.33 226.773 175.257 227.986C176.184 229.199 177.443 230.451 178.878 231.718C179.171 231.976 179.467 232.228 179.766 232.481C179.883 232.581 180.003 232.677 180.121 232.776H186.05C185.751 232.522 185.459 232.275 185.163 232.017C184.875 231.767 184.596 231.517 184.31 231.263C182.909 230.02 181.644 228.811 180.636 227.658C179.628 226.505 178.882 225.408 178.435 224.376C178.131 223.679 177.951 223.011 177.902 222.39C177.854 221.768 177.936 221.19 178.097 220.659C178.446 219.504 179.203 218.579 179.748 217.938C180.021 217.618 180.23 217.366 180.334 217.189C180.438 217.012 180.428 216.911 180.263 216.889C180.242 216.887 180.217 216.885 180.192 216.885L180.192 216.884Z" fill="#00892C"/>
<path fill-rule="evenodd" clip-rule="evenodd" d="M151.475 216.995C151.411 216.991 151.324 216.998 151.262 217.024C151.2 217.049 151.171 217.099 151.156 217.134C151.124 217.195 151.121 217.274 151.156 217.365C151.224 217.546 151.423 217.788 151.709 218.078C152.278 218.653 153.236 219.443 154.389 220.406C156.665 222.305 159.755 224.915 162.153 227.992C163.318 229.489 164.291 231.097 164.961 232.776H171.832C171.103 230.942 169.876 229.195 168.386 227.593C166.913 226.007 165.181 224.562 163.409 223.284C161.636 222.006 159.83 220.896 158.176 219.983C156.494 219.054 154.993 218.333 153.837 217.828C153.25 217.572 152.769 217.377 152.39 217.238C152.197 217.166 152.034 217.115 151.901 217.076C151.815 217.039 151.713 217.034 151.646 217.023C151.579 217.012 151.54 216.998 151.476 216.994L151.475 216.995Z" fill="#00892C"/>
<path fill-rule="evenodd" clip-rule="evenodd" d="M138.987 220.061C138.626 220.094 138.752 220.493 139.218 221.187C139.684 221.881 140.485 222.872 141.419 224.097C142.353 225.321 143.417 226.775 144.224 228.398C144.898 229.755 145.392 231.23 145.467 232.777H151.094C150.939 231.134 150.253 229.583 149.301 228.176C148.169 226.503 146.687 225.03 145.236 223.816C143.785 222.603 142.367 221.652 141.259 221.008C140.151 220.364 139.348 220.028 138.987 220.061L138.987 220.061Z" fill="#00892C"/>
<path fill-rule="evenodd" clip-rule="evenodd" d="M195.947 220.372C195.526 220.372 195.132 220.693 194.748 221.263C194.364 221.832 193.981 222.653 193.606 223.671C193.232 224.69 192.876 225.905 192.598 227.261C192.32 228.617 192.128 230.115 192.237 231.695C192.24 231.747 192.251 231.798 192.256 231.85C192.276 232.123 192.311 232.395 192.351 232.663H198.439C198.407 232.383 198.368 232.1 198.344 231.814C198.34 231.763 198.328 231.715 198.325 231.664C198.215 230.124 198.221 228.646 198.191 227.297C198.162 225.949 198.101 224.73 197.925 223.702C197.749 222.675 197.47 221.843 197.126 221.268C196.782 220.693 196.367 220.372 195.947 220.372L195.947 220.372Z" fill="#00892C"/>
<path fill-rule="evenodd" clip-rule="evenodd" d="M201.529 221.651C201.156 221.682 201.185 222.027 201.441 222.622C201.696 223.218 202.18 224.065 202.683 225.111C203.186 226.158 203.695 227.406 204.103 228.799C204.463 230.026 204.735 231.369 204.938 232.777H210.618C210.385 231.317 209.945 229.918 209.305 228.644C208.589 227.22 207.637 225.949 206.607 224.899C205.576 223.849 204.471 223.02 203.553 222.463C202.635 221.906 201.903 221.619 201.529 221.651V221.651Z" fill="#00892C"/>
<path fill-rule="evenodd" clip-rule="evenodd" d="M135.111 232.667C134.991 232.365 134.857 232.064 134.756 231.758C134.159 229.948 133.969 228.19 134.141 226.532C134.339 224.591 135.042 222.782 135.987 221.171C136.932 219.559 138.11 218.148 139.206 216.976C140.301 215.804 141.294 214.871 141.904 214.218C142.514 213.565 142.744 213.191 142.354 213.142C141.963 213.092 140.993 213.371 139.655 213.954C138.318 214.536 136.602 215.423 134.851 216.583C133.1 217.742 131.33 219.177 129.881 220.842C128.431 222.507 127.317 224.402 126.875 226.448C126.499 228.193 126.582 230.046 127.206 231.945C127.286 232.188 127.371 232.427 127.466 232.667H135.111L135.111 232.667Z" fill="#00892C"/>
<path fill-rule="evenodd" clip-rule="evenodd" d="M112.349 216.884C112.525 216.884 112.81 216.944 113.184 217.068C113.61 217.21 114.152 217.436 114.746 217.74C115.339 218.044 115.981 218.426 116.592 218.89C117.203 219.354 117.779 219.9 118.225 220.514C118.634 221.077 118.926 221.697 119.077 222.365C119.229 223.033 119.232 223.749 119.06 224.497C118.803 225.6 118.212 226.773 117.284 227.986C116.357 229.199 115.098 230.451 113.663 231.718C113.37 231.976 113.074 232.228 112.775 232.481C112.658 232.581 112.538 232.677 112.42 232.776H106.491C106.79 232.522 107.082 232.275 107.379 232.017C107.666 231.767 107.945 231.517 108.231 231.263C109.633 230.02 110.897 228.811 111.906 227.658C112.914 226.505 113.66 225.408 114.107 224.376C114.411 223.679 114.591 223.011 114.639 222.39C114.688 221.768 114.605 221.19 114.444 220.659C114.095 219.504 113.338 218.579 112.793 217.938C112.521 217.618 112.311 217.366 112.207 217.189C112.104 217.012 112.113 216.911 112.278 216.889C112.299 216.887 112.324 216.885 112.349 216.885L112.349 216.884Z" fill="#00892C"/>
<path fill-rule="evenodd" clip-rule="evenodd" d="M195.619 217.868C195.684 217.865 195.77 217.871 195.832 217.897C195.894 217.923 195.923 217.973 195.938 218.007C195.97 218.068 195.973 218.147 195.938 218.239C195.87 218.419 195.671 218.662 195.385 218.951C194.817 219.526 193.858 220.317 192.705 221.279C190.429 223.179 187.339 225.788 184.941 228.866C183.776 230.362 182.803 231.971 182.133 233.65H175.262C175.991 231.816 177.218 230.068 178.708 228.466C180.182 226.88 181.913 225.436 183.685 224.158C185.458 222.88 187.264 221.77 188.918 220.856C190.6 219.927 192.102 219.207 193.258 218.702C193.844 218.445 194.325 218.25 194.704 218.111C194.898 218.04 195.06 217.988 195.193 217.949C195.279 217.913 195.381 217.908 195.448 217.897C195.515 217.886 195.554 217.872 195.619 217.868L195.619 217.868Z" fill="#00892C"/>
<path fill-rule="evenodd" clip-rule="evenodd" d="M224.786 220.061C225.147 220.094 225.021 220.493 224.555 221.187C224.088 221.881 223.288 222.872 222.354 224.097C221.419 225.321 220.356 226.775 219.549 228.398C218.874 229.755 218.381 231.23 218.306 232.777H212.679C212.834 231.134 213.52 229.583 214.472 228.176C215.603 226.503 217.085 225.03 218.537 223.816C219.988 222.603 221.405 221.652 222.513 221.008C223.621 220.364 224.424 220.028 224.786 220.061L224.786 220.061Z" fill="#00892C"/>
<path fill-rule="evenodd" clip-rule="evenodd" d="M83.1252 219.848C83.5452 219.848 83.9393 220.169 84.3237 220.739C84.7081 221.308 85.0909 222.128 85.4652 223.147C85.8395 224.166 86.1954 225.381 86.4735 226.737C86.7516 228.093 86.9441 229.591 86.835 231.171C86.8318 231.223 86.8203 231.274 86.816 231.326C86.7958 231.599 86.7604 231.871 86.7208 232.139H80.6329C80.665 231.858 80.704 231.576 80.7281 231.29C80.7319 231.239 80.7435 231.191 80.7471 231.14C80.8565 229.599 80.8504 228.122 80.8802 226.773C80.9101 225.425 80.9702 224.206 81.1466 223.178C81.3229 222.151 81.6019 221.319 81.9456 220.744C82.2894 220.169 82.7051 219.848 83.1251 219.848L83.1252 219.848Z" fill="#00892C"/>
<path fill-rule="evenodd" clip-rule="evenodd" d="M125.023 220.952C125.397 220.983 125.367 221.328 125.112 221.923C124.857 222.519 124.372 223.366 123.869 224.412C123.366 225.459 122.858 226.708 122.449 228.1C122.089 229.327 121.818 230.67 121.615 232.078H115.934C116.168 230.618 116.607 229.219 117.248 227.946C117.964 226.521 118.916 225.25 119.946 224.2C120.977 223.15 122.081 222.321 123 221.764C123.918 221.207 124.65 220.92 125.023 220.952L125.023 220.952Z" fill="#00892C"/>
<path fill-rule="evenodd" clip-rule="evenodd" d="M217.759 233.876C217.775 233.532 217.781 233.188 217.759 232.838C217.741 232.593 217.698 232.344 217.658 232.096C217.417 230.572 216.751 229.107 215.613 227.766C214.474 226.426 212.873 225.208 210.92 224.146C209.138 223.161 207.069 222.31 204.984 221.607C202.899 220.905 200.79 220.353 198.928 219.92C194.72 219.156 192.31 218.632 192.531 218.484C192.765 218.339 195.644 218.589 200.633 219.172C202.923 219.537 205.54 220.059 208.173 220.767C210.806 221.474 213.441 222.37 215.733 223.442C218.146 224.584 220.162 225.908 221.589 227.362C223.015 228.816 223.861 230.398 224.095 232.025C224.134 232.29 224.148 232.556 224.156 232.817C224.168 233.175 224.149 233.525 224.116 233.876H217.758L217.759 233.876Z" fill="#00892C"/>
<path fill-rule="evenodd" clip-rule="evenodd" d="M238.672 233.876C238.808 233.535 238.96 233.194 239.073 232.849C239.748 230.804 239.962 228.819 239.769 226.946C239.544 224.752 238.751 222.71 237.683 220.889C236.616 219.069 235.284 217.474 234.047 216.15C232.809 214.826 231.688 213.772 230.999 213.035C230.31 212.297 230.05 211.875 230.491 211.819C230.932 211.763 232.028 212.078 233.539 212.736C235.05 213.394 236.989 214.396 238.967 215.706C240.945 217.016 242.943 218.637 244.581 220.518C246.219 222.399 247.477 224.539 247.977 226.851C248.401 228.822 248.307 230.915 247.603 233.061C247.513 233.335 247.416 233.605 247.308 233.876H238.672L238.672 233.876Z" fill="#00892C"/>
<path fill-rule="evenodd" clip-rule="evenodd" d="M256.904 233.876C258.617 232.436 260.388 231.065 262.018 229.781C263.773 228.397 265.359 227.105 266.65 225.921C267.403 225.228 268.062 224.575 268.595 223.966C269.129 223.357 269.533 222.794 269.839 222.279C270.138 221.769 270.333 221.306 270.46 220.903C270.588 220.499 270.642 220.156 270.681 219.871C270.72 219.586 270.757 219.36 270.821 219.205C270.885 219.05 270.986 218.964 271.162 218.954C271.338 218.943 271.586 219.008 271.864 219.15C272.142 219.292 272.456 219.514 272.746 219.805C273.037 220.097 273.293 220.46 273.468 220.892C273.644 221.324 273.721 221.821 273.669 222.372C273.619 222.928 273.451 223.54 273.127 224.195C272.804 224.85 272.336 225.551 271.744 226.281C270.733 227.528 269.381 228.876 267.793 230.294C266.505 231.444 265.049 232.646 263.602 233.876H256.904L256.904 233.876Z" fill="#00892C"/>
<path fill-rule="evenodd" clip-rule="evenodd" d="M351.16 233.876C351.123 233.618 351.073 233.364 351.04 233.103C351.036 233.077 351.043 233.05 351.04 233.024C350.768 230.822 350.639 228.721 350.486 226.8C350.333 224.878 350.139 223.137 349.861 221.676C349.582 220.215 349.222 219.035 348.778 218.217C348.333 217.399 347.817 216.946 347.286 216.946C346.754 216.946 346.246 217.396 345.77 218.21C345.293 219.024 344.84 220.2 344.422 221.656C344.004 223.113 343.623 224.852 343.387 226.787C343.151 228.721 343.066 230.852 343.339 233.096C343.342 233.122 343.336 233.148 343.339 233.175C343.368 233.411 343.422 233.642 343.459 233.876H351.16L351.16 233.876Z" fill="#00892C"/>
<path fill-rule="evenodd" clip-rule="evenodd" d="M331.004 233.876C330.841 232.774 330.496 231.716 329.964 230.748C329.318 229.574 328.412 228.53 327.405 227.678C326.398 226.825 325.307 226.164 324.4 225.727C323.493 225.289 322.787 225.074 322.452 225.111C322.117 225.148 322.184 225.435 322.485 225.916C322.786 226.396 323.3 227.073 323.806 227.916C324.311 228.759 324.798 229.768 325.143 230.9C325.423 231.82 325.601 232.824 325.721 233.876H331.004L331.004 233.876Z" fill="#00892C"/>
<path fill-rule="evenodd" clip-rule="evenodd" d="M372.395 216.048C372.196 216.047 371.874 216.115 371.452 216.255C370.97 216.415 370.358 216.671 369.687 217.014C369.017 217.357 368.292 217.789 367.602 218.313C366.911 218.837 366.261 219.454 365.757 220.148C365.295 220.784 364.965 221.484 364.794 222.239C364.623 222.994 364.62 223.803 364.814 224.647C365.104 225.893 365.772 227.219 366.82 228.589C367.867 229.959 369.289 231.373 370.911 232.804C371.241 233.096 371.576 233.381 371.913 233.667C372.045 233.779 372.181 233.888 372.314 234H379.013C378.675 233.713 378.345 233.433 378.01 233.142C377.686 232.86 377.37 232.577 377.047 232.291C375.464 230.886 374.035 229.52 372.896 228.218C371.757 226.915 370.915 225.677 370.41 224.51C370.066 223.723 369.863 222.969 369.808 222.266C369.753 221.564 369.846 220.911 370.029 220.312C370.423 219.007 371.278 217.962 371.894 217.238C372.201 216.876 372.438 216.591 372.555 216.391C372.672 216.191 372.662 216.077 372.475 216.053C372.452 216.05 372.423 216.047 372.395 216.047L372.395 216.048Z" fill="#00892C"/>
<path fill-rule="evenodd" clip-rule="evenodd" d="M296.145 216.172C296.218 216.168 296.315 216.175 296.385 216.204C296.456 216.233 296.489 216.29 296.506 216.329C296.542 216.398 296.545 216.487 296.506 216.59C296.428 216.794 296.204 217.068 295.881 217.395C295.239 218.045 294.155 218.938 292.853 220.025C290.282 222.171 286.791 225.119 284.082 228.596C282.766 230.286 281.667 232.103 280.91 234H273.148C273.972 231.928 275.358 229.954 277.041 228.144C278.706 226.352 280.662 224.72 282.664 223.277C284.666 221.833 286.707 220.579 288.575 219.547C290.475 218.498 292.172 217.684 293.477 217.114C294.14 216.824 294.683 216.603 295.111 216.446C295.33 216.365 295.514 216.307 295.664 216.263C295.762 216.222 295.877 216.217 295.953 216.204C296.028 216.192 296.072 216.175 296.145 216.171L296.145 216.172Z" fill="#00892C"/>
<path fill-rule="evenodd" clip-rule="evenodd" d="M310.25 219.635C310.658 219.672 310.516 220.123 309.989 220.907C309.463 221.69 308.558 222.81 307.503 224.194C306.448 225.577 305.246 227.219 304.334 229.053C303.572 230.585 303.015 232.252 302.931 233.999H296.573C296.748 232.144 297.524 230.391 298.599 228.802C299.877 226.912 301.552 225.248 303.191 223.877C304.831 222.506 306.432 221.432 307.683 220.704C308.935 219.977 309.842 219.597 310.25 219.634V219.635Z" fill="#00892C"/>
<path fill-rule="evenodd" clip-rule="evenodd" d="M390.19 219.986C389.715 219.986 389.27 220.349 388.836 220.992C388.401 221.636 387.969 222.562 387.546 223.713C387.123 224.864 386.721 226.236 386.407 227.768C386.093 229.3 385.876 230.992 385.999 232.777C386.003 232.836 386.015 232.893 386.02 232.952C386.043 233.26 386.083 233.568 386.128 233.871H393.005C392.969 233.554 392.925 233.235 392.898 232.911C392.893 232.854 392.88 232.8 392.876 232.742C392.753 231.002 392.759 229.332 392.726 227.809C392.692 226.286 392.624 224.909 392.425 223.748C392.226 222.588 391.91 221.648 391.522 220.998C391.134 220.348 390.664 219.986 390.19 219.986L390.19 219.986Z" fill="#00892C"/>
<path fill-rule="evenodd" clip-rule="evenodd" d="M396.498 221.431C396.076 221.466 396.109 221.856 396.398 222.528C396.686 223.201 397.233 224.158 397.801 225.34C398.37 226.522 398.944 227.933 399.406 229.506C399.812 230.892 400.119 232.409 400.348 234H406.765C406.501 232.351 406.005 230.77 405.281 229.331C404.472 227.722 403.397 226.286 402.233 225.1C401.069 223.914 399.821 222.977 398.784 222.348C397.747 221.719 396.92 221.395 396.498 221.431L396.498 221.431Z" fill="#00892C"/>
<path fill-rule="evenodd" clip-rule="evenodd" d="M217.759 233.876C217.775 233.532 217.781 233.188 217.759 232.838C217.741 232.593 217.698 232.344 217.658 232.096C217.417 230.572 216.751 229.107 215.613 227.766C214.474 226.426 212.873 225.208 210.92 224.146C209.138 223.161 207.069 222.31 204.984 221.607C202.899 220.905 200.79 220.353 198.928 219.92C194.72 219.156 192.31 218.632 192.531 218.484C192.765 218.339 195.644 218.589 200.633 219.172C202.923 219.537 205.54 220.059 208.173 220.767C210.806 221.474 213.441 222.37 215.733 223.442C218.146 224.584 220.162 225.908 221.589 227.362C223.015 228.816 223.861 230.398 224.095 232.025C224.134 232.29 224.148 232.556 224.156 232.817C224.168 233.175 224.149 233.525 224.116 233.876H217.758L217.759 233.876Z" fill="#00892C"/>
<path fill-rule="evenodd" clip-rule="evenodd" d="M238.672 233.876C238.808 233.535 238.96 233.194 239.073 232.849C239.748 230.804 239.962 228.819 239.769 226.946C239.544 224.752 238.751 222.71 237.683 220.889C236.616 219.069 235.284 217.474 234.047 216.15C232.809 214.826 231.688 213.772 230.999 213.035C230.31 212.297 230.05 211.875 230.491 211.819C230.932 211.763 232.028 212.078 233.539 212.736C235.05 213.394 236.989 214.396 238.967 215.706C240.945 217.016 242.943 218.637 244.581 220.518C246.219 222.399 247.477 224.539 247.977 226.851C248.401 228.822 248.307 230.915 247.603 233.061C247.513 233.335 247.416 233.605 247.308 233.876H238.672L238.672 233.876Z" fill="#00892C"/>
<path fill-rule="evenodd" clip-rule="evenodd" d="M256.904 233.876C258.617 232.436 260.388 231.065 262.018 229.781C263.773 228.397 265.359 227.105 266.65 225.921C267.403 225.228 268.062 224.575 268.595 223.966C269.129 223.357 269.533 222.794 269.839 222.279C270.138 221.769 270.333 221.306 270.46 220.903C270.588 220.499 270.642 220.156 270.681 219.871C270.72 219.586 270.757 219.36 270.821 219.205C270.885 219.05 270.986 218.964 271.162 218.954C271.338 218.943 271.586 219.008 271.864 219.15C272.142 219.292 272.456 219.514 272.746 219.805C273.037 220.097 273.293 220.46 273.468 220.892C273.644 221.324 273.721 221.821 273.669 222.372C273.619 222.928 273.451 223.54 273.127 224.195C272.804 224.85 272.336 225.551 271.744 226.281C270.733 227.528 269.381 228.876 267.793 230.294C266.505 231.444 265.049 232.646 263.602 233.876H256.904L256.904 233.876Z" fill="#00892C"/>
<path fill-rule="evenodd" clip-rule="evenodd" d="M351.16 233.876C351.123 233.618 351.073 233.364 351.04 233.103C351.036 233.077 351.043 233.05 351.04 233.024C350.768 230.822 350.639 228.721 350.486 226.8C350.333 224.878 350.139 223.137 349.861 221.676C349.582 220.215 349.222 219.035 348.778 218.217C348.333 217.399 347.817 216.946 347.286 216.946C346.754 216.946 346.246 217.396 345.77 218.21C345.293 219.024 344.84 220.2 344.422 221.656C344.004 223.113 343.623 224.852 343.387 226.787C343.151 228.721 343.066 230.852 343.339 233.096C343.342 233.122 343.336 233.148 343.339 233.175C343.368 233.411 343.422 233.642 343.459 233.876H351.16L351.16 233.876Z" fill="#00892C"/>
<path fill-rule="evenodd" clip-rule="evenodd" d="M331.004 233.876C330.841 232.774 330.496 231.716 329.964 230.748C329.318 229.574 328.412 228.53 327.405 227.678C326.398 226.825 325.307 226.164 324.4 225.727C323.493 225.289 322.787 225.074 322.452 225.111C322.117 225.148 322.184 225.435 322.485 225.916C322.786 226.396 323.3 227.073 323.806 227.916C324.311 228.759 324.798 229.768 325.143 230.9C325.423 231.82 325.601 232.824 325.721 233.876H331.004L331.004 233.876Z" fill="#00892C"/>
<path fill-rule="evenodd" clip-rule="evenodd" d="M372.395 216.048C372.196 216.047 371.874 216.115 371.452 216.255C370.97 216.415 370.358 216.671 369.687 217.014C369.017 217.357 368.292 217.789 367.602 218.313C366.911 218.837 366.261 219.454 365.757 220.148C365.295 220.784 364.965 221.484 364.794 222.239C364.623 222.994 364.62 223.803 364.814 224.647C365.104 225.893 365.772 227.219 366.82 228.589C367.867 229.959 369.289 231.373 370.911 232.804C371.241 233.096 371.576 233.381 371.913 233.667C372.045 233.779 372.181 233.888 372.314 234H379.013C378.675 233.713 378.345 233.433 378.01 233.142C377.686 232.86 377.37 232.577 377.047 232.291C375.464 230.886 374.035 229.52 372.896 228.218C371.757 226.915 370.915 225.677 370.41 224.51C370.066 223.723 369.863 222.969 369.808 222.266C369.753 221.564 369.846 220.911 370.029 220.312C370.423 219.007 371.278 217.962 371.894 217.238C372.201 216.876 372.438 216.591 372.555 216.391C372.672 216.191 372.662 216.077 372.475 216.053C372.452 216.05 372.423 216.047 372.395 216.047L372.395 216.048Z" fill="#00892C"/>
<path fill-rule="evenodd" clip-rule="evenodd" d="M296.145 216.172C296.218 216.168 296.315 216.175 296.385 216.204C296.456 216.233 296.489 216.29 296.506 216.329C296.542 216.398 296.545 216.487 296.506 216.59C296.428 216.794 296.204 217.068 295.881 217.395C295.239 218.045 294.155 218.938 292.853 220.025C290.282 222.171 286.791 225.119 284.082 228.596C282.766 230.286 281.667 232.103 280.91 234H273.148C273.972 231.928 275.358 229.954 277.041 228.144C278.706 226.352 280.662 224.72 282.664 223.277C284.666 221.833 286.707 220.579 288.575 219.547C290.475 218.498 292.172 217.684 293.477 217.114C294.14 216.824 294.683 216.603 295.111 216.446C295.33 216.365 295.514 216.307 295.664 216.263C295.762 216.222 295.877 216.217 295.953 216.204C296.028 216.192 296.072 216.175 296.145 216.171L296.145 216.172Z" fill="#00892C"/>
<path fill-rule="evenodd" clip-rule="evenodd" d="M310.25 219.635C310.658 219.672 310.516 220.123 309.989 220.907C309.463 221.69 308.558 222.81 307.503 224.194C306.448 225.577 305.246 227.219 304.334 229.053C303.572 230.585 303.015 232.252 302.931 233.999H296.573C296.748 232.144 297.524 230.391 298.599 228.802C299.877 226.912 301.552 225.248 303.191 223.877C304.831 222.506 306.432 221.432 307.683 220.704C308.935 219.977 309.842 219.597 310.25 219.634V219.635Z" fill="#00892C"/>
<path fill-rule="evenodd" clip-rule="evenodd" d="M390.19 219.986C389.715 219.986 389.27 220.349 388.836 220.992C388.401 221.636 387.969 222.562 387.546 223.713C387.123 224.864 386.721 226.236 386.407 227.768C386.093 229.3 385.876 230.992 385.999 232.777C386.003 232.836 386.015 232.893 386.02 232.952C386.043 233.26 386.083 233.568 386.128 233.871H393.005C392.969 233.554 392.925 233.235 392.898 232.911C392.893 232.854 392.88 232.8 392.876 232.742C392.753 231.002 392.759 229.332 392.726 227.809C392.692 226.286 392.624 224.909 392.425 223.748C392.226 222.588 391.91 221.648 391.522 220.998C391.134 220.348 390.664 219.986 390.19 219.986L390.19 219.986Z" fill="#00892C"/>
<path fill-rule="evenodd" clip-rule="evenodd" d="M396.498 221.431C396.076 221.466 396.109 221.856 396.398 222.528C396.686 223.201 397.233 224.158 397.801 225.34C398.37 226.522 398.944 227.933 399.406 229.506C399.812 230.892 400.119 232.409 400.348 234H406.765C406.501 232.351 406.005 230.77 405.281 229.331C404.472 227.722 403.397 226.286 402.233 225.1C401.069 223.914 399.821 222.977 398.784 222.348C397.747 221.719 396.92 221.395 396.498 221.431L396.498 221.431Z" fill="#00892C"/>
<path fill-rule="evenodd" clip-rule="evenodd" d="M222.931 232.125C222.948 231.772 222.954 231.419 222.931 231.06C222.913 230.808 222.868 230.552 222.828 230.297C222.58 228.732 221.897 227.228 220.727 225.851C219.558 224.474 217.914 223.224 215.908 222.133C214.078 221.121 211.954 220.247 209.812 219.526C207.671 218.805 205.504 218.238 203.593 217.793C199.271 217.009 196.796 216.47 197.023 216.319C197.263 216.169 200.22 216.426 205.343 217.025C207.695 217.399 210.383 217.936 213.087 218.662C215.791 219.389 218.497 220.31 220.851 221.41C223.329 222.583 225.4 223.942 226.865 225.436C228.33 226.929 229.198 228.553 229.439 230.224C229.478 230.496 229.493 230.769 229.501 231.037C229.514 231.405 229.494 231.765 229.46 232.125H222.932L222.931 232.125Z" fill="#00892C"/>
<path fill-rule="evenodd" clip-rule="evenodd" d="M242.362 232.125C242.531 231.727 242.719 231.328 242.86 230.925C243.698 228.533 243.964 226.211 243.723 224.02C243.445 221.456 242.459 219.066 241.134 216.937C239.809 214.808 238.157 212.943 236.62 211.395C235.084 209.847 233.692 208.614 232.837 207.751C231.982 206.889 231.659 206.395 232.206 206.33C232.753 206.264 234.114 206.633 235.99 207.402C237.866 208.172 240.272 209.344 242.727 210.876C245.183 212.408 247.664 214.303 249.697 216.503C251.73 218.703 253.292 221.205 253.912 223.91C254.439 226.215 254.322 228.662 253.448 231.172C253.336 231.492 253.216 231.808 253.082 232.125H242.362L242.362 232.125Z" fill="#00892C"/>
<path fill-rule="evenodd" clip-rule="evenodd" d="M263.135 232.125C264.895 230.647 266.714 229.239 268.387 227.92C270.189 226.498 271.818 225.172 273.144 223.956C273.917 223.245 274.593 222.573 275.141 221.948C275.69 221.323 276.104 220.745 276.418 220.216C276.726 219.693 276.926 219.217 277.057 218.803C277.188 218.388 277.243 218.036 277.283 217.743C277.323 217.45 277.362 217.218 277.427 217.059C277.493 216.9 277.596 216.812 277.778 216.801C277.959 216.79 278.213 216.857 278.498 217.003C278.783 217.149 279.106 217.376 279.405 217.676C279.703 217.975 279.965 218.348 280.146 218.792C280.326 219.235 280.406 219.746 280.352 220.311C280.3 220.882 280.128 221.511 279.796 222.184C279.464 222.856 278.983 223.577 278.375 224.326C277.337 225.606 275.948 226.991 274.318 228.447C272.995 229.628 271.5 230.862 270.013 232.125H263.135L263.135 232.125Z" fill="#00892C"/>
<path fill-rule="evenodd" clip-rule="evenodd" d="M344.172 232.125C344.133 231.861 344.082 231.599 344.048 231.331C344.044 231.305 344.051 231.277 344.048 231.25C343.769 228.989 343.637 226.832 343.48 224.858C343.322 222.885 343.123 221.097 342.837 219.597C342.551 218.097 342.182 216.884 341.725 216.044C341.269 215.204 340.739 214.739 340.193 214.739C339.647 214.739 339.126 215.201 338.636 216.037C338.146 216.873 337.682 218.081 337.252 219.577C336.822 221.072 336.432 222.859 336.189 224.845C335.947 226.831 335.859 229.021 336.14 231.325C336.143 231.352 336.137 231.378 336.14 231.405C336.17 231.648 336.225 231.885 336.263 232.125H344.171L344.172 232.125Z" fill="#00892C"/>
<path fill-rule="evenodd" clip-rule="evenodd" d="M323.476 232.125C323.31 230.993 322.955 229.907 322.408 228.912C321.746 227.707 320.814 226.635 319.78 225.76C318.746 224.885 317.626 224.206 316.695 223.756C315.763 223.307 315.038 223.086 314.694 223.124C314.35 223.162 314.419 223.457 314.728 223.95C315.037 224.444 315.565 225.139 316.084 226.005C316.604 226.87 317.103 227.907 317.458 229.069C317.746 230.013 317.928 231.045 318.051 232.125H323.476L323.476 232.125Z" fill="#00892C"/>
<path fill-rule="evenodd" clip-rule="evenodd" d="M381.738 213.816C381.534 213.816 381.203 213.885 380.77 214.029C380.275 214.194 379.647 214.456 378.958 214.809C378.269 215.161 377.525 215.605 376.816 216.143C376.107 216.681 375.439 217.315 374.921 218.027C374.447 218.681 374.109 219.4 373.933 220.175C373.757 220.95 373.754 221.78 373.953 222.648C374.251 223.928 374.937 225.289 376.013 226.696C377.089 228.103 378.549 229.555 380.214 231.025C380.554 231.324 380.897 231.617 381.244 231.911C381.379 232.026 381.519 232.138 381.656 232.253H388.534C388.188 231.958 387.849 231.671 387.505 231.372C387.172 231.082 386.848 230.792 386.516 230.498C384.89 229.055 383.423 227.652 382.253 226.315C381.083 224.977 380.218 223.705 379.699 222.507C379.347 221.699 379.138 220.924 379.082 220.203C379.025 219.481 379.121 218.811 379.308 218.195C379.713 216.855 380.591 215.782 381.223 215.039C381.54 214.667 381.783 214.375 381.903 214.17C382.023 213.964 382.012 213.847 381.821 213.822C381.797 213.819 381.767 213.816 381.738 213.816L381.738 213.816Z" fill="#00892C"/>
<path fill-rule="evenodd" clip-rule="evenodd" d="M348.42 213.944C348.345 213.94 348.245 213.948 348.173 213.978C348.101 214.007 348.067 214.065 348.05 214.105C348.013 214.176 348.01 214.268 348.05 214.374C348.129 214.583 348.36 214.865 348.691 215.2C349.351 215.868 350.463 216.784 351.801 217.901C354.441 220.105 358.026 223.132 360.808 226.703C362.159 228.439 363.288 230.305 364.065 232.253H372.036C371.191 230.125 369.767 228.098 368.038 226.239C366.329 224.399 364.32 222.723 362.264 221.241C360.208 219.758 358.112 218.471 356.193 217.411C354.242 216.333 352.5 215.497 351.159 214.912C350.479 214.614 349.921 214.387 349.481 214.226C349.256 214.143 349.068 214.084 348.914 214.038C348.814 213.996 348.695 213.99 348.617 213.978C348.54 213.965 348.495 213.948 348.42 213.944L348.42 213.944Z" fill="#00892C"/>
<path fill-rule="evenodd" clip-rule="evenodd" d="M302.165 217.5C302.583 217.538 302.438 218.001 301.897 218.806C301.356 219.611 300.427 220.761 299.343 222.182C298.259 223.602 297.025 225.289 296.089 227.172C295.307 228.746 294.734 230.457 294.647 232.252H288.119C288.299 230.346 289.095 228.546 290.199 226.914C291.512 224.974 293.232 223.264 294.915 221.856C296.599 220.449 298.243 219.346 299.529 218.599C300.814 217.852 301.746 217.461 302.165 217.5L302.165 217.5Z" fill="#00892C"/>
<path fill-rule="evenodd" clip-rule="evenodd" d="M400.014 217.861C399.527 217.861 399.07 218.234 398.624 218.895C398.178 219.556 397.734 220.507 397.3 221.689C396.865 222.871 396.453 224.28 396.13 225.853C395.807 227.427 395.584 229.164 395.711 230.997C395.714 231.058 395.728 231.117 395.733 231.178C395.756 231.494 395.797 231.809 395.843 232.121H402.906C402.869 231.795 402.823 231.468 402.795 231.135C402.791 231.076 402.778 231.021 402.773 230.961C402.647 229.174 402.654 227.46 402.619 225.895C402.584 224.331 402.515 222.917 402.31 221.725C402.105 220.533 401.782 219.568 401.383 218.901C400.984 218.234 400.502 217.861 400.015 217.861L400.014 217.861Z" fill="#00892C"/>
<path fill-rule="evenodd" clip-rule="evenodd" d="M406.49 219.345C406.056 219.381 406.09 219.781 406.387 220.472C406.683 221.162 407.245 222.145 407.828 223.359C408.412 224.573 409.002 226.022 409.476 227.637C409.893 229.061 410.208 230.619 410.444 232.252H417.034C416.763 230.559 416.253 228.936 415.51 227.458C414.679 225.806 413.575 224.331 412.38 223.112C411.185 221.894 409.903 220.933 408.838 220.286C407.773 219.64 406.923 219.308 406.49 219.344L406.49 219.345Z" fill="#00892C"/>
<path fill-rule="evenodd" clip-rule="evenodd" d="M235.823 232.667C235.838 232.363 235.843 232.058 235.823 231.748C235.808 231.531 235.769 231.311 235.734 231.091C235.521 229.742 234.932 228.445 233.924 227.258C232.916 226.072 231.498 224.994 229.77 224.054C228.192 223.181 226.361 222.428 224.515 221.806C222.67 221.185 220.802 220.696 219.154 220.313C215.429 219.636 213.296 219.173 213.491 219.042C213.698 218.913 216.247 219.134 220.663 219.651C222.69 219.973 225.007 220.436 227.338 221.062C229.669 221.688 232.001 222.482 234.03 223.43C236.166 224.441 237.951 225.614 239.214 226.901C240.477 228.188 241.225 229.588 241.433 231.028C241.467 231.263 241.479 231.498 241.486 231.729C241.497 232.046 241.48 232.356 241.451 232.667H235.823V232.667Z" fill="#00892C"/>
<path fill-rule="evenodd" clip-rule="evenodd" d="M254.979 232.667C255.099 232.365 255.233 232.064 255.334 231.758C255.931 229.948 256.12 228.19 255.949 226.532C255.75 224.591 255.048 222.782 254.103 221.171C253.158 219.559 251.979 218.148 250.884 216.976C249.789 215.804 248.796 214.871 248.186 214.218C247.576 213.565 247.346 213.191 247.736 213.142C248.126 213.092 249.096 213.371 250.434 213.954C251.772 214.536 253.488 215.423 255.239 216.583C256.99 217.742 258.759 219.177 260.209 220.842C261.659 222.507 262.773 224.402 263.215 226.448C263.591 228.193 263.507 230.046 262.884 231.945C262.804 232.188 262.719 232.427 262.623 232.667H254.978L254.979 232.667Z" fill="#00892C"/>
<path fill-rule="evenodd" clip-rule="evenodd" d="M270.476 232.667C271.993 231.393 273.561 230.179 275.003 229.042C276.557 227.817 277.961 226.674 279.104 225.625C279.77 225.012 280.353 224.433 280.826 223.894C281.298 223.356 281.656 222.857 281.926 222.401C282.191 221.95 282.364 221.54 282.477 221.183C282.589 220.826 282.637 220.522 282.672 220.27C282.706 220.017 282.739 219.817 282.796 219.68C282.853 219.543 282.942 219.467 283.098 219.458C283.254 219.448 283.473 219.506 283.719 219.632C283.965 219.757 284.243 219.953 284.5 220.212C284.758 220.47 284.984 220.791 285.139 221.173C285.295 221.556 285.363 221.996 285.317 222.483C285.273 222.976 285.124 223.518 284.838 224.097C284.551 224.677 284.137 225.298 283.613 225.944C282.718 227.048 281.521 228.241 280.115 229.496C278.976 230.514 277.687 231.578 276.405 232.667H270.476L270.476 232.667Z" fill="#00892C"/>
<path fill-rule="evenodd" clip-rule="evenodd" d="M340.809 232.667C340.776 232.439 340.732 232.213 340.703 231.982C340.699 231.96 340.705 231.936 340.703 231.913C340.462 229.964 340.348 228.104 340.213 226.403C340.077 224.702 339.905 223.16 339.659 221.867C339.412 220.574 339.094 219.529 338.7 218.805C338.307 218.081 337.85 217.68 337.379 217.68C336.909 217.68 336.459 218.079 336.037 218.799C335.615 219.52 335.215 220.561 334.845 221.85C334.474 223.139 334.137 224.679 333.929 226.391C333.72 228.103 333.644 229.991 333.886 231.977C333.888 232 333.883 232.023 333.886 232.046C333.912 232.255 333.959 232.46 333.992 232.667H340.809L340.809 232.667Z" fill="#00892C"/>
<path fill-rule="evenodd" clip-rule="evenodd" d="M322.969 232.667C322.826 231.691 322.52 230.755 322.049 229.897C321.478 228.859 320.675 227.934 319.783 227.18C318.892 226.426 317.927 225.84 317.124 225.453C316.321 225.066 315.695 224.875 315.399 224.908C315.103 224.941 315.162 225.195 315.428 225.62C315.695 226.046 316.15 226.644 316.597 227.391C317.045 228.137 317.475 229.03 317.781 230.033C318.029 230.846 318.186 231.735 318.293 232.667H322.969H322.969Z" fill="#00892C"/>
<path fill-rule="evenodd" clip-rule="evenodd" d="M372.709 216.884C372.533 216.884 372.248 216.944 371.875 217.068C371.448 217.21 370.906 217.436 370.313 217.74C369.719 218.044 369.077 218.426 368.466 218.89C367.855 219.354 367.279 219.9 366.833 220.514C366.424 221.077 366.133 221.697 365.981 222.365C365.829 223.033 365.827 223.749 365.999 224.497C366.255 225.6 366.847 226.773 367.774 227.986C368.701 229.199 369.96 230.451 371.395 231.718C371.688 231.976 371.984 232.228 372.283 232.481C372.4 232.581 372.52 232.677 372.638 232.776H378.567C378.268 232.522 377.976 232.275 377.679 232.017C377.392 231.767 377.113 231.517 376.827 231.263C375.426 230.02 374.161 228.811 373.153 227.658C372.144 226.505 371.399 225.408 370.951 224.376C370.648 223.679 370.467 223.011 370.419 222.39C370.37 221.768 370.453 221.19 370.614 220.659C370.963 219.504 371.72 218.579 372.265 217.938C372.538 217.618 372.747 217.366 372.851 217.189C372.955 217.012 372.945 216.911 372.78 216.889C372.759 216.887 372.734 216.885 372.709 216.885L372.709 216.884Z" fill="#00892C"/>
<path fill-rule="evenodd" clip-rule="evenodd" d="M343.992 216.995C343.928 216.991 343.841 216.998 343.779 217.024C343.717 217.049 343.688 217.099 343.673 217.134C343.641 217.195 343.638 217.274 343.673 217.365C343.741 217.546 343.94 217.788 344.226 218.078C344.795 218.653 345.753 219.443 346.906 220.406C349.182 222.305 352.272 224.915 354.67 227.992C355.835 229.489 356.808 231.097 357.478 232.776H364.349C363.62 230.942 362.393 229.195 360.903 227.593C359.43 226.007 357.698 224.562 355.926 223.284C354.153 222.006 352.347 220.896 350.693 219.983C349.011 219.054 347.51 218.333 346.354 217.828C345.767 217.572 345.286 217.377 344.907 217.238C344.714 217.166 344.551 217.115 344.418 217.076C344.332 217.039 344.23 217.034 344.163 217.023C344.096 217.012 344.057 216.998 343.993 216.994L343.992 216.995Z" fill="#00892C"/>
<path fill-rule="evenodd" clip-rule="evenodd" d="M304.59 220.061C304.951 220.094 304.826 220.493 304.359 221.187C303.893 221.881 303.092 222.872 302.158 224.097C301.224 225.321 300.161 226.775 299.353 228.398C298.679 229.755 298.186 231.23 298.111 232.777H292.483C292.638 231.134 293.324 229.583 294.276 228.176C295.408 226.503 296.89 225.03 298.341 223.816C299.793 222.603 301.21 221.652 302.318 221.008C303.426 220.364 304.229 220.028 304.59 220.061L304.59 220.061Z" fill="#00892C"/>
<path fill-rule="evenodd" clip-rule="evenodd" d="M388.463 220.372C388.043 220.372 387.649 220.693 387.265 221.263C386.88 221.832 386.498 222.653 386.123 223.671C385.749 224.69 385.393 225.905 385.115 227.261C384.837 228.617 384.644 230.115 384.754 231.695C384.757 231.747 384.768 231.798 384.773 231.85C384.793 232.123 384.828 232.395 384.868 232.663H390.956C390.924 232.383 390.885 232.1 390.861 231.814C390.857 231.763 390.845 231.715 390.842 231.664C390.732 230.124 390.738 228.646 390.708 227.297C390.678 225.949 390.618 224.73 390.442 223.702C390.266 222.675 389.987 221.843 389.643 221.268C389.299 220.693 388.884 220.372 388.463 220.372L388.463 220.372Z" fill="#00892C"/>
<path fill-rule="evenodd" clip-rule="evenodd" d="M394.046 221.651C393.673 221.682 393.702 222.027 393.958 222.622C394.213 223.218 394.697 224.065 395.2 225.111C395.703 226.158 396.212 227.406 396.62 228.799C396.98 230.026 397.252 231.369 397.455 232.777H403.135C402.902 231.317 402.462 229.918 401.822 228.644C401.106 227.22 400.154 225.949 399.123 224.899C398.093 223.849 396.988 223.02 396.07 222.463C395.152 221.906 394.42 221.619 394.046 221.651V221.651Z" fill="#00892C"/>
<path fill-rule="evenodd" clip-rule="evenodd" d="M308.473 232.667C308.593 232.365 308.727 232.064 308.828 231.758C309.425 229.948 309.614 228.19 309.443 226.532C309.244 224.591 308.542 222.782 307.597 221.171C306.652 219.559 305.473 218.148 304.378 216.976C303.283 215.804 302.29 214.871 301.68 214.218C301.07 213.565 300.84 213.191 301.23 213.142C301.62 213.092 302.59 213.371 303.928 213.954C305.266 214.536 306.982 215.423 308.733 216.583C310.484 217.742 312.253 219.177 313.703 220.842C315.153 222.507 316.267 224.402 316.709 226.448C317.085 228.193 317.001 230.046 316.378 231.945C316.298 232.188 316.213 232.427 316.117 232.667H308.472L308.473 232.667Z" fill="#00892C"/>
<path fill-rule="evenodd" clip-rule="evenodd" d="M331.228 216.884C331.052 216.884 330.767 216.944 330.394 217.068C329.967 217.21 329.425 217.436 328.832 217.74C328.238 218.044 327.596 218.426 326.985 218.89C326.374 219.354 325.799 219.9 325.352 220.514C324.943 221.077 324.652 221.697 324.5 222.365C324.348 223.033 324.346 223.749 324.518 224.497C324.774 225.6 325.366 226.773 326.293 227.986C327.22 229.199 328.479 230.451 329.914 231.718C330.207 231.976 330.503 232.228 330.802 232.481C330.919 232.581 331.039 232.677 331.157 232.776H337.086C336.787 232.522 336.495 232.275 336.198 232.017C335.911 231.767 335.632 231.517 335.346 231.263C333.945 230.02 332.68 228.811 331.672 227.658C330.663 226.505 329.918 225.408 329.471 224.376C329.167 223.679 328.986 223.011 328.938 222.39C328.89 221.768 328.972 221.19 329.133 220.659C329.482 219.504 330.239 218.579 330.784 217.938C331.057 217.618 331.266 217.366 331.37 217.189C331.474 217.012 331.464 216.911 331.299 216.889C331.278 216.887 331.253 216.885 331.228 216.885L331.228 216.884Z" fill="#00892C"/>
<path fill-rule="evenodd" clip-rule="evenodd" d="M388.136 217.868C388.201 217.865 388.287 217.871 388.349 217.897C388.411 217.923 388.44 217.973 388.455 218.007C388.487 218.068 388.49 218.147 388.455 218.239C388.387 218.419 388.188 218.662 387.902 218.951C387.334 219.526 386.375 220.317 385.222 221.279C382.946 223.179 379.856 225.788 377.458 228.866C376.293 230.362 375.32 231.971 374.65 233.65H367.779C368.508 231.816 369.735 230.068 371.225 228.466C372.699 226.88 374.43 225.436 376.202 224.158C377.975 222.88 379.781 221.77 381.435 220.856C383.117 219.927 384.619 219.207 385.774 218.702C386.361 218.445 386.842 218.25 387.221 218.111C387.415 218.04 387.577 217.988 387.71 217.949C387.796 217.913 387.898 217.908 387.965 217.897C388.032 217.886 388.071 217.872 388.136 217.868L388.136 217.868Z" fill="#00892C"/>
<path fill-rule="evenodd" clip-rule="evenodd" d="M417.303 220.061C417.664 220.094 417.538 220.493 417.072 221.187C416.605 221.881 415.805 222.872 414.871 224.097C413.936 225.321 412.873 226.775 412.066 228.398C411.391 229.755 410.898 231.23 410.823 232.777H405.196C405.351 231.134 406.037 229.583 406.989 228.176C408.12 226.503 409.602 225.03 411.054 223.816C412.505 222.603 413.922 221.652 415.03 221.008C416.138 220.364 416.941 220.028 417.303 220.061V220.061Z" fill="#00892C"/>
<path fill-rule="evenodd" clip-rule="evenodd" d="M360.459 219.848C360.039 219.848 359.644 220.169 359.26 220.739C358.876 221.308 358.493 222.128 358.119 223.147C357.744 224.166 357.388 225.381 357.11 226.737C356.832 228.093 356.64 229.591 356.749 231.171C356.752 231.223 356.764 231.274 356.768 231.326C356.788 231.599 356.823 231.871 356.863 232.139H362.951C362.919 231.858 362.88 231.576 362.856 231.29C362.852 231.239 362.84 231.191 362.837 231.14C362.727 229.599 362.733 228.122 362.704 226.773C362.674 225.425 362.614 224.206 362.437 223.178C362.261 222.151 361.982 221.319 361.638 220.744C361.294 220.169 360.879 219.848 360.459 219.848V219.848Z" fill="#00892C"/>
<path fill-rule="evenodd" clip-rule="evenodd" d="M318.554 220.952C318.181 220.983 318.21 221.328 318.465 221.923C318.721 222.519 319.205 223.366 319.708 224.412C320.211 225.459 320.72 226.708 321.128 228.1C321.488 229.327 321.759 230.67 321.962 232.078H327.643C327.409 230.618 326.97 229.219 326.329 227.946C325.613 226.521 324.662 225.25 323.631 224.2C322.601 223.15 321.496 222.321 320.578 221.764C319.66 221.207 318.927 220.92 318.554 220.952V220.952Z" fill="#00892C"/>
<path fill-rule="evenodd" clip-rule="evenodd" d="M55.4156 230.406C58.0976 230.551 62.4803 231.729 62.4906 230.234C78.4014 217.666 85.1947 204.164 79.8113 190.917C77.5149 182.104 82.2171 172.79 101.224 165.403C108.602 162.388 117.407 159.657 126.416 157C105.551 162.671 86.6829 169.393 80.5884 177.411C74.7604 184.04 76.7127 190.895 77.861 197.631C78.1393 208.797 70.0159 219.988 55.4161 230.406L55.4156 230.406Z" fill="#00892C"/>
<path fill-rule="evenodd" clip-rule="evenodd" d="M129.728 167.742C109.503 172.388 90.6776 178.049 82.615 185.231C79.9352 187.386 78.1473 189.596 76.8996 191.834C77.5953 191.939 78.2985 192.04 79.0119 192.135C82.1656 185.812 89.8782 179.647 104.785 174.776C112.28 172.208 120.925 169.939 129.729 167.741L129.728 167.742Z" fill="#00892C"/>
<path d="M121.265 160.195C122.789 159.631 122.347 158.838 120.279 158.423C118.21 158.008 115.298 158.129 113.773 158.692L95.3111 165.514C93.7869 166.077 94.2282 166.87 96.2968 167.285C98.3654 167.7 101.278 167.58 102.802 167.017L121.265 160.195Z" fill="#00892C"/>
<path d="M122.768 170.787C124.23 170.363 124.152 169.696 122.593 169.298C121.034 168.9 118.585 168.921 117.122 169.345L99.4057 174.487C97.9431 174.911 98.0211 175.578 99.5801 175.976C101.139 176.374 103.589 176.353 105.051 175.929L122.768 170.787Z" fill="#00892C"/>
<path d="M28.4568 200.344C28.4564 200.347 28.4662 200.351 28.4659 200.354C21.0649 201.395 14.4513 202.586 13.4585 203.257C15.967 203.56 23.6876 203.342 31.6809 202.876C38.1732 206.364 52.775 211.736 59.5869 212.207C62.5816 212.372 65.5851 212.54 68.4183 212.861L68.6167 212.876L68.767 212.884C69.2836 212.587 67.7692 210.524 68.2221 210.065C66.8655 207.818 35.9774 200.35 28.4571 200.344L28.4568 200.344Z" fill="#00892C"/>
<path d="M85.7781 204.818C87.5069 204.52 89.4177 204.317 91.3177 204.116C96.9518 203.432 107.938 196.753 106.856 195.361C101.915 195.597 84.7111 201.456 84.7529 202.975C85.2411 203.262 85.0994 204.665 85.5623 204.844L85.6588 204.835L85.7783 204.818L85.7781 204.818Z" fill="#00892C"/>
<path d="M62.2628 209.651C61.0884 209.73 59.9806 209.839 58.9539 209.973C64.3252 211.65 69.4012 213.437 73.5134 215.357C74.963 215.199 76.2647 214.996 77.3837 214.751C73.1046 212.908 67.9177 211.21 62.2634 209.651L62.2628 209.651Z" fill="#00892C"/>
<path d="M89.2652 202.313C90.2238 202.377 91.1281 202.466 91.9661 202.576C87.5817 203.944 83.4383 205.403 80.0821 206.97C78.8987 206.841 77.8363 206.676 76.9228 206.476C80.4157 204.971 84.6498 203.585 89.2651 202.313L89.2652 202.313Z" fill="#00892C"/>
<path fill-rule="evenodd" clip-rule="evenodd" d="M53.4445 172.331C48.0339 176.157 44.5026 180.023 45.3245 184.017C45.8194 190.252 54.1863 196.07 61.6424 201.848C72.4046 211.555 74.9169 221.944 70.342 232.167C73.1161 232.083 78.5272 232.767 77.1328 231.463C80.9773 219.263 74.9912 206.963 57.2533 195.845C46.9004 188.477 42.7394 180.158 53.7502 172.349C53.5069 172.314 53.6806 172.372 53.445 172.332L53.4445 172.331Z" fill="#00892C"/>
<path fill-rule="evenodd" clip-rule="evenodd" d="M84.5726 171.727C69.0438 177.365 55.8454 183.777 54.6615 190.668C54.0504 192.757 54.3677 194.823 55.2428 196.871C56.0249 196.907 56.8118 196.94 57.6027 196.967C54.7651 191.21 56.5601 185.232 66.6471 179.817C71.6067 176.991 77.9769 174.334 84.5721 171.727L84.5726 171.727Z" fill="#00892C"/>
<path d="M74.5409 180.31C73.9662 180.76 72.9715 181.207 70.924 181.851C66.6729 182.555 59.7599 183.214 60.3758 184.628C60.3292 184.648 60.3087 184.661 60.2804 184.676C59.4203 184.959 58.5849 185.249 57.7929 185.546C58.0503 185.635 58.3752 185.714 58.7495 185.778C59.4475 185.493 60.1919 185.214 60.9497 184.938C67.2726 184.85 69.0928 183.172 71.6925 182.069C74.043 181.486 75.6794 181.199 77.3307 181.031C76.0394 181.127 74.4067 181.322 72.6807 181.576C73.5628 181.105 74.2212 180.661 74.5411 180.31L74.5409 180.31Z" fill="#00892C"/>
<path d="M76.4289 193.301C76.4455 193.345 76.4531 193.385 76.4678 193.427C69.6252 195.256 68.1047 198.963 67.4954 202.202C66.9134 202.46 67.4985 203.261 68.1307 203.729C67.6201 204.115 67.1262 204.504 66.6787 204.899C67.1891 205.024 67.7828 205.128 68.4217 205.2C68.8653 204.75 69.358 204.308 69.8734 203.865C70.8248 203.762 71.258 203.437 72.5766 202.942C76.4784 199.851 80.4833 196.093 76.5951 193.423C76.6359 193.401 76.6713 193.382 76.7132 193.361C76.6611 193.374 76.6122 193.388 76.5607 193.402C76.5125 193.369 76.4796 193.333 76.429 193.301L76.4289 193.301ZM76.477 193.484C76.9614 194.954 76.2126 195.761 73.0522 198.384C73.6649 195.589 74.0385 194.771 76.477 193.484V193.484Z" fill="#00892C"/>
<path d="M60.9932 176.054C60.6101 176.55 59.7862 177.057 57.9554 177.808C53.8458 178.696 46.9255 179.624 48.2597 181.104C48.2205 181.126 48.2055 181.141 48.183 181.157C47.42 181.486 46.6861 181.821 46.0014 182.162C46.3142 182.248 46.6932 182.321 47.1164 182.377C47.7086 182.051 48.3523 181.731 49.0117 181.413C55.5913 181.109 56.6811 179.27 58.8659 178.014C61.044 177.318 62.6182 176.959 64.2659 176.726C62.9602 176.871 61.3452 177.132 59.6612 177.459C60.3555 176.93 60.8287 176.437 60.9929 176.054L60.9932 176.054Z" fill="#00892C"/>
<path d="M36.3898 172.54C37.6612 172.91 38.7149 173.385 39.9239 174.224C40.2369 175.65 39.0581 177.726 44.2734 178.277C44.3186 178.298 44.3537 178.31 44.3906 178.325C44.9422 178.683 45.5286 179.039 46.163 179.388C46.5993 179.367 47.038 179.325 47.4474 179.262C46.8081 178.943 46.2129 178.616 45.6358 178.287C48.4975 176.645 43.5897 175.347 41.0654 174.139C40.2209 173.254 40.0452 172.697 40.2879 172.196C39.9745 172.57 39.8337 173.08 39.8513 173.643C38.6581 173.185 37.4466 172.796 36.3898 172.54L36.3898 172.54Z" fill="#00892C"/>
<path d="M34.1872 183.938C35.956 184.264 37.5796 184.722 39.7183 185.577C41.4038 187.15 42.0287 189.554 48.3799 189.809C48.4507 189.83 48.501 189.841 48.5558 189.854C49.509 190.217 50.4983 190.575 51.5346 190.921C52.0033 190.867 52.4544 190.789 52.8538 190.691C51.8401 190.379 50.8674 190.054 49.9134 189.725C51.5779 187.69 44.871 186.578 40.9157 185.402C39.142 184.471 38.424 183.86 38.226 183.282C38.2258 183.723 38.5458 184.303 39.093 184.932C37.3288 184.502 35.6095 184.151 34.1874 183.938L34.1872 183.938Z" fill="#00892C"/>
<path d="M76.2971 184.856C75.3745 185.257 74.0623 185.623 71.5997 186.1C67.0323 186.463 60.0236 186.569 59.3795 188.023C59.3191 188.039 59.2888 188.051 59.2497 188.063C58.2043 188.276 57.1765 188.498 56.1825 188.731C56.3461 188.839 56.5803 188.944 56.874 189.037C57.7698 188.809 58.7038 188.591 59.6474 188.377C65.6146 188.791 68.7558 187.268 72.1278 186.378C74.8199 185.985 76.5919 185.83 78.2755 185.793C76.9895 185.787 75.3002 185.851 73.4728 185.967C74.7006 185.568 75.6968 185.179 76.297 184.856L76.2971 184.856Z" fill="#00892C"/>
<path d="M57.8296 172.918C55.3175 173.508 52.8352 174.115 50.3932 174.731C50.4853 174.746 50.5886 174.759 50.6848 174.772C53.039 174.147 55.427 173.531 57.8294 172.918L57.8296 172.918Z" fill="#00892C"/>
<path fill-rule="evenodd" clip-rule="evenodd" d="M84.573 171.727C69.0442 177.366 55.8458 183.777 54.6619 190.669C54.0508 192.758 54.3681 194.824 55.2432 196.872C56.0253 196.908 56.8122 196.941 57.6032 196.968C54.7655 191.21 56.5605 185.233 66.6475 179.817C71.6071 176.991 77.9773 174.334 84.5725 171.727L84.573 171.727Z" fill="#00892C"/>
<path d="M37.201 192.946C37.2486 192.985 37.2986 193.019 37.3459 193.057C46.6611 193.752 53.5058 196.692 58.7846 199.35C59.7244 199.495 60.3127 200.243 60.3734 200.716C61.4296 200.979 62.474 201.246 63.4819 201.524C63.1656 201.693 62.7365 201.854 62.2176 201.994C61.1342 201.669 60.0145 201.357 58.8714 201.047C57.7962 201.079 56.9035 200.858 54.9017 200.603C46.6277 198.479 37.2872 195.804 37.215 193.069C37.1445 193.056 37.0828 193.045 37.0107 193.032C37.0808 193.036 37.1485 193.042 37.2183 193.047C37.2181 193.013 37.1985 192.979 37.201 192.946L37.201 192.946ZM37.4193 193.106C39.0723 194.406 40.9701 194.995 47.8452 196.816C43.2049 194.534 41.6571 193.89 37.4193 193.106Z" fill="#00892C"/>
<ellipse cx="376" cy="59.5" rx="62" ry="53.5" fill="white" fill-opacity="0.5"/>
<ellipse cx="374.5" cy="60" rx="28.5" ry="28" fill="#F2A400"/>
</svg>
