<svg width="375" height="261" viewBox="0 0 375 261" fill="none" xmlns="http://www.w3.org/2000/svg">
<path fill-rule="evenodd" clip-rule="evenodd" d="M21.6111 260.861C21.6253 260.478 21.6305 260.095 21.6111 259.704C21.5961 259.43 21.5589 259.153 21.5252 258.876C21.3183 257.176 20.7487 255.542 19.774 254.047C18.7992 252.552 17.4281 251.194 15.7563 250.009C14.23 248.91 12.4594 247.961 10.6742 247.177C8.889 246.394 7.08272 245.779 5.48902 245.296C1.88636 244.443 -0.17715 243.859 0.0119604 243.694C0.211993 243.531 2.67709 243.81 6.94839 244.461C8.90905 244.868 11.1497 245.451 13.4041 246.24C15.6585 247.028 17.9143 248.028 19.8768 249.224C21.9426 250.497 23.6689 251.974 24.8903 253.596C26.1116 255.218 26.8358 256.982 27.0364 258.797C27.0691 259.093 27.0815 259.389 27.0879 259.68C27.0986 260.079 27.0818 260.47 27.0536 260.862H21.6109L21.6111 260.861Z" fill="#00892C"/>
<path fill-rule="evenodd" clip-rule="evenodd" d="M39.5167 260.862C39.633 260.482 39.7626 260.101 39.8601 259.717C40.4377 257.436 40.6211 255.221 40.4553 253.132C40.2631 250.685 39.5837 248.407 38.6698 246.376C37.7559 244.346 36.6161 242.567 35.5565 241.091C34.497 239.614 33.5367 238.438 32.9469 237.616C32.3572 236.793 32.1345 236.322 32.512 236.26C32.8895 236.197 33.8277 236.549 35.1216 237.283C36.4155 238.016 38.0751 239.134 39.7685 240.595C41.462 242.056 43.1734 243.864 44.5757 245.962C45.978 248.06 47.055 250.447 47.4829 253.026C47.8461 255.225 47.7656 257.559 47.1624 259.952C47.0853 260.258 47.0029 260.559 46.9106 260.862H39.5165L39.5167 260.862Z" fill="#00892C"/>
<path fill-rule="evenodd" clip-rule="evenodd" d="M55.1257 260.861C56.5928 259.256 58.1092 257.727 59.5039 256.294C61.0068 254.75 62.3647 253.31 63.4701 251.988C64.1148 251.216 64.6786 250.487 65.1355 249.808C65.5924 249.129 65.9382 248.501 66.2 247.926C66.4563 247.358 66.6231 246.842 66.7322 246.392C66.8414 245.941 66.8878 245.558 66.9211 245.241C66.9545 244.923 66.9865 244.671 67.0413 244.498C67.0961 244.325 67.1822 244.23 67.3332 244.217C67.4841 244.205 67.6964 244.278 67.9341 244.437C68.1718 244.595 68.4407 244.842 68.6896 245.167C68.9385 245.493 69.1572 245.898 69.3077 246.379C69.4581 246.861 69.5244 247.416 69.4794 248.03C69.4365 248.65 69.2926 249.333 69.0158 250.064C68.739 250.794 68.3384 251.577 67.8311 252.39C66.9661 253.781 65.8083 255.285 64.4488 256.867C63.3463 258.149 62.0997 259.49 60.8604 260.861H55.1256L55.1257 260.861Z" fill="#00892C"/>
<path fill-rule="evenodd" clip-rule="evenodd" d="M79.1299 260.862C79.1618 260.574 79.2044 260.29 79.2329 259.999C79.2362 259.97 79.2302 259.94 79.2329 259.911C79.4654 257.455 79.5756 255.112 79.7068 252.969C79.838 250.826 80.0041 248.884 80.2425 247.254C80.4809 245.625 80.789 244.308 81.1696 243.396C81.5502 242.483 81.9921 241.978 82.447 241.978C82.9019 241.978 83.3369 242.48 83.745 243.388C84.1532 244.296 84.5405 245.608 84.8988 247.232C85.2571 248.857 85.5828 250.797 85.7848 252.954C85.9867 255.112 86.06 257.489 85.826 259.992C85.8232 260.021 85.8287 260.05 85.826 260.079C85.8011 260.343 85.755 260.6 85.7229 260.861H79.1299L79.1299 260.862Z" fill="#00892C"/>
<path fill-rule="evenodd" clip-rule="evenodd" d="M96.3872 260.862C96.5261 259.632 96.8218 258.453 97.2776 257.372C97.8299 256.063 98.6064 254.898 99.4684 253.948C100.33 252.998 101.264 252.26 102.041 251.772C102.818 251.284 103.422 251.044 103.709 251.085C103.995 251.127 103.938 251.447 103.68 251.983C103.423 252.519 102.983 253.273 102.55 254.214C102.117 255.154 101.701 256.28 101.405 257.543C101.165 258.568 101.013 259.688 100.91 260.862H96.3871L96.3872 260.862Z" fill="#00892C"/>
<path fill-rule="evenodd" clip-rule="evenodd" d="M154.005 240.976C153.835 240.975 153.559 241.051 153.198 241.207C152.785 241.386 152.261 241.671 151.687 242.054C151.113 242.437 150.493 242.919 149.901 243.503C149.31 244.088 148.754 244.776 148.322 245.55C147.927 246.259 147.644 247.04 147.498 247.882C147.351 248.724 147.348 249.626 147.515 250.568C147.763 251.958 148.335 253.436 149.232 254.965C150.129 256.493 151.346 258.07 152.734 259.666C153.017 259.991 153.304 260.309 153.593 260.628C153.706 260.754 153.822 260.875 153.936 261H159.671C159.382 260.68 159.1 260.368 158.813 260.044C158.535 259.728 158.265 259.413 157.988 259.094C156.633 257.527 155.41 256.003 154.434 254.551C153.459 253.098 152.738 251.716 152.305 250.415C152.012 249.537 151.837 248.696 151.79 247.912C151.743 247.129 151.823 246.401 151.979 245.732C152.317 244.277 153.049 243.111 153.576 242.303C153.84 241.9 154.042 241.583 154.142 241.359C154.243 241.136 154.234 241.009 154.074 240.982C154.054 240.979 154.029 240.976 154.005 240.976L154.005 240.976Z" fill="#00892C"/>
<path fill-rule="evenodd" clip-rule="evenodd" d="M126.232 241.114C126.169 241.11 126.086 241.118 126.026 241.151C125.966 241.183 125.938 241.246 125.923 241.29C125.892 241.367 125.89 241.466 125.923 241.582C125.989 241.809 126.182 242.114 126.458 242.479C127.008 243.204 127.935 244.2 129.05 245.413C131.251 247.806 134.24 251.094 136.56 254.972C137.686 256.857 138.628 258.884 139.275 260.999H145.921C145.216 258.688 144.028 256.487 142.588 254.468C141.162 252.47 139.488 250.649 137.774 249.039C136.059 247.429 134.312 246.031 132.713 244.88C131.086 243.709 129.633 242.801 128.516 242.165C127.949 241.842 127.483 241.596 127.117 241.421C126.929 241.331 126.772 241.266 126.643 241.216C126.56 241.171 126.461 241.165 126.397 241.151C126.332 241.137 126.294 241.119 126.232 241.114L126.232 241.114Z" fill="#00892C"/>
<path fill-rule="evenodd" clip-rule="evenodd" d="M114.155 244.977C113.806 245.019 113.928 245.522 114.379 246.396C114.83 247.27 115.604 248.519 116.508 250.062C117.411 251.605 118.44 253.437 119.22 255.482C119.873 257.191 120.35 259.05 120.422 260.999H125.865C125.715 258.93 125.051 256.974 124.131 255.202C123.036 253.094 121.603 251.238 120.199 249.709C118.795 248.179 117.425 246.982 116.353 246.17C115.281 245.359 114.505 244.935 114.155 244.977L114.155 244.977Z" fill="#00892C"/>
<path fill-rule="evenodd" clip-rule="evenodd" d="M169.24 245.369C168.834 245.369 168.453 245.774 168.081 246.491C167.709 247.209 167.339 248.242 166.977 249.526C166.615 250.81 166.271 252.34 166.002 254.049C165.733 255.758 165.547 257.645 165.652 259.636C165.656 259.702 165.667 259.766 165.671 259.832C165.69 260.175 165.724 260.518 165.763 260.856H171.651C171.62 260.502 171.582 260.147 171.559 259.786C171.555 259.722 171.544 259.661 171.54 259.597C171.435 257.656 171.441 255.794 171.412 254.095C171.383 252.396 171.325 250.86 171.154 249.565C170.983 248.271 170.714 247.223 170.381 246.498C170.049 245.773 169.647 245.369 169.24 245.369L169.24 245.369Z" fill="#00892C"/>
<path fill-rule="evenodd" clip-rule="evenodd" d="M174.641 246.98C174.28 247.02 174.308 247.454 174.555 248.204C174.802 248.955 175.271 250.022 175.757 251.341C176.244 252.66 176.736 254.233 177.131 255.987C177.479 257.534 177.741 259.226 177.938 261H183.432C183.206 259.16 182.781 257.398 182.161 255.793C181.469 253.998 180.548 252.396 179.552 251.073C178.555 249.75 177.486 248.705 176.598 248.004C175.711 247.302 175.002 246.941 174.641 246.98L174.641 246.98Z" fill="#00892C"/>
<path d="M366.438 258.465H15.4576V261H366.438V258.465Z" fill="#00892C"/>
<path fill-rule="evenodd" clip-rule="evenodd" d="M21.6111 260.861C21.6253 260.478 21.6305 260.095 21.6111 259.704C21.5961 259.43 21.5589 259.153 21.5252 258.876C21.3183 257.176 20.7487 255.542 19.774 254.047C18.7992 252.552 17.4281 251.194 15.7563 250.009C14.23 248.91 12.4594 247.961 10.6742 247.177C8.889 246.394 7.08272 245.779 5.48902 245.296C1.88636 244.443 -0.17715 243.859 0.0119604 243.694C0.211993 243.531 2.67709 243.81 6.94839 244.461C8.90905 244.868 11.1497 245.451 13.4041 246.24C15.6585 247.028 17.9143 248.028 19.8768 249.224C21.9426 250.497 23.6689 251.974 24.8903 253.596C26.1116 255.218 26.8358 256.982 27.0364 258.797C27.0691 259.093 27.0815 259.389 27.0879 259.68C27.0986 260.079 27.0818 260.47 27.0536 260.862H21.6109L21.6111 260.861Z" fill="#00892C"/>
<path fill-rule="evenodd" clip-rule="evenodd" d="M39.5167 260.862C39.633 260.482 39.7626 260.101 39.8601 259.717C40.4377 257.436 40.6211 255.221 40.4553 253.132C40.2631 250.685 39.5837 248.407 38.6698 246.376C37.7559 244.346 36.6161 242.567 35.5565 241.091C34.497 239.614 33.5367 238.438 32.9469 237.616C32.3572 236.793 32.1345 236.322 32.512 236.26C32.8895 236.197 33.8277 236.549 35.1216 237.283C36.4155 238.016 38.0751 239.134 39.7685 240.595C41.462 242.056 43.1734 243.864 44.5757 245.962C45.978 248.06 47.055 250.447 47.4829 253.026C47.8461 255.225 47.7656 257.559 47.1624 259.952C47.0853 260.258 47.0029 260.559 46.9106 260.862H39.5165L39.5167 260.862Z" fill="#00892C"/>
<path fill-rule="evenodd" clip-rule="evenodd" d="M55.1257 260.861C56.5928 259.256 58.1092 257.727 59.5039 256.294C61.0068 254.75 62.3647 253.31 63.4701 251.988C64.1148 251.216 64.6786 250.487 65.1355 249.808C65.5924 249.129 65.9382 248.501 66.2 247.926C66.4563 247.358 66.6231 246.842 66.7322 246.392C66.8414 245.941 66.8878 245.558 66.9211 245.241C66.9545 244.923 66.9865 244.671 67.0413 244.498C67.0961 244.325 67.1822 244.23 67.3332 244.217C67.4841 244.205 67.6964 244.278 67.9341 244.437C68.1718 244.595 68.4407 244.842 68.6896 245.167C68.9385 245.493 69.1572 245.898 69.3077 246.379C69.4581 246.861 69.5244 247.416 69.4794 248.03C69.4365 248.65 69.2926 249.333 69.0158 250.064C68.739 250.794 68.3384 251.577 67.8311 252.39C66.9661 253.781 65.8083 255.285 64.4488 256.867C63.3463 258.149 62.0997 259.49 60.8604 260.861H55.1256L55.1257 260.861Z" fill="#00892C"/>
<path fill-rule="evenodd" clip-rule="evenodd" d="M79.1299 260.862C79.1618 260.574 79.2044 260.29 79.2329 259.999C79.2362 259.97 79.2302 259.94 79.2329 259.911C79.4654 257.455 79.5756 255.112 79.7068 252.969C79.838 250.826 80.0041 248.884 80.2425 247.254C80.4809 245.625 80.789 244.308 81.1696 243.396C81.5502 242.483 81.9921 241.978 82.447 241.978C82.9019 241.978 83.3369 242.48 83.745 243.388C84.1532 244.296 84.5405 245.608 84.8988 247.232C85.2571 248.857 85.5828 250.797 85.7848 252.954C85.9867 255.112 86.06 257.489 85.826 259.992C85.8232 260.021 85.8287 260.05 85.826 260.079C85.8011 260.343 85.755 260.6 85.7229 260.861H79.1299L79.1299 260.862Z" fill="#00892C"/>
<path fill-rule="evenodd" clip-rule="evenodd" d="M96.3872 260.862C96.5261 259.632 96.8218 258.453 97.2776 257.372C97.8299 256.063 98.6064 254.898 99.4684 253.948C100.33 252.998 101.264 252.26 102.041 251.772C102.818 251.284 103.422 251.044 103.709 251.085C103.995 251.127 103.938 251.447 103.68 251.983C103.423 252.519 102.983 253.273 102.55 254.214C102.117 255.154 101.701 256.28 101.405 257.543C101.165 258.568 101.013 259.688 100.91 260.862H96.3871L96.3872 260.862Z" fill="#00892C"/>
<path fill-rule="evenodd" clip-rule="evenodd" d="M154.005 240.976C153.835 240.975 153.559 241.051 153.198 241.207C152.785 241.386 152.261 241.671 151.687 242.054C151.113 242.437 150.493 242.919 149.901 243.503C149.31 244.088 148.754 244.776 148.322 245.55C147.927 246.259 147.644 247.04 147.498 247.882C147.351 248.724 147.348 249.626 147.515 250.568C147.763 251.958 148.335 253.436 149.232 254.965C150.129 256.493 151.346 258.07 152.734 259.666C153.017 259.991 153.304 260.309 153.593 260.628C153.706 260.754 153.822 260.875 153.936 261H159.671C159.382 260.68 159.1 260.368 158.813 260.044C158.535 259.728 158.265 259.413 157.988 259.094C156.633 257.527 155.41 256.003 154.434 254.551C153.459 253.098 152.738 251.716 152.305 250.415C152.012 249.537 151.837 248.696 151.79 247.912C151.743 247.129 151.823 246.401 151.979 245.732C152.317 244.277 153.049 243.111 153.576 242.303C153.84 241.9 154.042 241.583 154.142 241.359C154.243 241.136 154.234 241.009 154.074 240.982C154.054 240.979 154.029 240.976 154.005 240.976L154.005 240.976Z" fill="#00892C"/>
<path fill-rule="evenodd" clip-rule="evenodd" d="M126.232 241.114C126.169 241.11 126.086 241.118 126.026 241.151C125.966 241.183 125.938 241.246 125.923 241.29C125.892 241.367 125.89 241.466 125.923 241.582C125.989 241.809 126.182 242.114 126.458 242.479C127.008 243.204 127.935 244.2 129.05 245.413C131.251 247.806 134.24 251.094 136.56 254.972C137.686 256.857 138.628 258.884 139.275 260.999H145.921C145.216 258.688 144.028 256.487 142.588 254.468C141.162 252.47 139.488 250.649 137.774 249.039C136.059 247.429 134.312 246.031 132.713 244.88C131.086 243.709 129.633 242.801 128.516 242.165C127.949 241.842 127.483 241.596 127.117 241.421C126.929 241.331 126.772 241.266 126.643 241.216C126.56 241.171 126.461 241.165 126.397 241.151C126.332 241.137 126.294 241.119 126.232 241.114L126.232 241.114Z" fill="#00892C"/>
<path fill-rule="evenodd" clip-rule="evenodd" d="M114.155 244.977C113.806 245.019 113.928 245.522 114.379 246.396C114.83 247.27 115.604 248.519 116.508 250.062C117.411 251.605 118.44 253.437 119.22 255.482C119.873 257.191 120.35 259.05 120.422 260.999H125.865C125.715 258.93 125.051 256.974 124.131 255.202C123.036 253.094 121.603 251.238 120.199 249.709C118.795 248.179 117.425 246.982 116.353 246.17C115.281 245.359 114.505 244.935 114.155 244.977L114.155 244.977Z" fill="#00892C"/>
<path fill-rule="evenodd" clip-rule="evenodd" d="M169.24 245.369C168.834 245.369 168.453 245.774 168.081 246.491C167.709 247.209 167.339 248.242 166.977 249.526C166.615 250.81 166.271 252.34 166.002 254.049C165.733 255.758 165.547 257.645 165.652 259.636C165.656 259.702 165.667 259.766 165.671 259.832C165.69 260.175 165.724 260.518 165.763 260.856H171.651C171.62 260.502 171.582 260.147 171.559 259.786C171.555 259.722 171.544 259.661 171.54 259.597C171.435 257.656 171.441 255.794 171.412 254.095C171.383 252.396 171.325 250.86 171.154 249.565C170.983 248.271 170.714 247.223 170.381 246.498C170.049 245.773 169.647 245.369 169.24 245.369L169.24 245.369Z" fill="#00892C"/>
<path fill-rule="evenodd" clip-rule="evenodd" d="M174.641 246.98C174.28 247.02 174.308 247.454 174.555 248.204C174.802 248.955 175.271 250.022 175.757 251.341C176.244 252.66 176.736 254.233 177.131 255.987C177.479 257.534 177.741 259.226 177.938 261H183.432C183.206 259.16 182.781 257.398 182.161 255.793C181.469 253.998 180.548 252.396 179.552 251.073C178.555 249.75 177.486 248.705 176.598 248.004C175.711 247.302 175.002 246.941 174.641 246.98L174.641 246.98Z" fill="#00892C"/>
<path fill-rule="evenodd" clip-rule="evenodd" d="M26.0394 258.909C26.054 258.515 26.0594 258.121 26.0394 257.72C26.024 257.439 25.9858 257.154 25.9512 256.87C25.7388 255.124 25.1538 253.446 24.1528 251.91C23.1518 250.375 21.7437 248.98 20.0268 247.764C18.4595 246.635 16.641 245.66 14.8077 244.856C12.9744 244.052 11.1194 243.419 9.48275 242.923C5.783 242.048 3.66383 241.448 3.85833 241.279C4.06375 241.112 6.59532 241.398 10.9816 242.067C12.9951 242.484 15.2961 243.083 17.6114 243.893C19.9266 244.703 22.2432 245.73 24.2589 246.957C26.3803 248.265 28.1532 249.782 29.4075 251.448C30.6617 253.113 31.4054 254.925 31.6115 256.789C31.6451 257.092 31.6578 257.396 31.6644 257.695C31.6754 258.105 31.6582 258.507 31.6291 258.909H26.0399L26.0394 258.909Z" fill="#00892C"/>
<path fill-rule="evenodd" clip-rule="evenodd" d="M44.4285 258.909C44.5479 258.519 44.6811 258.128 44.7811 257.733C45.3744 255.391 45.5627 253.117 45.3924 250.971C45.195 248.458 44.4972 246.118 43.5587 244.033C42.6202 241.948 41.4497 240.122 40.3616 238.605C39.2735 237.088 38.2873 235.881 37.6816 235.036C37.0759 234.191 36.8473 233.708 37.235 233.644C37.6226 233.579 38.5861 233.941 39.9149 234.694C41.2438 235.448 42.948 236.596 44.6871 238.096C46.4263 239.597 48.1838 241.453 49.6239 243.608C51.064 245.762 52.17 248.213 52.6095 250.862C52.9825 253.12 52.8998 255.517 52.2803 257.975C52.2012 258.289 52.1165 258.598 52.0217 258.909H44.4288L44.4285 258.909Z" fill="#00892C"/>
<path fill-rule="evenodd" clip-rule="evenodd" d="M60.4606 258.909C61.9673 257.26 63.5245 255.69 64.9569 254.218C66.5003 252.633 67.8948 251.154 69.0299 249.797C69.6919 249.004 70.271 248.255 70.7402 247.558C71.2095 246.861 71.5645 246.216 71.8334 245.625C72.0966 245.042 72.2679 244.512 72.38 244.049C72.4921 243.587 72.5397 243.194 72.5739 242.867C72.6082 242.541 72.6411 242.282 72.6974 242.104C72.7537 241.927 72.8421 241.829 72.9971 241.817C73.1522 241.804 73.3702 241.879 73.6142 242.042C73.8583 242.204 74.1344 242.458 74.3901 242.792C74.6457 243.126 74.8703 243.542 75.0248 244.037C75.1793 244.531 75.2473 245.101 75.2011 245.732C75.1571 246.369 75.0093 247.07 74.7251 247.82C74.4408 248.571 74.0294 249.374 73.5084 250.209C72.6201 251.638 71.431 253.182 70.0349 254.806C68.9027 256.123 67.6225 257.5 66.3498 258.909H60.4605L60.4606 258.909Z" fill="#00892C"/>
<path fill-rule="evenodd" clip-rule="evenodd" d="M85.1076 258.909C85.1404 258.614 85.1841 258.322 85.2134 258.023C85.2167 257.994 85.2106 257.963 85.2134 257.933C85.4521 255.411 85.5653 253.005 85.7 250.804C85.8348 248.603 86.0053 246.608 86.2502 244.935C86.495 243.262 86.8114 241.909 87.2023 240.972C87.5932 240.035 88.047 239.516 88.5142 239.516C88.9814 239.516 89.428 240.032 89.8472 240.965C90.2663 241.897 90.6641 243.244 91.0321 244.912C91.4 246.581 91.7345 248.573 91.9419 250.789C92.1493 253.004 92.2246 255.446 91.9842 258.016C91.9815 258.046 91.9869 258.076 91.9842 258.106C91.9587 258.377 91.9113 258.641 91.8784 258.909H85.1079L85.1076 258.909Z" fill="#00892C"/>
<path fill-rule="evenodd" clip-rule="evenodd" d="M102.832 258.909C102.975 257.646 103.278 256.435 103.746 255.325C104.313 253.981 105.111 252.785 105.996 251.809C106.882 250.833 107.84 250.076 108.638 249.575C109.436 249.073 110.057 248.827 110.351 248.869C110.645 248.912 110.587 249.24 110.322 249.791C110.057 250.341 109.605 251.116 109.161 252.082C108.716 253.048 108.289 254.204 107.985 255.501C107.738 256.553 107.582 257.704 107.477 258.909H102.832L102.832 258.909Z" fill="#00892C"/>
<path fill-rule="evenodd" clip-rule="evenodd" d="M162.004 238.488C161.83 238.487 161.546 238.564 161.176 238.725C160.752 238.909 160.214 239.201 159.624 239.595C159.035 239.988 158.397 240.483 157.79 241.083C157.183 241.683 156.612 242.39 156.168 243.184C155.762 243.913 155.472 244.715 155.322 245.58C155.171 246.444 155.169 247.371 155.34 248.338C155.594 249.766 156.182 251.283 157.103 252.853C158.024 254.423 159.274 256.043 160.7 257.681C160.99 258.015 161.285 258.342 161.581 258.669C161.697 258.798 161.817 258.923 161.934 259.051H167.823C167.526 258.723 167.236 258.402 166.942 258.069C166.656 257.745 166.379 257.421 166.095 257.093C164.703 255.485 163.447 253.92 162.445 252.428C161.444 250.936 160.703 249.517 160.259 248.181C159.957 247.279 159.778 246.416 159.73 245.611C159.682 244.806 159.764 244.059 159.924 243.372C160.271 241.877 161.022 240.68 161.564 239.851C161.834 239.436 162.043 239.111 162.146 238.881C162.248 238.652 162.239 238.522 162.075 238.494C162.054 238.49 162.029 238.488 162.005 238.487L162.004 238.488Z" fill="#00892C"/>
<path fill-rule="evenodd" clip-rule="evenodd" d="M133.479 238.63C133.415 238.625 133.329 238.634 133.267 238.667C133.206 238.701 133.177 238.765 133.162 238.81C133.13 238.889 133.127 238.991 133.162 239.109C133.23 239.343 133.427 239.657 133.711 240.031C134.276 240.775 135.228 241.798 136.373 243.044C138.634 245.502 141.703 248.878 144.085 252.861C145.241 254.797 146.208 256.879 146.874 259.051H153.698C152.974 256.678 151.755 254.417 150.275 252.344C148.811 250.292 147.092 248.422 145.331 246.768C143.571 245.115 141.776 243.679 140.134 242.497C138.463 241.294 136.972 240.362 135.824 239.709C135.241 239.377 134.764 239.124 134.387 238.945C134.195 238.852 134.033 238.786 133.901 238.735C133.816 238.688 133.714 238.682 133.648 238.668C133.581 238.653 133.542 238.635 133.479 238.63L133.479 238.63Z" fill="#00892C"/>
<path fill-rule="evenodd" clip-rule="evenodd" d="M121.078 242.596C120.72 242.639 120.844 243.155 121.307 244.053C121.771 244.951 122.566 246.234 123.494 247.818C124.422 249.402 125.478 251.284 126.28 253.384C126.95 255.139 127.44 257.048 127.514 259.05H133.103C132.949 256.925 132.268 254.917 131.322 253.096C130.198 250.932 128.726 249.026 127.285 247.455C125.843 245.885 124.436 244.655 123.335 243.822C122.234 242.988 121.437 242.553 121.078 242.596L121.078 242.596Z" fill="#00892C"/>
<path fill-rule="evenodd" clip-rule="evenodd" d="M177.652 242.999C177.235 242.999 176.843 243.415 176.462 244.152C176.08 244.889 175.7 245.95 175.328 247.268C174.956 248.587 174.603 250.159 174.326 251.913C174.05 253.668 173.859 255.607 173.967 257.651C173.971 257.719 173.982 257.784 173.986 257.852C174.006 258.205 174.041 258.557 174.081 258.904H180.128C180.096 258.541 180.057 258.175 180.033 257.805C180.029 257.739 180.018 257.677 180.014 257.611C179.905 255.618 179.912 253.705 179.882 251.96C179.852 250.215 179.793 248.638 179.617 247.309C179.442 245.979 179.165 244.903 178.824 244.159C178.482 243.414 178.069 242.999 177.652 242.999L177.652 242.999Z" fill="#00892C"/>
<path fill-rule="evenodd" clip-rule="evenodd" d="M183.196 244.654C182.825 244.694 182.854 245.14 183.107 245.911C183.361 246.681 183.842 247.777 184.342 249.132C184.841 250.486 185.347 252.101 185.752 253.903C186.11 255.491 186.379 257.229 186.581 259.05H192.224C191.991 257.161 191.555 255.351 190.919 253.703C190.207 251.86 189.262 250.215 188.239 248.856C187.215 247.498 186.118 246.425 185.206 245.704C184.294 244.983 183.567 244.613 183.196 244.653L183.196 244.654Z" fill="#00892C"/>
<path fill-rule="evenodd" clip-rule="evenodd" d="M37.0773 259.513C37.0899 259.174 37.0945 258.834 37.0773 258.489C37.064 258.246 37.0311 258.001 37.0013 257.756C36.8181 256.25 36.3138 254.804 35.451 253.48C34.5882 252.157 33.3744 250.955 31.8946 249.906C30.5435 248.933 28.9761 248.093 27.3958 247.4C25.8156 246.706 24.2167 246.161 22.8058 245.734C19.6167 244.979 17.7901 244.462 17.9575 244.316C18.1346 244.172 20.3167 244.419 24.0978 244.995C25.8334 245.355 27.8168 245.871 29.8123 246.569C31.8079 247.268 33.8049 248.153 35.5422 249.211C37.3709 250.338 38.8991 251.646 39.9802 253.082C41.0614 254.517 41.7024 256.079 41.8801 257.685C41.909 257.947 41.92 258.209 41.9256 258.467C41.9351 258.82 41.9201 259.167 41.8952 259.513H37.0773L37.0773 259.513Z" fill="#00892C"/>
<path fill-rule="evenodd" clip-rule="evenodd" d="M52.9281 259.513C53.0311 259.177 53.1458 258.84 53.2321 258.499C53.7434 256.48 53.9058 254.52 53.7589 252.671C53.5888 250.505 52.9873 248.488 52.1783 246.691C51.3694 244.893 50.3604 243.319 49.4225 242.011C48.4846 240.704 47.6345 239.663 47.1124 238.935C46.5904 238.207 46.3932 237.79 46.7274 237.735C47.0616 237.68 47.8921 237.991 49.0374 238.641C50.1829 239.29 51.6519 240.28 53.151 241.573C54.6501 242.866 56.165 244.467 57.4063 246.324C58.6477 248.181 59.601 250.294 59.9798 252.577C60.3014 254.523 60.23 256.589 59.6961 258.708C59.6279 258.979 59.5549 259.245 59.4732 259.513H52.928L52.9281 259.513Z" fill="#00892C"/>
<path fill-rule="evenodd" clip-rule="evenodd" d="M66.746 259.513C68.0447 258.092 69.387 256.738 70.6216 255.47C71.952 254.103 73.154 252.828 74.1325 251.658C74.7032 250.975 75.2023 250.329 75.6068 249.728C76.0112 249.128 76.3173 248.572 76.5491 248.063C76.776 247.56 76.9237 247.103 77.0202 246.704C77.1168 246.306 77.1579 245.967 77.1874 245.685C77.2169 245.404 77.2453 245.181 77.2938 245.028C77.3423 244.874 77.4185 244.79 77.5522 244.78C77.6858 244.769 77.8737 244.833 78.0841 244.974C78.2946 245.114 78.5325 245.333 78.7529 245.621C78.9732 245.909 79.1669 246.267 79.3 246.693C79.4332 247.12 79.4919 247.611 79.452 248.154C79.4141 248.704 79.2867 249.308 79.0417 249.955C78.7966 250.601 78.442 251.294 77.9929 252.014C77.2272 253.245 76.2023 254.577 74.9988 255.976C74.0229 257.111 72.9194 258.298 71.8223 259.513H66.746L66.746 259.513Z" fill="#00892C"/>
<path fill-rule="evenodd" clip-rule="evenodd" d="M87.992 259.513C88.0203 259.259 88.058 259.007 88.0832 258.75C88.086 258.724 88.081 258.697 88.0832 258.672C88.289 256.498 88.3866 254.423 88.5027 252.526C88.6188 250.629 88.7658 248.91 88.9769 247.467C89.1879 246.025 89.4607 244.859 89.7976 244.052C90.1345 243.244 90.5257 242.797 90.9284 242.797C91.3311 242.797 91.7161 243.242 92.0774 244.045C92.4387 244.849 92.7816 246.01 93.0987 247.448C93.4158 248.886 93.7042 250.604 93.8829 252.513C94.0617 254.423 94.1266 256.528 93.9194 258.743C93.9172 258.769 93.9216 258.795 93.9194 258.821C93.8974 259.054 93.8566 259.282 93.8282 259.513H87.9917L87.992 259.513Z" fill="#00892C"/>
<path fill-rule="evenodd" clip-rule="evenodd" d="M103.266 259.513C103.389 258.425 103.651 257.381 104.054 256.424C104.543 255.265 105.23 254.234 105.994 253.393C106.757 252.552 107.583 251.899 108.271 251.467C108.958 251.035 109.493 250.822 109.747 250.859C110.001 250.896 109.95 251.179 109.722 251.653C109.494 252.128 109.104 252.796 108.721 253.628C108.338 254.461 107.97 255.457 107.708 256.575C107.495 257.483 107.361 258.474 107.27 259.513H103.266H103.266Z" fill="#00892C"/>
<path fill-rule="evenodd" clip-rule="evenodd" d="M154.274 241.91C154.123 241.909 153.879 241.976 153.56 242.114C153.195 242.273 152.731 242.525 152.222 242.864C151.714 243.203 151.165 243.629 150.642 244.147C150.118 244.664 149.626 245.273 149.243 245.958C148.893 246.586 148.644 247.278 148.514 248.023C148.384 248.768 148.382 249.567 148.529 250.4C148.749 251.631 149.255 252.939 150.049 254.293C150.843 255.646 151.921 257.042 153.149 258.454C153.4 258.742 153.654 259.024 153.909 259.306C154.009 259.417 154.112 259.525 154.213 259.635H159.29C159.034 259.352 158.784 259.076 158.53 258.789C158.284 258.509 158.045 258.23 157.8 257.948C156.6 256.561 155.517 255.212 154.654 253.926C153.791 252.64 153.152 251.417 152.769 250.266C152.509 249.488 152.355 248.744 152.313 248.05C152.272 247.356 152.342 246.712 152.481 246.12C152.779 244.831 153.427 243.8 153.894 243.085C154.127 242.728 154.307 242.447 154.396 242.249C154.484 242.052 154.476 241.939 154.335 241.915C154.317 241.912 154.296 241.91 154.274 241.91L154.274 241.91Z" fill="#00892C"/>
<path fill-rule="evenodd" clip-rule="evenodd" d="M129.688 242.032C129.632 242.028 129.559 242.036 129.505 242.065C129.452 242.093 129.427 242.149 129.414 242.187C129.387 242.256 129.385 242.344 129.414 242.446C129.473 242.647 129.643 242.918 129.888 243.24C130.375 243.882 131.196 244.763 132.183 245.837C134.131 247.956 136.777 250.867 138.83 254.299C139.827 255.968 140.66 257.762 141.234 259.635H147.117C146.493 257.589 145.442 255.64 144.166 253.854C142.905 252.085 141.422 250.473 139.905 249.048C138.387 247.622 136.841 246.385 135.425 245.365C133.985 244.329 132.699 243.526 131.71 242.962C131.208 242.676 130.796 242.458 130.471 242.304C130.305 242.224 130.166 242.167 130.052 242.123C129.978 242.082 129.891 242.077 129.834 242.065C129.776 242.052 129.743 242.036 129.688 242.032L129.688 242.032Z" fill="#00892C"/>
<path fill-rule="evenodd" clip-rule="evenodd" d="M118.996 245.452C118.687 245.489 118.794 245.935 119.193 246.709C119.593 247.482 120.278 248.588 121.078 249.954C121.878 251.319 122.788 252.941 123.479 254.752C124.057 256.265 124.479 257.91 124.543 259.636H129.361C129.229 257.804 128.641 256.073 127.826 254.504C126.857 252.638 125.588 250.995 124.346 249.641C123.103 248.288 121.89 247.227 120.941 246.509C119.993 245.791 119.305 245.416 118.996 245.453L118.996 245.452Z" fill="#00892C"/>
<path fill-rule="evenodd" clip-rule="evenodd" d="M167.762 245.799C167.403 245.799 167.065 246.158 166.736 246.793C166.407 247.428 166.079 248.343 165.759 249.48C165.438 250.616 165.134 251.971 164.896 253.483C164.658 254.996 164.493 256.667 164.586 258.429C164.589 258.487 164.599 258.544 164.602 258.602C164.62 258.906 164.65 259.21 164.684 259.509H169.896C169.869 259.196 169.835 258.881 169.815 258.562C169.811 258.505 169.802 258.451 169.798 258.394C169.705 256.676 169.71 255.028 169.684 253.524C169.659 252.02 169.607 250.66 169.456 249.514C169.305 248.368 169.067 247.44 168.772 246.799C168.478 246.157 168.122 245.799 167.762 245.799L167.762 245.799Z" fill="#00892C"/>
<path fill-rule="evenodd" clip-rule="evenodd" d="M172.542 247.226C172.223 247.261 172.248 247.645 172.466 248.309C172.685 248.973 173.1 249.918 173.53 251.086C173.961 252.253 174.396 253.646 174.746 255.199C175.054 256.568 175.287 258.066 175.46 259.636H180.324C180.124 258.008 179.748 256.447 179.199 255.027C178.586 253.438 177.771 252.02 176.889 250.849C176.007 249.677 175.061 248.753 174.275 248.132C173.489 247.51 172.862 247.191 172.542 247.226V247.226Z" fill="#00892C"/>
<path fill-rule="evenodd" clip-rule="evenodd" d="M115.677 259.513C115.574 259.177 115.46 258.84 115.373 258.499C114.862 256.48 114.7 254.52 114.847 252.671C115.017 250.505 115.618 248.488 116.427 246.691C117.236 244.893 118.245 243.319 119.183 242.011C120.121 240.704 120.971 239.663 121.493 238.935C122.015 238.207 122.212 237.79 121.878 237.735C121.544 237.68 120.713 237.991 119.568 238.641C118.423 239.29 116.954 240.28 115.455 241.573C113.955 242.866 112.44 244.467 111.199 246.324C109.958 248.181 109.004 250.294 108.626 252.577C108.304 254.523 108.375 256.589 108.909 258.708C108.978 258.979 109.051 259.245 109.132 259.513H115.677L115.677 259.513Z" fill="#00892C"/>
<path fill-rule="evenodd" clip-rule="evenodd" d="M96.1894 241.91C96.3401 241.909 96.5842 241.976 96.9038 242.114C97.2689 242.273 97.733 242.525 98.2413 242.864C98.7496 243.203 99.2987 243.629 99.822 244.147C100.345 244.664 100.838 245.273 101.22 245.958C101.57 246.586 101.82 247.278 101.95 248.023C102.08 248.768 102.082 249.567 101.935 250.4C101.715 251.631 101.209 252.939 100.415 254.293C99.6209 255.646 98.5429 257.042 97.3143 258.454C97.0637 258.742 96.81 259.024 96.5543 259.306C96.4542 259.417 96.3511 259.525 96.2503 259.635H91.174C91.4298 259.352 91.6798 259.076 91.934 258.789C92.1798 258.509 92.4188 258.23 92.6635 257.948C93.8635 256.561 94.9463 255.212 95.8096 253.926C96.6728 252.64 97.3113 251.417 97.6942 250.266C97.9543 249.488 98.1087 248.744 98.1502 248.05C98.1916 247.356 98.1211 246.712 97.983 246.12C97.6842 244.831 97.0363 243.8 96.5695 243.085C96.3361 242.728 96.1567 242.447 96.0679 242.249C95.9792 242.052 95.9872 241.939 96.1287 241.915C96.1464 241.912 96.168 241.91 96.1895 241.91L96.1894 241.91Z" fill="#00892C"/>
<path fill-rule="evenodd" clip-rule="evenodd" d="M167.482 243.007C167.537 243.003 167.611 243.01 167.664 243.039C167.717 243.068 167.742 243.123 167.755 243.162C167.783 243.23 167.785 243.318 167.755 243.42C167.697 243.621 167.526 243.892 167.282 244.215C166.795 244.856 165.974 245.738 164.987 246.811C163.039 248.93 160.393 251.841 158.34 255.274C157.343 256.942 156.509 258.737 155.936 260.609H150.053C150.677 258.564 151.728 256.615 153.003 254.828C154.265 253.059 155.748 251.447 157.265 250.022C158.782 248.597 160.329 247.359 161.745 246.34C163.185 245.303 164.471 244.5 165.46 243.937C165.962 243.65 166.374 243.433 166.699 243.278C166.864 243.198 167.004 243.141 167.117 243.097C167.191 243.057 167.279 243.051 167.336 243.039C167.393 243.027 167.427 243.011 167.482 243.007L167.482 243.007Z" fill="#00892C"/>
<path fill-rule="evenodd" clip-rule="evenodd" d="M192.453 245.452C192.762 245.489 192.655 245.935 192.256 246.709C191.857 247.482 191.171 248.588 190.371 249.954C189.571 251.319 188.661 252.941 187.97 254.752C187.392 256.265 186.97 257.91 186.906 259.636H182.088C182.221 257.804 182.808 256.073 183.623 254.504C184.592 252.638 185.861 250.995 187.103 249.641C188.346 248.288 189.559 247.227 190.508 246.509C191.457 245.791 192.144 245.416 192.453 245.453L192.453 245.452Z" fill="#00892C"/>
<path fill-rule="evenodd" clip-rule="evenodd" d="M71.1688 245.215C71.5285 245.215 71.8659 245.573 72.195 246.209C72.5241 246.844 72.8518 247.759 73.1723 248.895C73.4928 250.031 73.7974 251.386 74.0355 252.899C74.2737 254.411 74.4385 256.082 74.345 257.844C74.3423 257.903 74.3324 257.959 74.3288 258.018C74.3115 258.322 74.2812 258.625 74.2473 258.925H69.0351C69.0625 258.611 69.0959 258.297 69.1165 257.977C69.1198 257.92 69.1297 257.867 69.1328 257.81C69.2264 256.092 69.2212 254.443 69.2468 252.939C69.2724 251.435 69.3238 250.076 69.4748 248.93C69.6258 247.784 69.8646 246.856 70.1589 246.214C70.4532 245.573 70.8091 245.215 71.1688 245.215L71.1688 245.215Z" fill="#00892C"/>
<path fill-rule="evenodd" clip-rule="evenodd" d="M107.04 246.446C107.36 246.481 107.335 246.866 107.116 247.53C106.898 248.194 106.483 249.139 106.053 250.306C105.622 251.474 105.186 252.866 104.837 254.419C104.529 255.788 104.296 257.286 104.122 258.856H99.2587C99.4588 257.228 99.8351 255.668 100.383 254.247C100.997 252.658 101.812 251.24 102.694 250.069C103.576 248.898 104.522 247.973 105.308 247.352C106.094 246.731 106.721 246.411 107.04 246.446L107.04 246.446Z" fill="#00892C"/>
<path fill-rule="evenodd" clip-rule="evenodd" d="M186.437 260.861C186.451 260.478 186.457 260.095 186.437 259.704C186.422 259.43 186.385 259.153 186.351 258.876C186.144 257.176 185.575 255.542 184.6 254.047C183.625 252.552 182.254 251.194 180.582 250.009C179.056 248.91 177.286 247.961 175.5 247.177C173.715 246.394 171.909 245.779 170.315 245.296C166.713 244.443 164.649 243.859 164.838 243.694C165.038 243.531 167.503 243.81 171.775 244.461C173.735 244.868 175.976 245.451 178.23 246.24C180.485 247.028 182.74 248.028 184.703 249.224C186.769 250.497 188.495 251.974 189.716 253.596C190.938 255.218 191.662 256.982 191.863 258.797C191.895 259.093 191.908 259.389 191.914 259.68C191.925 260.079 191.908 260.47 191.88 260.862H186.437L186.437 260.861Z" fill="#00892C"/>
<path fill-rule="evenodd" clip-rule="evenodd" d="M204.343 260.862C204.459 260.482 204.589 260.101 204.686 259.717C205.264 257.436 205.447 255.221 205.281 253.132C205.089 250.685 204.41 248.407 203.496 246.376C202.582 244.346 201.442 242.567 200.383 241.091C199.323 239.614 198.363 238.438 197.773 237.616C197.183 236.793 196.961 236.322 197.338 236.26C197.716 236.197 198.654 236.549 199.948 237.283C201.242 238.016 202.901 239.134 204.595 240.595C206.288 242.056 207.999 243.864 209.402 245.962C210.804 248.06 211.881 250.447 212.309 253.026C212.672 255.225 212.592 257.559 211.989 259.952C211.911 260.258 211.829 260.559 211.737 260.862H204.343L204.343 260.862Z" fill="#00892C"/>
<path fill-rule="evenodd" clip-rule="evenodd" d="M219.952 260.861C221.419 259.256 222.935 257.727 224.33 256.294C225.833 254.75 227.191 253.31 228.296 251.988C228.941 251.216 229.505 250.487 229.962 249.808C230.419 249.129 230.764 248.501 231.026 247.926C231.282 247.358 231.449 246.842 231.558 246.392C231.668 245.941 231.714 245.558 231.747 245.241C231.781 244.923 231.813 244.671 231.867 244.498C231.922 244.325 232.008 244.23 232.159 244.217C232.31 244.205 232.523 244.278 232.76 244.437C232.998 244.595 233.267 244.842 233.516 245.167C233.765 245.493 233.983 245.898 234.134 246.379C234.284 246.861 234.351 247.416 234.306 248.03C234.263 248.65 234.119 249.333 233.842 250.064C233.565 250.794 233.165 251.577 232.657 252.39C231.792 253.781 230.634 255.285 229.275 256.867C228.172 258.149 226.926 259.49 225.687 260.861H219.952L219.952 260.861Z" fill="#00892C"/>
<path fill-rule="evenodd" clip-rule="evenodd" d="M300.651 260.862C300.619 260.574 300.576 260.29 300.548 259.999C300.544 259.97 300.55 259.94 300.548 259.911C300.315 257.455 300.205 255.112 300.074 252.969C299.943 250.826 299.777 248.884 299.538 247.254C299.3 245.625 298.992 244.308 298.611 243.396C298.23 242.483 297.789 241.978 297.334 241.978C296.879 241.978 296.444 242.48 296.036 243.388C295.627 244.296 295.24 245.608 294.882 247.232C294.524 248.857 294.198 250.797 293.996 252.954C293.794 255.112 293.721 257.489 293.955 259.992C293.957 260.021 293.952 260.05 293.955 260.079C293.98 260.343 294.026 260.6 294.058 260.861H300.651L300.651 260.862Z" fill="#00892C"/>
<path fill-rule="evenodd" clip-rule="evenodd" d="M283.393 260.862C283.255 259.632 282.959 258.453 282.503 257.372C281.951 256.063 281.174 254.898 280.312 253.948C279.45 252.998 278.516 252.26 277.74 251.772C276.963 251.284 276.359 251.044 276.072 251.085C275.785 251.127 275.842 251.447 276.1 251.983C276.358 252.519 276.798 253.273 277.231 254.214C277.664 255.154 278.08 256.28 278.376 257.543C278.616 258.568 278.768 259.688 278.871 260.862H283.394L283.393 260.862Z" fill="#00892C"/>
<path fill-rule="evenodd" clip-rule="evenodd" d="M318.831 240.976C318.661 240.975 318.385 241.051 318.024 241.207C317.612 241.386 317.087 241.671 316.513 242.054C315.939 242.437 315.319 242.919 314.728 243.503C314.136 244.088 313.58 244.776 313.148 245.55C312.753 246.259 312.47 247.04 312.324 247.882C312.177 248.724 312.174 249.626 312.341 250.568C312.589 251.958 313.161 253.436 314.058 254.965C314.955 256.493 316.172 258.07 317.56 259.666C317.843 259.991 318.13 260.309 318.419 260.628C318.532 260.754 318.649 260.875 318.762 261H324.497C324.208 260.68 323.926 260.368 323.639 260.044C323.361 259.728 323.091 259.413 322.815 259.094C321.459 257.527 320.236 256.003 319.26 254.551C318.285 253.098 317.564 251.716 317.131 250.415C316.838 249.537 316.663 248.696 316.616 247.912C316.57 247.129 316.649 246.401 316.805 245.732C317.143 244.277 317.875 243.111 318.402 242.303C318.666 241.9 318.868 241.583 318.969 241.359C319.069 241.136 319.06 241.009 318.9 240.982C318.88 240.979 318.856 240.976 318.831 240.976L318.831 240.976Z" fill="#00892C"/>
<path fill-rule="evenodd" clip-rule="evenodd" d="M253.549 241.114C253.611 241.11 253.695 241.118 253.755 241.151C253.815 241.183 253.843 241.246 253.858 241.29C253.888 241.367 253.891 241.466 253.858 241.582C253.791 241.809 253.599 242.114 253.323 242.479C252.773 243.204 251.845 244.2 250.73 245.413C248.529 247.806 245.541 251.094 243.221 254.972C242.095 256.857 241.153 258.884 240.505 260.999H233.86C234.565 258.688 235.752 256.487 237.193 254.468C238.618 252.47 240.293 250.649 242.007 249.039C243.721 247.429 245.469 246.031 247.068 244.88C248.695 243.709 250.147 242.801 251.265 242.165C251.832 241.842 252.297 241.596 252.664 241.421C252.851 241.331 253.009 241.266 253.137 241.216C253.221 241.171 253.319 241.165 253.384 241.151C253.449 241.137 253.486 241.119 253.549 241.114L253.549 241.114Z" fill="#00892C"/>
<path fill-rule="evenodd" clip-rule="evenodd" d="M265.625 244.977C265.974 245.019 265.853 245.522 265.402 246.396C264.951 247.27 264.176 248.519 263.273 250.062C262.369 251.605 261.341 253.437 260.56 255.482C259.908 257.191 259.431 259.05 259.358 260.999H253.916C254.065 258.93 254.729 256.974 255.65 255.202C256.744 253.094 258.178 251.238 259.582 249.709C260.985 248.179 262.356 246.982 263.427 246.17C264.499 245.359 265.276 244.935 265.625 244.977V244.977Z" fill="#00892C"/>
<path fill-rule="evenodd" clip-rule="evenodd" d="M334.066 245.369C333.66 245.369 333.279 245.774 332.907 246.491C332.536 247.209 332.165 248.242 331.803 249.526C331.441 250.81 331.097 252.34 330.828 254.049C330.559 255.758 330.373 257.645 330.478 259.636C330.482 259.702 330.493 259.766 330.497 259.832C330.516 260.175 330.551 260.518 330.589 260.856H336.477C336.446 260.502 336.408 260.147 336.385 259.786C336.381 259.722 336.37 259.661 336.367 259.597C336.261 257.656 336.267 255.794 336.238 254.095C336.209 252.396 336.151 250.86 335.98 249.565C335.81 248.271 335.54 247.223 335.207 246.498C334.875 245.773 334.473 245.369 334.067 245.369L334.066 245.369Z" fill="#00892C"/>
<path fill-rule="evenodd" clip-rule="evenodd" d="M339.467 246.98C339.106 247.02 339.134 247.454 339.381 248.204C339.629 248.955 340.097 250.022 340.583 251.341C341.07 252.66 341.562 254.233 341.957 255.987C342.305 257.534 342.567 259.226 342.764 261H348.258C348.032 259.16 347.607 257.398 346.988 255.793C346.295 253.998 345.374 252.396 344.378 251.073C343.381 249.75 342.313 248.705 341.425 248.004C340.537 247.302 339.828 246.941 339.467 246.98L339.467 246.98Z" fill="#00892C"/>
<path fill-rule="evenodd" clip-rule="evenodd" d="M186.437 260.861C186.451 260.478 186.457 260.095 186.437 259.704C186.422 259.43 186.385 259.153 186.351 258.876C186.144 257.176 185.575 255.542 184.6 254.047C183.625 252.552 182.254 251.194 180.582 250.009C179.056 248.91 177.286 247.961 175.5 247.177C173.715 246.394 171.909 245.779 170.315 245.296C166.713 244.443 164.649 243.859 164.838 243.694C165.038 243.531 167.503 243.81 171.775 244.461C173.735 244.868 175.976 245.451 178.23 246.24C180.485 247.028 182.74 248.028 184.703 249.224C186.769 250.497 188.495 251.974 189.716 253.596C190.938 255.218 191.662 256.982 191.863 258.797C191.895 259.093 191.908 259.389 191.914 259.68C191.925 260.079 191.908 260.47 191.88 260.862H186.437L186.437 260.861Z" fill="#00892C"/>
<path fill-rule="evenodd" clip-rule="evenodd" d="M204.343 260.862C204.459 260.482 204.589 260.101 204.686 259.717C205.264 257.436 205.447 255.221 205.281 253.132C205.089 250.685 204.41 248.407 203.496 246.376C202.582 244.346 201.442 242.567 200.383 241.091C199.323 239.614 198.363 238.438 197.773 237.616C197.183 236.793 196.961 236.322 197.338 236.26C197.716 236.197 198.654 236.549 199.948 237.283C201.242 238.016 202.901 239.134 204.595 240.595C206.288 242.056 207.999 243.864 209.402 245.962C210.804 248.06 211.881 250.447 212.309 253.026C212.672 255.225 212.592 257.559 211.989 259.952C211.911 260.258 211.829 260.559 211.737 260.862H204.343L204.343 260.862Z" fill="#00892C"/>
<path fill-rule="evenodd" clip-rule="evenodd" d="M219.952 260.861C221.419 259.256 222.935 257.727 224.33 256.294C225.833 254.75 227.191 253.31 228.296 251.988C228.941 251.216 229.505 250.487 229.962 249.808C230.419 249.129 230.764 248.501 231.026 247.926C231.282 247.358 231.449 246.842 231.558 246.392C231.668 245.941 231.714 245.558 231.747 245.241C231.781 244.923 231.813 244.671 231.867 244.498C231.922 244.325 232.008 244.23 232.159 244.217C232.31 244.205 232.523 244.278 232.76 244.437C232.998 244.595 233.267 244.842 233.516 245.167C233.765 245.493 233.983 245.898 234.134 246.379C234.284 246.861 234.351 247.416 234.306 248.03C234.263 248.65 234.119 249.333 233.842 250.064C233.565 250.794 233.165 251.577 232.657 252.39C231.792 253.781 230.634 255.285 229.275 256.867C228.172 258.149 226.926 259.49 225.687 260.861H219.952L219.952 260.861Z" fill="#00892C"/>
<path fill-rule="evenodd" clip-rule="evenodd" d="M300.651 260.862C300.619 260.574 300.576 260.29 300.548 259.999C300.544 259.97 300.55 259.94 300.548 259.911C300.315 257.455 300.205 255.112 300.074 252.969C299.943 250.826 299.777 248.884 299.538 247.254C299.3 245.625 298.992 244.308 298.611 243.396C298.23 242.483 297.789 241.978 297.334 241.978C296.879 241.978 296.444 242.48 296.036 243.388C295.627 244.296 295.24 245.608 294.882 247.232C294.524 248.857 294.198 250.797 293.996 252.954C293.794 255.112 293.721 257.489 293.955 259.992C293.957 260.021 293.952 260.05 293.955 260.079C293.98 260.343 294.026 260.6 294.058 260.861H300.651L300.651 260.862Z" fill="#00892C"/>
<path fill-rule="evenodd" clip-rule="evenodd" d="M283.393 260.862C283.255 259.632 282.959 258.453 282.503 257.372C281.951 256.063 281.174 254.898 280.312 253.948C279.45 252.998 278.516 252.26 277.74 251.772C276.963 251.284 276.359 251.044 276.072 251.085C275.785 251.127 275.842 251.447 276.1 251.983C276.358 252.519 276.798 253.273 277.231 254.214C277.664 255.154 278.08 256.28 278.376 257.543C278.616 258.568 278.768 259.688 278.871 260.862H283.394L283.393 260.862Z" fill="#00892C"/>
<path fill-rule="evenodd" clip-rule="evenodd" d="M318.831 240.976C318.661 240.975 318.385 241.051 318.024 241.207C317.612 241.386 317.087 241.671 316.513 242.054C315.939 242.437 315.319 242.919 314.728 243.503C314.136 244.088 313.58 244.776 313.148 245.55C312.753 246.259 312.47 247.04 312.324 247.882C312.177 248.724 312.174 249.626 312.341 250.568C312.589 251.958 313.161 253.436 314.058 254.965C314.955 256.493 316.172 258.07 317.56 259.666C317.843 259.991 318.13 260.309 318.419 260.628C318.532 260.754 318.649 260.875 318.762 261H324.497C324.208 260.68 323.926 260.368 323.639 260.044C323.361 259.728 323.091 259.413 322.815 259.094C321.459 257.527 320.236 256.003 319.26 254.551C318.285 253.098 317.564 251.716 317.131 250.415C316.838 249.537 316.663 248.696 316.616 247.912C316.57 247.129 316.649 246.401 316.805 245.732C317.143 244.277 317.875 243.111 318.402 242.303C318.666 241.9 318.868 241.583 318.969 241.359C319.069 241.136 319.06 241.009 318.9 240.982C318.88 240.979 318.856 240.976 318.831 240.976L318.831 240.976Z" fill="#00892C"/>
<path fill-rule="evenodd" clip-rule="evenodd" d="M253.549 241.114C253.611 241.11 253.695 241.118 253.755 241.151C253.815 241.183 253.843 241.246 253.858 241.29C253.888 241.367 253.891 241.466 253.858 241.582C253.791 241.809 253.599 242.114 253.323 242.479C252.773 243.204 251.845 244.2 250.73 245.413C248.529 247.806 245.541 251.094 243.221 254.972C242.095 256.857 241.153 258.884 240.505 260.999H233.86C234.565 258.688 235.752 256.487 237.193 254.468C238.618 252.47 240.293 250.649 242.007 249.039C243.721 247.429 245.469 246.031 247.068 244.88C248.695 243.709 250.147 242.801 251.265 242.165C251.832 241.842 252.297 241.596 252.664 241.421C252.851 241.331 253.009 241.266 253.137 241.216C253.221 241.171 253.319 241.165 253.384 241.151C253.449 241.137 253.486 241.119 253.549 241.114L253.549 241.114Z" fill="#00892C"/>
<path fill-rule="evenodd" clip-rule="evenodd" d="M265.625 244.977C265.974 245.019 265.853 245.522 265.402 246.396C264.951 247.27 264.176 248.519 263.273 250.062C262.369 251.605 261.341 253.437 260.56 255.482C259.908 257.191 259.431 259.05 259.358 260.999H253.916C254.065 258.93 254.729 256.974 255.65 255.202C256.744 253.094 258.178 251.238 259.582 249.709C260.985 248.179 262.356 246.982 263.427 246.17C264.499 245.359 265.276 244.935 265.625 244.977V244.977Z" fill="#00892C"/>
<path fill-rule="evenodd" clip-rule="evenodd" d="M334.066 245.369C333.66 245.369 333.279 245.774 332.907 246.491C332.536 247.209 332.165 248.242 331.803 249.526C331.441 250.81 331.097 252.34 330.828 254.049C330.559 255.758 330.373 257.645 330.478 259.636C330.482 259.702 330.493 259.766 330.497 259.832C330.516 260.175 330.551 260.518 330.589 260.856H336.477C336.446 260.502 336.408 260.147 336.385 259.786C336.381 259.722 336.37 259.661 336.367 259.597C336.261 257.656 336.267 255.794 336.238 254.095C336.209 252.396 336.151 250.86 335.98 249.565C335.81 248.271 335.54 247.223 335.207 246.498C334.875 245.773 334.473 245.369 334.067 245.369L334.066 245.369Z" fill="#00892C"/>
<path fill-rule="evenodd" clip-rule="evenodd" d="M339.467 246.98C339.106 247.02 339.134 247.454 339.381 248.204C339.629 248.955 340.097 250.022 340.583 251.341C341.07 252.66 341.562 254.233 341.957 255.987C342.305 257.534 342.567 259.226 342.764 261H348.258C348.032 259.16 347.607 257.398 346.988 255.793C346.295 253.998 345.374 252.396 344.378 251.073C343.381 249.75 342.313 248.705 341.425 248.004C340.537 247.302 339.828 246.941 339.467 246.98L339.467 246.98Z" fill="#00892C"/>
<path fill-rule="evenodd" clip-rule="evenodd" d="M190.866 258.909C190.88 258.515 190.886 258.121 190.866 257.72C190.85 257.439 190.812 257.154 190.777 256.87C190.565 255.124 189.98 253.446 188.979 251.91C187.978 250.375 186.57 248.98 184.853 247.764C183.286 246.635 181.467 245.66 179.634 244.856C177.801 244.052 175.946 243.419 174.309 242.923C170.609 242.048 168.49 241.448 168.684 241.279C168.89 241.112 171.421 241.398 175.808 242.067C177.821 242.484 180.122 243.083 182.438 243.893C184.753 244.703 187.069 245.73 189.085 246.957C191.206 248.265 192.979 249.782 194.234 251.448C195.488 253.113 196.232 254.925 196.438 256.789C196.471 257.092 196.484 257.396 196.491 257.695C196.502 258.105 196.484 258.507 196.455 258.909H190.866L190.866 258.909Z" fill="#00892C"/>
<path fill-rule="evenodd" clip-rule="evenodd" d="M207.502 258.909C207.646 258.465 207.807 258.02 207.928 257.57C208.645 254.902 208.873 252.313 208.667 249.869C208.429 247.008 207.585 244.343 206.451 241.969C205.316 239.594 203.901 237.514 202.586 235.787C201.271 234.06 200.079 232.685 199.346 231.723C198.614 230.761 198.338 230.21 198.807 230.137C199.275 230.064 200.44 230.475 202.046 231.333C203.652 232.191 205.712 233.499 207.814 235.207C209.917 236.916 212.041 239.031 213.782 241.484C215.522 243.938 216.859 246.729 217.391 249.745C217.841 252.317 217.741 255.046 216.993 257.845C216.897 258.203 216.795 258.555 216.68 258.909H207.502L207.502 258.909Z" fill="#00892C"/>
<path fill-rule="evenodd" clip-rule="evenodd" d="M225.287 258.909C226.793 257.26 228.351 255.69 229.783 254.218C231.326 252.633 232.721 251.154 233.856 249.797C234.518 249.004 235.097 248.255 235.566 247.558C236.036 246.861 236.391 246.216 236.66 245.625C236.923 245.042 237.094 244.512 237.206 244.049C237.318 243.587 237.366 243.194 237.4 242.867C237.434 242.541 237.467 242.282 237.523 242.104C237.58 241.927 237.668 241.829 237.823 241.817C237.978 241.804 238.196 241.879 238.44 242.042C238.684 242.204 238.961 242.458 239.216 242.792C239.472 243.126 239.696 243.542 239.851 244.037C240.005 244.531 240.073 245.101 240.027 245.732C239.983 246.369 239.835 247.07 239.551 247.82C239.267 248.571 238.856 249.374 238.335 250.209C237.446 251.638 236.257 253.182 234.861 254.806C233.729 256.123 232.449 257.5 231.176 258.909H225.287L225.287 258.909Z" fill="#00892C"/>
<path fill-rule="evenodd" clip-rule="evenodd" d="M294.668 258.909C294.635 258.614 294.591 258.322 294.562 258.023C294.558 257.994 294.565 257.963 294.562 257.933C294.323 255.411 294.21 253.005 294.075 250.804C293.94 248.603 293.77 246.608 293.525 244.935C293.28 243.262 292.964 241.909 292.573 240.972C292.182 240.035 291.728 239.516 291.261 239.516C290.794 239.516 290.347 240.032 289.928 240.965C289.509 241.897 289.111 243.244 288.743 244.912C288.375 246.581 288.041 248.573 287.833 250.789C287.626 253.004 287.551 255.446 287.791 258.016C287.794 258.046 287.788 258.076 287.791 258.106C287.816 258.377 287.864 258.641 287.897 258.909H294.667L294.668 258.909Z" fill="#00892C"/>
<path fill-rule="evenodd" clip-rule="evenodd" d="M276.949 258.909C276.806 257.646 276.502 256.435 276.034 255.325C275.467 253.981 274.67 252.785 273.784 251.809C272.899 250.833 271.94 250.076 271.143 249.575C270.345 249.073 269.724 248.827 269.43 248.869C269.136 248.912 269.194 249.24 269.459 249.791C269.724 250.341 270.176 251.116 270.62 252.082C271.065 253.048 271.492 254.204 271.796 255.501C272.042 256.553 272.198 257.704 272.304 258.909H276.949L276.949 258.909Z" fill="#00892C"/>
<path fill-rule="evenodd" clip-rule="evenodd" d="M326.831 238.488C326.656 238.487 326.373 238.564 326.002 238.725C325.578 238.909 325.04 239.201 324.45 239.595C323.861 239.988 323.224 240.483 322.617 241.083C322.01 241.683 321.438 242.39 320.994 243.184C320.588 243.913 320.299 244.715 320.148 245.58C319.998 246.444 319.995 247.371 320.166 248.338C320.421 249.766 321.008 251.283 321.929 252.853C322.85 254.423 324.1 256.043 325.526 257.681C325.816 258.015 326.111 258.342 326.407 258.669C326.524 258.798 326.643 258.923 326.76 259.051H332.649C332.353 258.723 332.062 258.402 331.768 258.069C331.482 257.745 331.205 257.421 330.921 257.093C329.529 255.485 328.273 253.92 327.271 252.428C326.27 250.936 325.529 249.517 325.085 248.181C324.783 247.279 324.604 246.416 324.556 245.611C324.508 244.806 324.59 244.059 324.75 243.372C325.097 241.877 325.848 240.68 326.39 239.851C326.661 239.436 326.869 239.111 326.972 238.881C327.075 238.652 327.065 238.522 326.901 238.494C326.881 238.49 326.856 238.488 326.831 238.487L326.831 238.488Z" fill="#00892C"/>
<path fill-rule="evenodd" clip-rule="evenodd" d="M298.305 238.63C298.241 238.625 298.155 238.634 298.093 238.667C298.032 238.701 298.003 238.765 297.988 238.81C297.956 238.889 297.953 238.991 297.988 239.109C298.056 239.343 298.253 239.657 298.537 240.031C299.102 240.775 300.054 241.798 301.199 243.044C303.46 245.502 306.529 248.878 308.911 252.861C310.068 254.797 311.034 256.879 311.7 259.051H318.524C317.8 256.678 316.581 254.417 315.101 252.344C313.638 250.292 311.918 248.422 310.157 246.768C308.397 245.115 306.603 243.679 304.96 242.497C303.29 241.294 301.798 240.362 300.65 239.709C300.068 239.377 299.59 239.124 299.213 238.945C299.021 238.852 298.859 238.786 298.727 238.735C298.642 238.688 298.54 238.682 298.474 238.668C298.407 238.653 298.369 238.635 298.305 238.63L298.305 238.63Z" fill="#00892C"/>
<path fill-rule="evenodd" clip-rule="evenodd" d="M258.702 242.596C259.061 242.639 258.936 243.155 258.473 244.053C258.01 244.951 257.215 246.234 256.287 247.818C255.359 249.402 254.303 251.284 253.501 253.384C252.831 255.139 252.341 257.048 252.267 259.05H246.677C246.831 256.925 247.513 254.917 248.458 253.096C249.582 250.932 251.055 249.026 252.496 247.455C253.938 245.885 255.345 244.655 256.446 243.822C257.546 242.988 258.344 242.553 258.703 242.596L258.702 242.596Z" fill="#00892C"/>
<path fill-rule="evenodd" clip-rule="evenodd" d="M342.478 242.999C342.061 242.999 341.669 243.415 341.288 244.152C340.906 244.889 340.526 245.95 340.154 247.268C339.782 248.587 339.429 250.159 339.152 251.913C338.876 253.668 338.685 255.607 338.793 257.651C338.797 257.719 338.808 257.784 338.812 257.852C338.832 258.205 338.867 258.557 338.907 258.904H344.954C344.922 258.541 344.883 258.175 344.859 257.805C344.855 257.739 344.844 257.677 344.84 257.611C344.732 255.618 344.738 253.705 344.708 251.96C344.678 250.215 344.619 248.638 344.443 247.309C344.268 245.979 343.991 244.903 343.65 244.159C343.308 243.414 342.895 242.999 342.478 242.999L342.478 242.999Z" fill="#00892C"/>
<path fill-rule="evenodd" clip-rule="evenodd" d="M348.022 244.654C347.651 244.694 347.68 245.14 347.934 245.911C348.187 246.681 348.668 247.777 349.168 249.132C349.668 250.486 350.173 252.101 350.579 253.903C350.936 255.491 351.205 257.229 351.407 259.05H357.05C356.818 257.161 356.381 255.351 355.745 253.703C355.034 251.86 354.088 250.215 353.065 248.856C352.042 247.498 350.944 246.425 350.032 245.704C349.12 244.983 348.393 244.613 348.022 244.653L348.022 244.654Z" fill="#00892C"/>
<path fill-rule="evenodd" clip-rule="evenodd" d="M201.903 259.513C201.916 259.174 201.921 258.834 201.903 258.489C201.89 258.246 201.857 258.001 201.827 257.756C201.644 256.25 201.14 254.804 200.277 253.48C199.414 252.157 198.201 250.955 196.721 249.906C195.37 248.933 193.802 248.093 192.222 247.4C190.642 246.706 189.043 246.161 187.632 245.734C184.443 244.979 182.616 244.462 182.784 244.316C182.961 244.172 185.143 244.419 188.924 244.995C190.66 245.355 192.643 245.871 194.638 246.569C196.634 247.268 198.631 248.153 200.368 249.211C202.197 250.338 203.725 251.646 204.806 253.082C205.888 254.517 206.529 256.079 206.706 257.685C206.735 257.947 206.746 258.209 206.752 258.467C206.761 258.82 206.746 259.167 206.721 259.513H201.903V259.513Z" fill="#00892C"/>
<path fill-rule="evenodd" clip-rule="evenodd" d="M218.304 259.513C218.407 259.177 218.521 258.84 218.608 258.499C219.119 256.48 219.281 254.52 219.134 252.671C218.964 250.505 218.363 248.488 217.554 246.691C216.745 244.893 215.736 243.319 214.798 242.011C213.86 240.704 213.01 239.663 212.488 238.935C211.966 238.207 211.769 237.79 212.103 237.735C212.437 237.68 213.268 237.991 214.413 238.641C215.558 239.29 217.027 240.28 218.526 241.573C220.026 242.866 221.54 244.467 222.782 246.324C224.023 248.181 224.976 250.294 225.355 252.577C225.677 254.523 225.606 256.589 225.072 258.708C225.003 258.979 224.93 259.245 224.849 259.513H218.303L218.304 259.513Z" fill="#00892C"/>
<path fill-rule="evenodd" clip-rule="evenodd" d="M231.572 259.513C232.871 258.092 234.213 256.738 235.448 255.47C236.778 254.103 237.98 252.828 238.959 251.658C239.529 250.975 240.028 250.329 240.433 249.728C240.837 249.128 241.143 248.572 241.375 248.063C241.602 247.56 241.75 247.103 241.846 246.704C241.943 246.306 241.984 245.967 242.014 245.685C242.043 245.404 242.071 245.181 242.12 245.028C242.168 244.874 242.245 244.79 242.378 244.78C242.512 244.769 242.7 244.833 242.91 244.974C243.121 245.114 243.359 245.333 243.579 245.621C243.799 245.909 243.993 246.267 244.126 246.693C244.259 247.12 244.318 247.611 244.278 248.154C244.24 248.704 244.113 249.308 243.868 249.955C243.623 250.601 243.268 251.294 242.819 252.014C242.053 253.245 241.028 254.577 239.825 255.976C238.849 257.111 237.746 258.298 236.648 259.513H231.572L231.572 259.513Z" fill="#00892C"/>
<path fill-rule="evenodd" clip-rule="evenodd" d="M291.789 259.513C291.76 259.259 291.723 259.007 291.697 258.75C291.695 258.724 291.7 258.697 291.697 258.672C291.492 256.498 291.394 254.423 291.278 252.526C291.162 250.629 291.015 248.91 290.804 247.467C290.593 246.025 290.32 244.859 289.983 244.052C289.646 243.244 289.255 242.797 288.852 242.797C288.45 242.797 288.065 243.242 287.703 244.045C287.342 244.849 286.999 246.01 286.682 247.448C286.365 248.886 286.077 250.604 285.898 252.513C285.719 254.423 285.654 256.528 285.861 258.743C285.863 258.769 285.859 258.795 285.861 258.821C285.883 259.054 285.924 259.282 285.952 259.513H291.789L291.789 259.513Z" fill="#00892C"/>
<path fill-rule="evenodd" clip-rule="evenodd" d="M276.515 259.513C276.392 258.425 276.13 257.381 275.726 256.424C275.238 255.265 274.55 254.234 273.787 253.393C273.024 252.552 272.197 251.899 271.51 251.467C270.822 251.035 270.287 250.822 270.034 250.859C269.78 250.896 269.83 251.179 270.059 251.653C270.287 252.128 270.676 252.796 271.059 253.628C271.443 254.461 271.811 255.457 272.073 256.575C272.286 257.483 272.42 258.474 272.511 259.513H276.515H276.515Z" fill="#00892C"/>
<path fill-rule="evenodd" clip-rule="evenodd" d="M319.1 241.91C318.95 241.909 318.705 241.976 318.386 242.114C318.021 242.273 317.557 242.525 317.048 242.864C316.54 243.203 315.991 243.629 315.468 244.147C314.944 244.664 314.452 245.273 314.069 245.958C313.719 246.586 313.47 247.278 313.34 248.023C313.21 248.768 313.208 249.567 313.355 250.4C313.575 251.631 314.081 252.939 314.875 254.293C315.669 255.646 316.747 257.042 317.975 258.454C318.226 258.742 318.48 259.024 318.735 259.306C318.835 259.417 318.939 259.525 319.039 259.635H324.116C323.86 259.352 323.61 259.076 323.356 258.789C323.11 258.509 322.871 258.23 322.626 257.948C321.426 256.561 320.343 255.212 319.48 253.926C318.617 252.64 317.978 251.417 317.595 250.266C317.335 249.488 317.181 248.744 317.139 248.05C317.098 247.356 317.169 246.712 317.307 246.12C317.605 244.831 318.253 243.8 318.72 243.085C318.954 242.728 319.133 242.447 319.222 242.249C319.31 242.052 319.302 241.939 319.161 241.915C319.143 241.912 319.122 241.91 319.1 241.91L319.1 241.91Z" fill="#00892C"/>
<path fill-rule="evenodd" clip-rule="evenodd" d="M294.514 242.032C294.459 242.028 294.385 242.036 294.332 242.065C294.278 242.093 294.253 242.149 294.241 242.187C294.213 242.256 294.211 242.344 294.241 242.446C294.299 242.647 294.469 242.918 294.714 243.24C295.201 243.882 296.022 244.763 297.009 245.837C298.957 247.956 301.603 250.867 303.656 254.299C304.653 255.968 305.487 257.762 306.06 259.635H311.943C311.319 257.589 310.268 255.64 308.992 253.854C307.731 252.085 306.248 250.473 304.731 249.048C303.214 247.622 301.667 246.385 300.251 245.365C298.811 244.329 297.525 243.526 296.536 242.962C296.034 242.676 295.622 242.458 295.297 242.304C295.131 242.224 294.992 242.167 294.878 242.123C294.805 242.082 294.717 242.077 294.66 242.065C294.603 242.052 294.569 242.036 294.514 242.032L294.514 242.032Z" fill="#00892C"/>
<path fill-rule="evenodd" clip-rule="evenodd" d="M260.779 245.452C261.088 245.489 260.981 245.935 260.582 246.709C260.183 247.482 259.497 248.588 258.697 249.954C257.897 251.319 256.987 252.941 256.296 254.752C255.718 256.265 255.296 257.91 255.232 259.636H250.414C250.546 257.804 251.134 256.073 251.949 254.504C252.918 252.638 254.187 250.995 255.429 249.641C256.672 248.288 257.885 247.227 258.834 246.509C259.783 245.791 260.47 245.416 260.779 245.453L260.779 245.452Z" fill="#00892C"/>
<path fill-rule="evenodd" clip-rule="evenodd" d="M332.589 245.799C332.229 245.799 331.891 246.158 331.562 246.793C331.233 247.428 330.906 248.343 330.585 249.48C330.265 250.616 329.96 251.971 329.722 253.483C329.484 254.996 329.319 256.667 329.412 258.429C329.415 258.487 329.425 258.544 329.429 258.602C329.446 258.906 329.476 259.21 329.51 259.509H334.722C334.695 259.196 334.661 258.881 334.641 258.562C334.638 258.505 334.628 258.451 334.625 258.394C334.531 256.676 334.536 255.028 334.511 253.524C334.485 252.02 334.434 250.66 334.283 249.514C334.132 248.368 333.893 247.44 333.598 246.799C333.304 246.157 332.948 245.799 332.589 245.799L332.589 245.799Z" fill="#00892C"/>
<path fill-rule="evenodd" clip-rule="evenodd" d="M337.368 247.226C337.049 247.261 337.074 247.645 337.292 248.309C337.511 248.973 337.926 249.918 338.356 251.086C338.787 252.253 339.223 253.646 339.572 255.199C339.88 256.568 340.113 258.066 340.287 259.636H345.15C344.95 258.008 344.574 256.447 344.025 255.027C343.412 253.438 342.597 252.02 341.715 250.849C340.833 249.677 339.887 248.753 339.101 248.132C338.315 247.51 337.688 247.191 337.368 247.226V247.226Z" fill="#00892C"/>
<path fill-rule="evenodd" clip-rule="evenodd" d="M264.103 259.513C264.206 259.177 264.321 258.84 264.407 258.499C264.919 256.48 265.081 254.52 264.934 252.671C264.764 250.505 264.162 248.488 263.354 246.691C262.545 244.893 261.536 243.319 260.598 242.011C259.66 240.704 258.81 239.663 258.288 238.935C257.765 238.207 257.568 237.79 257.903 237.735C258.237 237.68 259.067 237.991 260.213 238.641C261.358 239.29 262.827 240.28 264.326 241.573C265.825 242.866 267.34 244.467 268.581 246.324C269.823 248.181 270.776 250.294 271.155 252.577C271.476 254.523 271.405 256.589 270.871 258.708C270.803 258.979 270.73 259.245 270.648 259.513H264.103L264.103 259.513Z" fill="#00892C"/>
<path fill-rule="evenodd" clip-rule="evenodd" d="M283.586 241.91C283.435 241.909 283.191 241.976 282.871 242.114C282.506 242.273 282.042 242.525 281.534 242.864C281.026 243.203 280.476 243.629 279.953 244.147C279.43 244.664 278.937 245.273 278.555 245.958C278.205 246.586 277.955 247.278 277.825 248.023C277.696 248.768 277.693 249.567 277.84 250.4C278.06 251.631 278.566 252.939 279.36 254.293C280.154 255.646 281.232 257.042 282.461 258.454C282.711 258.742 282.965 259.024 283.221 259.306C283.321 259.417 283.424 259.525 283.525 259.635H288.601C288.345 259.352 288.095 259.076 287.841 258.789C287.595 258.509 287.356 258.23 287.112 257.948C285.912 256.561 284.829 255.212 283.966 253.926C283.102 252.64 282.464 251.417 282.081 250.266C281.821 249.488 281.666 248.744 281.625 248.05C281.583 247.356 281.654 246.712 281.792 246.12C282.091 244.831 282.739 243.8 283.206 243.085C283.439 242.728 283.618 242.447 283.707 242.249C283.796 242.052 283.788 241.939 283.646 241.915C283.629 241.912 283.607 241.91 283.586 241.91L283.586 241.91Z" fill="#00892C"/>
<path fill-rule="evenodd" clip-rule="evenodd" d="M332.308 243.007C332.363 243.003 332.437 243.01 332.491 243.039C332.544 243.068 332.569 243.123 332.582 243.162C332.609 243.23 332.611 243.318 332.582 243.42C332.523 243.621 332.353 243.892 332.108 244.215C331.621 244.856 330.8 245.738 329.813 246.811C327.865 248.93 325.219 251.841 323.166 255.274C322.169 256.942 321.335 258.737 320.762 260.609H314.879C315.503 258.564 316.554 256.615 317.83 254.828C319.091 253.059 320.574 251.447 322.091 250.022C323.609 248.597 325.155 247.359 326.571 246.34C328.011 245.303 329.297 244.5 330.286 243.937C330.788 243.65 331.2 243.433 331.525 243.278C331.691 243.198 331.83 243.141 331.944 243.097C332.017 243.057 332.105 243.051 332.162 243.039C332.22 243.027 332.253 243.011 332.308 243.007L332.308 243.007Z" fill="#00892C"/>
<path fill-rule="evenodd" clip-rule="evenodd" d="M357.28 245.452C357.589 245.489 357.481 245.935 357.082 246.709C356.683 247.482 355.997 248.588 355.197 249.954C354.398 251.319 353.487 252.941 352.796 254.752C352.219 256.265 351.796 257.91 351.732 259.636H346.914C347.047 257.804 347.634 256.073 348.449 254.504C349.418 252.638 350.687 250.995 351.93 249.641C353.172 248.288 354.385 247.227 355.334 246.509C356.283 245.791 356.97 245.416 357.28 245.453V245.452Z" fill="#00892C"/>
<path fill-rule="evenodd" clip-rule="evenodd" d="M308.612 245.215C308.252 245.215 307.915 245.573 307.586 246.209C307.257 246.844 306.929 247.759 306.608 248.895C306.288 250.031 305.983 251.386 305.745 252.899C305.507 254.411 305.342 256.082 305.436 257.844C305.438 257.903 305.448 257.959 305.452 258.018C305.469 258.322 305.499 258.625 305.533 258.925H310.746C310.718 258.611 310.685 258.297 310.664 257.977C310.661 257.92 310.651 257.867 310.648 257.81C310.554 256.092 310.559 254.443 310.534 252.939C310.508 251.435 310.457 250.076 310.306 248.93C310.155 247.784 309.916 246.856 309.622 246.214C309.327 245.573 308.971 245.215 308.612 245.215V245.215Z" fill="#00892C"/>
<path fill-rule="evenodd" clip-rule="evenodd" d="M272.735 246.446C272.415 246.481 272.44 246.866 272.659 247.53C272.877 248.194 273.292 249.139 273.723 250.306C274.153 251.474 274.589 252.866 274.938 254.419C275.247 255.788 275.479 257.286 275.653 258.856H280.516C280.316 257.228 279.94 255.668 279.392 254.247C278.778 252.658 277.964 251.24 277.081 250.069C276.199 248.898 275.253 247.973 274.467 247.352C273.681 246.731 273.054 246.411 272.735 246.446V246.446Z" fill="#00892C"/>
<path fill-rule="evenodd" clip-rule="evenodd" d="M47.4448 256.991C49.7411 257.153 53.4934 258.467 53.5022 256.799C67.1245 242.782 72.9407 227.722 68.3316 212.946C66.3655 203.116 70.3913 192.727 86.6641 184.488C92.9813 181.125 100.519 178.079 108.233 175.115C90.3688 181.441 74.2148 188.938 68.9969 197.881C64.0072 205.276 65.6787 212.922 66.6618 220.434C66.9001 232.889 59.9451 245.371 47.4453 256.991L47.4448 256.991Z" fill="#00892C"/>
<path fill-rule="evenodd" clip-rule="evenodd" d="M111.069 187.096C93.7527 192.279 77.6349 198.593 70.732 206.604C68.4376 209.008 66.907 211.473 65.8387 213.969C66.4343 214.086 67.0363 214.199 67.6471 214.305C70.3473 207.252 76.9505 200.375 89.7135 194.943C96.1302 192.078 103.531 189.547 111.069 187.096L111.069 187.096Z" fill="#00892C"/>
<path d="M103.822 178.679C105.127 178.05 104.749 177.166 102.978 176.703C101.207 176.24 98.7137 176.374 97.4088 177.002L81.602 184.611C80.297 185.24 80.6749 186.124 82.4459 186.587C84.217 187.05 86.7106 186.916 88.0156 186.288L103.822 178.679Z" fill="#00892C"/>
<path d="M105.109 190.494C106.362 190.02 106.295 189.276 104.96 188.832C103.625 188.388 101.528 188.412 100.276 188.885L85.1077 194.62C83.8554 195.093 83.9222 195.837 85.2569 196.281C86.5916 196.725 88.6888 196.702 89.9411 196.228L105.109 190.494Z" fill="#00892C"/>
<path d="M24.3637 223.46C24.3633 223.464 24.3717 223.469 24.3715 223.472C18.035 224.633 12.3727 225.961 11.5227 226.71C13.6704 227.048 20.2805 226.804 27.124 226.284C32.6825 230.175 45.184 236.167 51.0161 236.692C53.5801 236.876 56.1516 237.064 58.5773 237.422L58.7472 237.439L58.8759 237.447C59.3182 237.116 58.0215 234.815 58.4093 234.303C57.2479 231.797 30.8026 223.468 24.3639 223.46L24.3637 223.46Z" fill="#00892C"/>
<path d="M73.4401 228.451C74.9203 228.119 76.5563 227.892 78.183 227.668C83.0067 226.905 92.4124 219.456 91.4861 217.903C87.2562 218.166 72.5267 224.701 72.5624 226.395C72.9804 226.715 72.8591 228.28 73.2554 228.48L73.3381 228.469L73.4404 228.451L73.4401 228.451Z" fill="#00892C"/>
<path d="M53.3072 233.842C52.3017 233.929 51.3532 234.051 50.4743 234.201C55.073 236.071 59.4188 238.065 62.9395 240.206C64.1807 240.03 65.2951 239.803 66.2532 239.53C62.5895 237.474 58.1487 235.58 53.3077 233.841L53.3072 233.842Z" fill="#00892C"/>
<path d="M76.4257 225.657C77.2464 225.728 78.0206 225.828 78.7381 225.95C74.9843 227.476 71.4369 229.104 68.5634 230.851C67.5503 230.708 66.6407 230.523 65.8586 230.3C68.849 228.622 72.4741 227.076 76.4256 225.657L76.4257 225.657Z" fill="#00892C"/>
<path fill-rule="evenodd" clip-rule="evenodd" d="M45.7572 192.216C41.1249 196.483 38.1015 200.795 38.8052 205.25C39.2289 212.204 46.3924 218.693 52.776 225.138C61.9902 235.965 64.1412 247.552 60.2243 258.956C62.5994 258.861 67.2322 259.625 66.0383 258.171C69.3298 244.563 64.2048 230.843 49.0183 218.442C40.1544 210.225 36.5919 200.945 46.019 192.235C45.8107 192.197 45.9594 192.261 45.7577 192.216L45.7572 192.216Z" fill="#00892C"/>
<path fill-rule="evenodd" clip-rule="evenodd" d="M72.408 191.542C59.1129 197.83 47.8128 204.982 46.7992 212.669C46.276 214.998 46.5477 217.303 47.2969 219.587C47.9665 219.627 48.6402 219.664 49.3174 219.694C46.8879 213.273 48.4248 206.605 57.0609 200.565C61.3071 197.413 66.7611 194.449 72.4076 191.542L72.408 191.542Z" fill="#00892C"/>
<path d="M63.8193 201.115C63.3272 201.616 62.4756 202.115 60.7226 202.834C57.083 203.62 51.1643 204.354 51.6916 205.932C51.6517 205.954 51.6342 205.968 51.6099 205.985C50.8735 206.301 50.1583 206.624 49.4802 206.955C49.7006 207.054 49.9788 207.143 50.2992 207.214C50.8968 206.896 51.5341 206.585 52.183 206.277C57.5964 206.179 59.1548 204.308 61.3806 203.077C63.393 202.427 64.794 202.107 66.2078 201.919C65.1022 202.026 63.7044 202.244 62.2267 202.528C62.9818 202.002 63.5456 201.506 63.8194 201.115L63.8193 201.115Z" fill="#00892C"/>
<path d="M65.4357 215.605C65.4499 215.654 65.4564 215.698 65.469 215.746C59.6106 217.785 58.3088 221.921 57.7872 225.533C57.2888 225.82 57.7898 226.714 58.3311 227.236C57.8939 227.666 57.4711 228.1 57.0879 228.541C57.5249 228.681 58.0332 228.796 58.5802 228.877C58.96 228.375 59.3819 227.882 59.8231 227.387C60.6376 227.274 61.0086 226.911 62.1375 226.358C65.478 222.911 68.9069 218.719 65.578 215.741C65.613 215.717 65.6432 215.696 65.6791 215.672C65.6345 215.687 65.5927 215.702 65.5486 215.717C65.5073 215.681 65.4792 215.641 65.4358 215.605L65.4357 215.605ZM65.4769 215.809C65.8917 217.448 65.2506 218.349 62.5447 221.274C63.0692 218.157 63.3891 217.244 65.4769 215.809V215.809Z" fill="#00892C"/>
<path d="M52.2202 196.368C51.8922 196.921 51.1868 197.487 49.6194 198.325C46.1009 199.315 40.1759 200.35 41.3182 202C41.2847 202.025 41.2718 202.041 41.2525 202.06C40.5993 202.427 39.971 202.8 39.3848 203.181C39.6525 203.276 39.977 203.358 40.3394 203.42C40.8464 203.057 41.3975 202.7 41.9621 202.345C47.5953 202.007 48.5284 199.955 50.3989 198.554C52.2637 197.778 53.6115 197.378 55.0222 197.117C53.9042 197.279 52.5216 197.57 51.0798 197.935C51.6742 197.345 52.0794 196.795 52.2199 196.368L52.2202 196.368Z" fill="#00892C"/>
<path d="M31.1557 192.449C32.2441 192.861 33.1463 193.391 34.1814 194.327C34.4494 195.917 33.4401 198.232 37.9053 198.847C37.944 198.871 37.9741 198.884 38.0056 198.9C38.4779 199.301 38.98 199.698 39.5231 200.086C39.8966 200.063 40.2723 200.016 40.6228 199.946C40.0755 199.591 39.5658 199.225 39.0718 198.858C41.5218 197.027 37.3199 195.579 35.1587 194.232C34.4357 193.245 34.2852 192.624 34.4931 192.064C34.2247 192.482 34.1042 193.051 34.1193 193.679C33.0977 193.168 32.0604 192.734 31.1557 192.449L31.1557 192.449Z" fill="#00892C"/>
<path d="M29.2699 205.162C30.7842 205.525 32.1743 206.036 34.0054 206.989C35.4485 208.744 35.9835 211.426 41.4212 211.71C41.4817 211.733 41.5248 211.745 41.5718 211.76C42.3879 212.166 43.2348 212.564 44.1221 212.95C44.5233 212.89 44.9096 212.804 45.2516 212.694C44.3837 212.345 43.5508 211.983 42.734 211.617C44.1591 209.347 38.417 208.107 35.0306 206.795C33.5119 205.756 32.8972 205.075 32.7277 204.43C32.7276 204.921 33.0015 205.569 33.4701 206.27C31.9595 205.79 30.4876 205.4 29.27 205.162L29.2699 205.162Z" fill="#00892C"/>
<path d="M65.3229 206.185C64.5329 206.633 63.4095 207.041 61.3011 207.574C57.3906 207.978 51.39 208.096 50.8386 209.718C50.7869 209.736 50.761 209.749 50.7275 209.763C49.8325 210.001 48.9525 210.248 48.1015 210.507C48.2415 210.628 48.442 210.745 48.6935 210.849C49.4604 210.595 50.2601 210.351 51.068 210.113C56.1769 210.574 58.8663 208.876 61.7532 207.883C64.0581 207.445 65.5752 207.272 67.0167 207.231C65.9157 207.223 64.4693 207.295 62.9048 207.425C63.956 206.98 64.8089 206.546 65.3227 206.185L65.3229 206.185Z" fill="#00892C"/>
<path d="M49.5116 192.871C47.3608 193.529 45.2356 194.205 43.1448 194.892C43.2237 194.908 43.3122 194.923 43.3945 194.938C45.4101 194.241 47.4546 193.554 49.5115 192.871L49.5116 192.871Z" fill="#00892C"/>
<path fill-rule="evenodd" clip-rule="evenodd" d="M72.4084 191.542C59.1132 197.831 47.8132 204.982 46.7996 212.669C46.2764 214.999 46.5481 217.303 47.2972 219.588C47.9669 219.628 48.6406 219.665 49.3178 219.695C46.8882 213.273 48.4251 206.606 57.0612 200.566C61.3074 197.413 66.7614 194.45 72.4079 191.542L72.4084 191.542Z" fill="#00892C"/>
<path d="M31.8502 215.209C31.891 215.252 31.9337 215.291 31.9742 215.333C39.9496 216.109 45.8098 219.388 50.3293 222.352C51.1339 222.513 51.6376 223.348 51.6895 223.876C52.5938 224.169 53.4881 224.467 54.351 224.777C54.0801 224.965 53.7127 225.145 53.2685 225.301C52.3409 224.938 51.3823 224.591 50.4036 224.245C49.4831 224.28 48.7188 224.034 47.0048 223.75C39.921 221.38 31.9239 218.397 31.8622 215.346C31.8018 215.332 31.7489 215.319 31.6873 215.304C31.7473 215.31 31.8052 215.316 31.865 215.322C31.8648 215.284 31.848 215.246 31.8502 215.209L31.8502 215.209ZM32.0371 215.388C33.4523 216.838 35.0771 217.494 40.9633 219.526C36.9905 216.98 35.6653 216.261 32.0371 215.388Z" fill="#00892C"/>
<ellipse cx="314.5" cy="68.5" rx="60.5" ry="61.5" fill="white" fill-opacity="0.5"/>
<ellipse cx="311.5" cy="72" rx="33.5" ry="36" fill="#F2A400"/>
</svg>
