<svg width="329" height="229" viewBox="0 0 329 229" fill="none" xmlns="http://www.w3.org/2000/svg">
<g filter="url(#filter0_d)">
<ellipse cx="243.854" cy="79.948" rx="21.5" ry="21.1638" fill="white" fill-opacity="0.04"/>
</g>
<g clip-path="url(#clip0)">
<path d="M235.394 97.2595C240.185 99.5005 245.684 99.7762 250.681 98.0261C255.679 96.276 259.765 92.6433 262.042 87.9273C264.319 83.2112 264.599 77.7981 262.821 72.8788C261.043 67.9595 257.352 63.9368 252.562 61.6959C247.771 59.4549 242.271 59.1791 237.274 60.9293C232.277 62.6794 228.19 66.312 225.913 71.0281C223.637 75.7441 223.357 81.1572 225.135 86.0766C226.913 90.9959 230.603 95.0185 235.394 97.2595V97.2595Z" fill="#D6D6D6"/>
<path d="M235.394 97.2595C241.304 100.024 247.89 99.664 253.271 96.8855C249.175 97.7052 244.79 97.2951 240.724 95.3931C230.748 90.7268 226.503 78.9817 231.243 69.1617C233.175 65.159 236.312 62.1144 240.014 60.2035C234.059 61.3949 228.722 65.2108 225.913 71.0281C221.173 80.8481 225.418 92.5932 235.394 97.2595Z" fill="#FFFEFE"/>
<path d="M253.461 83.9138C254.06 84.1939 254.748 84.2284 255.372 84.0096C255.997 83.7909 256.508 83.3368 256.792 82.7473C257.077 82.1578 257.112 81.4811 256.89 80.8662C256.668 80.2513 256.206 79.7485 255.607 79.4684C255.009 79.1882 254.321 79.1538 253.696 79.3725C253.072 79.5913 252.561 80.0454 252.276 80.6349C251.992 81.2244 251.957 81.901 252.179 82.5159C252.401 83.1309 252.863 83.6337 253.461 83.9138V83.9138ZM234.833 69.7513C235.432 70.0314 236.12 70.0659 236.744 69.8471C237.369 69.6284 237.88 69.1743 238.164 68.5848C238.449 67.9953 238.484 67.3186 238.262 66.7037C238.04 66.0888 237.578 65.586 236.979 65.3059C236.381 65.0257 235.693 64.9913 235.068 65.21C234.444 65.4288 233.933 65.8829 233.648 66.4724C233.364 67.0619 233.329 67.7385 233.551 68.3534C233.773 68.9684 234.235 69.4712 234.833 69.7513V69.7513ZM241.108 92.3034C242.066 92.7516 243.166 92.8067 244.165 92.4567C245.165 92.1067 245.982 91.3802 246.437 90.437C246.893 89.4937 246.949 88.4111 246.593 87.4273C246.238 86.4434 245.5 85.6389 244.541 85.1907C243.583 84.7425 242.483 84.6873 241.484 85.0374C240.484 85.3874 239.667 86.1139 239.212 87.0571C238.756 88.0003 238.7 89.0829 239.056 90.0668C239.412 91.0507 240.15 91.8552 241.108 92.3034V92.3034ZM247.478 75.666C248.317 76.0582 249.279 76.1065 250.154 75.8002C251.028 75.4939 251.743 74.8582 252.142 74.0329C252.54 73.2076 252.589 72.2603 252.278 71.3994C251.967 70.5385 251.321 69.8346 250.483 69.4424C249.644 69.0502 248.682 69.002 247.807 69.3082C246.933 69.6145 246.218 70.2502 245.819 71.0755C245.421 71.9008 245.372 72.8481 245.683 73.709C245.994 74.5699 246.64 75.2739 247.478 75.666Z" fill="#AFB1B4"/>
<path d="M242.972 85.0015C244.718 85.8181 245.461 87.8734 244.631 89.592C243.801 91.3106 241.714 92.0418 239.968 91.2251C239.816 91.1542 239.683 91.0634 239.546 90.9746C239.932 91.5257 240.449 91.9954 241.108 92.3034C243.103 93.2367 245.489 92.401 246.437 90.437C247.386 88.473 246.537 86.1239 244.541 85.1907C243.883 84.8827 243.186 84.7846 242.508 84.838C242.665 84.886 242.82 84.9305 242.972 85.0015ZM236.358 67.7398C235.919 68.6503 234.983 69.1707 234.021 69.1412C234.241 69.3901 234.512 69.6009 234.833 69.7513C236.081 70.3348 237.572 69.8126 238.164 68.5848C238.757 67.357 238.227 65.8893 236.979 65.3059C236.658 65.1555 236.32 65.0815 235.986 65.071C236.616 65.7877 236.798 66.8294 236.358 67.7398ZM254.986 81.9023C254.547 82.8128 253.611 83.3332 252.649 83.3037C252.869 83.5526 253.14 83.7634 253.461 83.9138C254.709 84.4973 256.2 83.9751 256.792 82.7473C257.385 81.5194 256.855 80.0518 255.607 79.4684C255.286 79.318 254.948 79.244 254.614 79.2335C255.244 79.9502 255.426 80.9919 254.986 81.9023ZM250.335 73.1879C249.656 74.5954 248.133 75.3229 246.645 75.0995C246.891 75.3192 247.162 75.5182 247.478 75.666C249.224 76.4827 251.312 75.7515 252.142 74.0329C252.972 72.3143 252.229 70.259 250.483 69.4424C250.167 69.2945 249.838 69.2129 249.51 69.1639C250.626 70.159 251.015 71.7805 250.335 73.1879Z" fill="#929293"/>
</g>
<g filter="url(#filter1_d)">
<ellipse cx="246" cy="79" rx="41" ry="39" fill="white" fill-opacity="0.1"/>
</g>
<g filter="url(#filter2_df)">
<path d="M119 69L119.81 70.8248L122 71.5L119.81 72.1752L119 74L118.19 72.1752L116 71.5L118.19 70.8248L119 69Z" fill="white"/>
</g>
<g filter="url(#filter3_df)">
<path d="M119 99L119.81 100.825L122 101.5L119.81 102.175L119 104L118.19 102.175L116 101.5L118.19 100.825L119 99Z" fill="white"/>
</g>
<g filter="url(#filter4_df)">
<path d="M172 166L172.81 167.825L175 168.5L172.81 169.175L172 171L171.19 169.175L169 168.5L171.19 167.825L172 166Z" fill="white"/>
</g>
<g filter="url(#filter5_df)">
<path d="M166 96L166.81 97.8248L169 98.5L166.81 99.1752L166 101L165.19 99.1752L163 98.5L165.19 97.8248L166 96Z" fill="white"/>
</g>
<g filter="url(#filter6_df)">
<path d="M38 64L38.8103 65.8248L41 66.5L38.8103 67.1752L38 69L37.1897 67.1752L35 66.5L37.1897 65.8248L38 64Z" fill="white"/>
</g>
<g filter="url(#filter7_df)">
<path d="M87 161L87.8103 162.825L90 163.5L87.8103 164.175L87 166L86.1897 164.175L84 163.5L86.1897 162.825L87 161Z" fill="white"/>
</g>
<g filter="url(#filter8_df)">
<path d="M7 109L7.81027 110.825L10 111.5L7.81027 112.175L7 114L6.18973 112.175L4 111.5L6.18973 110.825L7 109Z" fill="white"/>
</g>
<g filter="url(#filter9_df)">
<path d="M236.5 159L236.905 159.73L238 160L236.905 160.27L236.5 161L236.095 160.27L235 160L236.095 159.73L236.5 159Z" fill="white"/>
</g>
<g filter="url(#filter10_df)">
<path d="M41.5 224L41.9051 224.73L43 225L41.9051 225.27L41.5 226L41.0949 225.27L40 225L41.0949 224.73L41.5 224Z" fill="white"/>
</g>
<g filter="url(#filter11_df)">
<path d="M277.5 153L277.905 153.73L279 154L277.905 154.27L277.5 155L277.095 154.27L276 154L277.095 153.73L277.5 153Z" fill="white"/>
</g>
<g filter="url(#filter12_df)">
<path d="M82.5 218L82.9051 219.095L84 219.5L82.9051 219.905L82.5 221L82.0949 219.905L81 219.5L82.0949 219.095L82.5 218Z" fill="white"/>
</g>
<g filter="url(#filter13_df)">
<path d="M193.5 47L193.905 48.0949L195 48.5L193.905 48.9051L193.5 50L193.095 48.9051L192 48.5L193.095 48.0949L193.5 47Z" fill="white"/>
</g>
<defs>
<filter id="filter0_d" x="180.648" y="19.6077" width="126.412" height="125.739" filterUnits="userSpaceOnUse" color-interpolation-filters="sRGB">
<feFlood flood-opacity="0" result="BackgroundImageFix"/>
<feColorMatrix in="SourceAlpha" type="matrix" values="0 0 0 0 0 0 0 0 0 0 0 0 0 0 0 0 0 0 127 0"/>
<feMorphology radius="24" operator="dilate" in="SourceAlpha" result="effect1_dropShadow"/>
<feOffset dy="2.52941"/>
<feGaussianBlur stdDeviation="8.85294"/>
<feColorMatrix type="matrix" values="0 0 0 0 1 0 0 0 0 1 0 0 0 0 1 0 0 0 0.07 0"/>
<feBlend mode="normal" in2="BackgroundImageFix" result="effect1_dropShadow"/>
<feBlend mode="normal" in="SourceGraphic" in2="effect1_dropShadow" result="shape"/>
</filter>
<filter id="filter1_d" x="163.294" y="0.823529" width="165.412" height="161.412" filterUnits="userSpaceOnUse" color-interpolation-filters="sRGB">
<feFlood flood-opacity="0" result="BackgroundImageFix"/>
<feColorMatrix in="SourceAlpha" type="matrix" values="0 0 0 0 0 0 0 0 0 0 0 0 0 0 0 0 0 0 127 0"/>
<feMorphology radius="24" operator="dilate" in="SourceAlpha" result="effect1_dropShadow"/>
<feOffset dy="2.52941"/>
<feGaussianBlur stdDeviation="8.85294"/>
<feColorMatrix type="matrix" values="0 0 0 0 1 0 0 0 0 1 0 0 0 0 1 0 0 0 0.07 0"/>
<feBlend mode="normal" in2="BackgroundImageFix" result="effect1_dropShadow"/>
<feBlend mode="normal" in="SourceGraphic" in2="effect1_dropShadow" result="shape"/>
</filter>
<filter id="filter2_df" x="112" y="65.6667" width="14" height="13" filterUnits="userSpaceOnUse" color-interpolation-filters="sRGB">
<feFlood flood-opacity="0" result="BackgroundImageFix"/>
<feColorMatrix in="SourceAlpha" type="matrix" values="0 0 0 0 0 0 0 0 0 0 0 0 0 0 0 0 0 0 127 0"/>
<feOffset dy="0.666667"/>
<feGaussianBlur stdDeviation="2"/>
<feColorMatrix type="matrix" values="0 0 0 0 1 0 0 0 0 1 0 0 0 0 1 0 0 0 0.25 0"/>
<feBlend mode="normal" in2="BackgroundImageFix" result="effect1_dropShadow"/>
<feBlend mode="normal" in="SourceGraphic" in2="effect1_dropShadow" result="shape"/>
<feGaussianBlur stdDeviation="0.0166667" result="effect2_foregroundBlur"/>
</filter>
<filter id="filter3_df" x="112" y="95.6667" width="14" height="13" filterUnits="userSpaceOnUse" color-interpolation-filters="sRGB">
<feFlood flood-opacity="0" result="BackgroundImageFix"/>
<feColorMatrix in="SourceAlpha" type="matrix" values="0 0 0 0 0 0 0 0 0 0 0 0 0 0 0 0 0 0 127 0"/>
<feOffset dy="0.666667"/>
<feGaussianBlur stdDeviation="2"/>
<feColorMatrix type="matrix" values="0 0 0 0 1 0 0 0 0 1 0 0 0 0 1 0 0 0 0.25 0"/>
<feBlend mode="normal" in2="BackgroundImageFix" result="effect1_dropShadow"/>
<feBlend mode="normal" in="SourceGraphic" in2="effect1_dropShadow" result="shape"/>
<feGaussianBlur stdDeviation="0.0166667" result="effect2_foregroundBlur"/>
</filter>
<filter id="filter4_df" x="165" y="162.667" width="14" height="13" filterUnits="userSpaceOnUse" color-interpolation-filters="sRGB">
<feFlood flood-opacity="0" result="BackgroundImageFix"/>
<feColorMatrix in="SourceAlpha" type="matrix" values="0 0 0 0 0 0 0 0 0 0 0 0 0 0 0 0 0 0 127 0"/>
<feOffset dy="0.666667"/>
<feGaussianBlur stdDeviation="2"/>
<feColorMatrix type="matrix" values="0 0 0 0 1 0 0 0 0 1 0 0 0 0 1 0 0 0 0.25 0"/>
<feBlend mode="normal" in2="BackgroundImageFix" result="effect1_dropShadow"/>
<feBlend mode="normal" in="SourceGraphic" in2="effect1_dropShadow" result="shape"/>
<feGaussianBlur stdDeviation="0.0166667" result="effect2_foregroundBlur"/>
</filter>
<filter id="filter5_df" x="159" y="92.6667" width="14" height="13" filterUnits="userSpaceOnUse" color-interpolation-filters="sRGB">
<feFlood flood-opacity="0" result="BackgroundImageFix"/>
<feColorMatrix in="SourceAlpha" type="matrix" values="0 0 0 0 0 0 0 0 0 0 0 0 0 0 0 0 0 0 127 0"/>
<feOffset dy="0.666667"/>
<feGaussianBlur stdDeviation="2"/>
<feColorMatrix type="matrix" values="0 0 0 0 1 0 0 0 0 1 0 0 0 0 1 0 0 0 0.25 0"/>
<feBlend mode="normal" in2="BackgroundImageFix" result="effect1_dropShadow"/>
<feBlend mode="normal" in="SourceGraphic" in2="effect1_dropShadow" result="shape"/>
<feGaussianBlur stdDeviation="0.0166667" result="effect2_foregroundBlur"/>
</filter>
<filter id="filter6_df" x="31" y="60.6667" width="14" height="13" filterUnits="userSpaceOnUse" color-interpolation-filters="sRGB">
<feFlood flood-opacity="0" result="BackgroundImageFix"/>
<feColorMatrix in="SourceAlpha" type="matrix" values="0 0 0 0 0 0 0 0 0 0 0 0 0 0 0 0 0 0 127 0"/>
<feOffset dy="0.666667"/>
<feGaussianBlur stdDeviation="2"/>
<feColorMatrix type="matrix" values="0 0 0 0 1 0 0 0 0 1 0 0 0 0 1 0 0 0 0.25 0"/>
<feBlend mode="normal" in2="BackgroundImageFix" result="effect1_dropShadow"/>
<feBlend mode="normal" in="SourceGraphic" in2="effect1_dropShadow" result="shape"/>
<feGaussianBlur stdDeviation="0.0166667" result="effect2_foregroundBlur"/>
</filter>
<filter id="filter7_df" x="80" y="157.667" width="14" height="13" filterUnits="userSpaceOnUse" color-interpolation-filters="sRGB">
<feFlood flood-opacity="0" result="BackgroundImageFix"/>
<feColorMatrix in="SourceAlpha" type="matrix" values="0 0 0 0 0 0 0 0 0 0 0 0 0 0 0 0 0 0 127 0"/>
<feOffset dy="0.666667"/>
<feGaussianBlur stdDeviation="2"/>
<feColorMatrix type="matrix" values="0 0 0 0 1 0 0 0 0 1 0 0 0 0 1 0 0 0 0.25 0"/>
<feBlend mode="normal" in2="BackgroundImageFix" result="effect1_dropShadow"/>
<feBlend mode="normal" in="SourceGraphic" in2="effect1_dropShadow" result="shape"/>
<feGaussianBlur stdDeviation="0.0166667" result="effect2_foregroundBlur"/>
</filter>
<filter id="filter8_df" x="0" y="105.667" width="14" height="13" filterUnits="userSpaceOnUse" color-interpolation-filters="sRGB">
<feFlood flood-opacity="0" result="BackgroundImageFix"/>
<feColorMatrix in="SourceAlpha" type="matrix" values="0 0 0 0 0 0 0 0 0 0 0 0 0 0 0 0 0 0 127 0"/>
<feOffset dy="0.666667"/>
<feGaussianBlur stdDeviation="2"/>
<feColorMatrix type="matrix" values="0 0 0 0 1 0 0 0 0 1 0 0 0 0 1 0 0 0 0.25 0"/>
<feBlend mode="normal" in2="BackgroundImageFix" result="effect1_dropShadow"/>
<feBlend mode="normal" in="SourceGraphic" in2="effect1_dropShadow" result="shape"/>
<feGaussianBlur stdDeviation="0.15" result="effect2_foregroundBlur"/>
</filter>
<filter id="filter9_df" x="233" y="157.333" width="7" height="6" filterUnits="userSpaceOnUse" color-interpolation-filters="sRGB">
<feFlood flood-opacity="0" result="BackgroundImageFix"/>
<feColorMatrix in="SourceAlpha" type="matrix" values="0 0 0 0 0 0 0 0 0 0 0 0 0 0 0 0 0 0 127 0"/>
<feOffset dy="0.333333"/>
<feGaussianBlur stdDeviation="1"/>
<feColorMatrix type="matrix" values="0 0 0 0 1 0 0 0 0 1 0 0 0 0 1 0 0 0 0.25 0"/>
<feBlend mode="normal" in2="BackgroundImageFix" result="effect1_dropShadow"/>
<feBlend mode="normal" in="SourceGraphic" in2="effect1_dropShadow" result="shape"/>
<feGaussianBlur stdDeviation="0.00833333" result="effect2_foregroundBlur"/>
</filter>
<filter id="filter10_df" x="38" y="222.333" width="7" height="6" filterUnits="userSpaceOnUse" color-interpolation-filters="sRGB">
<feFlood flood-opacity="0" result="BackgroundImageFix"/>
<feColorMatrix in="SourceAlpha" type="matrix" values="0 0 0 0 0 0 0 0 0 0 0 0 0 0 0 0 0 0 127 0"/>
<feOffset dy="0.333333"/>
<feGaussianBlur stdDeviation="1"/>
<feColorMatrix type="matrix" values="0 0 0 0 1 0 0 0 0 1 0 0 0 0 1 0 0 0 0.25 0"/>
<feBlend mode="normal" in2="BackgroundImageFix" result="effect1_dropShadow"/>
<feBlend mode="normal" in="SourceGraphic" in2="effect1_dropShadow" result="shape"/>
<feGaussianBlur stdDeviation="0.00833333" result="effect2_foregroundBlur"/>
</filter>
<filter id="filter11_df" x="274" y="151.333" width="7" height="6" filterUnits="userSpaceOnUse" color-interpolation-filters="sRGB">
<feFlood flood-opacity="0" result="BackgroundImageFix"/>
<feColorMatrix in="SourceAlpha" type="matrix" values="0 0 0 0 0 0 0 0 0 0 0 0 0 0 0 0 0 0 127 0"/>
<feOffset dy="0.333333"/>
<feGaussianBlur stdDeviation="1"/>
<feColorMatrix type="matrix" values="0 0 0 0 1 0 0 0 0 1 0 0 0 0 1 0 0 0 0.25 0"/>
<feBlend mode="normal" in2="BackgroundImageFix" result="effect1_dropShadow"/>
<feBlend mode="normal" in="SourceGraphic" in2="effect1_dropShadow" result="shape"/>
<feGaussianBlur stdDeviation="0.00833333" result="effect2_foregroundBlur"/>
</filter>
<filter id="filter12_df" x="79" y="216.333" width="7" height="7" filterUnits="userSpaceOnUse" color-interpolation-filters="sRGB">
<feFlood flood-opacity="0" result="BackgroundImageFix"/>
<feColorMatrix in="SourceAlpha" type="matrix" values="0 0 0 0 0 0 0 0 0 0 0 0 0 0 0 0 0 0 127 0"/>
<feOffset dy="0.333333"/>
<feGaussianBlur stdDeviation="1"/>
<feColorMatrix type="matrix" values="0 0 0 0 1 0 0 0 0 1 0 0 0 0 1 0 0 0 0.25 0"/>
<feBlend mode="normal" in2="BackgroundImageFix" result="effect1_dropShadow"/>
<feBlend mode="normal" in="SourceGraphic" in2="effect1_dropShadow" result="shape"/>
<feGaussianBlur stdDeviation="0.00833333" result="effect2_foregroundBlur"/>
</filter>
<filter id="filter13_df" x="190" y="45.3333" width="7" height="7" filterUnits="userSpaceOnUse" color-interpolation-filters="sRGB">
<feFlood flood-opacity="0" result="BackgroundImageFix"/>
<feColorMatrix in="SourceAlpha" type="matrix" values="0 0 0 0 0 0 0 0 0 0 0 0 0 0 0 0 0 0 127 0"/>
<feOffset dy="0.333333"/>
<feGaussianBlur stdDeviation="1"/>
<feColorMatrix type="matrix" values="0 0 0 0 1 0 0 0 0 1 0 0 0 0 1 0 0 0 0.25 0"/>
<feBlend mode="normal" in2="BackgroundImageFix" result="effect1_dropShadow"/>
<feBlend mode="normal" in="SourceGraphic" in2="effect1_dropShadow" result="shape"/>
<feGaussianBlur stdDeviation="0.00833333" result="effect2_foregroundBlur"/>
</filter>
<clipPath id="clip0">
<rect width="47.8626" height="47.3886" fill="white" transform="matrix(-0.905806 -0.423692 0.434728 -0.900562 255.354 110.955)"/>
</clipPath>
</defs>
</svg>
