<svg width="323" height="226" viewBox="0 0 323 226" fill="none" xmlns="http://www.w3.org/2000/svg">
<g filter="url(#filter0_df)">
<path d="M119 66L119.81 67.8248L122 68.5L119.81 69.1752L119 71L118.19 69.1752L116 68.5L118.19 67.8248L119 66Z" fill="white"/>
</g>
<g filter="url(#filter1_df)">
<path d="M119 96L119.81 97.8248L122 98.5L119.81 99.1752L119 101L118.19 99.1752L116 98.5L118.19 97.8248L119 96Z" fill="white"/>
</g>
<g filter="url(#filter2_df)">
<path d="M172 163L172.81 164.825L175 165.5L172.81 166.175L172 168L171.19 166.175L169 165.5L171.19 164.825L172 163Z" fill="white"/>
</g>
<g filter="url(#filter3_df)">
<path d="M166 93L166.81 94.8248L169 95.5L166.81 96.1752L166 98L165.19 96.1752L163 95.5L165.19 94.8248L166 93Z" fill="white"/>
</g>
<g filter="url(#filter4_df)">
<path d="M38 61L38.8103 62.8248L41 63.5L38.8103 64.1752L38 66L37.1897 64.1752L35 63.5L37.1897 62.8248L38 61Z" fill="white"/>
</g>
<g filter="url(#filter5_df)">
<path d="M87 158L87.8103 159.825L90 160.5L87.8103 161.175L87 163L86.1897 161.175L84 160.5L86.1897 159.825L87 158Z" fill="white"/>
</g>
<g filter="url(#filter6_df)">
<path d="M7 106L7.81027 107.825L10 108.5L7.81027 109.175L7 111L6.18973 109.175L4 108.5L6.18973 107.825L7 106Z" fill="white"/>
</g>
<g filter="url(#filter7_df)">
<path d="M236.5 156L236.905 156.73L238 157L236.905 157.27L236.5 158L236.095 157.27L235 157L236.095 156.73L236.5 156Z" fill="white"/>
</g>
<g filter="url(#filter8_df)">
<path d="M41.5 221L41.9051 221.73L43 222L41.9051 222.27L41.5 223L41.0949 222.27L40 222L41.0949 221.73L41.5 221Z" fill="white"/>
</g>
<g filter="url(#filter9_df)">
<path d="M277.5 150L277.905 150.73L279 151L277.905 151.27L277.5 152L277.095 151.27L276 151L277.095 150.73L277.5 150Z" fill="white"/>
</g>
<g filter="url(#filter10_df)">
<path d="M82.5 215L82.9051 216.095L84 216.5L82.9051 216.905L82.5 218L82.0949 216.905L81 216.5L82.0949 216.095L82.5 215Z" fill="white"/>
</g>
<g filter="url(#filter11_df)">
<path d="M193.5 44L193.905 45.0949L195 45.5L193.905 45.9051L193.5 47L193.095 45.9051L192 45.5L193.095 45.0949L193.5 44Z" fill="white"/>
</g>
<g filter="url(#filter12_d)">
<ellipse cx="259.5" cy="61.1638" rx="21.5" ry="21.1638" fill="white" fill-opacity="0.1"/>
</g>
<g clip-path="url(#clip0)">
<path d="M254.394 78.2595C259.185 80.5005 264.684 80.7762 269.681 79.0261C274.679 77.276 278.765 73.6433 281.042 68.9273C283.319 64.2112 283.599 58.7981 281.821 53.8788C280.043 48.9595 276.352 44.9368 271.562 42.6959C266.771 40.4549 261.271 40.1791 256.274 41.9293C251.277 43.6794 247.19 47.312 244.913 52.0281C242.637 56.7441 242.357 62.1572 244.135 67.0766C245.913 71.9959 249.603 76.0185 254.394 78.2595V78.2595Z" fill="#D6D6D6"/>
<path d="M254.394 78.2595C260.304 81.0238 266.89 80.664 272.271 77.8855C268.175 78.7052 263.79 78.2951 259.724 76.3931C249.748 71.7268 245.503 59.9817 250.243 50.1617C252.175 46.159 255.312 43.1144 259.014 41.2035C253.059 42.3949 247.722 46.2108 244.913 52.0281C240.173 61.8481 244.418 73.5932 254.394 78.2595Z" fill="#FFFEFE"/>
<path d="M272.461 64.9138C273.06 65.1939 273.748 65.2284 274.372 65.0096C274.997 64.7909 275.508 64.3368 275.792 63.7473C276.077 63.1578 276.112 62.4811 275.89 61.8662C275.668 61.2513 275.206 60.7485 274.607 60.4684C274.009 60.1882 273.321 60.1538 272.696 60.3725C272.072 60.5913 271.561 61.0454 271.276 61.6349C270.992 62.2244 270.957 62.901 271.179 63.5159C271.401 64.1309 271.863 64.6337 272.461 64.9138V64.9138ZM253.833 50.7513C254.432 51.0314 255.12 51.0659 255.744 50.8471C256.369 50.6284 256.88 50.1743 257.165 49.5848C257.449 48.9953 257.484 48.3186 257.262 47.7037C257.04 47.0888 256.578 46.586 255.979 46.3059C255.381 46.0257 254.693 45.9913 254.069 46.21C253.444 46.4288 252.933 46.8829 252.648 47.4724C252.364 48.0619 252.329 48.7385 252.551 49.3534C252.773 49.9684 253.235 50.4712 253.833 50.7513V50.7513ZM260.108 73.3034C261.066 73.7516 262.166 73.8067 263.165 73.4567C264.165 73.1067 264.982 72.3802 265.437 71.437C265.893 70.4937 265.949 69.4111 265.593 68.4273C265.238 67.4434 264.5 66.6389 263.541 66.1907C262.583 65.7425 261.483 65.6873 260.484 66.0374C259.484 66.3874 258.667 67.1139 258.212 68.0571C257.756 69.0003 257.7 70.0829 258.056 71.0668C258.412 72.0507 259.15 72.8552 260.108 73.3034V73.3034ZM266.478 56.666C267.317 57.0582 268.279 57.1065 269.154 56.8002C270.028 56.4939 270.743 55.8582 271.142 55.0329C271.54 54.2076 271.589 53.2603 271.278 52.3994C270.967 51.5385 270.321 50.8346 269.483 50.4424C268.644 50.0502 267.682 50.002 266.808 50.3082C265.933 50.6145 265.218 51.2502 264.819 52.0755C264.421 52.9008 264.372 53.8481 264.683 54.709C264.994 55.5699 265.64 56.2739 266.478 56.666Z" fill="#AFB1B4"/>
<path d="M261.972 66.0015C263.718 66.8181 264.461 68.8734 263.631 70.592C262.801 72.3106 260.714 73.0418 258.968 72.2251C258.816 72.1542 258.683 72.0634 258.546 71.9746C258.932 72.5257 259.449 72.9954 260.108 73.3034C262.103 74.2367 264.489 73.401 265.437 71.437C266.386 69.473 265.537 67.1239 263.541 66.1907C262.883 65.8827 262.186 65.7846 261.508 65.838C261.665 65.886 261.82 65.9305 261.972 66.0015ZM255.358 48.7398C254.919 49.6503 253.983 50.1707 253.021 50.1412C253.241 50.3901 253.512 50.6009 253.833 50.7513C255.081 51.3348 256.572 50.8126 257.165 49.5848C257.757 48.357 257.227 46.8893 255.979 46.3059C255.658 46.1555 255.32 46.0815 254.986 46.071C255.616 46.7877 255.798 47.8294 255.358 48.7398ZM273.986 62.9023C273.547 63.8128 272.611 64.3332 271.649 64.3037C271.869 64.5526 272.14 64.7634 272.461 64.9138C273.709 65.4973 275.2 64.9751 275.792 63.7473C276.385 62.5194 275.855 61.0518 274.607 60.4684C274.286 60.318 273.948 60.244 273.614 60.2335C274.244 60.9502 274.426 61.9919 273.986 62.9023ZM269.335 54.1879C268.656 55.5954 267.134 56.3229 265.645 56.0995C265.891 56.3192 266.162 56.5182 266.478 56.666C268.224 57.4827 270.312 56.7515 271.142 55.0329C271.972 53.3143 271.229 51.259 269.483 50.4424C269.167 50.2945 268.838 50.2129 268.51 50.1639C269.626 51.159 270.015 52.7805 269.335 54.1879Z" fill="#929293"/>
</g>
<defs>
<filter id="filter0_df" x="112" y="62.6667" width="14" height="13" filterUnits="userSpaceOnUse" color-interpolation-filters="sRGB">
<feFlood flood-opacity="0" result="BackgroundImageFix"/>
<feColorMatrix in="SourceAlpha" type="matrix" values="0 0 0 0 0 0 0 0 0 0 0 0 0 0 0 0 0 0 127 0"/>
<feOffset dy="0.666667"/>
<feGaussianBlur stdDeviation="2"/>
<feColorMatrix type="matrix" values="0 0 0 0 1 0 0 0 0 1 0 0 0 0 1 0 0 0 0.25 0"/>
<feBlend mode="normal" in2="BackgroundImageFix" result="effect1_dropShadow"/>
<feBlend mode="normal" in="SourceGraphic" in2="effect1_dropShadow" result="shape"/>
<feGaussianBlur stdDeviation="0.0166667" result="effect2_foregroundBlur"/>
</filter>
<filter id="filter1_df" x="112" y="92.6667" width="14" height="13" filterUnits="userSpaceOnUse" color-interpolation-filters="sRGB">
<feFlood flood-opacity="0" result="BackgroundImageFix"/>
<feColorMatrix in="SourceAlpha" type="matrix" values="0 0 0 0 0 0 0 0 0 0 0 0 0 0 0 0 0 0 127 0"/>
<feOffset dy="0.666667"/>
<feGaussianBlur stdDeviation="2"/>
<feColorMatrix type="matrix" values="0 0 0 0 1 0 0 0 0 1 0 0 0 0 1 0 0 0 0.25 0"/>
<feBlend mode="normal" in2="BackgroundImageFix" result="effect1_dropShadow"/>
<feBlend mode="normal" in="SourceGraphic" in2="effect1_dropShadow" result="shape"/>
<feGaussianBlur stdDeviation="0.0166667" result="effect2_foregroundBlur"/>
</filter>
<filter id="filter2_df" x="165" y="159.667" width="14" height="13" filterUnits="userSpaceOnUse" color-interpolation-filters="sRGB">
<feFlood flood-opacity="0" result="BackgroundImageFix"/>
<feColorMatrix in="SourceAlpha" type="matrix" values="0 0 0 0 0 0 0 0 0 0 0 0 0 0 0 0 0 0 127 0"/>
<feOffset dy="0.666667"/>
<feGaussianBlur stdDeviation="2"/>
<feColorMatrix type="matrix" values="0 0 0 0 1 0 0 0 0 1 0 0 0 0 1 0 0 0 0.25 0"/>
<feBlend mode="normal" in2="BackgroundImageFix" result="effect1_dropShadow"/>
<feBlend mode="normal" in="SourceGraphic" in2="effect1_dropShadow" result="shape"/>
<feGaussianBlur stdDeviation="0.0166667" result="effect2_foregroundBlur"/>
</filter>
<filter id="filter3_df" x="159" y="89.6667" width="14" height="13" filterUnits="userSpaceOnUse" color-interpolation-filters="sRGB">
<feFlood flood-opacity="0" result="BackgroundImageFix"/>
<feColorMatrix in="SourceAlpha" type="matrix" values="0 0 0 0 0 0 0 0 0 0 0 0 0 0 0 0 0 0 127 0"/>
<feOffset dy="0.666667"/>
<feGaussianBlur stdDeviation="2"/>
<feColorMatrix type="matrix" values="0 0 0 0 1 0 0 0 0 1 0 0 0 0 1 0 0 0 0.25 0"/>
<feBlend mode="normal" in2="BackgroundImageFix" result="effect1_dropShadow"/>
<feBlend mode="normal" in="SourceGraphic" in2="effect1_dropShadow" result="shape"/>
<feGaussianBlur stdDeviation="0.0166667" result="effect2_foregroundBlur"/>
</filter>
<filter id="filter4_df" x="31" y="57.6667" width="14" height="13" filterUnits="userSpaceOnUse" color-interpolation-filters="sRGB">
<feFlood flood-opacity="0" result="BackgroundImageFix"/>
<feColorMatrix in="SourceAlpha" type="matrix" values="0 0 0 0 0 0 0 0 0 0 0 0 0 0 0 0 0 0 127 0"/>
<feOffset dy="0.666667"/>
<feGaussianBlur stdDeviation="2"/>
<feColorMatrix type="matrix" values="0 0 0 0 1 0 0 0 0 1 0 0 0 0 1 0 0 0 0.25 0"/>
<feBlend mode="normal" in2="BackgroundImageFix" result="effect1_dropShadow"/>
<feBlend mode="normal" in="SourceGraphic" in2="effect1_dropShadow" result="shape"/>
<feGaussianBlur stdDeviation="0.0166667" result="effect2_foregroundBlur"/>
</filter>
<filter id="filter5_df" x="80" y="154.667" width="14" height="13" filterUnits="userSpaceOnUse" color-interpolation-filters="sRGB">
<feFlood flood-opacity="0" result="BackgroundImageFix"/>
<feColorMatrix in="SourceAlpha" type="matrix" values="0 0 0 0 0 0 0 0 0 0 0 0 0 0 0 0 0 0 127 0"/>
<feOffset dy="0.666667"/>
<feGaussianBlur stdDeviation="2"/>
<feColorMatrix type="matrix" values="0 0 0 0 1 0 0 0 0 1 0 0 0 0 1 0 0 0 0.25 0"/>
<feBlend mode="normal" in2="BackgroundImageFix" result="effect1_dropShadow"/>
<feBlend mode="normal" in="SourceGraphic" in2="effect1_dropShadow" result="shape"/>
<feGaussianBlur stdDeviation="0.0166667" result="effect2_foregroundBlur"/>
</filter>
<filter id="filter6_df" x="0" y="102.667" width="14" height="13" filterUnits="userSpaceOnUse" color-interpolation-filters="sRGB">
<feFlood flood-opacity="0" result="BackgroundImageFix"/>
<feColorMatrix in="SourceAlpha" type="matrix" values="0 0 0 0 0 0 0 0 0 0 0 0 0 0 0 0 0 0 127 0"/>
<feOffset dy="0.666667"/>
<feGaussianBlur stdDeviation="2"/>
<feColorMatrix type="matrix" values="0 0 0 0 1 0 0 0 0 1 0 0 0 0 1 0 0 0 0.25 0"/>
<feBlend mode="normal" in2="BackgroundImageFix" result="effect1_dropShadow"/>
<feBlend mode="normal" in="SourceGraphic" in2="effect1_dropShadow" result="shape"/>
<feGaussianBlur stdDeviation="0.15" result="effect2_foregroundBlur"/>
</filter>
<filter id="filter7_df" x="233" y="154.333" width="7" height="6" filterUnits="userSpaceOnUse" color-interpolation-filters="sRGB">
<feFlood flood-opacity="0" result="BackgroundImageFix"/>
<feColorMatrix in="SourceAlpha" type="matrix" values="0 0 0 0 0 0 0 0 0 0 0 0 0 0 0 0 0 0 127 0"/>
<feOffset dy="0.333333"/>
<feGaussianBlur stdDeviation="1"/>
<feColorMatrix type="matrix" values="0 0 0 0 1 0 0 0 0 1 0 0 0 0 1 0 0 0 0.25 0"/>
<feBlend mode="normal" in2="BackgroundImageFix" result="effect1_dropShadow"/>
<feBlend mode="normal" in="SourceGraphic" in2="effect1_dropShadow" result="shape"/>
<feGaussianBlur stdDeviation="0.00833333" result="effect2_foregroundBlur"/>
</filter>
<filter id="filter8_df" x="38" y="219.333" width="7" height="6" filterUnits="userSpaceOnUse" color-interpolation-filters="sRGB">
<feFlood flood-opacity="0" result="BackgroundImageFix"/>
<feColorMatrix in="SourceAlpha" type="matrix" values="0 0 0 0 0 0 0 0 0 0 0 0 0 0 0 0 0 0 127 0"/>
<feOffset dy="0.333333"/>
<feGaussianBlur stdDeviation="1"/>
<feColorMatrix type="matrix" values="0 0 0 0 1 0 0 0 0 1 0 0 0 0 1 0 0 0 0.25 0"/>
<feBlend mode="normal" in2="BackgroundImageFix" result="effect1_dropShadow"/>
<feBlend mode="normal" in="SourceGraphic" in2="effect1_dropShadow" result="shape"/>
<feGaussianBlur stdDeviation="0.00833333" result="effect2_foregroundBlur"/>
</filter>
<filter id="filter9_df" x="274" y="148.333" width="7" height="6" filterUnits="userSpaceOnUse" color-interpolation-filters="sRGB">
<feFlood flood-opacity="0" result="BackgroundImageFix"/>
<feColorMatrix in="SourceAlpha" type="matrix" values="0 0 0 0 0 0 0 0 0 0 0 0 0 0 0 0 0 0 127 0"/>
<feOffset dy="0.333333"/>
<feGaussianBlur stdDeviation="1"/>
<feColorMatrix type="matrix" values="0 0 0 0 1 0 0 0 0 1 0 0 0 0 1 0 0 0 0.25 0"/>
<feBlend mode="normal" in2="BackgroundImageFix" result="effect1_dropShadow"/>
<feBlend mode="normal" in="SourceGraphic" in2="effect1_dropShadow" result="shape"/>
<feGaussianBlur stdDeviation="0.00833333" result="effect2_foregroundBlur"/>
</filter>
<filter id="filter10_df" x="79" y="213.333" width="7" height="7" filterUnits="userSpaceOnUse" color-interpolation-filters="sRGB">
<feFlood flood-opacity="0" result="BackgroundImageFix"/>
<feColorMatrix in="SourceAlpha" type="matrix" values="0 0 0 0 0 0 0 0 0 0 0 0 0 0 0 0 0 0 127 0"/>
<feOffset dy="0.333333"/>
<feGaussianBlur stdDeviation="1"/>
<feColorMatrix type="matrix" values="0 0 0 0 1 0 0 0 0 1 0 0 0 0 1 0 0 0 0.25 0"/>
<feBlend mode="normal" in2="BackgroundImageFix" result="effect1_dropShadow"/>
<feBlend mode="normal" in="SourceGraphic" in2="effect1_dropShadow" result="shape"/>
<feGaussianBlur stdDeviation="0.00833333" result="effect2_foregroundBlur"/>
</filter>
<filter id="filter11_df" x="190" y="42.3333" width="7" height="7" filterUnits="userSpaceOnUse" color-interpolation-filters="sRGB">
<feFlood flood-opacity="0" result="BackgroundImageFix"/>
<feColorMatrix in="SourceAlpha" type="matrix" values="0 0 0 0 0 0 0 0 0 0 0 0 0 0 0 0 0 0 127 0"/>
<feOffset dy="0.333333"/>
<feGaussianBlur stdDeviation="1"/>
<feColorMatrix type="matrix" values="0 0 0 0 1 0 0 0 0 1 0 0 0 0 1 0 0 0 0.25 0"/>
<feBlend mode="normal" in2="BackgroundImageFix" result="effect1_dropShadow"/>
<feBlend mode="normal" in="SourceGraphic" in2="effect1_dropShadow" result="shape"/>
<feGaussianBlur stdDeviation="0.00833333" result="effect2_foregroundBlur"/>
</filter>
<filter id="filter12_d" x="196.294" y="0.823529" width="126.412" height="125.739" filterUnits="userSpaceOnUse" color-interpolation-filters="sRGB">
<feFlood flood-opacity="0" result="BackgroundImageFix"/>
<feColorMatrix in="SourceAlpha" type="matrix" values="0 0 0 0 0 0 0 0 0 0 0 0 0 0 0 0 0 0 127 0"/>
<feMorphology radius="24" operator="dilate" in="SourceAlpha" result="effect1_dropShadow"/>
<feOffset dy="2.52941"/>
<feGaussianBlur stdDeviation="8.85294"/>
<feColorMatrix type="matrix" values="0 0 0 0 1 0 0 0 0 1 0 0 0 0 1 0 0 0 0.07 0"/>
<feBlend mode="normal" in2="BackgroundImageFix" result="effect1_dropShadow"/>
<feBlend mode="normal" in="SourceGraphic" in2="effect1_dropShadow" result="shape"/>
</filter>
<clipPath id="clip0">
<rect width="47.8626" height="47.3886" fill="white" transform="matrix(-0.905806 -0.423692 0.434728 -0.900562 274.354 91.9554)"/>
</clipPath>
</defs>
</svg>
