<svg width="24" height="24" viewBox="0 0 24 24" fill="none" xmlns="http://www.w3.org/2000/svg">
<path d="M17.966 12.1015C18.6115 11.3505 19 10.384 19 9.327C19 6.936 17.0105 5 14.5535 5C12.7465 5 11.195 5.993 10.5 7.5C9.8035 5.993 8.2535 5 6.4465 5C3.9895 5 2 6.936 2 9.327C2 10.442 2.437 11.456 3.1485 12.2235L3.1455 12.2245L3.174 12.2495C6.9045 16.4865 10.5 19 10.5 19C10.5 19 14.26 16.518 17.954 12.1135L17.9665 12.103L17.966 12.1015Z" fill="#DD2C00"/>
<path d="M17.2924 12.8805C16.6304 12.9055 15.8154 12.6435 14.6989 11.928C14.7019 10.8135 14.0459 9.74851 12.9344 9.25901C11.4209 8.59601 9.64989 9.25001 8.95939 10.717C8.44439 11.812 8.83639 12.81 8.83639 12.81L8.84689 12.8325C9.64639 15.4955 10.7099 17.5785 11.2144 18.492C12.3744 17.634 14.7934 15.708 17.2924 12.8805Z" fill="#AA280E"/>
<path d="M20.302 17.243C20.914 16.956 21.43 16.4665 21.7315 15.8165C22.417 14.3465 21.745 12.618 20.2325 11.952C19.12 11.4625 17.8645 11.689 17.006 12.4275C17.009 11.313 16.3535 10.248 15.2415 9.75852C13.7285 9.09552 11.9575 9.74952 11.267 11.2165C10.7515 12.3115 11.144 13.3095 11.144 13.3095L11.1545 13.332C12.2385 16.9465 13.8135 19.5 13.8135 19.5C13.8135 19.5 16.758 18.956 20.292 17.248L20.302 17.243Z" fill="#FF6E40"/>
</svg>
