<svg width="375" height="261" viewBox="0 0 375 261" fill="none" xmlns="http://www.w3.org/2000/svg">
<g filter="url(#filter0_f)">
<ellipse cx="306.5" cy="68" rx="50.5" ry="48" fill="white" fill-opacity="0.2"/>
</g>
<g filter="url(#filter1_d)">
<path d="M296.9 102.053C311.357 102.053 323.077 90.2766 323.077 75.7496C323.077 61.2225 311.357 49.446 296.9 49.446C282.443 49.446 270.723 61.2225 270.723 75.7496C270.723 90.2766 282.443 102.053 296.9 102.053Z" fill="white" fill-opacity="0.04"/>
</g>
<path d="M294.599 90.2654C300.432 93.0506 307.127 93.3934 313.211 91.2181C319.296 89.043 324.271 84.5281 327.044 78.6668C329.816 72.8054 330.157 66.0777 327.992 59.9636C325.827 53.8496 321.333 48.8501 315.5 46.0649C309.668 43.2796 302.972 42.937 296.888 45.1121C290.803 47.2872 285.828 51.8022 283.055 57.6635C280.284 63.5248 279.943 70.2525 282.108 76.3666C284.273 82.4806 288.766 87.4802 294.599 90.2654Z" fill="#D6D6D6"/>
<path d="M294.6 90.2653C301.795 93.701 309.814 93.2538 316.366 89.8005C311.379 90.8193 306.04 90.3096 301.089 87.9457C288.943 82.1461 283.775 67.5486 289.546 55.3438C291.898 50.369 295.718 46.585 300.225 44.21C292.974 45.6908 286.476 50.4334 283.056 57.6635C277.285 69.8683 282.454 84.4658 294.6 90.2653Z" fill="#FFFEFE"/>
<path d="M316.597 73.6785C317.326 74.0267 318.164 74.0694 318.924 73.7976C319.685 73.5257 320.307 72.9613 320.653 72.2286C321 71.496 321.042 70.655 320.772 69.8908C320.502 69.1264 319.939 68.5015 319.21 68.1534C318.482 67.8053 317.644 67.7624 316.883 68.0343C316.123 68.3062 315.501 68.8705 315.154 69.6032C314.808 70.3359 314.766 71.1769 315.036 71.9411C315.306 72.7054 315.869 73.3303 316.597 73.6785ZM293.917 56.0766C294.646 56.4247 295.484 56.4674 296.244 56.1956C297.004 55.9237 297.627 55.3593 297.974 54.6267C298.319 53.894 298.362 53.0531 298.092 52.2888C297.821 51.5245 297.259 50.8996 296.53 50.5515C295.802 50.2033 294.964 50.1604 294.204 50.4324C293.443 50.7042 292.821 51.2686 292.474 52.0012C292.128 52.7339 292.086 53.575 292.356 54.3392C292.626 55.1034 293.189 55.7283 293.917 56.0766ZM301.557 84.1055C302.723 84.6625 304.062 84.7311 305.279 84.2961C306.496 83.861 307.491 82.9581 308.045 81.7858C308.6 80.6135 308.668 79.268 308.235 78.0452C307.803 76.8223 306.904 75.8225 305.737 75.2654C304.57 74.7084 303.231 74.6399 302.015 75.0749C300.797 75.5099 299.802 76.4128 299.248 77.5852C298.693 78.7575 298.625 80.103 299.058 81.3257C299.492 82.5486 300.39 83.5484 301.557 84.1055ZM309.312 63.4277C310.334 63.915 311.505 63.975 312.571 63.5944C313.635 63.2138 314.506 62.4236 314.991 61.3979C315.476 60.3721 315.535 59.1948 315.157 58.1249C314.778 57.0549 313.991 56.18 312.971 55.6925C311.95 55.2052 310.778 55.1452 309.714 55.5259C308.649 55.9065 307.778 56.6966 307.293 57.7224C306.808 58.7481 306.748 59.9255 307.127 60.9954C307.506 62.0653 308.292 62.9402 309.312 63.4277Z" fill="#AFB1B4"/>
<path d="M303.826 75.0303C305.952 76.0453 306.857 78.5997 305.846 80.7356C304.836 82.8716 302.295 83.7804 300.169 82.7655C299.984 82.6772 299.822 82.5645 299.655 82.454C300.125 83.1389 300.754 83.7228 301.557 84.1055C303.986 85.2655 306.891 84.2268 308.045 81.7858C309.201 79.3449 308.167 76.4254 305.737 75.2654C304.935 74.8826 304.087 74.7607 303.261 74.8272C303.453 74.8869 303.641 74.9422 303.826 75.0303ZM295.774 53.5766C295.239 54.7081 294.099 55.3549 292.928 55.3183C293.196 55.6275 293.526 55.8897 293.917 56.0766C295.436 56.8017 297.252 56.1528 297.974 54.6267C298.694 53.1007 298.049 51.2766 296.53 50.5515C296.139 50.3645 295.727 50.2727 295.321 50.2595C296.088 51.1503 296.309 52.445 295.774 53.5766ZM318.454 71.1785C317.919 72.31 316.78 72.9568 315.608 72.9203C315.876 73.2295 316.206 73.4915 316.597 73.6786C318.116 74.4036 319.932 73.7547 320.653 72.2286C321.375 70.7027 320.729 68.8785 319.21 68.1534C318.819 67.9665 318.407 67.8747 318.001 67.8615C318.768 68.7522 318.989 70.0469 318.454 71.1785ZM312.791 60.3478C311.964 62.097 310.111 63.0012 308.298 62.7236C308.598 62.9967 308.928 63.2439 309.313 63.4277C311.438 64.4426 313.981 63.5339 314.991 61.3979C316.002 59.2619 315.097 56.7076 312.971 55.6925C312.586 55.5089 312.187 55.4074 311.787 55.3465C313.145 56.5833 313.619 58.5985 312.791 60.3478Z" fill="#929293"/>
<g filter="url(#filter2_df)">
<path d="M144.886 62.1429L145.873 64.4108L148.539 65.25L145.873 66.0892L144.886 68.3572L143.9 66.0892L141.234 65.25L143.9 64.4108L144.886 62.1429Z" fill="white"/>
</g>
<g filter="url(#filter3_df)">
<path d="M191.153 99.4286L192.139 101.697L194.805 102.536L192.139 103.375L191.153 105.643L190.166 103.375L187.5 102.536L190.166 101.697L191.153 99.4286Z" fill="white"/>
</g>
<g filter="url(#filter4_df)">
<path d="M8.52271 111.857L9.50924 114.125L12.1753 114.964L9.50924 115.803L8.52271 118.071L7.53618 115.803L4.87012 114.964L7.53618 114.125L8.52271 111.857Z" fill="white"/>
</g>
<g filter="url(#filter5_df)">
<path d="M99.6526 115L100.639 117.268L103.305 118.107L100.639 118.946L99.6526 121.214L98.6661 118.946L96 118.107L98.6661 117.268L99.6526 115Z" fill="white"/>
</g>
<g filter="url(#filter6_df)">
<path d="M148.653 187L149.639 189.268L152.305 190.107L149.639 190.946L148.653 193.214L147.666 190.946L145 190.107L147.666 189.268L148.653 187Z" fill="white"/>
</g>
<g filter="url(#filter7_df)">
<path d="M353.653 124L354.639 126.268L357.305 127.107L354.639 127.946L353.653 130.214L352.666 127.946L350 127.107L352.666 126.268L353.653 124Z" fill="white"/>
</g>
<g filter="url(#filter8_df)">
<path d="M357.653 21L358.639 23.268L361.305 24.1071L358.639 24.9463L357.653 27.2143L356.666 24.9463L354 24.1071L356.666 23.268L357.653 21Z" fill="white"/>
</g>
<g filter="url(#filter9_df)">
<path d="M52.6526 39L53.6391 41.268L56.3052 42.1071L53.6391 42.9463L52.6526 45.2143L51.6661 42.9463L49 42.1071L51.6661 41.268L52.6526 39Z" fill="white"/>
</g>
<g filter="url(#filter10_df)">
<path d="M15.6526 184L16.6391 186.268L19.3052 187.107L16.6391 187.946L15.6526 190.214L14.6661 187.946L12 187.107L14.6661 186.268L15.6526 184Z" fill="white"/>
</g>
<g filter="url(#filter11_df)">
<path d="M213.653 197L214.639 199.268L217.305 200.107L214.639 200.946L213.653 203.214L212.666 200.946L210 200.107L212.666 199.268L213.653 197Z" fill="white"/>
</g>
<g filter="url(#filter12_df)">
<path d="M287.946 174L288.44 174.907L289.773 175.243L288.44 175.578L287.946 176.486L287.453 175.578L286.12 175.243L287.453 174.907L287.946 174Z" fill="white"/>
</g>
<g filter="url(#filter13_df)">
<path d="M50.5276 254.786L51.0208 255.693L52.3539 256.029L51.0208 256.364L50.5276 257.271L50.0344 256.364L48.7013 256.029L50.0344 255.693L50.5276 254.786Z" fill="white"/>
</g>
<g filter="url(#filter14_df)">
<path d="M337.865 166.543L338.358 167.45L339.692 167.786L338.358 168.121L337.865 169.029L337.372 168.121L336.039 167.786L337.372 167.45L337.865 166.543Z" fill="white"/>
</g>
<g filter="url(#filter15_df)">
<path d="M100.446 247.329L100.94 248.689L102.273 249.193L100.94 249.696L100.446 251.057L99.9532 249.696L98.6201 249.193L99.9532 248.689L100.446 247.329Z" fill="white"/>
</g>
<g filter="url(#filter16_df)">
<path d="M235.593 34.8L236.086 36.1608L237.419 36.6643L236.086 37.1678L235.593 38.5286L235.099 37.1678L233.766 36.6643L235.099 36.1608L235.593 34.8Z" fill="white"/>
</g>
<path fill-rule="evenodd" clip-rule="evenodd" d="M22.116 258.871C22.1306 258.514 22.1359 258.157 22.116 257.793C22.1007 257.538 22.0627 257.28 22.0282 257.022C21.8164 255.438 21.2335 253.916 20.236 252.523C19.2385 251.13 17.8353 249.865 16.1245 248.762C14.5625 247.738 12.7505 246.854 10.9236 246.125C9.09669 245.395 7.24821 244.822 5.61727 244.372C1.93043 243.578 -0.181289 243.033 0.0122398 242.88C0.216946 242.728 2.73964 242.988 7.11074 243.595C9.11721 243.973 11.4102 244.516 13.7173 245.251C16.0243 245.986 18.3328 246.917 20.3412 248.03C22.4553 249.217 24.2219 250.593 25.4718 252.104C26.7217 253.614 27.4628 255.258 27.6681 256.948C27.7016 257.223 27.7142 257.499 27.7208 257.771C27.7318 258.142 27.7146 258.507 27.6856 258.871H22.1158L22.116 258.871Z" fill="#42655D"/>
<path fill-rule="evenodd" clip-rule="evenodd" d="M40.44 258.871C40.559 258.517 40.6916 258.163 40.7914 257.805C41.3825 255.68 41.5702 253.617 41.4005 251.671C41.2038 249.392 40.5085 247.27 39.5732 245.378C38.638 243.487 37.4716 241.83 36.3873 240.455C35.303 239.079 34.3202 237.984 33.7167 237.218C33.1132 236.452 32.8853 236.013 33.2716 235.955C33.6579 235.897 34.618 236.224 35.9422 236.908C37.2663 237.591 38.9646 238.633 40.6977 239.993C42.4307 241.354 44.1821 243.038 45.6171 244.993C47.0522 246.947 48.1543 249.17 48.5923 251.573C48.964 253.621 48.8816 255.794 48.2643 258.024C48.1854 258.309 48.1011 258.589 48.0066 258.871H40.4398L40.44 258.871Z" fill="#42655D"/>
<path fill-rule="evenodd" clip-rule="evenodd" d="M56.4137 258.871C57.915 257.375 59.4668 255.951 60.8942 254.616C62.4322 253.178 63.8218 251.837 64.953 250.606C65.6127 249.887 66.1897 249.207 66.6573 248.575C67.1249 247.943 67.4788 247.358 67.7467 246.822C68.009 246.293 68.1797 245.812 68.2914 245.393C68.403 244.973 68.4505 244.616 68.4846 244.32C68.5188 244.024 68.5515 243.789 68.6076 243.628C68.6638 243.467 68.7518 243.379 68.9063 243.367C69.0608 243.356 69.2781 243.424 69.5213 243.572C69.7646 243.719 70.0397 243.949 70.2944 244.252C70.5492 244.555 70.773 244.932 70.927 245.381C71.081 245.83 71.1487 246.347 71.1027 246.919C71.0588 247.496 70.9115 248.133 70.6283 248.813C70.345 249.494 69.9351 250.222 69.4159 250.98C68.5307 252.276 67.3458 253.677 65.9546 255.15C64.8263 256.344 63.5506 257.593 62.2824 258.871H56.4135L56.4137 258.871Z" fill="#42655D"/>
<path fill-rule="evenodd" clip-rule="evenodd" d="M80.9787 258.871C81.0113 258.603 81.055 258.339 81.0842 258.068C81.0875 258.041 81.0813 258.013 81.0842 257.986C81.322 255.698 81.4348 253.515 81.5691 251.519C81.7034 249.523 81.8733 247.714 82.1173 246.196C82.3613 244.678 82.6766 243.452 83.0661 242.602C83.4556 241.752 83.9078 241.281 84.3734 241.281C84.8389 241.281 85.284 241.749 85.7017 242.595C86.1194 243.441 86.5158 244.662 86.8824 246.176C87.2491 247.689 87.5824 249.496 87.7891 251.506C87.9957 253.515 88.0708 255.73 87.8312 258.061C87.8284 258.088 87.8341 258.115 87.8312 258.142C87.8058 258.388 87.7586 258.628 87.7258 258.871H80.9787L80.9787 258.871Z" fill="#42655D"/>
<path fill-rule="evenodd" clip-rule="evenodd" d="M98.6393 258.871C98.7814 257.726 99.084 256.627 99.5505 255.621C100.116 254.402 100.91 253.316 101.793 252.431C102.675 251.546 103.63 250.859 104.425 250.404C105.22 249.95 105.839 249.726 106.132 249.765C106.425 249.803 106.367 250.101 106.103 250.601C105.839 251.1 105.389 251.803 104.946 252.679C104.503 253.555 104.077 254.603 103.774 255.779C103.528 256.735 103.373 257.778 103.268 258.871H98.6392L98.6393 258.871Z" fill="#42655D"/>
<path fill-rule="evenodd" clip-rule="evenodd" d="M157.603 240.348C157.429 240.347 157.147 240.418 156.777 240.564C156.355 240.73 155.819 240.996 155.231 241.352C154.643 241.709 154.009 242.158 153.404 242.702C152.799 243.247 152.229 243.888 151.787 244.608C151.383 245.269 151.094 245.997 150.944 246.781C150.794 247.565 150.791 248.405 150.961 249.283C151.215 250.578 151.801 251.955 152.718 253.378C153.636 254.802 154.882 256.271 156.303 257.757C156.592 258.06 156.886 258.357 157.181 258.654C157.297 258.771 157.416 258.884 157.533 259H163.402C163.106 258.702 162.817 258.411 162.523 258.109C162.239 257.815 161.963 257.522 161.68 257.224C160.292 255.765 159.041 254.346 158.043 252.992C157.045 251.639 156.306 250.352 155.864 249.141C155.563 248.323 155.385 247.539 155.337 246.809C155.289 246.079 155.37 245.401 155.53 244.778C155.875 243.422 156.624 242.337 157.164 241.585C157.434 241.208 157.641 240.913 157.744 240.705C157.846 240.497 157.837 240.379 157.674 240.354C157.653 240.35 157.628 240.348 157.603 240.348L157.603 240.348Z" fill="#42655D"/>
<path fill-rule="evenodd" clip-rule="evenodd" d="M129.181 240.477C129.117 240.473 129.032 240.481 128.971 240.511C128.909 240.541 128.88 240.6 128.865 240.64C128.834 240.712 128.831 240.805 128.865 240.912C128.933 241.124 129.13 241.409 129.413 241.748C129.975 242.423 130.924 243.351 132.065 244.481C134.318 246.71 137.377 249.773 139.75 253.385C140.903 255.141 141.866 257.029 142.53 259H149.33C148.609 256.847 147.394 254.796 145.919 252.916C144.461 251.055 142.747 249.359 140.993 247.859C139.238 246.359 137.45 245.057 135.813 243.984C134.149 242.894 132.662 242.048 131.518 241.456C130.938 241.154 130.462 240.925 130.087 240.762C129.895 240.678 129.734 240.618 129.602 240.572C129.517 240.53 129.416 240.524 129.35 240.511C129.284 240.498 129.245 240.481 129.181 240.477L129.181 240.477Z" fill="#42655D"/>
<path fill-rule="evenodd" clip-rule="evenodd" d="M116.823 244.075C116.465 244.114 116.59 244.582 117.051 245.397C117.513 246.211 118.305 247.374 119.23 248.811C120.154 250.248 121.207 251.955 122.006 253.86C122.674 255.452 123.162 257.184 123.236 258.999H128.806C128.652 257.071 127.973 255.25 127.031 253.599C125.911 251.636 124.444 249.907 123.008 248.482C121.571 247.058 120.168 245.942 119.072 245.186C117.975 244.431 117.18 244.036 116.823 244.075L116.823 244.075Z" fill="#42655D"/>
<path fill-rule="evenodd" clip-rule="evenodd" d="M173.195 244.44C172.779 244.44 172.389 244.817 172.008 245.485C171.628 246.154 171.249 247.117 170.878 248.312C170.508 249.508 170.156 250.934 169.88 252.525C169.605 254.117 169.415 255.875 169.523 257.729C169.526 257.791 169.537 257.85 169.541 257.912C169.561 258.232 169.596 258.551 169.636 258.866H175.661C175.63 258.536 175.591 258.205 175.567 257.869C175.563 257.809 175.552 257.753 175.548 257.693C175.44 255.885 175.446 254.15 175.417 252.568C175.387 250.985 175.328 249.555 175.153 248.349C174.978 247.143 174.702 246.167 174.362 245.492C174.022 244.816 173.61 244.44 173.195 244.44L173.195 244.44Z" fill="#42655D"/>
<path fill-rule="evenodd" clip-rule="evenodd" d="M178.722 245.941C178.352 245.978 178.381 246.382 178.634 247.081C178.887 247.78 179.366 248.774 179.864 250.003C180.362 251.231 180.865 252.696 181.269 254.331C181.626 255.771 181.894 257.347 182.095 259H187.718C187.486 257.286 187.051 255.644 186.417 254.149C185.709 252.478 184.767 250.985 183.747 249.753C182.727 248.521 181.633 247.548 180.725 246.894C179.816 246.24 179.091 245.904 178.722 245.941L178.722 245.941Z" fill="#42655D"/>
<path d="M375 256.638H15.8187V259H375V256.638Z" fill="#42655D"/>
<path fill-rule="evenodd" clip-rule="evenodd" d="M22.116 258.871C22.1306 258.514 22.1359 258.157 22.116 257.793C22.1007 257.538 22.0627 257.28 22.0282 257.022C21.8164 255.438 21.2335 253.916 20.236 252.523C19.2385 251.13 17.8353 249.865 16.1245 248.762C14.5625 247.738 12.7505 246.854 10.9236 246.125C9.09669 245.395 7.24821 244.822 5.61727 244.372C1.93043 243.578 -0.181289 243.033 0.0122398 242.88C0.216946 242.728 2.73964 242.988 7.11074 243.595C9.11721 243.973 11.4102 244.516 13.7173 245.251C16.0243 245.986 18.3328 246.917 20.3412 248.03C22.4553 249.217 24.2219 250.593 25.4718 252.104C26.7217 253.614 27.4628 255.258 27.6681 256.948C27.7016 257.223 27.7142 257.499 27.7208 257.771C27.7318 258.142 27.7146 258.507 27.6856 258.871H22.1158L22.116 258.871Z" fill="#42655D"/>
<path fill-rule="evenodd" clip-rule="evenodd" d="M40.44 258.871C40.559 258.517 40.6916 258.163 40.7914 257.805C41.3825 255.68 41.5702 253.617 41.4005 251.671C41.2038 249.392 40.5085 247.27 39.5732 245.378C38.638 243.487 37.4716 241.83 36.3873 240.455C35.303 239.079 34.3202 237.984 33.7167 237.218C33.1132 236.452 32.8853 236.013 33.2716 235.955C33.6579 235.897 34.618 236.224 35.9422 236.908C37.2663 237.591 38.9646 238.633 40.6977 239.993C42.4307 241.354 44.1821 243.038 45.6171 244.993C47.0522 246.947 48.1543 249.17 48.5923 251.573C48.964 253.621 48.8816 255.794 48.2643 258.024C48.1854 258.309 48.1011 258.589 48.0066 258.871H40.4398L40.44 258.871Z" fill="#42655D"/>
<path fill-rule="evenodd" clip-rule="evenodd" d="M56.4137 258.871C57.915 257.375 59.4668 255.951 60.8942 254.616C62.4322 253.178 63.8218 251.837 64.953 250.606C65.6127 249.887 66.1897 249.207 66.6573 248.575C67.1249 247.943 67.4788 247.358 67.7467 246.822C68.009 246.293 68.1797 245.812 68.2914 245.393C68.403 244.973 68.4505 244.616 68.4846 244.32C68.5188 244.024 68.5515 243.789 68.6076 243.628C68.6638 243.467 68.7518 243.379 68.9063 243.367C69.0608 243.356 69.2781 243.424 69.5213 243.572C69.7646 243.719 70.0397 243.949 70.2944 244.252C70.5492 244.555 70.773 244.932 70.927 245.381C71.081 245.83 71.1487 246.347 71.1027 246.919C71.0588 247.496 70.9115 248.133 70.6283 248.813C70.345 249.494 69.9351 250.222 69.4159 250.98C68.5307 252.276 67.3458 253.677 65.9546 255.15C64.8263 256.344 63.5506 257.593 62.2824 258.871H56.4135L56.4137 258.871Z" fill="#42655D"/>
<path fill-rule="evenodd" clip-rule="evenodd" d="M80.9787 258.871C81.0113 258.603 81.055 258.339 81.0842 258.068C81.0875 258.041 81.0813 258.013 81.0842 257.986C81.322 255.698 81.4348 253.515 81.5691 251.519C81.7034 249.523 81.8733 247.714 82.1173 246.196C82.3613 244.678 82.6766 243.452 83.0661 242.602C83.4556 241.752 83.9078 241.281 84.3734 241.281C84.8389 241.281 85.284 241.749 85.7017 242.595C86.1194 243.441 86.5158 244.662 86.8824 246.176C87.2491 247.689 87.5824 249.496 87.7891 251.506C87.9957 253.515 88.0708 255.73 87.8312 258.061C87.8284 258.088 87.8341 258.115 87.8312 258.142C87.8058 258.388 87.7586 258.628 87.7258 258.871H80.9787L80.9787 258.871Z" fill="#42655D"/>
<path fill-rule="evenodd" clip-rule="evenodd" d="M98.6393 258.871C98.7814 257.726 99.084 256.627 99.5505 255.621C100.116 254.402 100.91 253.316 101.793 252.431C102.675 251.546 103.63 250.859 104.425 250.404C105.22 249.95 105.839 249.726 106.132 249.765C106.425 249.803 106.367 250.101 106.103 250.601C105.839 251.1 105.389 251.803 104.946 252.679C104.503 253.555 104.077 254.603 103.774 255.779C103.528 256.735 103.373 257.778 103.268 258.871H98.6392L98.6393 258.871Z" fill="#42655D"/>
<path fill-rule="evenodd" clip-rule="evenodd" d="M157.603 240.348C157.429 240.347 157.147 240.418 156.777 240.564C156.355 240.73 155.819 240.996 155.231 241.352C154.643 241.709 154.009 242.158 153.404 242.702C152.799 243.247 152.229 243.888 151.787 244.608C151.383 245.269 151.094 245.997 150.944 246.781C150.794 247.565 150.791 248.405 150.961 249.283C151.215 250.578 151.801 251.955 152.718 253.378C153.636 254.802 154.882 256.271 156.303 257.757C156.592 258.06 156.886 258.357 157.181 258.654C157.297 258.771 157.416 258.884 157.533 259H163.402C163.106 258.702 162.817 258.411 162.523 258.109C162.239 257.815 161.963 257.522 161.68 257.224C160.292 255.765 159.041 254.346 158.043 252.992C157.045 251.639 156.306 250.352 155.864 249.141C155.563 248.323 155.385 247.539 155.337 246.809C155.289 246.079 155.37 245.401 155.53 244.778C155.875 243.422 156.624 242.337 157.164 241.585C157.434 241.208 157.641 240.913 157.744 240.705C157.846 240.497 157.837 240.379 157.674 240.354C157.653 240.35 157.628 240.348 157.603 240.348L157.603 240.348Z" fill="#42655D"/>
<path fill-rule="evenodd" clip-rule="evenodd" d="M129.181 240.477C129.117 240.473 129.032 240.481 128.971 240.511C128.909 240.541 128.88 240.6 128.865 240.64C128.834 240.712 128.831 240.805 128.865 240.912C128.933 241.124 129.13 241.409 129.413 241.748C129.975 242.423 130.924 243.351 132.065 244.481C134.318 246.71 137.377 249.773 139.75 253.385C140.903 255.141 141.866 257.029 142.53 259H149.33C148.609 256.847 147.394 254.796 145.919 252.916C144.461 251.055 142.747 249.359 140.993 247.859C139.238 246.359 137.45 245.057 135.813 243.984C134.149 242.894 132.662 242.048 131.518 241.456C130.938 241.154 130.462 240.925 130.087 240.762C129.895 240.678 129.734 240.618 129.602 240.572C129.517 240.53 129.416 240.524 129.35 240.511C129.284 240.498 129.245 240.481 129.181 240.477L129.181 240.477Z" fill="#42655D"/>
<path fill-rule="evenodd" clip-rule="evenodd" d="M116.823 244.075C116.465 244.114 116.59 244.582 117.051 245.397C117.513 246.211 118.305 247.374 119.23 248.811C120.154 250.248 121.207 251.955 122.006 253.86C122.674 255.452 123.162 257.184 123.236 258.999H128.806C128.652 257.071 127.973 255.25 127.031 253.599C125.911 251.636 124.444 249.907 123.008 248.482C121.571 247.058 120.168 245.942 119.072 245.186C117.975 244.431 117.18 244.036 116.823 244.075L116.823 244.075Z" fill="#42655D"/>
<path fill-rule="evenodd" clip-rule="evenodd" d="M173.195 244.44C172.779 244.44 172.389 244.817 172.008 245.485C171.628 246.154 171.249 247.117 170.878 248.312C170.508 249.508 170.156 250.934 169.88 252.525C169.605 254.117 169.415 255.875 169.523 257.729C169.526 257.791 169.537 257.85 169.541 257.912C169.561 258.232 169.596 258.551 169.636 258.866H175.661C175.63 258.536 175.591 258.205 175.567 257.869C175.563 257.809 175.552 257.753 175.548 257.693C175.44 255.885 175.446 254.15 175.417 252.568C175.387 250.985 175.328 249.555 175.153 248.349C174.978 247.143 174.702 246.167 174.362 245.492C174.022 244.816 173.61 244.44 173.195 244.44L173.195 244.44Z" fill="#42655D"/>
<path fill-rule="evenodd" clip-rule="evenodd" d="M178.722 245.941C178.352 245.978 178.381 246.382 178.634 247.081C178.887 247.78 179.366 248.774 179.864 250.003C180.362 251.231 180.865 252.696 181.269 254.331C181.626 255.771 181.894 257.347 182.095 259H187.718C187.486 257.286 187.051 255.644 186.417 254.149C185.709 252.478 184.767 250.985 183.747 249.753C182.727 248.521 181.633 247.548 180.725 246.894C179.816 246.24 179.091 245.904 178.722 245.941L178.722 245.941Z" fill="#42655D"/>
<path fill-rule="evenodd" clip-rule="evenodd" d="M26.6478 257.052C26.6627 256.685 26.6682 256.318 26.6478 255.945C26.632 255.683 26.593 255.418 26.5576 255.153C26.3401 253.527 25.7414 251.964 24.7171 250.533C23.6927 249.103 22.2517 247.804 20.4947 246.671C18.8907 245.619 17.0298 244.711 15.1536 243.962C13.2775 243.213 11.3792 242.624 9.70429 242.162C5.91811 241.347 3.74942 240.787 3.94846 240.63C4.15868 240.474 6.7494 240.741 11.2381 241.364C13.2987 241.753 15.6535 242.31 18.0229 243.065C20.3921 243.819 22.7629 244.776 24.8256 245.919C26.9967 247.138 28.811 248.551 30.0946 250.102C31.3781 251.654 32.1391 253.341 32.3501 255.077C32.3845 255.36 32.3974 255.643 32.4042 255.922C32.4154 256.304 32.3978 256.678 32.3681 257.052H26.6483L26.6478 257.052Z" fill="#42655D"/>
<path fill-rule="evenodd" clip-rule="evenodd" d="M45.4666 257.052C45.5888 256.689 45.725 256.325 45.8274 255.957C46.4345 253.775 46.6273 251.657 46.4529 249.658C46.251 247.318 45.5369 245.138 44.5765 243.196C43.616 241.253 42.4181 239.552 41.3046 238.139C40.1911 236.727 39.1819 235.602 38.562 234.815C37.9422 234.028 37.7082 233.578 38.1049 233.518C38.5017 233.458 39.4877 233.795 40.8475 234.497C42.2074 235.198 43.9515 236.268 45.7312 237.665C47.511 239.063 49.3096 240.793 50.7833 242.799C52.2571 244.806 53.3889 247.09 53.8387 249.557C54.2204 251.66 54.1357 253.892 53.5018 256.182C53.4208 256.475 53.3342 256.762 53.2372 257.052H45.4668L45.4666 257.052Z" fill="#42655D"/>
<path fill-rule="evenodd" clip-rule="evenodd" d="M61.8732 257.052C63.4151 255.516 65.0087 254.053 66.4745 252.683C68.054 251.206 69.481 249.828 70.6427 248.564C71.3202 247.826 71.9128 247.128 72.393 246.479C72.8732 245.829 73.2365 245.229 73.5117 244.679C73.7811 244.135 73.9564 243.641 74.0711 243.211C74.1857 242.78 74.2345 242.414 74.2696 242.11C74.3046 241.806 74.3382 241.564 74.3959 241.399C74.4535 241.233 74.544 241.142 74.7026 241.131C74.8613 241.119 75.0844 241.189 75.3342 241.341C75.584 241.492 75.8665 241.728 76.1281 242.04C76.3897 242.351 76.6196 242.738 76.7777 243.199C76.9358 243.66 77.0054 244.19 76.9581 244.778C76.913 245.371 76.7618 246.025 76.4709 246.723C76.18 247.422 75.759 248.17 75.2259 248.949C74.3168 250.279 73.0999 251.718 71.6712 253.231C70.5125 254.457 69.2024 255.74 67.8999 257.052H61.8731L61.8732 257.052Z" fill="#42655D"/>
<path fill-rule="evenodd" clip-rule="evenodd" d="M87.0961 257.052C87.1296 256.777 87.1744 256.506 87.2043 256.227C87.2077 256.2 87.2015 256.171 87.2043 256.143C87.4486 253.794 87.5645 251.552 87.7023 249.502C87.8402 247.452 88.0148 245.594 88.2653 244.036C88.5159 242.477 88.8397 241.217 89.2397 240.344C89.6398 239.472 90.1041 238.988 90.5822 238.988C91.0603 238.988 91.5174 239.469 91.9464 240.337C92.3753 241.206 92.7824 242.46 93.1589 244.015C93.5355 245.569 93.8778 247.425 94.09 249.488C94.3023 251.552 94.3793 253.827 94.1333 256.22C94.1305 256.248 94.1361 256.276 94.1333 256.304C94.1072 256.556 94.0588 256.803 94.0251 257.052H87.0964L87.0961 257.052Z" fill="#42655D"/>
<path fill-rule="evenodd" clip-rule="evenodd" d="M105.235 257.052C105.381 255.876 105.691 254.748 106.17 253.714C106.751 252.462 107.567 251.348 108.473 250.439C109.379 249.53 110.36 248.824 111.176 248.357C111.993 247.89 112.628 247.661 112.929 247.7C113.23 247.74 113.17 248.046 112.899 248.559C112.629 249.072 112.166 249.793 111.711 250.693C111.256 251.593 110.819 252.669 110.508 253.877C110.255 254.858 110.096 255.93 109.988 257.052H105.234L105.235 257.052Z" fill="#42655D"/>
<path fill-rule="evenodd" clip-rule="evenodd" d="M165.79 238.03C165.611 238.029 165.321 238.102 164.942 238.251C164.508 238.423 163.957 238.695 163.354 239.061C162.75 239.427 162.098 239.889 161.477 240.448C160.856 241.007 160.271 241.665 159.817 242.405C159.402 243.084 159.105 243.831 158.951 244.636C158.797 245.441 158.794 246.304 158.969 247.205C159.23 248.535 159.831 249.949 160.773 251.411C161.716 252.873 162.996 254.382 164.454 255.909C164.752 256.22 165.053 256.524 165.357 256.829C165.475 256.949 165.598 257.065 165.717 257.184H171.744C171.441 256.879 171.144 256.58 170.842 256.27C170.55 255.968 170.266 255.667 169.976 255.361C168.551 253.863 167.266 252.405 166.241 251.015C165.216 249.626 164.458 248.304 164.003 247.06C163.695 246.22 163.511 245.415 163.462 244.665C163.413 243.916 163.496 243.22 163.66 242.58C164.015 241.187 164.784 240.072 165.339 239.3C165.616 238.914 165.829 238.61 165.934 238.397C166.039 238.184 166.03 238.062 165.862 238.036C165.841 238.033 165.815 238.03 165.79 238.03L165.79 238.03Z" fill="#42655D"/>
<path fill-rule="evenodd" clip-rule="evenodd" d="M136.597 238.163C136.532 238.158 136.444 238.166 136.381 238.197C136.318 238.229 136.288 238.288 136.273 238.33C136.24 238.404 136.238 238.499 136.273 238.609C136.342 238.827 136.545 239.119 136.835 239.468C137.413 240.161 138.387 241.114 139.559 242.274C141.873 244.564 145.014 247.709 147.451 251.419C148.635 253.222 149.624 255.161 150.305 257.185H157.289C156.548 254.974 155.3 252.868 153.786 250.937C152.288 249.025 150.528 247.284 148.727 245.744C146.925 244.203 145.089 242.866 143.408 241.765C141.698 240.645 140.172 239.776 138.997 239.168C138.401 238.859 137.912 238.623 137.527 238.456C137.33 238.37 137.165 238.308 137.03 238.261C136.942 238.217 136.838 238.211 136.77 238.198C136.702 238.185 136.663 238.167 136.597 238.163L136.597 238.163Z" fill="#42655D"/>
<path fill-rule="evenodd" clip-rule="evenodd" d="M123.907 241.857C123.54 241.897 123.668 242.378 124.142 243.214C124.616 244.05 125.43 245.245 126.379 246.721C127.329 248.197 128.41 249.949 129.23 251.906C129.916 253.541 130.417 255.319 130.493 257.184H136.213C136.056 255.204 135.358 253.334 134.391 251.638C133.24 249.622 131.734 247.846 130.258 246.383C128.783 244.921 127.343 243.775 126.217 242.999C125.09 242.222 124.274 241.817 123.907 241.857L123.907 241.857Z" fill="#42655D"/>
<path fill-rule="evenodd" clip-rule="evenodd" d="M181.803 242.232C181.376 242.232 180.975 242.62 180.584 243.306C180.194 243.993 179.805 244.981 179.424 246.209C179.044 247.437 178.682 248.902 178.399 250.536C178.117 252.17 177.921 253.976 178.032 255.88C178.035 255.944 178.047 256.004 178.051 256.068C178.072 256.396 178.108 256.724 178.148 257.048H184.336C184.304 256.709 184.264 256.369 184.239 256.024C184.235 255.962 184.224 255.904 184.22 255.843C184.109 253.986 184.115 252.205 184.085 250.58C184.054 248.954 183.993 247.485 183.814 246.247C183.635 245.008 183.351 244.006 183.002 243.313C182.652 242.619 182.23 242.232 181.803 242.232L181.803 242.232Z" fill="#42655D"/>
<path fill-rule="evenodd" clip-rule="evenodd" d="M187.476 243.774C187.096 243.812 187.126 244.227 187.386 244.945C187.645 245.662 188.137 246.683 188.649 247.945C189.16 249.206 189.677 250.711 190.092 252.39C190.458 253.869 190.734 255.487 190.94 257.184H196.715C196.477 255.425 196.03 253.739 195.38 252.203C194.651 250.486 193.684 248.954 192.637 247.688C191.59 246.423 190.466 245.424 189.533 244.752C188.6 244.081 187.856 243.735 187.476 243.773L187.476 243.774Z" fill="#42655D"/>
<path fill-rule="evenodd" clip-rule="evenodd" d="M37.9436 257.615C37.9564 257.299 37.9612 256.982 37.9436 256.661C37.93 256.435 37.8963 256.206 37.8658 255.978C37.6784 254.576 37.1623 253.229 36.2793 251.996C35.3963 250.763 34.1542 249.643 32.6398 248.666C31.2571 247.76 29.6531 246.977 28.0359 246.331C26.4187 245.686 24.7825 245.178 23.3387 244.78C20.0751 244.077 18.2057 243.595 18.377 243.459C18.5583 243.325 20.7914 243.555 24.6608 244.092C26.437 244.427 28.4668 244.908 30.5089 245.558C32.5511 246.208 34.5947 247.033 36.3727 248.019C38.2441 249.069 39.8079 250.287 40.9144 251.624C42.0208 252.961 42.6767 254.416 42.8586 255.912C42.8882 256.156 42.8994 256.4 42.9052 256.641C42.9149 256.97 42.8996 257.292 42.8741 257.615H37.9435L37.9436 257.615Z" fill="#42655D"/>
<path fill-rule="evenodd" clip-rule="evenodd" d="M54.1647 257.615C54.2701 257.302 54.3875 256.988 54.4758 256.671C54.9991 254.79 55.1652 252.964 55.015 251.241C54.8409 249.224 54.2253 247.345 53.3975 245.671C52.5696 243.997 51.537 242.53 50.5772 241.313C49.6174 240.095 48.7474 239.125 48.2132 238.447C47.6789 237.769 47.4772 237.381 47.8192 237.329C48.1611 237.278 49.011 237.568 50.1832 238.173C51.3554 238.778 52.8587 239.7 54.3928 240.904C55.9269 242.109 57.4772 243.6 58.7476 245.33C60.018 247.06 60.9935 249.028 61.3812 251.154C61.7103 252.967 61.6373 254.892 61.0909 256.865C61.0211 257.117 60.9464 257.365 60.8628 257.615H54.1646L54.1647 257.615Z" fill="#42655D"/>
<path fill-rule="evenodd" clip-rule="evenodd" d="M68.3055 257.615C69.6345 256.291 71.0082 255.03 72.2716 253.849C73.6331 252.576 74.8632 251.388 75.8646 250.298C76.4486 249.662 76.9594 249.06 77.3733 248.501C77.7872 247.941 78.1004 247.423 78.3376 246.949C78.5698 246.481 78.7209 246.055 78.8198 245.684C78.9186 245.312 78.9607 244.997 78.9909 244.735C79.0211 244.473 79.0501 244.265 79.0997 244.122C79.1494 243.979 79.2274 243.901 79.3642 243.891C79.5009 243.881 79.6932 243.941 79.9085 244.072C80.1239 244.202 80.3674 244.406 80.5929 244.674C80.8184 244.943 81.0165 245.276 81.1528 245.674C81.2891 246.071 81.3491 246.528 81.3084 247.034C81.2695 247.546 81.1392 248.109 80.8884 248.712C80.6377 249.314 80.2748 249.959 79.8152 250.63C79.0316 251.777 77.9827 253.017 76.7511 254.321C75.7524 255.378 74.6231 256.483 73.5004 257.615H68.3055L68.3055 257.615Z" fill="#42655D"/>
<path fill-rule="evenodd" clip-rule="evenodd" d="M90.0479 257.615C90.0768 257.378 90.1154 257.144 90.1412 256.904C90.144 256.88 90.139 256.855 90.1412 256.831C90.3518 254.806 90.4517 252.874 90.5705 251.107C90.6894 249.34 90.8398 247.738 91.0558 246.395C91.2718 245.051 91.5509 243.965 91.8957 243.213C92.2405 242.461 92.6408 242.044 93.0529 242.044C93.465 242.044 93.859 242.458 94.2287 243.207C94.5985 243.956 94.9494 245.037 95.2739 246.377C95.5985 247.716 95.8935 249.316 96.0765 251.095C96.2594 252.874 96.3258 254.834 96.1138 256.898C96.1115 256.922 96.116 256.946 96.1138 256.97C96.0913 257.187 96.0495 257.4 96.0205 257.615H90.0476L90.0479 257.615Z" fill="#42655D"/>
<path fill-rule="evenodd" clip-rule="evenodd" d="M105.679 257.615C105.805 256.601 106.072 255.629 106.485 254.738C106.986 253.658 107.689 252.698 108.47 251.914C109.251 251.13 110.097 250.523 110.8 250.12C111.504 249.718 112.052 249.52 112.311 249.554C112.571 249.588 112.519 249.852 112.286 250.294C112.052 250.736 111.654 251.358 111.261 252.133C110.869 252.909 110.492 253.837 110.224 254.878C110.007 255.724 109.869 256.647 109.776 257.615H105.679H105.679Z" fill="#42655D"/>
<path fill-rule="evenodd" clip-rule="evenodd" d="M157.879 241.218C157.724 241.217 157.475 241.279 157.148 241.408C156.774 241.556 156.299 241.791 155.779 242.106C155.259 242.422 154.697 242.82 154.161 243.302C153.626 243.783 153.121 244.351 152.73 244.989C152.372 245.574 152.117 246.218 151.984 246.912C151.851 247.606 151.848 248.35 151.999 249.126C152.224 250.273 152.742 251.492 153.555 252.752C154.367 254.012 155.47 255.313 156.728 256.629C156.984 256.897 157.244 257.159 157.505 257.422C157.608 257.526 157.713 257.626 157.816 257.728H163.011C162.75 257.465 162.494 257.207 162.234 256.94C161.982 256.68 161.737 256.42 161.487 256.157C160.259 254.865 159.151 253.608 158.267 252.411C157.384 251.213 156.731 250.073 156.339 249.001C156.073 248.277 155.915 247.583 155.872 246.937C155.83 246.291 155.902 245.691 156.043 245.139C156.349 243.939 157.012 242.978 157.49 242.312C157.729 241.98 157.912 241.718 158.003 241.534C158.094 241.35 158.086 241.245 157.941 241.223C157.923 241.22 157.901 241.218 157.879 241.218L157.879 241.218Z" fill="#42655D"/>
<path fill-rule="evenodd" clip-rule="evenodd" d="M132.718 241.332C132.661 241.328 132.586 241.335 132.531 241.362C132.477 241.389 132.451 241.441 132.438 241.476C132.41 241.54 132.408 241.622 132.438 241.717C132.498 241.905 132.672 242.157 132.923 242.457C133.421 243.055 134.261 243.876 135.271 244.876C137.265 246.85 139.972 249.561 142.074 252.758C143.094 254.313 143.947 255.984 144.534 257.729H150.554C149.915 255.823 148.84 254.007 147.535 252.343C146.244 250.695 144.726 249.194 143.174 247.866C141.621 246.539 140.038 245.386 138.589 244.437C137.115 243.471 135.8 242.723 134.787 242.198C134.273 241.932 133.852 241.729 133.52 241.585C133.35 241.51 133.207 241.457 133.091 241.416C133.015 241.379 132.926 241.373 132.867 241.362C132.809 241.351 132.774 241.336 132.718 241.332L132.718 241.332Z" fill="#42655D"/>
<path fill-rule="evenodd" clip-rule="evenodd" d="M121.776 244.518C121.46 244.552 121.57 244.967 121.978 245.688C122.387 246.409 123.088 247.439 123.907 248.711C124.725 249.983 125.657 251.494 126.364 253.18C126.955 254.589 127.388 256.122 127.453 257.729H132.384C132.248 256.023 131.647 254.411 130.813 252.949C129.821 251.211 128.523 249.68 127.251 248.42C125.979 247.159 124.738 246.171 123.767 245.502C122.796 244.833 122.092 244.483 121.776 244.518L121.776 244.518Z" fill="#42655D"/>
<path fill-rule="evenodd" clip-rule="evenodd" d="M171.682 244.841C171.314 244.841 170.969 245.175 170.632 245.767C170.295 246.358 169.96 247.211 169.632 248.269C169.304 249.327 168.992 250.59 168.748 251.998C168.505 253.407 168.336 254.964 168.432 256.605C168.434 256.66 168.445 256.712 168.448 256.766C168.466 257.05 168.497 257.332 168.532 257.611H173.866C173.838 257.32 173.803 257.026 173.782 256.729C173.779 256.676 173.769 256.626 173.766 256.573C173.67 254.973 173.675 253.437 173.649 252.036C173.623 250.635 173.57 249.369 173.416 248.301C173.261 247.234 173.017 246.369 172.716 245.772C172.414 245.174 172.05 244.841 171.682 244.841L171.682 244.841Z" fill="#42655D"/>
<path fill-rule="evenodd" clip-rule="evenodd" d="M176.574 246.17C176.247 246.202 176.272 246.56 176.496 247.179C176.72 247.797 177.144 248.678 177.585 249.765C178.025 250.852 178.471 252.149 178.829 253.596C179.144 254.871 179.382 256.267 179.56 257.729H184.537C184.333 256.213 183.947 254.759 183.386 253.436C182.759 251.956 181.925 250.635 181.022 249.544C180.119 248.453 179.151 247.592 178.347 247.013C177.542 246.435 176.901 246.137 176.574 246.17V246.17Z" fill="#42655D"/>
<path fill-rule="evenodd" clip-rule="evenodd" d="M118.38 257.615C118.275 257.302 118.157 256.988 118.069 256.671C117.546 254.79 117.38 252.964 117.53 251.241C117.704 249.224 118.319 247.345 119.147 245.671C119.975 243.997 121.008 242.53 121.968 241.313C122.927 240.095 123.797 239.125 124.332 238.447C124.866 237.769 125.068 237.381 124.726 237.329C124.384 237.278 123.534 237.568 122.362 238.173C121.189 238.778 119.686 239.7 118.152 240.904C116.618 242.109 115.068 243.6 113.797 245.33C112.527 247.06 111.551 249.028 111.164 251.154C110.835 252.967 110.908 254.892 111.454 256.865C111.524 257.117 111.598 257.365 111.682 257.615H118.38L118.38 257.615Z" fill="#42655D"/>
<path fill-rule="evenodd" clip-rule="evenodd" d="M98.4369 241.218C98.5911 241.217 98.8409 241.279 99.1679 241.408C99.5416 241.556 100.016 241.791 100.537 242.106C101.057 242.422 101.619 242.82 102.154 243.302C102.69 243.783 103.194 244.351 103.585 244.989C103.943 245.574 104.199 246.218 104.332 246.912C104.465 247.606 104.467 248.35 104.316 249.126C104.091 250.273 103.573 251.492 102.761 252.752C101.948 254.012 100.845 255.313 99.588 256.629C99.3316 256.897 99.0719 257.159 98.8102 257.422C98.7078 257.526 98.6023 257.626 98.4992 257.728H93.3043C93.566 257.465 93.8219 257.207 94.082 256.94C94.3336 256.68 94.5782 256.42 94.8285 256.157C96.0566 254.865 97.1647 253.608 98.0481 252.411C98.9316 251.213 99.5849 250.073 99.9768 249.001C100.243 248.277 100.401 247.583 100.443 246.937C100.486 246.291 100.414 245.691 100.272 245.139C99.9665 243.939 99.3035 242.978 98.8258 242.312C98.587 241.98 98.4033 241.718 98.3125 241.534C98.2217 241.35 98.2299 241.245 98.3747 241.223C98.3928 241.22 98.4149 241.218 98.437 241.218L98.4369 241.218Z" fill="#42655D"/>
<path fill-rule="evenodd" clip-rule="evenodd" d="M171.395 242.24C171.452 242.236 171.527 242.243 171.582 242.27C171.636 242.297 171.662 242.348 171.675 242.384C171.703 242.447 171.705 242.53 171.675 242.625C171.615 242.812 171.441 243.064 171.19 243.365C170.692 243.962 169.852 244.783 168.842 245.784C166.848 247.757 164.141 250.468 162.039 253.666C161.019 255.22 160.166 256.892 159.579 258.636H153.559C154.198 256.73 155.273 254.915 156.578 253.251C157.869 251.603 159.386 250.102 160.939 248.774C162.492 247.446 164.075 246.294 165.524 245.344C166.998 244.379 168.313 243.63 169.326 243.106C169.84 242.839 170.261 242.636 170.593 242.492C170.763 242.418 170.906 242.365 171.022 242.324C171.098 242.286 171.187 242.281 171.246 242.27C171.304 242.258 171.339 242.243 171.395 242.239L171.395 242.24Z" fill="#42655D"/>
<path fill-rule="evenodd" clip-rule="evenodd" d="M196.95 244.518C197.266 244.552 197.156 244.967 196.748 245.688C196.339 246.409 195.638 247.439 194.819 248.711C194.001 249.983 193.069 251.494 192.362 253.18C191.771 254.589 191.338 256.122 191.273 257.729H186.342C186.478 256.023 187.079 254.411 187.913 252.949C188.905 251.211 190.203 249.68 191.475 248.42C192.747 247.159 193.988 246.171 194.959 245.502C195.93 244.833 196.634 244.483 196.95 244.518L196.95 244.518Z" fill="#42655D"/>
<path fill-rule="evenodd" clip-rule="evenodd" d="M72.8316 244.296C73.1997 244.296 73.545 244.63 73.8818 245.222C74.2186 245.814 74.554 246.666 74.8819 247.724C75.2099 248.783 75.5217 250.045 75.7653 251.454C76.009 252.863 76.1777 254.419 76.082 256.06C76.0792 256.115 76.0692 256.168 76.0654 256.222C76.0478 256.505 76.0167 256.788 75.9821 257.067H70.648C70.6761 256.775 70.7103 256.482 70.7314 256.184C70.7348 256.131 70.7449 256.081 70.748 256.028C70.8439 254.428 70.8385 252.893 70.8647 251.492C70.8909 250.091 70.9436 248.824 71.0981 247.757C71.2526 246.689 71.497 245.825 71.7981 245.227C72.0993 244.63 72.4636 244.296 72.8316 244.296L72.8316 244.296Z" fill="#42655D"/>
<path fill-rule="evenodd" clip-rule="evenodd" d="M109.541 245.443C109.868 245.476 109.843 245.834 109.619 246.453C109.395 247.071 108.971 247.952 108.53 249.039C108.09 250.126 107.644 251.423 107.286 252.87C106.971 254.145 106.733 255.541 106.555 257.003H101.578C101.783 255.486 102.168 254.033 102.729 252.71C103.356 251.23 104.19 249.909 105.093 248.818C105.996 247.727 106.964 246.866 107.768 246.287C108.573 245.708 109.214 245.411 109.541 245.443L109.541 245.443Z" fill="#42655D"/>
<path fill-rule="evenodd" clip-rule="evenodd" d="M190.793 258.871C190.808 258.514 190.813 258.157 190.793 257.793C190.778 257.538 190.74 257.28 190.705 257.022C190.494 255.438 189.911 253.916 188.913 252.523C187.916 251.13 186.513 249.865 184.802 248.762C183.24 247.738 181.428 246.854 179.601 246.125C177.774 245.395 175.925 244.822 174.295 244.372C170.608 243.578 168.496 243.033 168.689 242.88C168.894 242.728 171.417 242.988 175.788 243.595C177.794 243.973 180.087 244.516 182.395 245.251C184.702 245.986 187.01 246.917 189.018 248.03C191.133 249.217 192.899 250.593 194.149 252.104C195.399 253.614 196.14 255.258 196.345 256.948C196.379 257.223 196.391 257.499 196.398 257.771C196.409 258.142 196.392 258.507 196.363 258.871H190.793L190.793 258.871Z" fill="#42655D"/>
<path fill-rule="evenodd" clip-rule="evenodd" d="M209.117 258.871C209.236 258.517 209.369 258.163 209.469 257.805C210.06 255.68 210.247 253.617 210.078 251.671C209.881 249.392 209.186 247.27 208.25 245.378C207.315 243.487 206.149 241.83 205.064 240.455C203.98 239.079 202.997 237.984 202.394 237.218C201.79 236.452 201.562 236.013 201.949 235.955C202.335 235.897 203.295 236.224 204.619 236.908C205.944 237.591 207.642 238.633 209.375 239.993C211.108 241.354 212.859 243.038 214.294 244.993C215.729 246.947 216.832 249.17 217.269 251.573C217.641 253.621 217.559 255.794 216.942 258.024C216.863 258.309 216.778 258.589 216.684 258.871H209.117L209.117 258.871Z" fill="#42655D"/>
<path fill-rule="evenodd" clip-rule="evenodd" d="M225.091 258.871C226.592 257.375 228.144 255.951 229.571 254.616C231.109 253.178 232.499 251.837 233.63 250.606C234.29 249.887 234.867 249.207 235.335 248.575C235.802 247.943 236.156 247.358 236.424 246.822C236.686 246.293 236.857 245.812 236.969 245.393C237.08 244.973 237.128 244.616 237.162 244.32C237.196 244.024 237.229 243.789 237.285 243.628C237.341 243.467 237.429 243.379 237.584 243.367C237.738 243.356 237.955 243.424 238.199 243.572C238.442 243.719 238.717 243.949 238.972 244.252C239.226 244.555 239.45 244.932 239.604 245.381C239.758 245.83 239.826 246.347 239.78 246.919C239.736 247.496 239.589 248.133 239.306 248.813C239.022 249.494 238.612 250.222 238.093 250.98C237.208 252.276 236.023 253.677 234.632 255.15C233.504 256.344 232.228 257.593 230.96 258.871H225.091L225.091 258.871Z" fill="#42655D"/>
<path fill-rule="evenodd" clip-rule="evenodd" d="M307.675 258.871C307.643 258.603 307.599 258.339 307.57 258.068C307.566 258.041 307.573 258.013 307.57 257.986C307.332 255.698 307.219 253.515 307.085 251.519C306.951 249.523 306.781 247.714 306.537 246.196C306.293 244.678 305.977 243.452 305.588 242.602C305.198 241.752 304.746 241.281 304.281 241.281C303.815 241.281 303.37 241.749 302.952 242.595C302.535 243.441 302.138 244.662 301.772 246.176C301.405 247.689 301.072 249.496 300.865 251.506C300.658 253.515 300.583 255.73 300.823 258.061C300.826 258.088 300.82 258.115 300.823 258.142C300.848 258.388 300.895 258.628 300.928 258.871H307.675L307.675 258.871Z" fill="#42655D"/>
<path fill-rule="evenodd" clip-rule="evenodd" d="M290.015 258.871C289.873 257.726 289.57 256.627 289.104 255.621C288.538 254.402 287.744 253.316 286.862 252.431C285.979 251.546 285.024 250.859 284.229 250.404C283.434 249.95 282.815 249.726 282.522 249.765C282.229 249.803 282.287 250.101 282.551 250.601C282.815 251.1 283.265 251.803 283.708 252.679C284.151 253.555 284.577 254.603 284.88 255.779C285.126 256.735 285.281 257.778 285.386 258.871H290.015L290.015 258.871Z" fill="#42655D"/>
<path fill-rule="evenodd" clip-rule="evenodd" d="M326.28 240.348C326.106 240.347 325.824 240.418 325.455 240.564C325.032 240.73 324.496 240.996 323.908 241.352C323.321 241.709 322.686 242.158 322.081 242.702C321.476 243.247 320.906 243.888 320.465 244.608C320.06 245.269 319.771 245.997 319.621 246.781C319.471 247.565 319.468 248.405 319.639 249.283C319.893 250.578 320.478 251.955 321.396 253.378C322.313 254.802 323.56 256.271 324.98 257.757C325.27 258.06 325.563 258.357 325.859 258.654C325.974 258.771 326.094 258.884 326.21 259H332.079C331.783 258.702 331.494 258.411 331.2 258.109C330.916 257.815 330.64 257.522 330.357 257.224C328.97 255.765 327.718 254.346 326.72 252.992C325.722 251.639 324.984 250.352 324.541 249.141C324.24 248.323 324.062 247.539 324.014 246.809C323.966 246.079 324.048 245.401 324.207 244.778C324.553 243.422 325.302 242.337 325.841 241.585C326.111 241.208 326.319 240.913 326.421 240.705C326.524 240.497 326.514 240.379 326.351 240.354C326.33 240.35 326.305 240.348 326.281 240.348L326.28 240.348Z" fill="#42655D"/>
<path fill-rule="evenodd" clip-rule="evenodd" d="M259.473 240.477C259.537 240.473 259.622 240.481 259.683 240.511C259.745 240.541 259.774 240.6 259.789 240.64C259.82 240.712 259.823 240.805 259.789 240.912C259.721 241.124 259.524 241.409 259.241 241.748C258.679 242.423 257.73 243.351 256.589 244.481C254.336 246.71 251.277 249.773 248.904 253.385C247.751 255.141 246.787 257.029 246.124 259H239.324C240.045 256.847 241.26 254.796 242.735 252.916C244.193 251.055 245.907 249.359 247.661 247.859C249.416 246.359 251.204 245.057 252.841 243.984C254.505 242.894 255.992 242.048 257.136 241.456C257.716 241.154 258.192 240.925 258.567 240.762C258.759 240.678 258.92 240.618 259.052 240.572C259.137 240.53 259.238 240.524 259.304 240.511C259.37 240.498 259.409 240.481 259.473 240.477L259.473 240.477Z" fill="#42655D"/>
<path fill-rule="evenodd" clip-rule="evenodd" d="M271.831 244.075C272.189 244.114 272.064 244.582 271.603 245.397C271.141 246.211 270.349 247.374 269.424 248.811C268.5 250.248 267.447 251.955 266.648 253.86C265.98 255.452 265.492 257.184 265.418 258.999H259.848C260.002 257.071 260.681 255.25 261.623 253.599C262.743 251.636 264.21 249.907 265.647 248.482C267.083 247.058 268.486 245.942 269.582 245.186C270.679 244.431 271.474 244.036 271.831 244.075V244.075Z" fill="#42655D"/>
<path fill-rule="evenodd" clip-rule="evenodd" d="M341.872 244.44C341.456 244.44 341.066 244.817 340.685 245.485C340.305 246.154 339.926 247.117 339.556 248.312C339.185 249.508 338.833 250.934 338.558 252.525C338.282 254.117 338.092 255.875 338.2 257.729C338.203 257.791 338.214 257.85 338.219 257.912C338.239 258.232 338.274 258.551 338.313 258.866H344.339C344.307 258.536 344.268 258.205 344.244 257.869C344.24 257.809 344.229 257.753 344.226 257.693C344.117 255.885 344.123 254.15 344.094 252.568C344.064 250.985 344.005 249.555 343.83 248.349C343.656 247.143 343.38 246.167 343.039 245.492C342.699 244.816 342.288 244.44 341.872 244.44L341.872 244.44Z" fill="#42655D"/>
<path fill-rule="evenodd" clip-rule="evenodd" d="M347.399 245.941C347.029 245.978 347.058 246.382 347.311 247.081C347.564 247.78 348.043 248.774 348.541 250.003C349.039 251.231 349.542 252.696 349.947 254.331C350.303 255.771 350.571 257.347 350.772 259H356.395C356.164 257.286 355.729 255.644 355.095 254.149C354.386 252.478 353.444 250.985 352.424 249.753C351.404 248.521 350.311 247.548 349.402 246.894C348.493 246.24 347.768 245.904 347.399 245.941L347.399 245.941Z" fill="#42655D"/>
<path fill-rule="evenodd" clip-rule="evenodd" d="M190.793 258.871C190.808 258.514 190.813 258.157 190.793 257.793C190.778 257.538 190.74 257.28 190.705 257.022C190.494 255.438 189.911 253.916 188.913 252.523C187.916 251.13 186.513 249.865 184.802 248.762C183.24 247.738 181.428 246.854 179.601 246.125C177.774 245.395 175.925 244.822 174.295 244.372C170.608 243.578 168.496 243.033 168.689 242.88C168.894 242.728 171.417 242.988 175.788 243.595C177.794 243.973 180.087 244.516 182.395 245.251C184.702 245.986 187.01 246.917 189.018 248.03C191.133 249.217 192.899 250.593 194.149 252.104C195.399 253.614 196.14 255.258 196.345 256.948C196.379 257.223 196.391 257.499 196.398 257.771C196.409 258.142 196.392 258.507 196.363 258.871H190.793L190.793 258.871Z" fill="#42655D"/>
<path fill-rule="evenodd" clip-rule="evenodd" d="M209.117 258.871C209.236 258.517 209.369 258.163 209.469 257.805C210.06 255.68 210.247 253.617 210.078 251.671C209.881 249.392 209.186 247.27 208.25 245.378C207.315 243.487 206.149 241.83 205.064 240.455C203.98 239.079 202.997 237.984 202.394 237.218C201.79 236.452 201.562 236.013 201.949 235.955C202.335 235.897 203.295 236.224 204.619 236.908C205.944 237.591 207.642 238.633 209.375 239.993C211.108 241.354 212.859 243.038 214.294 244.993C215.729 246.947 216.832 249.17 217.269 251.573C217.641 253.621 217.559 255.794 216.942 258.024C216.863 258.309 216.778 258.589 216.684 258.871H209.117L209.117 258.871Z" fill="#42655D"/>
<path fill-rule="evenodd" clip-rule="evenodd" d="M225.091 258.871C226.592 257.375 228.144 255.951 229.571 254.616C231.109 253.178 232.499 251.837 233.63 250.606C234.29 249.887 234.867 249.207 235.335 248.575C235.802 247.943 236.156 247.358 236.424 246.822C236.686 246.293 236.857 245.812 236.969 245.393C237.08 244.973 237.128 244.616 237.162 244.32C237.196 244.024 237.229 243.789 237.285 243.628C237.341 243.467 237.429 243.379 237.584 243.367C237.738 243.356 237.955 243.424 238.199 243.572C238.442 243.719 238.717 243.949 238.972 244.252C239.226 244.555 239.45 244.932 239.604 245.381C239.758 245.83 239.826 246.347 239.78 246.919C239.736 247.496 239.589 248.133 239.306 248.813C239.022 249.494 238.612 250.222 238.093 250.98C237.208 252.276 236.023 253.677 234.632 255.15C233.504 256.344 232.228 257.593 230.96 258.871H225.091L225.091 258.871Z" fill="#42655D"/>
<path fill-rule="evenodd" clip-rule="evenodd" d="M307.675 258.871C307.643 258.603 307.599 258.339 307.57 258.068C307.566 258.041 307.573 258.013 307.57 257.986C307.332 255.698 307.219 253.515 307.085 251.519C306.951 249.523 306.781 247.714 306.537 246.196C306.293 244.678 305.977 243.452 305.588 242.602C305.198 241.752 304.746 241.281 304.281 241.281C303.815 241.281 303.37 241.749 302.952 242.595C302.535 243.441 302.138 244.662 301.772 246.176C301.405 247.689 301.072 249.496 300.865 251.506C300.658 253.515 300.583 255.73 300.823 258.061C300.826 258.088 300.82 258.115 300.823 258.142C300.848 258.388 300.895 258.628 300.928 258.871H307.675L307.675 258.871Z" fill="#42655D"/>
<path fill-rule="evenodd" clip-rule="evenodd" d="M290.015 258.871C289.873 257.726 289.57 256.627 289.104 255.621C288.538 254.402 287.744 253.316 286.862 252.431C285.979 251.546 285.024 250.859 284.229 250.404C283.434 249.95 282.815 249.726 282.522 249.765C282.229 249.803 282.287 250.101 282.551 250.601C282.815 251.1 283.265 251.803 283.708 252.679C284.151 253.555 284.577 254.603 284.88 255.779C285.126 256.735 285.281 257.778 285.386 258.871H290.015L290.015 258.871Z" fill="#42655D"/>
<path fill-rule="evenodd" clip-rule="evenodd" d="M326.28 240.348C326.106 240.347 325.824 240.418 325.455 240.564C325.032 240.73 324.496 240.996 323.908 241.352C323.321 241.709 322.686 242.158 322.081 242.702C321.476 243.247 320.906 243.888 320.465 244.608C320.06 245.269 319.771 245.997 319.621 246.781C319.471 247.565 319.468 248.405 319.639 249.283C319.893 250.578 320.478 251.955 321.396 253.378C322.313 254.802 323.56 256.271 324.98 257.757C325.27 258.06 325.563 258.357 325.859 258.654C325.974 258.771 326.094 258.884 326.21 259H332.079C331.783 258.702 331.494 258.411 331.2 258.109C330.916 257.815 330.64 257.522 330.357 257.224C328.97 255.765 327.718 254.346 326.72 252.992C325.722 251.639 324.984 250.352 324.541 249.141C324.24 248.323 324.062 247.539 324.014 246.809C323.966 246.079 324.048 245.401 324.207 244.778C324.553 243.422 325.302 242.337 325.841 241.585C326.111 241.208 326.319 240.913 326.421 240.705C326.524 240.497 326.514 240.379 326.351 240.354C326.33 240.35 326.305 240.348 326.281 240.348L326.28 240.348Z" fill="#42655D"/>
<path fill-rule="evenodd" clip-rule="evenodd" d="M259.473 240.477C259.537 240.473 259.622 240.481 259.683 240.511C259.745 240.541 259.774 240.6 259.789 240.64C259.82 240.712 259.823 240.805 259.789 240.912C259.721 241.124 259.524 241.409 259.241 241.748C258.679 242.423 257.73 243.351 256.589 244.481C254.336 246.71 251.277 249.773 248.904 253.385C247.751 255.141 246.787 257.029 246.124 259H239.324C240.045 256.847 241.26 254.796 242.735 252.916C244.193 251.055 245.907 249.359 247.661 247.859C249.416 246.359 251.204 245.057 252.841 243.984C254.505 242.894 255.992 242.048 257.136 241.456C257.716 241.154 258.192 240.925 258.567 240.762C258.759 240.678 258.92 240.618 259.052 240.572C259.137 240.53 259.238 240.524 259.304 240.511C259.37 240.498 259.409 240.481 259.473 240.477L259.473 240.477Z" fill="#42655D"/>
<path fill-rule="evenodd" clip-rule="evenodd" d="M271.831 244.075C272.189 244.114 272.064 244.582 271.603 245.397C271.141 246.211 270.349 247.374 269.424 248.811C268.5 250.248 267.447 251.955 266.648 253.86C265.98 255.452 265.492 257.184 265.418 258.999H259.848C260.002 257.071 260.681 255.25 261.623 253.599C262.743 251.636 264.21 249.907 265.647 248.482C267.083 247.058 268.486 245.942 269.582 245.186C270.679 244.431 271.474 244.036 271.831 244.075V244.075Z" fill="#42655D"/>
<path fill-rule="evenodd" clip-rule="evenodd" d="M341.872 244.44C341.456 244.44 341.066 244.817 340.685 245.485C340.305 246.154 339.926 247.117 339.556 248.312C339.185 249.508 338.833 250.934 338.558 252.525C338.282 254.117 338.092 255.875 338.2 257.729C338.203 257.791 338.214 257.85 338.219 257.912C338.239 258.232 338.274 258.551 338.313 258.866H344.339C344.307 258.536 344.268 258.205 344.244 257.869C344.24 257.809 344.229 257.753 344.226 257.693C344.117 255.885 344.123 254.15 344.094 252.568C344.064 250.985 344.005 249.555 343.83 248.349C343.656 247.143 343.38 246.167 343.039 245.492C342.699 244.816 342.288 244.44 341.872 244.44L341.872 244.44Z" fill="#42655D"/>
<path fill-rule="evenodd" clip-rule="evenodd" d="M347.399 245.941C347.029 245.978 347.058 246.382 347.311 247.081C347.564 247.78 348.043 248.774 348.541 250.003C349.039 251.231 349.542 252.696 349.947 254.331C350.303 255.771 350.571 257.347 350.772 259H356.395C356.164 257.286 355.729 255.644 355.095 254.149C354.386 252.478 353.444 250.985 352.424 249.753C351.404 248.521 350.311 247.548 349.402 246.894C348.493 246.24 347.768 245.904 347.399 245.941L347.399 245.941Z" fill="#42655D"/>
<path fill-rule="evenodd" clip-rule="evenodd" d="M195.325 257.052C195.34 256.685 195.345 256.318 195.325 255.945C195.309 255.683 195.27 255.418 195.235 255.153C195.017 253.527 194.419 251.964 193.394 250.533C192.37 249.103 190.929 247.804 189.172 246.671C187.568 245.619 185.707 244.711 183.831 243.962C181.955 243.213 180.056 242.624 178.382 242.162C174.595 241.347 172.427 240.787 172.626 240.63C172.836 240.474 175.427 240.741 179.915 241.364C181.976 241.753 184.331 242.31 186.7 243.065C189.069 243.819 191.44 244.776 193.503 245.919C195.674 247.138 197.488 248.551 198.772 250.102C200.055 251.654 200.816 253.341 201.027 255.077C201.062 255.36 201.075 255.643 201.081 255.922C201.093 256.304 201.075 256.678 201.045 257.052H195.326L195.325 257.052Z" fill="#42655D"/>
<path fill-rule="evenodd" clip-rule="evenodd" d="M212.35 257.052C212.498 256.638 212.663 256.224 212.786 255.805C213.52 253.32 213.753 250.908 213.542 248.632C213.298 245.967 212.435 243.484 211.274 241.273C210.113 239.06 208.665 237.123 207.319 235.514C205.973 233.906 204.753 232.625 204.004 231.729C203.255 230.833 202.972 230.32 203.452 230.252C203.931 230.183 205.123 230.567 206.767 231.366C208.411 232.165 210.519 233.383 212.67 234.975C214.821 236.566 216.995 238.536 218.777 240.821C220.558 243.107 221.926 245.707 222.47 248.517C222.931 250.912 222.829 253.454 222.063 256.061C221.965 256.395 221.86 256.723 221.743 257.052H212.35L212.35 257.052Z" fill="#42655D"/>
<path fill-rule="evenodd" clip-rule="evenodd" d="M230.55 257.052C232.092 255.516 233.686 254.053 235.152 252.683C236.731 251.206 238.158 249.828 239.32 248.564C239.997 247.826 240.59 247.128 241.07 246.479C241.55 245.829 241.914 245.229 242.189 244.679C242.458 244.135 242.634 243.641 242.748 243.211C242.863 242.78 242.912 242.414 242.947 242.11C242.982 241.806 243.015 241.564 243.073 241.399C243.131 241.233 243.221 241.142 243.38 241.131C243.539 241.119 243.762 241.189 244.011 241.341C244.261 241.492 244.544 241.728 244.805 242.04C245.067 242.351 245.297 242.738 245.455 243.199C245.613 243.66 245.683 244.19 245.635 244.778C245.59 245.371 245.439 246.025 245.148 246.723C244.857 247.422 244.436 248.17 243.903 248.949C242.994 250.279 241.777 251.718 240.348 253.231C239.19 254.457 237.88 255.74 236.577 257.052H230.55L230.55 257.052Z" fill="#42655D"/>
<path fill-rule="evenodd" clip-rule="evenodd" d="M301.552 257.052C301.519 256.777 301.474 256.506 301.444 256.227C301.441 256.2 301.447 256.171 301.444 256.143C301.2 253.794 301.084 251.552 300.946 249.502C300.808 247.452 300.634 245.594 300.383 244.036C300.133 242.477 299.809 241.217 299.409 240.344C299.009 239.472 298.544 238.988 298.066 238.988C297.588 238.988 297.131 239.469 296.702 240.337C296.273 241.206 295.866 242.46 295.489 244.015C295.113 245.569 294.771 247.425 294.558 249.488C294.346 251.552 294.269 253.827 294.515 256.22C294.518 256.248 294.512 256.276 294.515 256.304C294.541 256.556 294.59 256.803 294.623 257.052H301.552L301.552 257.052Z" fill="#42655D"/>
<path fill-rule="evenodd" clip-rule="evenodd" d="M283.42 257.052C283.274 255.876 282.963 254.748 282.484 253.714C281.903 252.462 281.087 251.348 280.181 250.439C279.275 249.53 278.294 248.824 277.478 248.357C276.662 247.89 276.026 247.661 275.725 247.7C275.424 247.74 275.484 248.046 275.755 248.559C276.026 249.072 276.488 249.793 276.943 250.693C277.398 251.593 277.835 252.669 278.146 253.877C278.399 254.858 278.558 255.93 278.666 257.052H283.42L283.42 257.052Z" fill="#42655D"/>
<path fill-rule="evenodd" clip-rule="evenodd" d="M334.467 238.03C334.288 238.029 333.998 238.102 333.619 238.251C333.185 238.423 332.634 238.695 332.031 239.061C331.427 239.427 330.776 239.889 330.154 240.448C329.533 241.007 328.948 241.665 328.494 242.405C328.079 243.084 327.782 243.831 327.628 244.636C327.474 245.441 327.471 246.304 327.646 247.205C327.907 248.535 328.508 249.949 329.451 251.411C330.393 252.873 331.673 254.382 333.132 255.909C333.429 256.22 333.73 256.524 334.034 256.829C334.153 256.949 334.275 257.065 334.395 257.184H340.421C340.118 256.879 339.821 256.58 339.519 256.27C339.227 255.968 338.944 255.667 338.653 255.361C337.229 253.863 335.943 252.405 334.918 251.015C333.893 249.626 333.135 248.304 332.681 247.06C332.372 246.22 332.188 245.415 332.139 244.665C332.09 243.916 332.174 243.22 332.338 242.58C332.692 241.187 333.462 240.072 334.016 239.3C334.293 238.914 334.506 238.61 334.611 238.397C334.717 238.184 334.707 238.062 334.539 238.036C334.518 238.033 334.492 238.03 334.467 238.03L334.467 238.03Z" fill="#42655D"/>
<path fill-rule="evenodd" clip-rule="evenodd" d="M305.274 238.163C305.209 238.158 305.121 238.166 305.058 238.197C304.995 238.229 304.966 238.288 304.95 238.33C304.918 238.404 304.915 238.499 304.95 238.609C305.02 238.827 305.222 239.119 305.512 239.468C306.09 240.161 307.065 241.114 308.237 242.274C310.55 244.564 313.691 247.709 316.128 251.419C317.312 253.222 318.302 255.161 318.982 257.185H325.966C325.225 254.974 323.978 252.868 322.464 250.937C320.966 249.025 319.206 247.284 317.404 245.744C315.603 244.203 313.766 242.866 312.085 241.765C310.376 240.645 308.849 239.776 307.674 239.168C307.079 238.859 306.589 238.623 306.204 238.456C306.007 238.37 305.842 238.308 305.707 238.261C305.619 238.217 305.516 238.211 305.447 238.198C305.379 238.185 305.34 238.167 305.275 238.163L305.274 238.163Z" fill="#42655D"/>
<path fill-rule="evenodd" clip-rule="evenodd" d="M264.747 241.857C265.114 241.897 264.986 242.378 264.512 243.214C264.038 244.05 263.224 245.245 262.275 246.721C261.325 248.197 260.244 249.949 259.424 251.906C258.738 253.541 258.237 255.319 258.161 257.184H252.441C252.598 255.204 253.296 253.334 254.263 251.638C255.414 249.622 256.92 247.846 258.396 246.383C259.871 244.921 261.311 243.775 262.437 242.999C263.564 242.222 264.38 241.817 264.747 241.857L264.747 241.857Z" fill="#42655D"/>
<path fill-rule="evenodd" clip-rule="evenodd" d="M350.48 242.232C350.053 242.232 349.652 242.62 349.262 243.306C348.871 243.993 348.482 244.981 348.101 246.209C347.721 247.437 347.359 248.902 347.076 250.536C346.794 252.17 346.598 253.976 346.709 255.88C346.712 255.944 346.724 256.004 346.728 256.068C346.749 256.396 346.785 256.724 346.825 257.048H353.013C352.981 256.709 352.941 256.369 352.917 256.024C352.913 255.962 352.901 255.904 352.897 255.843C352.786 253.986 352.792 252.205 352.762 250.58C352.732 248.954 352.67 247.485 352.491 246.247C352.312 245.008 352.028 244.006 351.679 243.313C351.33 242.619 350.907 242.232 350.48 242.232L350.48 242.232Z" fill="#42655D"/>
<path fill-rule="evenodd" clip-rule="evenodd" d="M356.153 243.774C355.774 243.812 355.803 244.227 356.063 244.945C356.323 245.662 356.815 246.683 357.326 247.945C357.837 249.206 358.354 250.711 358.77 252.39C359.135 253.869 359.411 255.487 359.618 257.184H365.392C365.155 255.425 364.708 253.739 364.057 252.203C363.329 250.486 362.361 248.954 361.314 247.688C360.267 246.423 359.144 245.424 358.211 244.752C357.277 244.081 356.533 243.735 356.153 243.773L356.153 243.774Z" fill="#42655D"/>
<path fill-rule="evenodd" clip-rule="evenodd" d="M206.621 257.615C206.634 257.299 206.638 256.982 206.621 256.661C206.607 256.435 206.574 256.206 206.543 255.978C206.356 254.576 205.84 253.229 204.957 251.996C204.074 250.763 202.831 249.643 201.317 248.666C199.934 247.76 198.33 246.977 196.713 246.331C195.096 245.686 193.46 245.178 192.016 244.78C188.752 244.077 186.883 243.595 187.054 243.459C187.235 243.325 189.469 243.555 193.338 244.092C195.114 244.427 197.144 244.908 199.186 245.558C201.228 246.208 203.272 247.033 205.05 248.019C206.921 249.069 208.485 250.287 209.592 251.624C210.698 252.961 211.354 254.416 211.536 255.912C211.565 256.156 211.577 256.4 211.582 256.641C211.592 256.97 211.577 257.292 211.551 257.615H206.621V257.615Z" fill="#42655D"/>
<path fill-rule="evenodd" clip-rule="evenodd" d="M223.404 257.615C223.51 257.302 223.627 256.988 223.715 256.671C224.239 254.79 224.405 252.964 224.254 251.241C224.08 249.224 223.465 247.345 222.637 245.671C221.809 243.997 220.776 242.53 219.817 241.313C218.857 240.095 217.987 239.125 217.453 238.447C216.918 237.769 216.717 237.381 217.059 237.329C217.401 237.278 218.25 237.568 219.423 238.173C220.595 238.778 222.098 239.7 223.632 240.904C225.166 242.109 226.717 243.6 227.987 245.33C229.257 247.06 230.233 249.028 230.621 251.154C230.95 252.967 230.877 254.892 230.33 256.865C230.26 257.117 230.186 257.365 230.102 257.615H223.404L223.404 257.615Z" fill="#42655D"/>
<path fill-rule="evenodd" clip-rule="evenodd" d="M236.983 257.615C238.312 256.291 239.685 255.03 240.949 253.849C242.31 252.576 243.54 251.388 244.542 250.298C245.126 249.662 245.637 249.06 246.05 248.501C246.464 247.941 246.778 247.423 247.015 246.949C247.247 246.481 247.398 246.055 247.497 245.684C247.596 245.312 247.638 244.997 247.668 244.735C247.698 244.473 247.727 244.265 247.777 244.122C247.827 243.979 247.905 243.901 248.041 243.891C248.178 243.881 248.37 243.941 248.586 244.072C248.801 244.202 249.045 244.406 249.27 244.674C249.496 244.943 249.694 245.276 249.83 245.674C249.966 246.071 250.026 246.528 249.986 247.034C249.947 247.546 249.816 248.109 249.566 248.712C249.315 249.314 248.952 249.959 248.492 250.63C247.709 251.777 246.66 253.017 245.428 254.321C244.43 255.378 243.3 256.483 242.178 257.615H236.983L236.983 257.615Z" fill="#42655D"/>
<path fill-rule="evenodd" clip-rule="evenodd" d="M298.606 257.615C298.577 257.378 298.539 257.144 298.513 256.904C298.51 256.88 298.515 256.855 298.513 256.831C298.302 254.806 298.202 252.874 298.083 251.107C297.965 249.34 297.814 247.738 297.598 246.395C297.382 245.051 297.103 243.965 296.758 243.213C296.414 242.461 296.013 242.044 295.601 242.044C295.189 242.044 294.795 242.458 294.425 243.207C294.056 243.956 293.705 245.037 293.38 246.377C293.056 247.716 292.761 249.316 292.578 251.095C292.395 252.874 292.328 254.834 292.54 256.898C292.542 256.922 292.538 256.946 292.54 256.97C292.563 257.187 292.604 257.4 292.634 257.615H298.606L298.606 257.615Z" fill="#42655D"/>
<path fill-rule="evenodd" clip-rule="evenodd" d="M282.975 257.615C282.849 256.601 282.582 255.629 282.169 254.738C281.668 253.658 280.965 252.698 280.184 251.914C279.403 251.13 278.557 250.523 277.854 250.12C277.15 249.718 276.602 249.52 276.343 249.554C276.083 249.588 276.135 249.852 276.368 250.294C276.602 250.736 277.001 251.358 277.393 252.133C277.785 252.909 278.162 253.837 278.43 254.878C278.647 255.724 278.785 256.647 278.878 257.615H282.975H282.975Z" fill="#42655D"/>
<path fill-rule="evenodd" clip-rule="evenodd" d="M326.556 241.218C326.402 241.217 326.152 241.279 325.825 241.408C325.451 241.556 324.976 241.791 324.456 242.106C323.936 242.422 323.374 242.82 322.838 243.302C322.303 243.783 321.799 244.351 321.407 244.989C321.049 245.574 320.794 246.218 320.661 246.912C320.528 247.606 320.526 248.35 320.676 249.126C320.901 250.273 321.419 251.492 322.232 252.752C323.044 254.012 324.147 255.313 325.405 256.629C325.661 256.897 325.921 257.159 326.182 257.422C326.285 257.526 326.39 257.626 326.494 257.728H331.688C331.427 257.465 331.171 257.207 330.911 256.94C330.659 256.68 330.415 256.42 330.164 256.157C328.936 254.865 327.828 253.608 326.945 252.411C326.061 251.213 325.408 250.073 325.016 249.001C324.75 248.277 324.592 247.583 324.549 246.937C324.507 246.291 324.579 245.691 324.72 245.139C325.026 243.939 325.689 242.978 326.167 242.312C326.406 241.98 326.589 241.718 326.68 241.534C326.771 241.35 326.763 241.245 326.618 241.223C326.6 241.22 326.578 241.218 326.556 241.218L326.556 241.218Z" fill="#42655D"/>
<path fill-rule="evenodd" clip-rule="evenodd" d="M301.395 241.332C301.338 241.328 301.263 241.335 301.208 241.362C301.154 241.389 301.129 241.441 301.115 241.476C301.087 241.54 301.085 241.622 301.115 241.717C301.175 241.905 301.35 242.157 301.6 242.457C302.098 243.055 302.938 243.876 303.948 244.876C305.942 246.85 308.65 249.561 310.751 252.758C311.771 254.313 312.624 255.984 313.211 257.729H319.231C318.593 255.823 317.517 254.007 316.212 252.343C314.921 250.695 313.404 249.194 311.851 247.866C310.298 246.539 308.715 245.386 307.266 244.437C305.792 243.471 304.477 242.723 303.464 242.198C302.95 241.932 302.529 241.729 302.197 241.585C302.027 241.51 301.884 241.457 301.768 241.416C301.693 241.379 301.603 241.373 301.544 241.362C301.486 241.351 301.452 241.336 301.395 241.332L301.395 241.332Z" fill="#42655D"/>
<path fill-rule="evenodd" clip-rule="evenodd" d="M266.872 244.518C267.189 244.552 267.079 244.967 266.67 245.688C266.262 246.409 265.56 247.439 264.741 248.711C263.923 249.983 262.991 251.494 262.284 253.18C261.693 254.589 261.261 256.122 261.195 257.729H256.265C256.4 256.023 257.002 254.411 257.836 252.949C258.827 251.211 260.126 249.68 261.397 248.42C262.669 247.159 263.911 246.171 264.881 245.502C265.852 244.833 266.556 244.483 266.872 244.518L266.872 244.518Z" fill="#42655D"/>
<path fill-rule="evenodd" clip-rule="evenodd" d="M340.359 244.841C339.991 244.841 339.646 245.175 339.309 245.767C338.972 246.358 338.637 247.211 338.309 248.269C337.981 249.327 337.669 250.59 337.426 251.998C337.182 253.407 337.013 254.964 337.109 256.605C337.112 256.66 337.122 256.712 337.126 256.766C337.143 257.05 337.174 257.332 337.209 257.611H342.543C342.515 257.32 342.481 257.026 342.46 256.729C342.456 256.676 342.446 256.626 342.443 256.573C342.347 254.973 342.352 253.437 342.326 252.036C342.3 250.635 342.247 249.369 342.093 248.301C341.938 247.234 341.694 246.369 341.393 245.772C341.092 245.174 340.727 244.841 340.359 244.841L340.359 244.841Z" fill="#42655D"/>
<path fill-rule="evenodd" clip-rule="evenodd" d="M345.251 246.17C344.924 246.202 344.949 246.56 345.173 247.179C345.397 247.797 345.821 248.678 346.262 249.765C346.703 250.852 347.148 252.149 347.506 253.596C347.822 254.871 348.059 256.267 348.237 257.729H353.214C353.01 256.213 352.625 254.759 352.063 253.436C351.436 251.956 350.602 250.635 349.699 249.544C348.797 248.453 347.828 247.592 347.024 247.013C346.22 246.435 345.578 246.137 345.251 246.17V246.17Z" fill="#42655D"/>
<path fill-rule="evenodd" clip-rule="evenodd" d="M270.274 257.615C270.379 257.302 270.497 256.988 270.585 256.671C271.108 254.79 271.274 252.964 271.124 251.241C270.95 249.224 270.335 247.345 269.507 245.671C268.679 243.997 267.646 242.53 266.686 241.313C265.727 240.095 264.857 239.125 264.322 238.447C263.788 237.769 263.586 237.381 263.928 237.329C264.27 237.278 265.12 237.568 266.292 238.173C267.465 238.778 268.968 239.7 270.502 240.904C272.036 242.109 273.586 243.6 274.857 245.33C276.127 247.06 277.103 249.028 277.49 251.154C277.819 252.967 277.746 254.892 277.2 256.865C277.13 257.117 277.056 257.365 276.972 257.615H270.274L270.274 257.615Z" fill="#42655D"/>
<path fill-rule="evenodd" clip-rule="evenodd" d="M290.212 241.218C290.057 241.217 289.807 241.279 289.48 241.408C289.107 241.556 288.632 241.791 288.112 242.106C287.592 242.422 287.03 242.82 286.494 243.302C285.959 243.783 285.454 244.351 285.063 244.989C284.705 245.574 284.449 246.218 284.317 246.912C284.184 247.606 284.181 248.35 284.332 249.126C284.557 250.273 285.075 251.492 285.887 252.752C286.7 254.012 287.803 255.313 289.06 256.629C289.317 256.897 289.576 257.159 289.838 257.422C289.941 257.526 290.046 257.626 290.149 257.728H295.344C295.082 257.465 294.826 257.207 294.566 256.94C294.315 256.68 294.07 256.42 293.82 256.157C292.592 254.865 291.484 253.608 290.6 252.411C289.717 251.213 289.063 250.073 288.672 249.001C288.405 248.277 288.247 247.583 288.205 246.937C288.163 246.291 288.235 245.691 288.376 245.139C288.682 243.939 289.345 242.978 289.823 242.312C290.061 241.98 290.245 241.718 290.336 241.534C290.427 241.35 290.419 241.245 290.274 241.223C290.256 241.22 290.233 241.218 290.211 241.218L290.212 241.218Z" fill="#42655D"/>
<path fill-rule="evenodd" clip-rule="evenodd" d="M340.073 242.24C340.129 242.236 340.205 242.243 340.259 242.27C340.313 242.297 340.339 242.348 340.352 242.384C340.38 242.447 340.383 242.53 340.352 242.625C340.292 242.812 340.118 243.064 339.868 243.365C339.369 243.962 338.529 244.783 337.519 245.784C335.525 247.757 332.818 250.468 330.716 253.666C329.696 255.22 328.843 256.892 328.256 258.636H322.236C322.875 256.73 323.95 254.915 325.256 253.251C326.547 251.603 328.064 250.102 329.617 248.774C331.17 247.446 332.752 246.294 334.201 245.344C335.675 244.379 336.991 243.63 338.003 243.106C338.517 242.839 338.939 242.636 339.271 242.492C339.44 242.418 339.583 242.365 339.699 242.324C339.775 242.286 339.864 242.281 339.923 242.27C339.982 242.258 340.016 242.243 340.072 242.239L340.073 242.24Z" fill="#42655D"/>
<path fill-rule="evenodd" clip-rule="evenodd" d="M365.627 244.518C365.944 244.552 365.834 244.967 365.425 245.688C365.016 246.409 364.315 247.439 363.496 248.711C362.678 249.983 361.746 251.494 361.039 253.18C360.448 254.589 360.016 256.122 359.95 257.729H355.02C355.155 256.023 355.756 254.411 356.59 252.949C357.582 251.211 358.881 249.68 360.152 248.42C361.424 247.159 362.665 246.171 363.636 245.502C364.607 244.833 365.311 244.483 365.627 244.518V244.518Z" fill="#42655D"/>
<path fill-rule="evenodd" clip-rule="evenodd" d="M315.822 244.296C315.454 244.296 315.109 244.63 314.772 245.222C314.435 245.814 314.1 246.666 313.772 247.724C313.444 248.783 313.132 250.045 312.889 251.454C312.645 252.863 312.476 254.419 312.572 256.06C312.575 256.115 312.585 256.168 312.589 256.222C312.606 256.505 312.637 256.788 312.672 257.067H318.006C317.978 256.775 317.944 256.482 317.923 256.184C317.919 256.131 317.909 256.081 317.906 256.028C317.81 254.428 317.816 252.893 317.789 251.492C317.763 250.091 317.71 248.824 317.556 247.757C317.401 246.689 317.157 245.825 316.856 245.227C316.555 244.63 316.19 244.296 315.822 244.296V244.296Z" fill="#42655D"/>
<path fill-rule="evenodd" clip-rule="evenodd" d="M279.107 245.443C278.78 245.476 278.805 245.834 279.029 246.453C279.253 247.071 279.677 247.952 280.118 249.039C280.559 250.126 281.004 251.423 281.362 252.87C281.678 254.145 281.915 255.541 282.093 257.003H287.071C286.866 255.486 286.481 254.033 285.92 252.71C285.292 251.23 284.458 249.909 283.555 248.818C282.653 247.727 281.685 246.866 280.88 246.287C280.076 245.708 279.434 245.411 279.107 245.443V245.443Z" fill="#42655D"/>
<path fill-rule="evenodd" clip-rule="evenodd" d="M48.5533 255.266C50.9032 255.416 54.7432 256.641 54.7522 255.087C68.6928 242.03 74.6449 228.002 69.9281 214.239C67.9161 205.082 72.036 195.405 88.689 187.73C95.1538 184.598 102.868 181.761 110.762 179C92.4803 184.892 75.9488 191.876 70.609 200.206C65.5027 207.094 67.2132 214.216 68.2193 221.214C68.4632 232.815 61.3457 244.442 48.5538 255.266L48.5533 255.266Z" fill="#42655D"/>
<path fill-rule="evenodd" clip-rule="evenodd" d="M113.664 190.16C95.9432 194.988 79.4489 200.869 72.3846 208.331C70.0367 210.57 68.4702 212.866 67.377 215.192C67.9865 215.3 68.6026 215.405 69.2277 215.504C71.9909 208.934 78.7484 202.529 91.8096 197.469C98.3762 194.801 105.95 192.443 113.664 190.159L113.664 190.16Z" fill="#42655D"/>
<path d="M106.248 182.319C107.584 181.734 107.197 180.91 105.384 180.479C103.572 180.048 101.02 180.173 99.6846 180.758L83.5086 187.845C82.1731 188.431 82.5598 189.254 84.3722 189.686C86.1846 190.117 88.7365 189.992 90.072 189.407L106.248 182.319Z" fill="#42655D"/>
<path d="M107.565 193.325C108.847 192.884 108.778 192.191 107.412 191.777C106.047 191.363 103.9 191.385 102.619 191.826L87.0961 197.168C85.8146 197.609 85.883 198.302 87.2489 198.716C88.6148 199.129 90.7609 199.107 92.0425 198.666L107.565 193.325Z" fill="#42655D"/>
<path d="M24.933 224.033C24.9326 224.036 24.9412 224.04 24.9409 224.044C18.4564 225.125 12.6617 226.362 11.7919 227.059C13.9898 227.374 20.7543 227.147 27.7578 226.663C33.4461 230.287 46.2398 235.868 52.2081 236.358C54.832 236.529 57.4635 236.704 59.9459 237.037L60.1198 237.053L60.2515 237.061C60.7041 236.752 59.3772 234.609 59.774 234.133C58.5855 231.798 31.5223 224.039 24.9332 224.033L24.933 224.033Z" fill="#42655D"/>
<path d="M75.156 228.681C76.6708 228.372 78.3449 228.16 80.0096 227.952C84.9461 227.241 94.5715 220.302 93.6236 218.856C89.2948 219.101 74.2212 225.188 74.2577 226.766C74.6855 227.064 74.5614 228.522 74.967 228.708L75.0515 228.698L75.1562 228.681L75.156 228.681Z" fill="#42655D"/>
<path d="M54.5526 233.703C53.5236 233.784 52.553 233.898 51.6535 234.037C56.3597 235.779 60.8071 237.636 64.41 239.63C65.6801 239.466 66.8206 239.256 67.8011 239.001C64.0518 237.086 59.5072 235.322 54.5532 233.702L54.5526 233.703Z" fill="#42655D"/>
<path d="M78.2113 226.078C79.0513 226.145 79.8436 226.238 80.5778 226.352C76.7363 227.773 73.106 229.289 70.1654 230.917C69.1286 230.783 68.1977 230.611 67.3973 230.403C70.4577 228.84 74.1675 227.4 78.2112 226.078L78.2113 226.078Z" fill="#42655D"/>
<path fill-rule="evenodd" clip-rule="evenodd" d="M46.8264 194.929C42.0858 198.903 38.9918 202.92 39.712 207.07C40.1455 213.547 47.4764 219.592 54.0092 225.595C63.4387 235.681 65.6399 246.474 61.6315 257.096C64.0621 257.008 68.8031 257.719 67.5814 256.364C70.9498 243.689 65.705 230.909 50.1636 219.358C41.0927 211.704 37.4469 203.06 47.0943 194.947C46.8811 194.911 47.0333 194.97 46.8268 194.929L46.8264 194.929Z" fill="#42655D"/>
<path fill-rule="evenodd" clip-rule="evenodd" d="M74.0999 194.301C60.4941 200.159 48.93 206.82 47.8927 213.98C47.3573 216.15 47.6354 218.297 48.4021 220.425C49.0873 220.462 49.7768 220.497 50.4698 220.524C47.9835 214.543 49.5563 208.332 58.3942 202.706C62.7396 199.769 68.321 197.009 74.0994 194.301L74.0999 194.301Z" fill="#42655D"/>
<path d="M65.3104 203.218C64.8068 203.685 63.9353 204.15 62.1414 204.819C58.4167 205.551 52.3597 206.236 52.8993 207.705C52.8585 207.725 52.8406 207.739 52.8158 207.754C52.0621 208.049 51.3302 208.35 50.6363 208.658C50.8618 208.75 51.1465 208.833 51.4745 208.899C52.086 208.603 52.7382 208.313 53.4022 208.027C58.9422 207.935 60.5369 206.192 62.8147 205.046C64.8741 204.44 66.3079 204.142 67.7547 203.967C66.6233 204.067 65.1928 204.27 63.6806 204.534C64.4534 204.044 65.0303 203.583 65.3105 203.218L65.3104 203.218Z" fill="#42655D"/>
<path d="M66.9646 216.715C66.9792 216.761 66.9858 216.802 66.9987 216.847C61.0034 218.746 59.6712 222.598 59.1374 225.963C58.6274 226.231 59.14 227.063 59.694 227.549C59.2466 227.95 58.8139 228.355 58.4218 228.765C58.869 228.895 59.3892 229.003 59.9489 229.078C60.3376 228.61 60.7693 228.151 61.2209 227.691C62.0544 227.584 62.434 227.246 63.5894 226.732C67.0079 223.521 70.517 219.616 67.1103 216.842C67.146 216.82 67.177 216.8 67.2137 216.778C67.1681 216.791 67.1252 216.806 67.0801 216.82C67.0378 216.786 67.0091 216.749 66.9647 216.715L66.9646 216.715ZM67.0067 216.906C67.4312 218.432 66.7751 219.271 64.0061 221.996C64.5428 219.092 64.8702 218.242 67.0067 216.906V216.906Z" fill="#42655D"/>
<path d="M53.4403 198.797C53.1047 199.312 52.3828 199.839 50.7787 200.619C47.178 201.542 41.1147 202.506 42.2836 204.043C42.2493 204.066 42.2361 204.081 42.2164 204.098C41.5479 204.44 40.9049 204.788 40.305 205.143C40.579 205.231 40.9111 205.308 41.2819 205.365C41.8008 205.027 42.3648 204.694 42.9425 204.364C48.7074 204.049 49.6622 202.138 51.5765 200.833C53.4848 200.11 54.8641 199.737 56.3077 199.494C55.1637 199.645 53.7488 199.916 52.2733 200.256C52.8816 199.706 53.2962 199.194 53.44 198.797L53.4403 198.797Z" fill="#42655D"/>
<path d="M31.8837 195.146C32.9976 195.53 33.9208 196.023 34.9801 196.895C35.2544 198.377 34.2215 200.533 38.791 201.106C38.8306 201.128 38.8614 201.14 38.8937 201.155C39.377 201.528 39.8908 201.898 40.4466 202.26C40.8289 202.239 41.2133 202.195 41.572 202.13C41.0119 201.798 40.4903 201.458 39.9847 201.116C42.492 199.411 38.1919 198.062 35.9803 196.807C35.2403 195.887 35.0864 195.309 35.2991 194.788C35.0244 195.177 34.9011 195.706 34.9165 196.292C33.8711 195.815 32.8096 195.412 31.8837 195.146L31.8837 195.146Z" fill="#42655D"/>
<path d="M29.9538 206.988C31.5035 207.326 32.9261 207.802 34.8 208.69C36.2767 210.325 36.8243 212.823 42.389 213.087C42.451 213.109 42.4951 213.12 42.5431 213.134C43.3783 213.512 44.2451 213.883 45.153 214.242C45.5636 214.187 45.9589 214.106 46.3089 214.004C45.4207 213.679 44.5684 213.341 43.7325 213C45.1909 210.886 39.3146 209.731 35.8491 208.509C34.295 207.541 33.6659 206.906 33.4924 206.306C33.4923 206.764 33.7726 207.367 34.2521 208.02C32.7063 207.573 31.2 207.209 29.954 206.988L29.9538 206.988Z" fill="#42655D"/>
<path d="M66.8492 207.941C66.0408 208.358 64.8912 208.738 62.7335 209.234C58.7316 209.611 52.5908 209.721 52.0265 211.232C51.9736 211.249 51.9471 211.26 51.9128 211.273C50.9969 211.495 50.0963 211.725 49.2254 211.967C49.3687 212.079 49.5739 212.188 49.8313 212.285C50.6161 212.048 51.4345 211.822 52.2612 211.599C57.4895 212.029 60.2418 210.447 63.1962 209.523C65.5549 209.115 67.1075 208.953 68.5826 208.915C67.4558 208.908 65.9757 208.975 64.3746 209.095C65.4504 208.681 66.3232 208.277 66.8491 207.941L66.8492 207.941Z" fill="#42655D"/>
<path d="M50.6685 195.539C48.4674 196.152 46.2925 196.782 44.1529 197.422C44.2336 197.437 44.3241 197.451 44.4084 197.465C46.471 196.815 48.5633 196.175 50.6683 195.539L50.6685 195.539Z" fill="#42655D"/>
<path fill-rule="evenodd" clip-rule="evenodd" d="M74.1002 194.301C60.4944 200.159 48.9303 206.82 47.893 213.981C47.3576 216.151 47.6357 218.297 48.4024 220.425C49.0876 220.463 49.7771 220.497 50.4701 220.525C47.9838 214.543 49.5566 208.333 58.3945 202.706C62.7399 199.77 68.3213 197.009 74.0997 194.301L74.1002 194.301Z" fill="#42655D"/>
<path d="M32.5944 216.346C32.6361 216.387 32.6799 216.423 32.7213 216.462C40.883 217.184 46.8801 220.239 51.5052 223C52.3287 223.15 52.8441 223.928 52.8973 224.42C53.8227 224.692 54.7378 224.97 55.6209 225.259C55.3437 225.434 54.9677 225.602 54.5131 225.747C53.5639 225.409 52.5828 225.085 51.5813 224.763C50.6392 224.796 49.8571 224.567 48.1031 224.302C40.8538 222.095 32.6698 219.316 32.6067 216.474C32.5449 216.461 32.4908 216.449 32.4277 216.435C32.489 216.44 32.5484 216.446 32.6095 216.451C32.6093 216.417 32.5921 216.381 32.5944 216.346L32.5944 216.346ZM32.7856 216.513C34.234 217.864 35.8967 218.475 41.9204 220.368C37.8548 217.996 36.4986 217.327 32.7856 216.513Z" fill="#42655D"/>
<defs>
<filter id="filter0_f" x="252" y="16" width="109" height="104" filterUnits="userSpaceOnUse" color-interpolation-filters="sRGB">
<feFlood flood-opacity="0" result="BackgroundImageFix"/>
<feBlend mode="normal" in="SourceGraphic" in2="BackgroundImageFix" result="shape"/>
<feGaussianBlur stdDeviation="2" result="effect1_foregroundBlur"/>
</filter>
<filter id="filter1_d" x="253.017" y="34.2695" width="87.7657" height="88.0189" filterUnits="userSpaceOnUse" color-interpolation-filters="sRGB">
<feFlood flood-opacity="0" result="BackgroundImageFix"/>
<feColorMatrix in="SourceAlpha" type="matrix" values="0 0 0 0 0 0 0 0 0 0 0 0 0 0 0 0 0 0 127 0"/>
<feOffset dy="2.52941"/>
<feGaussianBlur stdDeviation="8.85294"/>
<feColorMatrix type="matrix" values="0 0 0 0 1 0 0 0 0 1 0 0 0 0 1 0 0 0 0.07 0"/>
<feBlend mode="normal" in2="BackgroundImageFix" result="effect1_dropShadow"/>
<feBlend mode="normal" in="SourceGraphic" in2="effect1_dropShadow" result="shape"/>
</filter>
<filter id="filter2_df" x="137.234" y="58.8096" width="15.3052" height="14.2143" filterUnits="userSpaceOnUse" color-interpolation-filters="sRGB">
<feFlood flood-opacity="0" result="BackgroundImageFix"/>
<feColorMatrix in="SourceAlpha" type="matrix" values="0 0 0 0 0 0 0 0 0 0 0 0 0 0 0 0 0 0 127 0"/>
<feOffset dy="0.666667"/>
<feGaussianBlur stdDeviation="2"/>
<feColorMatrix type="matrix" values="0 0 0 0 1 0 0 0 0 1 0 0 0 0 1 0 0 0 0.25 0"/>
<feBlend mode="normal" in2="BackgroundImageFix" result="effect1_dropShadow"/>
<feBlend mode="normal" in="SourceGraphic" in2="effect1_dropShadow" result="shape"/>
<feGaussianBlur stdDeviation="0.00833335" result="effect2_foregroundBlur"/>
</filter>
<filter id="filter3_df" x="183.5" y="96.0953" width="15.3052" height="14.2143" filterUnits="userSpaceOnUse" color-interpolation-filters="sRGB">
<feFlood flood-opacity="0" result="BackgroundImageFix"/>
<feColorMatrix in="SourceAlpha" type="matrix" values="0 0 0 0 0 0 0 0 0 0 0 0 0 0 0 0 0 0 127 0"/>
<feOffset dy="0.666667"/>
<feGaussianBlur stdDeviation="2"/>
<feColorMatrix type="matrix" values="0 0 0 0 1 0 0 0 0 1 0 0 0 0 1 0 0 0 0.25 0"/>
<feBlend mode="normal" in2="BackgroundImageFix" result="effect1_dropShadow"/>
<feBlend mode="normal" in="SourceGraphic" in2="effect1_dropShadow" result="shape"/>
<feGaussianBlur stdDeviation="0.00833335" result="effect2_foregroundBlur"/>
</filter>
<filter id="filter4_df" x="0.870117" y="108.524" width="15.3052" height="14.2143" filterUnits="userSpaceOnUse" color-interpolation-filters="sRGB">
<feFlood flood-opacity="0" result="BackgroundImageFix"/>
<feColorMatrix in="SourceAlpha" type="matrix" values="0 0 0 0 0 0 0 0 0 0 0 0 0 0 0 0 0 0 127 0"/>
<feOffset dy="0.666667"/>
<feGaussianBlur stdDeviation="2"/>
<feColorMatrix type="matrix" values="0 0 0 0 1 0 0 0 0 1 0 0 0 0 1 0 0 0 0.25 0"/>
<feBlend mode="normal" in2="BackgroundImageFix" result="effect1_dropShadow"/>
<feBlend mode="normal" in="SourceGraphic" in2="effect1_dropShadow" result="shape"/>
<feGaussianBlur stdDeviation="0.075" result="effect2_foregroundBlur"/>
</filter>
<filter id="filter5_df" x="92" y="111.667" width="15.3052" height="14.2143" filterUnits="userSpaceOnUse" color-interpolation-filters="sRGB">
<feFlood flood-opacity="0" result="BackgroundImageFix"/>
<feColorMatrix in="SourceAlpha" type="matrix" values="0 0 0 0 0 0 0 0 0 0 0 0 0 0 0 0 0 0 127 0"/>
<feOffset dy="0.666667"/>
<feGaussianBlur stdDeviation="2"/>
<feColorMatrix type="matrix" values="0 0 0 0 1 0 0 0 0 1 0 0 0 0 1 0 0 0 0.25 0"/>
<feBlend mode="normal" in2="BackgroundImageFix" result="effect1_dropShadow"/>
<feBlend mode="normal" in="SourceGraphic" in2="effect1_dropShadow" result="shape"/>
<feGaussianBlur stdDeviation="0.075" result="effect2_foregroundBlur"/>
</filter>
<filter id="filter6_df" x="141" y="183.667" width="15.3052" height="14.2143" filterUnits="userSpaceOnUse" color-interpolation-filters="sRGB">
<feFlood flood-opacity="0" result="BackgroundImageFix"/>
<feColorMatrix in="SourceAlpha" type="matrix" values="0 0 0 0 0 0 0 0 0 0 0 0 0 0 0 0 0 0 127 0"/>
<feOffset dy="0.666667"/>
<feGaussianBlur stdDeviation="2"/>
<feColorMatrix type="matrix" values="0 0 0 0 1 0 0 0 0 1 0 0 0 0 1 0 0 0 0.25 0"/>
<feBlend mode="normal" in2="BackgroundImageFix" result="effect1_dropShadow"/>
<feBlend mode="normal" in="SourceGraphic" in2="effect1_dropShadow" result="shape"/>
<feGaussianBlur stdDeviation="0.075" result="effect2_foregroundBlur"/>
</filter>
<filter id="filter7_df" x="346" y="120.667" width="15.3052" height="14.2143" filterUnits="userSpaceOnUse" color-interpolation-filters="sRGB">
<feFlood flood-opacity="0" result="BackgroundImageFix"/>
<feColorMatrix in="SourceAlpha" type="matrix" values="0 0 0 0 0 0 0 0 0 0 0 0 0 0 0 0 0 0 127 0"/>
<feOffset dy="0.666667"/>
<feGaussianBlur stdDeviation="2"/>
<feColorMatrix type="matrix" values="0 0 0 0 1 0 0 0 0 1 0 0 0 0 1 0 0 0 0.25 0"/>
<feBlend mode="normal" in2="BackgroundImageFix" result="effect1_dropShadow"/>
<feBlend mode="normal" in="SourceGraphic" in2="effect1_dropShadow" result="shape"/>
<feGaussianBlur stdDeviation="0.075" result="effect2_foregroundBlur"/>
</filter>
<filter id="filter8_df" x="350" y="17.6667" width="15.3052" height="14.2143" filterUnits="userSpaceOnUse" color-interpolation-filters="sRGB">
<feFlood flood-opacity="0" result="BackgroundImageFix"/>
<feColorMatrix in="SourceAlpha" type="matrix" values="0 0 0 0 0 0 0 0 0 0 0 0 0 0 0 0 0 0 127 0"/>
<feOffset dy="0.666667"/>
<feGaussianBlur stdDeviation="2"/>
<feColorMatrix type="matrix" values="0 0 0 0 1 0 0 0 0 1 0 0 0 0 1 0 0 0 0.25 0"/>
<feBlend mode="normal" in2="BackgroundImageFix" result="effect1_dropShadow"/>
<feBlend mode="normal" in="SourceGraphic" in2="effect1_dropShadow" result="shape"/>
<feGaussianBlur stdDeviation="0.075" result="effect2_foregroundBlur"/>
</filter>
<filter id="filter9_df" x="45" y="35.6667" width="15.3052" height="14.2143" filterUnits="userSpaceOnUse" color-interpolation-filters="sRGB">
<feFlood flood-opacity="0" result="BackgroundImageFix"/>
<feColorMatrix in="SourceAlpha" type="matrix" values="0 0 0 0 0 0 0 0 0 0 0 0 0 0 0 0 0 0 127 0"/>
<feOffset dy="0.666667"/>
<feGaussianBlur stdDeviation="2"/>
<feColorMatrix type="matrix" values="0 0 0 0 1 0 0 0 0 1 0 0 0 0 1 0 0 0 0.25 0"/>
<feBlend mode="normal" in2="BackgroundImageFix" result="effect1_dropShadow"/>
<feBlend mode="normal" in="SourceGraphic" in2="effect1_dropShadow" result="shape"/>
<feGaussianBlur stdDeviation="0.075" result="effect2_foregroundBlur"/>
</filter>
<filter id="filter10_df" x="8" y="180.667" width="15.3052" height="14.2143" filterUnits="userSpaceOnUse" color-interpolation-filters="sRGB">
<feFlood flood-opacity="0" result="BackgroundImageFix"/>
<feColorMatrix in="SourceAlpha" type="matrix" values="0 0 0 0 0 0 0 0 0 0 0 0 0 0 0 0 0 0 127 0"/>
<feOffset dy="0.666667"/>
<feGaussianBlur stdDeviation="2"/>
<feColorMatrix type="matrix" values="0 0 0 0 1 0 0 0 0 1 0 0 0 0 1 0 0 0 0.25 0"/>
<feBlend mode="normal" in2="BackgroundImageFix" result="effect1_dropShadow"/>
<feBlend mode="normal" in="SourceGraphic" in2="effect1_dropShadow" result="shape"/>
<feGaussianBlur stdDeviation="0.075" result="effect2_foregroundBlur"/>
</filter>
<filter id="filter11_df" x="206" y="193.667" width="15.3052" height="14.2143" filterUnits="userSpaceOnUse" color-interpolation-filters="sRGB">
<feFlood flood-opacity="0" result="BackgroundImageFix"/>
<feColorMatrix in="SourceAlpha" type="matrix" values="0 0 0 0 0 0 0 0 0 0 0 0 0 0 0 0 0 0 127 0"/>
<feOffset dy="0.666667"/>
<feGaussianBlur stdDeviation="2"/>
<feColorMatrix type="matrix" values="0 0 0 0 1 0 0 0 0 1 0 0 0 0 1 0 0 0 0.25 0"/>
<feBlend mode="normal" in2="BackgroundImageFix" result="effect1_dropShadow"/>
<feBlend mode="normal" in="SourceGraphic" in2="effect1_dropShadow" result="shape"/>
<feGaussianBlur stdDeviation="0.075" result="effect2_foregroundBlur"/>
</filter>
<filter id="filter12_df" x="284.12" y="172.333" width="7.65259" height="6.48572" filterUnits="userSpaceOnUse" color-interpolation-filters="sRGB">
<feFlood flood-opacity="0" result="BackgroundImageFix"/>
<feColorMatrix in="SourceAlpha" type="matrix" values="0 0 0 0 0 0 0 0 0 0 0 0 0 0 0 0 0 0 127 0"/>
<feOffset dy="0.333333"/>
<feGaussianBlur stdDeviation="1"/>
<feColorMatrix type="matrix" values="0 0 0 0 1 0 0 0 0 1 0 0 0 0 1 0 0 0 0.25 0"/>
<feBlend mode="normal" in2="BackgroundImageFix" result="effect1_dropShadow"/>
<feBlend mode="normal" in="SourceGraphic" in2="effect1_dropShadow" result="shape"/>
<feGaussianBlur stdDeviation="0.00416667" result="effect2_foregroundBlur"/>
</filter>
<filter id="filter13_df" x="46.7013" y="253.119" width="7.6526" height="6.48572" filterUnits="userSpaceOnUse" color-interpolation-filters="sRGB">
<feFlood flood-opacity="0" result="BackgroundImageFix"/>
<feColorMatrix in="SourceAlpha" type="matrix" values="0 0 0 0 0 0 0 0 0 0 0 0 0 0 0 0 0 0 127 0"/>
<feOffset dy="0.333333"/>
<feGaussianBlur stdDeviation="1"/>
<feColorMatrix type="matrix" values="0 0 0 0 1 0 0 0 0 1 0 0 0 0 1 0 0 0 0.25 0"/>
<feBlend mode="normal" in2="BackgroundImageFix" result="effect1_dropShadow"/>
<feBlend mode="normal" in="SourceGraphic" in2="effect1_dropShadow" result="shape"/>
<feGaussianBlur stdDeviation="0.00416667" result="effect2_foregroundBlur"/>
</filter>
<filter id="filter14_df" x="334.039" y="164.876" width="7.65262" height="6.48572" filterUnits="userSpaceOnUse" color-interpolation-filters="sRGB">
<feFlood flood-opacity="0" result="BackgroundImageFix"/>
<feColorMatrix in="SourceAlpha" type="matrix" values="0 0 0 0 0 0 0 0 0 0 0 0 0 0 0 0 0 0 127 0"/>
<feOffset dy="0.333333"/>
<feGaussianBlur stdDeviation="1"/>
<feColorMatrix type="matrix" values="0 0 0 0 1 0 0 0 0 1 0 0 0 0 1 0 0 0 0.25 0"/>
<feBlend mode="normal" in2="BackgroundImageFix" result="effect1_dropShadow"/>
<feBlend mode="normal" in="SourceGraphic" in2="effect1_dropShadow" result="shape"/>
<feGaussianBlur stdDeviation="0.00416667" result="effect2_foregroundBlur"/>
</filter>
<filter id="filter15_df" x="96.6201" y="245.662" width="7.6526" height="7.72858" filterUnits="userSpaceOnUse" color-interpolation-filters="sRGB">
<feFlood flood-opacity="0" result="BackgroundImageFix"/>
<feColorMatrix in="SourceAlpha" type="matrix" values="0 0 0 0 0 0 0 0 0 0 0 0 0 0 0 0 0 0 127 0"/>
<feOffset dy="0.333333"/>
<feGaussianBlur stdDeviation="1"/>
<feColorMatrix type="matrix" values="0 0 0 0 1 0 0 0 0 1 0 0 0 0 1 0 0 0 0.25 0"/>
<feBlend mode="normal" in2="BackgroundImageFix" result="effect1_dropShadow"/>
<feBlend mode="normal" in="SourceGraphic" in2="effect1_dropShadow" result="shape"/>
<feGaussianBlur stdDeviation="0.00416667" result="effect2_foregroundBlur"/>
</filter>
<filter id="filter16_df" x="231.766" y="33.1333" width="7.6526" height="7.72857" filterUnits="userSpaceOnUse" color-interpolation-filters="sRGB">
<feFlood flood-opacity="0" result="BackgroundImageFix"/>
<feColorMatrix in="SourceAlpha" type="matrix" values="0 0 0 0 0 0 0 0 0 0 0 0 0 0 0 0 0 0 127 0"/>
<feOffset dy="0.333333"/>
<feGaussianBlur stdDeviation="1"/>
<feColorMatrix type="matrix" values="0 0 0 0 1 0 0 0 0 1 0 0 0 0 1 0 0 0 0.25 0"/>
<feBlend mode="normal" in2="BackgroundImageFix" result="effect1_dropShadow"/>
<feBlend mode="normal" in="SourceGraphic" in2="effect1_dropShadow" result="shape"/>
<feGaussianBlur stdDeviation="0.00416667" result="effect2_foregroundBlur"/>
</filter>
</defs>
</svg>
