<svg width="375" height="260" viewBox="0 0 375 260" fill="none" xmlns="http://www.w3.org/2000/svg">
<g filter="url(#filter0_f)">
<ellipse cx="306.5" cy="68" rx="50.5" ry="48" fill="white" fill-opacity="0.2"/>
</g>
<g filter="url(#filter1_d)">
<path d="M296.9 102.053C311.357 102.053 323.077 90.2766 323.077 75.7496C323.077 61.2225 311.357 49.446 296.9 49.446C282.443 49.446 270.723 61.2225 270.723 75.7496C270.723 90.2766 282.443 102.053 296.9 102.053Z" fill="white" fill-opacity="0.04"/>
</g>
<path d="M294.599 90.2654C300.432 93.0506 307.127 93.3934 313.211 91.2181C319.296 89.043 324.271 84.5281 327.044 78.6668C329.816 72.8054 330.157 66.0777 327.992 59.9636C325.827 53.8496 321.333 48.8501 315.5 46.0649C309.668 43.2796 302.972 42.937 296.888 45.1121C290.803 47.2872 285.828 51.8022 283.055 57.6635C280.284 63.5248 279.943 70.2525 282.108 76.3666C284.273 82.4806 288.766 87.4802 294.599 90.2654Z" fill="#D6D6D6"/>
<path d="M294.6 90.2653C301.795 93.701 309.814 93.2538 316.366 89.8005C311.379 90.8193 306.04 90.3096 301.089 87.9457C288.943 82.1461 283.775 67.5486 289.546 55.3438C291.898 50.369 295.718 46.585 300.225 44.21C292.974 45.6908 286.476 50.4334 283.056 57.6635C277.285 69.8683 282.454 84.4658 294.6 90.2653Z" fill="#FFFEFE"/>
<path d="M316.597 73.6785C317.326 74.0267 318.164 74.0694 318.924 73.7976C319.685 73.5257 320.307 72.9613 320.653 72.2286C321 71.496 321.042 70.655 320.772 69.8908C320.502 69.1264 319.939 68.5015 319.21 68.1534C318.482 67.8053 317.644 67.7624 316.883 68.0343C316.123 68.3062 315.501 68.8705 315.154 69.6032C314.808 70.3359 314.766 71.1769 315.036 71.9411C315.306 72.7054 315.869 73.3303 316.597 73.6785ZM293.917 56.0766C294.646 56.4247 295.484 56.4674 296.244 56.1956C297.004 55.9237 297.627 55.3593 297.974 54.6267C298.319 53.894 298.362 53.0531 298.092 52.2888C297.821 51.5245 297.259 50.8996 296.53 50.5515C295.802 50.2033 294.964 50.1604 294.204 50.4324C293.443 50.7042 292.821 51.2686 292.474 52.0012C292.128 52.7339 292.086 53.575 292.356 54.3392C292.626 55.1034 293.189 55.7283 293.917 56.0766ZM301.557 84.1055C302.723 84.6625 304.062 84.7311 305.279 84.2961C306.496 83.861 307.491 82.9581 308.045 81.7858C308.6 80.6135 308.668 79.268 308.235 78.0452C307.803 76.8223 306.904 75.8225 305.737 75.2654C304.57 74.7084 303.231 74.6399 302.015 75.0749C300.797 75.5099 299.802 76.4128 299.248 77.5852C298.693 78.7575 298.625 80.103 299.058 81.3257C299.492 82.5486 300.39 83.5484 301.557 84.1055ZM309.312 63.4277C310.334 63.915 311.505 63.975 312.571 63.5944C313.635 63.2138 314.506 62.4236 314.991 61.3979C315.476 60.3721 315.535 59.1948 315.157 58.1249C314.778 57.0549 313.991 56.18 312.971 55.6925C311.95 55.2052 310.778 55.1452 309.714 55.5259C308.649 55.9065 307.778 56.6966 307.293 57.7224C306.808 58.7481 306.748 59.9255 307.127 60.9954C307.506 62.0653 308.292 62.9402 309.312 63.4277Z" fill="#AFB1B4"/>
<path d="M303.826 75.0303C305.952 76.0453 306.857 78.5997 305.846 80.7356C304.836 82.8716 302.295 83.7804 300.169 82.7655C299.984 82.6772 299.822 82.5645 299.655 82.454C300.125 83.1389 300.754 83.7228 301.557 84.1055C303.986 85.2655 306.891 84.2268 308.045 81.7858C309.201 79.3449 308.167 76.4254 305.737 75.2654C304.935 74.8826 304.087 74.7607 303.261 74.8272C303.453 74.8869 303.641 74.9422 303.826 75.0303ZM295.774 53.5766C295.239 54.7081 294.099 55.3549 292.928 55.3183C293.196 55.6275 293.526 55.8897 293.917 56.0766C295.436 56.8017 297.252 56.1528 297.974 54.6267C298.694 53.1007 298.049 51.2766 296.53 50.5515C296.139 50.3645 295.727 50.2727 295.321 50.2595C296.088 51.1503 296.309 52.445 295.774 53.5766ZM318.454 71.1785C317.919 72.31 316.78 72.9568 315.608 72.9203C315.876 73.2295 316.206 73.4915 316.597 73.6786C318.116 74.4036 319.932 73.7547 320.653 72.2286C321.375 70.7027 320.729 68.8785 319.21 68.1534C318.819 67.9665 318.407 67.8747 318.001 67.8615C318.768 68.7522 318.989 70.0469 318.454 71.1785ZM312.791 60.3478C311.964 62.097 310.111 63.0012 308.298 62.7236C308.598 62.9967 308.928 63.2439 309.313 63.4277C311.438 64.4426 313.981 63.5339 314.991 61.3979C316.002 59.2619 315.097 56.7076 312.971 55.6925C312.586 55.5089 312.187 55.4074 311.787 55.3465C313.145 56.5833 313.619 58.5985 312.791 60.3478Z" fill="#929293"/>
<g filter="url(#filter2_df)">
<path d="M144.886 62.1429L145.873 64.4108L148.539 65.25L145.873 66.0892L144.886 68.3572L143.9 66.0892L141.234 65.25L143.9 64.4108L144.886 62.1429Z" fill="white"/>
</g>
<g filter="url(#filter3_df)">
<path d="M191.153 99.4286L192.139 101.697L194.805 102.536L192.139 103.375L191.153 105.643L190.166 103.375L187.5 102.536L190.166 101.697L191.153 99.4286Z" fill="white"/>
</g>
<g filter="url(#filter4_df)">
<path d="M8.52271 111.857L9.50924 114.125L12.1753 114.964L9.50924 115.803L8.52271 118.071L7.53618 115.803L4.87012 114.964L7.53618 114.125L8.52271 111.857Z" fill="white"/>
</g>
<g filter="url(#filter5_df)">
<path d="M99.6526 115L100.639 117.268L103.305 118.107L100.639 118.946L99.6526 121.214L98.6661 118.946L96 118.107L98.6661 117.268L99.6526 115Z" fill="white"/>
</g>
<g filter="url(#filter6_df)">
<path d="M148.653 187L149.639 189.268L152.305 190.107L149.639 190.946L148.653 193.214L147.666 190.946L145 190.107L147.666 189.268L148.653 187Z" fill="white"/>
</g>
<g filter="url(#filter7_df)">
<path d="M353.653 124L354.639 126.268L357.305 127.107L354.639 127.946L353.653 130.214L352.666 127.946L350 127.107L352.666 126.268L353.653 124Z" fill="white"/>
</g>
<g filter="url(#filter8_df)">
<path d="M357.653 21L358.639 23.268L361.305 24.1071L358.639 24.9463L357.653 27.2143L356.666 24.9463L354 24.1071L356.666 23.268L357.653 21Z" fill="white"/>
</g>
<g filter="url(#filter9_df)">
<path d="M52.6526 39L53.6391 41.268L56.3052 42.1071L53.6391 42.9463L52.6526 45.2143L51.6661 42.9463L49 42.1071L51.6661 41.268L52.6526 39Z" fill="white"/>
</g>
<g filter="url(#filter10_df)">
<path d="M15.6526 184L16.6391 186.268L19.3052 187.107L16.6391 187.946L15.6526 190.214L14.6661 187.946L12 187.107L14.6661 186.268L15.6526 184Z" fill="white"/>
</g>
<g filter="url(#filter11_df)">
<path d="M213.653 197L214.639 199.268L217.305 200.107L214.639 200.946L213.653 203.214L212.666 200.946L210 200.107L212.666 199.268L213.653 197Z" fill="white"/>
</g>
<g filter="url(#filter12_df)">
<path d="M287.946 174L288.44 174.907L289.773 175.243L288.44 175.578L287.946 176.486L287.453 175.578L286.12 175.243L287.453 174.907L287.946 174Z" fill="white"/>
</g>
<g filter="url(#filter13_df)">
<path d="M50.5276 254.786L51.0208 255.693L52.3539 256.029L51.0208 256.364L50.5276 257.271L50.0344 256.364L48.7013 256.029L50.0344 255.693L50.5276 254.786Z" fill="white"/>
</g>
<g filter="url(#filter14_df)">
<path d="M337.865 166.543L338.358 167.45L339.692 167.786L338.358 168.121L337.865 169.029L337.372 168.121L336.039 167.786L337.372 167.45L337.865 166.543Z" fill="white"/>
</g>
<g filter="url(#filter15_df)">
<path d="M100.446 247.329L100.94 248.689L102.273 249.193L100.94 249.696L100.446 251.057L99.9532 249.696L98.6201 249.193L99.9532 248.689L100.446 247.329Z" fill="white"/>
</g>
<g filter="url(#filter16_df)">
<path d="M235.593 34.8L236.086 36.1608L237.419 36.6643L236.086 37.1678L235.593 38.5286L235.099 37.1678L233.766 36.6643L235.099 36.1608L235.593 34.8Z" fill="white"/>
</g>
<path fill-rule="evenodd" clip-rule="evenodd" d="M22.116 259.871C22.1306 259.514 22.1359 259.157 22.116 258.793C22.1007 258.538 22.0627 258.28 22.0282 258.022C21.8164 256.438 21.2335 254.916 20.236 253.523C19.2385 252.13 17.8353 250.865 16.1245 249.762C14.5625 248.738 12.7505 247.854 10.9236 247.125C9.09669 246.395 7.24821 245.822 5.61727 245.372C1.93043 244.578 -0.181289 244.033 0.0122398 243.88C0.216946 243.728 2.73964 243.988 7.11074 244.595C9.11721 244.973 11.4102 245.516 13.7173 246.251C16.0243 246.986 18.3328 247.917 20.3412 249.03C22.4553 250.217 24.2219 251.593 25.4718 253.104C26.7217 254.614 27.4628 256.258 27.6681 257.948C27.7016 258.223 27.7142 258.499 27.7208 258.771C27.7318 259.142 27.7146 259.507 27.6856 259.871H22.1158L22.116 259.871Z" fill="#42655D"/>
<path fill-rule="evenodd" clip-rule="evenodd" d="M40.44 259.871C40.559 259.517 40.6916 259.163 40.7914 258.805C41.3825 256.68 41.5702 254.617 41.4005 252.671C41.2038 250.392 40.5085 248.27 39.5732 246.378C38.638 244.487 37.4716 242.83 36.3873 241.455C35.303 240.079 34.3202 238.984 33.7167 238.218C33.1132 237.452 32.8853 237.013 33.2716 236.955C33.6579 236.897 34.618 237.224 35.9422 237.908C37.2663 238.591 38.9646 239.633 40.6977 240.993C42.4307 242.354 44.1821 244.038 45.6171 245.993C47.0522 247.947 48.1543 250.17 48.5923 252.573C48.964 254.621 48.8816 256.794 48.2643 259.024C48.1854 259.309 48.1011 259.589 48.0066 259.871H40.4398L40.44 259.871Z" fill="#42655D"/>
<path fill-rule="evenodd" clip-rule="evenodd" d="M56.4137 259.871C57.915 258.375 59.4668 256.951 60.8942 255.616C62.4322 254.178 63.8218 252.837 64.953 251.606C65.6127 250.887 66.1897 250.207 66.6573 249.575C67.1249 248.943 67.4788 248.358 67.7467 247.822C68.009 247.293 68.1797 246.812 68.2914 246.393C68.403 245.973 68.4505 245.616 68.4846 245.32C68.5188 245.024 68.5515 244.789 68.6076 244.628C68.6638 244.467 68.7518 244.379 68.9063 244.367C69.0608 244.356 69.2781 244.424 69.5213 244.572C69.7646 244.719 70.0397 244.949 70.2944 245.252C70.5492 245.555 70.773 245.932 70.927 246.381C71.081 246.83 71.1487 247.347 71.1027 247.919C71.0588 248.496 70.9115 249.133 70.6283 249.813C70.345 250.494 69.9351 251.222 69.4159 251.98C68.5307 253.276 67.3458 254.677 65.9546 256.15C64.8263 257.344 63.5506 258.593 62.2824 259.871H56.4135L56.4137 259.871Z" fill="#42655D"/>
<path fill-rule="evenodd" clip-rule="evenodd" d="M80.9787 259.871C81.0113 259.603 81.055 259.339 81.0842 259.068C81.0875 259.041 81.0813 259.013 81.0842 258.986C81.322 256.698 81.4348 254.515 81.5691 252.519C81.7034 250.523 81.8733 248.714 82.1173 247.196C82.3613 245.678 82.6766 244.452 83.0661 243.602C83.4556 242.752 83.9078 242.281 84.3734 242.281C84.8389 242.281 85.284 242.749 85.7017 243.595C86.1194 244.441 86.5158 245.662 86.8824 247.176C87.2491 248.689 87.5824 250.496 87.7891 252.506C87.9957 254.515 88.0708 256.73 87.8312 259.061C87.8284 259.088 87.8341 259.115 87.8312 259.142C87.8058 259.388 87.7586 259.628 87.7258 259.871H80.9787L80.9787 259.871Z" fill="#42655D"/>
<path fill-rule="evenodd" clip-rule="evenodd" d="M98.6393 259.871C98.7814 258.726 99.084 257.627 99.5505 256.621C100.116 255.402 100.91 254.316 101.793 253.431C102.675 252.546 103.63 251.859 104.425 251.404C105.22 250.95 105.839 250.726 106.132 250.765C106.425 250.803 106.367 251.101 106.103 251.601C105.839 252.1 105.389 252.803 104.946 253.679C104.503 254.555 104.077 255.603 103.774 256.779C103.528 257.735 103.373 258.778 103.268 259.871H98.6392L98.6393 259.871Z" fill="#42655D"/>
<path fill-rule="evenodd" clip-rule="evenodd" d="M157.603 241.348C157.429 241.347 157.147 241.418 156.777 241.564C156.355 241.73 155.819 241.996 155.231 242.352C154.643 242.709 154.009 243.158 153.404 243.702C152.799 244.247 152.229 244.888 151.787 245.608C151.383 246.269 151.094 246.997 150.944 247.781C150.794 248.565 150.791 249.405 150.961 250.283C151.215 251.578 151.801 252.955 152.718 254.378C153.636 255.802 154.882 257.271 156.303 258.757C156.592 259.06 156.886 259.357 157.181 259.654C157.297 259.771 157.416 259.884 157.533 260H163.402C163.106 259.702 162.817 259.411 162.523 259.109C162.239 258.815 161.963 258.522 161.68 258.224C160.292 256.765 159.041 255.346 158.043 253.992C157.045 252.639 156.306 251.352 155.864 250.141C155.563 249.323 155.385 248.539 155.337 247.809C155.289 247.079 155.37 246.401 155.53 245.778C155.875 244.422 156.624 243.337 157.164 242.585C157.434 242.208 157.641 241.913 157.744 241.705C157.846 241.497 157.837 241.379 157.674 241.354C157.653 241.35 157.628 241.348 157.603 241.348L157.603 241.348Z" fill="#42655D"/>
<path fill-rule="evenodd" clip-rule="evenodd" d="M129.181 241.477C129.117 241.473 129.032 241.481 128.971 241.511C128.909 241.541 128.88 241.6 128.865 241.64C128.834 241.712 128.831 241.805 128.865 241.912C128.933 242.124 129.13 242.409 129.413 242.748C129.975 243.423 130.924 244.351 132.065 245.481C134.318 247.71 137.377 250.773 139.75 254.385C140.903 256.141 141.866 258.029 142.53 260H149.33C148.609 257.847 147.394 255.796 145.919 253.916C144.461 252.055 142.747 250.359 140.993 248.859C139.238 247.359 137.45 246.057 135.813 244.984C134.149 243.894 132.662 243.048 131.518 242.456C130.938 242.154 130.462 241.925 130.087 241.762C129.895 241.678 129.734 241.618 129.602 241.572C129.517 241.53 129.416 241.524 129.35 241.511C129.284 241.498 129.245 241.481 129.181 241.477L129.181 241.477Z" fill="#42655D"/>
<path fill-rule="evenodd" clip-rule="evenodd" d="M116.823 245.075C116.465 245.114 116.59 245.582 117.051 246.397C117.513 247.211 118.305 248.374 119.23 249.811C120.154 251.248 121.207 252.955 122.006 254.86C122.674 256.452 123.162 258.184 123.236 259.999H128.806C128.652 258.071 127.973 256.25 127.031 254.599C125.911 252.636 124.444 250.907 123.008 249.482C121.571 248.058 120.168 246.942 119.072 246.186C117.975 245.431 117.18 245.036 116.823 245.075L116.823 245.075Z" fill="#42655D"/>
<path fill-rule="evenodd" clip-rule="evenodd" d="M173.195 245.44C172.779 245.44 172.389 245.817 172.008 246.485C171.628 247.154 171.249 248.117 170.878 249.312C170.508 250.508 170.156 251.934 169.88 253.525C169.605 255.117 169.415 256.875 169.523 258.729C169.526 258.791 169.537 258.85 169.541 258.912C169.561 259.232 169.596 259.551 169.636 259.866H175.661C175.63 259.536 175.591 259.205 175.567 258.869C175.563 258.809 175.552 258.753 175.548 258.693C175.44 256.885 175.446 255.15 175.417 253.568C175.387 251.985 175.328 250.555 175.153 249.349C174.978 248.143 174.702 247.167 174.362 246.492C174.022 245.816 173.61 245.44 173.195 245.44L173.195 245.44Z" fill="#42655D"/>
<path fill-rule="evenodd" clip-rule="evenodd" d="M178.722 246.941C178.352 246.978 178.381 247.382 178.634 248.081C178.887 248.78 179.366 249.774 179.864 251.003C180.362 252.231 180.865 253.696 181.269 255.331C181.626 256.771 181.894 258.347 182.095 260H187.718C187.486 258.286 187.051 256.644 186.417 255.149C185.709 253.478 184.767 251.985 183.747 250.753C182.727 249.521 181.633 248.548 180.725 247.894C179.816 247.24 179.091 246.904 178.722 246.941L178.722 246.941Z" fill="#42655D"/>
<path d="M375 257.638H15.8187V260H375V257.638Z" fill="#42655D"/>
<path fill-rule="evenodd" clip-rule="evenodd" d="M22.116 259.871C22.1306 259.514 22.1359 259.157 22.116 258.793C22.1007 258.538 22.0627 258.28 22.0282 258.022C21.8164 256.438 21.2335 254.916 20.236 253.523C19.2385 252.13 17.8353 250.865 16.1245 249.762C14.5625 248.738 12.7505 247.854 10.9236 247.125C9.09669 246.395 7.24821 245.822 5.61727 245.372C1.93043 244.578 -0.181289 244.033 0.0122398 243.88C0.216946 243.728 2.73964 243.988 7.11074 244.595C9.11721 244.973 11.4102 245.516 13.7173 246.251C16.0243 246.986 18.3328 247.917 20.3412 249.03C22.4553 250.217 24.2219 251.593 25.4718 253.104C26.7217 254.614 27.4628 256.258 27.6681 257.948C27.7016 258.223 27.7142 258.499 27.7208 258.771C27.7318 259.142 27.7146 259.507 27.6856 259.871H22.1158L22.116 259.871Z" fill="#42655D"/>
<path fill-rule="evenodd" clip-rule="evenodd" d="M40.44 259.871C40.559 259.517 40.6916 259.163 40.7914 258.805C41.3825 256.68 41.5702 254.617 41.4005 252.671C41.2038 250.392 40.5085 248.27 39.5732 246.378C38.638 244.487 37.4716 242.83 36.3873 241.455C35.303 240.079 34.3202 238.984 33.7167 238.218C33.1132 237.452 32.8853 237.013 33.2716 236.955C33.6579 236.897 34.618 237.224 35.9422 237.908C37.2663 238.591 38.9646 239.633 40.6977 240.993C42.4307 242.354 44.1821 244.038 45.6171 245.993C47.0522 247.947 48.1543 250.17 48.5923 252.573C48.964 254.621 48.8816 256.794 48.2643 259.024C48.1854 259.309 48.1011 259.589 48.0066 259.871H40.4398L40.44 259.871Z" fill="#42655D"/>
<path fill-rule="evenodd" clip-rule="evenodd" d="M56.4137 259.871C57.915 258.375 59.4668 256.951 60.8942 255.616C62.4322 254.178 63.8218 252.837 64.953 251.606C65.6127 250.887 66.1897 250.207 66.6573 249.575C67.1249 248.943 67.4788 248.358 67.7467 247.822C68.009 247.293 68.1797 246.812 68.2914 246.393C68.403 245.973 68.4505 245.616 68.4846 245.32C68.5188 245.024 68.5515 244.789 68.6076 244.628C68.6638 244.467 68.7518 244.379 68.9063 244.367C69.0608 244.356 69.2781 244.424 69.5213 244.572C69.7646 244.719 70.0397 244.949 70.2944 245.252C70.5492 245.555 70.773 245.932 70.927 246.381C71.081 246.83 71.1487 247.347 71.1027 247.919C71.0588 248.496 70.9115 249.133 70.6283 249.813C70.345 250.494 69.9351 251.222 69.4159 251.98C68.5307 253.276 67.3458 254.677 65.9546 256.15C64.8263 257.344 63.5506 258.593 62.2824 259.871H56.4135L56.4137 259.871Z" fill="#42655D"/>
<path fill-rule="evenodd" clip-rule="evenodd" d="M80.9787 259.871C81.0113 259.603 81.055 259.339 81.0842 259.068C81.0875 259.041 81.0813 259.013 81.0842 258.986C81.322 256.698 81.4348 254.515 81.5691 252.519C81.7034 250.523 81.8733 248.714 82.1173 247.196C82.3613 245.678 82.6766 244.452 83.0661 243.602C83.4556 242.752 83.9078 242.281 84.3734 242.281C84.8389 242.281 85.284 242.749 85.7017 243.595C86.1194 244.441 86.5158 245.662 86.8824 247.176C87.2491 248.689 87.5824 250.496 87.7891 252.506C87.9957 254.515 88.0708 256.73 87.8312 259.061C87.8284 259.088 87.8341 259.115 87.8312 259.142C87.8058 259.388 87.7586 259.628 87.7258 259.871H80.9787L80.9787 259.871Z" fill="#42655D"/>
<path fill-rule="evenodd" clip-rule="evenodd" d="M98.6393 259.871C98.7814 258.726 99.084 257.627 99.5505 256.621C100.116 255.402 100.91 254.316 101.793 253.431C102.675 252.546 103.63 251.859 104.425 251.404C105.22 250.95 105.839 250.726 106.132 250.765C106.425 250.803 106.367 251.101 106.103 251.601C105.839 252.1 105.389 252.803 104.946 253.679C104.503 254.555 104.077 255.603 103.774 256.779C103.528 257.735 103.373 258.778 103.268 259.871H98.6392L98.6393 259.871Z" fill="#42655D"/>
<path fill-rule="evenodd" clip-rule="evenodd" d="M157.603 241.348C157.429 241.347 157.147 241.418 156.777 241.564C156.355 241.73 155.819 241.996 155.231 242.352C154.643 242.709 154.009 243.158 153.404 243.702C152.799 244.247 152.229 244.888 151.787 245.608C151.383 246.269 151.094 246.997 150.944 247.781C150.794 248.565 150.791 249.405 150.961 250.283C151.215 251.578 151.801 252.955 152.718 254.378C153.636 255.802 154.882 257.271 156.303 258.757C156.592 259.06 156.886 259.357 157.181 259.654C157.297 259.771 157.416 259.884 157.533 260H163.402C163.106 259.702 162.817 259.411 162.523 259.109C162.239 258.815 161.963 258.522 161.68 258.224C160.292 256.765 159.041 255.346 158.043 253.992C157.045 252.639 156.306 251.352 155.864 250.141C155.563 249.323 155.385 248.539 155.337 247.809C155.289 247.079 155.37 246.401 155.53 245.778C155.875 244.422 156.624 243.337 157.164 242.585C157.434 242.208 157.641 241.913 157.744 241.705C157.846 241.497 157.837 241.379 157.674 241.354C157.653 241.35 157.628 241.348 157.603 241.348L157.603 241.348Z" fill="#42655D"/>
<path fill-rule="evenodd" clip-rule="evenodd" d="M129.181 241.477C129.117 241.473 129.032 241.481 128.971 241.511C128.909 241.541 128.88 241.6 128.865 241.64C128.834 241.712 128.831 241.805 128.865 241.912C128.933 242.124 129.13 242.409 129.413 242.748C129.975 243.423 130.924 244.351 132.065 245.481C134.318 247.71 137.377 250.773 139.75 254.385C140.903 256.141 141.866 258.029 142.53 260H149.33C148.609 257.847 147.394 255.796 145.919 253.916C144.461 252.055 142.747 250.359 140.993 248.859C139.238 247.359 137.45 246.057 135.813 244.984C134.149 243.894 132.662 243.048 131.518 242.456C130.938 242.154 130.462 241.925 130.087 241.762C129.895 241.678 129.734 241.618 129.602 241.572C129.517 241.53 129.416 241.524 129.35 241.511C129.284 241.498 129.245 241.481 129.181 241.477L129.181 241.477Z" fill="#42655D"/>
<path fill-rule="evenodd" clip-rule="evenodd" d="M116.823 245.075C116.465 245.114 116.59 245.582 117.051 246.397C117.513 247.211 118.305 248.374 119.23 249.811C120.154 251.248 121.207 252.955 122.006 254.86C122.674 256.452 123.162 258.184 123.236 259.999H128.806C128.652 258.071 127.973 256.25 127.031 254.599C125.911 252.636 124.444 250.907 123.008 249.482C121.571 248.058 120.168 246.942 119.072 246.186C117.975 245.431 117.18 245.036 116.823 245.075L116.823 245.075Z" fill="#42655D"/>
<path fill-rule="evenodd" clip-rule="evenodd" d="M173.195 245.44C172.779 245.44 172.389 245.817 172.008 246.485C171.628 247.154 171.249 248.117 170.878 249.312C170.508 250.508 170.156 251.934 169.88 253.525C169.605 255.117 169.415 256.875 169.523 258.729C169.526 258.791 169.537 258.85 169.541 258.912C169.561 259.232 169.596 259.551 169.636 259.866H175.661C175.63 259.536 175.591 259.205 175.567 258.869C175.563 258.809 175.552 258.753 175.548 258.693C175.44 256.885 175.446 255.15 175.417 253.568C175.387 251.985 175.328 250.555 175.153 249.349C174.978 248.143 174.702 247.167 174.362 246.492C174.022 245.816 173.61 245.44 173.195 245.44L173.195 245.44Z" fill="#42655D"/>
<path fill-rule="evenodd" clip-rule="evenodd" d="M178.722 246.941C178.352 246.978 178.381 247.382 178.634 248.081C178.887 248.78 179.366 249.774 179.864 251.003C180.362 252.231 180.865 253.696 181.269 255.331C181.626 256.771 181.894 258.347 182.095 260H187.718C187.486 258.286 187.051 256.644 186.417 255.149C185.709 253.478 184.767 251.985 183.747 250.753C182.727 249.521 181.633 248.548 180.725 247.894C179.816 247.24 179.091 246.904 178.722 246.941L178.722 246.941Z" fill="#42655D"/>
<path fill-rule="evenodd" clip-rule="evenodd" d="M26.6478 258.052C26.6627 257.685 26.6682 257.318 26.6478 256.945C26.632 256.683 26.593 256.418 26.5576 256.153C26.3401 254.527 25.7414 252.964 24.7171 251.533C23.6927 250.103 22.2517 248.804 20.4947 247.671C18.8907 246.619 17.0298 245.711 15.1536 244.962C13.2775 244.213 11.3792 243.624 9.70429 243.162C5.91811 242.347 3.74942 241.787 3.94846 241.63C4.15868 241.474 6.7494 241.741 11.2381 242.364C13.2987 242.753 15.6535 243.31 18.0229 244.065C20.3921 244.819 22.7629 245.776 24.8256 246.919C26.9967 248.138 28.811 249.551 30.0946 251.102C31.3781 252.654 32.1391 254.341 32.3501 256.077C32.3845 256.36 32.3974 256.643 32.4042 256.922C32.4154 257.304 32.3978 257.678 32.3681 258.052H26.6483L26.6478 258.052Z" fill="#42655D"/>
<path fill-rule="evenodd" clip-rule="evenodd" d="M45.4666 258.052C45.5888 257.689 45.725 257.325 45.8274 256.957C46.4345 254.775 46.6273 252.657 46.4529 250.658C46.251 248.318 45.5369 246.138 44.5765 244.196C43.616 242.253 42.4181 240.552 41.3046 239.139C40.1911 237.727 39.1819 236.602 38.562 235.815C37.9422 235.028 37.7082 234.578 38.1049 234.518C38.5017 234.458 39.4877 234.795 40.8475 235.497C42.2074 236.198 43.9515 237.268 45.7312 238.665C47.511 240.063 49.3096 241.793 50.7833 243.799C52.2571 245.806 53.3889 248.09 53.8387 250.557C54.2204 252.66 54.1357 254.892 53.5018 257.182C53.4208 257.475 53.3342 257.762 53.2372 258.052H45.4668L45.4666 258.052Z" fill="#42655D"/>
<path fill-rule="evenodd" clip-rule="evenodd" d="M61.8732 258.052C63.4151 256.516 65.0087 255.053 66.4745 253.683C68.054 252.206 69.481 250.828 70.6427 249.564C71.3202 248.826 71.9128 248.128 72.393 247.479C72.8732 246.829 73.2365 246.229 73.5117 245.679C73.7811 245.135 73.9564 244.641 74.0711 244.211C74.1857 243.78 74.2345 243.414 74.2696 243.11C74.3046 242.806 74.3382 242.564 74.3959 242.399C74.4535 242.233 74.544 242.142 74.7026 242.131C74.8613 242.119 75.0844 242.189 75.3342 242.341C75.584 242.492 75.8665 242.728 76.1281 243.04C76.3897 243.351 76.6196 243.738 76.7777 244.199C76.9358 244.66 77.0054 245.19 76.9581 245.778C76.913 246.371 76.7618 247.025 76.4709 247.723C76.18 248.422 75.759 249.17 75.2259 249.949C74.3168 251.279 73.0999 252.718 71.6712 254.231C70.5125 255.457 69.2024 256.74 67.8999 258.052H61.8731L61.8732 258.052Z" fill="#42655D"/>
<path fill-rule="evenodd" clip-rule="evenodd" d="M87.0961 258.052C87.1296 257.777 87.1744 257.506 87.2043 257.227C87.2077 257.2 87.2015 257.171 87.2043 257.143C87.4486 254.794 87.5645 252.552 87.7023 250.502C87.8402 248.452 88.0148 246.594 88.2653 245.036C88.5159 243.477 88.8397 242.217 89.2397 241.344C89.6398 240.472 90.1041 239.988 90.5822 239.988C91.0603 239.988 91.5174 240.469 91.9464 241.337C92.3753 242.206 92.7824 243.46 93.1589 245.015C93.5355 246.569 93.8778 248.425 94.09 250.488C94.3023 252.552 94.3793 254.827 94.1333 257.22C94.1305 257.248 94.1361 257.276 94.1333 257.304C94.1072 257.556 94.0588 257.803 94.0251 258.052H87.0964L87.0961 258.052Z" fill="#42655D"/>
<path fill-rule="evenodd" clip-rule="evenodd" d="M105.235 258.052C105.381 256.876 105.691 255.748 106.17 254.714C106.751 253.462 107.567 252.348 108.473 251.439C109.379 250.53 110.36 249.824 111.176 249.357C111.993 248.89 112.628 248.661 112.929 248.7C113.23 248.74 113.17 249.046 112.899 249.559C112.629 250.072 112.166 250.793 111.711 251.693C111.256 252.593 110.819 253.669 110.508 254.877C110.255 255.858 110.096 256.93 109.988 258.052H105.234L105.235 258.052Z" fill="#42655D"/>
<path fill-rule="evenodd" clip-rule="evenodd" d="M165.79 239.03C165.611 239.029 165.321 239.102 164.942 239.251C164.508 239.423 163.957 239.695 163.354 240.061C162.75 240.427 162.098 240.889 161.477 241.448C160.856 242.007 160.271 242.665 159.817 243.405C159.402 244.084 159.105 244.831 158.951 245.636C158.797 246.441 158.794 247.304 158.969 248.205C159.23 249.535 159.831 250.949 160.773 252.411C161.716 253.873 162.996 255.382 164.454 256.909C164.752 257.22 165.053 257.524 165.357 257.829C165.475 257.949 165.598 258.065 165.717 258.184H171.744C171.441 257.879 171.144 257.58 170.842 257.27C170.55 256.968 170.266 256.667 169.976 256.361C168.551 254.863 167.266 253.405 166.241 252.015C165.216 250.626 164.458 249.304 164.003 248.06C163.695 247.22 163.511 246.415 163.462 245.665C163.413 244.916 163.496 244.22 163.66 243.58C164.015 242.187 164.784 241.072 165.339 240.3C165.616 239.914 165.829 239.61 165.934 239.397C166.039 239.184 166.03 239.062 165.862 239.036C165.841 239.033 165.815 239.03 165.79 239.03L165.79 239.03Z" fill="#42655D"/>
<path fill-rule="evenodd" clip-rule="evenodd" d="M136.597 239.163C136.532 239.158 136.444 239.166 136.381 239.197C136.318 239.229 136.288 239.288 136.273 239.33C136.24 239.404 136.238 239.499 136.273 239.609C136.342 239.827 136.545 240.119 136.835 240.468C137.413 241.161 138.387 242.114 139.559 243.274C141.873 245.564 145.014 248.709 147.451 252.419C148.635 254.222 149.624 256.161 150.305 258.185H157.289C156.548 255.974 155.3 253.868 153.786 251.937C152.288 250.025 150.528 248.284 148.727 246.744C146.925 245.203 145.089 243.866 143.408 242.765C141.698 241.645 140.172 240.776 138.997 240.168C138.401 239.859 137.912 239.623 137.527 239.456C137.33 239.37 137.165 239.308 137.03 239.261C136.942 239.217 136.838 239.211 136.77 239.198C136.702 239.185 136.663 239.167 136.597 239.163L136.597 239.163Z" fill="#42655D"/>
<path fill-rule="evenodd" clip-rule="evenodd" d="M123.907 242.857C123.54 242.897 123.668 243.378 124.142 244.214C124.616 245.05 125.43 246.245 126.379 247.721C127.329 249.197 128.41 250.949 129.23 252.906C129.916 254.541 130.417 256.319 130.493 258.184H136.213C136.056 256.204 135.358 254.334 134.391 252.638C133.24 250.622 131.734 248.846 130.258 247.383C128.783 245.921 127.343 244.775 126.217 243.999C125.09 243.222 124.274 242.817 123.907 242.857L123.907 242.857Z" fill="#42655D"/>
<path fill-rule="evenodd" clip-rule="evenodd" d="M181.803 243.232C181.376 243.232 180.975 243.62 180.584 244.306C180.194 244.993 179.805 245.981 179.424 247.209C179.044 248.437 178.682 249.902 178.399 251.536C178.117 253.17 177.921 254.976 178.032 256.88C178.035 256.944 178.047 257.004 178.051 257.068C178.072 257.396 178.108 257.724 178.148 258.048H184.336C184.304 257.709 184.264 257.369 184.239 257.024C184.235 256.962 184.224 256.904 184.22 256.843C184.109 254.986 184.115 253.205 184.085 251.58C184.054 249.954 183.993 248.485 183.814 247.247C183.635 246.008 183.351 245.006 183.002 244.313C182.652 243.619 182.23 243.232 181.803 243.232L181.803 243.232Z" fill="#42655D"/>
<path fill-rule="evenodd" clip-rule="evenodd" d="M187.476 244.774C187.096 244.812 187.126 245.227 187.386 245.945C187.645 246.662 188.137 247.683 188.649 248.945C189.16 250.206 189.677 251.711 190.092 253.39C190.458 254.869 190.734 256.487 190.94 258.184H196.715C196.477 256.425 196.03 254.739 195.38 253.203C194.651 251.486 193.684 249.954 192.637 248.688C191.59 247.423 190.466 246.424 189.533 245.752C188.6 245.081 187.856 244.735 187.476 244.773L187.476 244.774Z" fill="#42655D"/>
<path fill-rule="evenodd" clip-rule="evenodd" d="M37.9436 258.615C37.9564 258.299 37.9612 257.982 37.9436 257.661C37.93 257.435 37.8963 257.206 37.8658 256.978C37.6784 255.576 37.1623 254.229 36.2793 252.996C35.3963 251.763 34.1542 250.643 32.6398 249.666C31.2571 248.76 29.6531 247.977 28.0359 247.331C26.4187 246.686 24.7825 246.178 23.3387 245.78C20.0751 245.077 18.2057 244.595 18.377 244.459C18.5583 244.325 20.7914 244.555 24.6608 245.092C26.437 245.427 28.4668 245.908 30.5089 246.558C32.5511 247.208 34.5947 248.033 36.3727 249.019C38.2441 250.069 39.8079 251.287 40.9144 252.624C42.0208 253.961 42.6767 255.416 42.8586 256.912C42.8882 257.156 42.8994 257.4 42.9052 257.641C42.9149 257.97 42.8996 258.292 42.8741 258.615H37.9435L37.9436 258.615Z" fill="#42655D"/>
<path fill-rule="evenodd" clip-rule="evenodd" d="M54.1647 258.615C54.2701 258.302 54.3875 257.988 54.4758 257.671C54.9991 255.79 55.1652 253.964 55.015 252.241C54.8409 250.224 54.2253 248.345 53.3975 246.671C52.5696 244.997 51.537 243.53 50.5772 242.313C49.6174 241.095 48.7474 240.125 48.2132 239.447C47.6789 238.769 47.4772 238.381 47.8192 238.329C48.1611 238.278 49.011 238.568 50.1832 239.173C51.3554 239.778 52.8587 240.7 54.3928 241.904C55.9269 243.109 57.4772 244.6 58.7476 246.33C60.018 248.06 60.9935 250.028 61.3812 252.154C61.7103 253.967 61.6373 255.892 61.0909 257.865C61.0211 258.117 60.9464 258.365 60.8628 258.615H54.1646L54.1647 258.615Z" fill="#42655D"/>
<path fill-rule="evenodd" clip-rule="evenodd" d="M68.3055 258.615C69.6345 257.291 71.0082 256.03 72.2716 254.849C73.6331 253.576 74.8632 252.388 75.8646 251.298C76.4486 250.662 76.9594 250.06 77.3733 249.501C77.7872 248.941 78.1004 248.423 78.3376 247.949C78.5698 247.481 78.7209 247.055 78.8198 246.684C78.9186 246.312 78.9607 245.997 78.9909 245.735C79.0211 245.473 79.0501 245.265 79.0997 245.122C79.1494 244.979 79.2274 244.901 79.3642 244.891C79.5009 244.881 79.6932 244.941 79.9085 245.072C80.1239 245.202 80.3674 245.406 80.5929 245.674C80.8184 245.943 81.0165 246.276 81.1528 246.674C81.2891 247.071 81.3491 247.528 81.3084 248.034C81.2695 248.546 81.1392 249.109 80.8884 249.712C80.6377 250.314 80.2748 250.959 79.8152 251.63C79.0316 252.777 77.9827 254.017 76.7511 255.321C75.7524 256.378 74.6231 257.483 73.5004 258.615H68.3055L68.3055 258.615Z" fill="#42655D"/>
<path fill-rule="evenodd" clip-rule="evenodd" d="M90.0479 258.615C90.0768 258.378 90.1154 258.144 90.1412 257.904C90.144 257.88 90.139 257.855 90.1412 257.831C90.3518 255.806 90.4517 253.874 90.5705 252.107C90.6894 250.34 90.8398 248.738 91.0558 247.395C91.2718 246.051 91.5509 244.965 91.8957 244.213C92.2405 243.461 92.6408 243.044 93.0529 243.044C93.465 243.044 93.859 243.458 94.2287 244.207C94.5985 244.956 94.9494 246.037 95.2739 247.377C95.5985 248.716 95.8935 250.316 96.0765 252.095C96.2594 253.874 96.3258 255.834 96.1138 257.898C96.1115 257.922 96.116 257.946 96.1138 257.97C96.0913 258.187 96.0495 258.4 96.0205 258.615H90.0476L90.0479 258.615Z" fill="#42655D"/>
<path fill-rule="evenodd" clip-rule="evenodd" d="M105.679 258.615C105.805 257.601 106.072 256.629 106.485 255.738C106.986 254.658 107.689 253.698 108.47 252.914C109.251 252.13 110.097 251.523 110.8 251.12C111.504 250.718 112.052 250.52 112.311 250.554C112.571 250.588 112.519 250.852 112.286 251.294C112.052 251.736 111.654 252.358 111.261 253.133C110.869 253.909 110.492 254.837 110.224 255.878C110.007 256.724 109.869 257.647 109.776 258.615H105.679H105.679Z" fill="#42655D"/>
<path fill-rule="evenodd" clip-rule="evenodd" d="M157.879 242.218C157.724 242.217 157.475 242.279 157.148 242.408C156.774 242.556 156.299 242.791 155.779 243.106C155.259 243.422 154.697 243.82 154.161 244.302C153.626 244.783 153.121 245.351 152.73 245.989C152.372 246.574 152.117 247.218 151.984 247.912C151.851 248.606 151.848 249.35 151.999 250.126C152.224 251.273 152.742 252.492 153.555 253.752C154.367 255.012 155.47 256.313 156.728 257.629C156.984 257.897 157.244 258.159 157.505 258.422C157.608 258.526 157.713 258.626 157.816 258.728H163.011C162.75 258.465 162.494 258.207 162.234 257.94C161.982 257.68 161.737 257.42 161.487 257.157C160.259 255.865 159.151 254.608 158.267 253.411C157.384 252.213 156.731 251.073 156.339 250.001C156.073 249.277 155.915 248.583 155.872 247.937C155.83 247.291 155.902 246.691 156.043 246.139C156.349 244.939 157.012 243.978 157.49 243.312C157.729 242.98 157.912 242.718 158.003 242.534C158.094 242.35 158.086 242.245 157.941 242.223C157.923 242.22 157.901 242.218 157.879 242.218L157.879 242.218Z" fill="#42655D"/>
<path fill-rule="evenodd" clip-rule="evenodd" d="M132.718 242.332C132.661 242.328 132.586 242.335 132.531 242.362C132.477 242.389 132.451 242.441 132.438 242.476C132.41 242.54 132.408 242.622 132.438 242.717C132.498 242.905 132.672 243.157 132.923 243.457C133.421 244.055 134.261 244.876 135.271 245.876C137.265 247.85 139.972 250.561 142.074 253.758C143.094 255.313 143.947 256.984 144.534 258.729H150.554C149.915 256.823 148.84 255.007 147.535 253.343C146.244 251.695 144.726 250.194 143.174 248.866C141.621 247.539 140.038 246.386 138.589 245.437C137.115 244.471 135.8 243.723 134.787 243.198C134.273 242.932 133.852 242.729 133.52 242.585C133.35 242.51 133.207 242.457 133.091 242.416C133.015 242.379 132.926 242.373 132.867 242.362C132.809 242.351 132.774 242.336 132.718 242.332L132.718 242.332Z" fill="#42655D"/>
<path fill-rule="evenodd" clip-rule="evenodd" d="M121.776 245.518C121.46 245.552 121.57 245.967 121.978 246.688C122.387 247.409 123.088 248.439 123.907 249.711C124.725 250.983 125.657 252.494 126.364 254.18C126.955 255.589 127.388 257.122 127.453 258.729H132.384C132.248 257.023 131.647 255.411 130.813 253.949C129.821 252.211 128.523 250.68 127.251 249.42C125.979 248.159 124.738 247.171 123.767 246.502C122.796 245.833 122.092 245.483 121.776 245.518L121.776 245.518Z" fill="#42655D"/>
<path fill-rule="evenodd" clip-rule="evenodd" d="M171.682 245.841C171.314 245.841 170.969 246.175 170.632 246.767C170.295 247.358 169.96 248.211 169.632 249.269C169.304 250.327 168.992 251.59 168.748 252.998C168.505 254.407 168.336 255.964 168.432 257.605C168.434 257.66 168.445 257.712 168.448 257.766C168.466 258.05 168.497 258.332 168.532 258.611H173.866C173.838 258.32 173.803 258.026 173.782 257.729C173.779 257.676 173.769 257.626 173.766 257.573C173.67 255.973 173.675 254.437 173.649 253.036C173.623 251.635 173.57 250.369 173.416 249.301C173.261 248.234 173.017 247.369 172.716 246.772C172.414 246.174 172.05 245.841 171.682 245.841L171.682 245.841Z" fill="#42655D"/>
<path fill-rule="evenodd" clip-rule="evenodd" d="M176.574 247.17C176.247 247.202 176.272 247.56 176.496 248.179C176.72 248.797 177.144 249.678 177.585 250.765C178.025 251.852 178.471 253.149 178.829 254.596C179.144 255.871 179.382 257.267 179.56 258.729H184.537C184.333 257.213 183.947 255.759 183.386 254.436C182.759 252.956 181.925 251.635 181.022 250.544C180.119 249.453 179.151 248.592 178.347 248.013C177.542 247.435 176.901 247.137 176.574 247.17V247.17Z" fill="#42655D"/>
<path fill-rule="evenodd" clip-rule="evenodd" d="M118.38 258.615C118.275 258.302 118.157 257.988 118.069 257.671C117.546 255.79 117.38 253.964 117.53 252.241C117.704 250.224 118.319 248.345 119.147 246.671C119.975 244.997 121.008 243.53 121.968 242.313C122.927 241.095 123.797 240.125 124.332 239.447C124.866 238.769 125.068 238.381 124.726 238.329C124.384 238.278 123.534 238.568 122.362 239.173C121.189 239.778 119.686 240.7 118.152 241.904C116.618 243.109 115.068 244.6 113.797 246.33C112.527 248.06 111.551 250.028 111.164 252.154C110.835 253.967 110.908 255.892 111.454 257.865C111.524 258.117 111.598 258.365 111.682 258.615H118.38L118.38 258.615Z" fill="#42655D"/>
<path fill-rule="evenodd" clip-rule="evenodd" d="M98.4369 242.218C98.5911 242.217 98.8409 242.279 99.1679 242.408C99.5416 242.556 100.016 242.791 100.537 243.106C101.057 243.422 101.619 243.82 102.154 244.302C102.69 244.783 103.194 245.351 103.585 245.989C103.943 246.574 104.199 247.218 104.332 247.912C104.465 248.606 104.467 249.35 104.316 250.126C104.091 251.273 103.573 252.492 102.761 253.752C101.948 255.012 100.845 256.313 99.588 257.629C99.3316 257.897 99.0719 258.159 98.8102 258.422C98.7078 258.526 98.6023 258.626 98.4992 258.728H93.3043C93.566 258.465 93.8219 258.207 94.082 257.94C94.3336 257.68 94.5782 257.42 94.8285 257.157C96.0566 255.865 97.1647 254.608 98.0481 253.411C98.9316 252.213 99.5849 251.073 99.9768 250.001C100.243 249.277 100.401 248.583 100.443 247.937C100.486 247.291 100.414 246.691 100.272 246.139C99.9665 244.939 99.3035 243.978 98.8258 243.312C98.587 242.98 98.4033 242.718 98.3125 242.534C98.2217 242.35 98.2299 242.245 98.3747 242.223C98.3928 242.22 98.4149 242.218 98.437 242.218L98.4369 242.218Z" fill="#42655D"/>
<path fill-rule="evenodd" clip-rule="evenodd" d="M171.395 243.24C171.452 243.236 171.527 243.243 171.582 243.27C171.636 243.297 171.662 243.348 171.675 243.384C171.703 243.447 171.705 243.53 171.675 243.625C171.615 243.812 171.441 244.064 171.19 244.365C170.692 244.962 169.852 245.783 168.842 246.784C166.848 248.757 164.141 251.468 162.039 254.666C161.019 256.22 160.166 257.892 159.579 259.636H153.559C154.198 257.73 155.273 255.915 156.578 254.251C157.869 252.603 159.386 251.102 160.939 249.774C162.492 248.446 164.075 247.294 165.524 246.344C166.998 245.379 168.313 244.63 169.326 244.106C169.84 243.839 170.261 243.636 170.593 243.492C170.763 243.418 170.906 243.365 171.022 243.324C171.098 243.286 171.187 243.281 171.246 243.27C171.304 243.258 171.339 243.243 171.395 243.239L171.395 243.24Z" fill="#42655D"/>
<path fill-rule="evenodd" clip-rule="evenodd" d="M196.95 245.518C197.266 245.552 197.156 245.967 196.748 246.688C196.339 247.409 195.638 248.439 194.819 249.711C194.001 250.983 193.069 252.494 192.362 254.18C191.771 255.589 191.338 257.122 191.273 258.729H186.342C186.478 257.023 187.079 255.411 187.913 253.949C188.905 252.211 190.203 250.68 191.475 249.42C192.747 248.159 193.988 247.171 194.959 246.502C195.93 245.833 196.634 245.483 196.95 245.518L196.95 245.518Z" fill="#42655D"/>
<path fill-rule="evenodd" clip-rule="evenodd" d="M72.8316 245.296C73.1997 245.296 73.545 245.63 73.8818 246.222C74.2186 246.814 74.554 247.666 74.8819 248.724C75.2099 249.783 75.5217 251.045 75.7653 252.454C76.009 253.863 76.1777 255.419 76.082 257.06C76.0792 257.115 76.0692 257.168 76.0654 257.222C76.0478 257.505 76.0167 257.788 75.9821 258.067H70.648C70.6761 257.775 70.7103 257.482 70.7314 257.184C70.7348 257.131 70.7449 257.081 70.748 257.028C70.8439 255.428 70.8385 253.893 70.8647 252.492C70.8909 251.091 70.9436 249.824 71.0981 248.757C71.2526 247.689 71.497 246.825 71.7981 246.227C72.0993 245.63 72.4636 245.296 72.8316 245.296L72.8316 245.296Z" fill="#42655D"/>
<path fill-rule="evenodd" clip-rule="evenodd" d="M109.541 246.443C109.868 246.476 109.843 246.834 109.619 247.453C109.395 248.071 108.971 248.952 108.53 250.039C108.09 251.126 107.644 252.423 107.286 253.87C106.971 255.145 106.733 256.541 106.555 258.003H101.578C101.783 256.486 102.168 255.033 102.729 253.71C103.356 252.23 104.19 250.909 105.093 249.818C105.996 248.727 106.964 247.866 107.768 247.287C108.573 246.708 109.214 246.411 109.541 246.443L109.541 246.443Z" fill="#42655D"/>
<path fill-rule="evenodd" clip-rule="evenodd" d="M190.793 259.871C190.808 259.514 190.813 259.157 190.793 258.793C190.778 258.538 190.74 258.28 190.705 258.022C190.494 256.438 189.911 254.916 188.913 253.523C187.916 252.13 186.513 250.865 184.802 249.762C183.24 248.738 181.428 247.854 179.601 247.125C177.774 246.395 175.925 245.822 174.295 245.372C170.608 244.578 168.496 244.033 168.689 243.88C168.894 243.728 171.417 243.988 175.788 244.595C177.794 244.973 180.087 245.516 182.395 246.251C184.702 246.986 187.01 247.917 189.018 249.03C191.133 250.217 192.899 251.593 194.149 253.104C195.399 254.614 196.14 256.258 196.345 257.948C196.379 258.223 196.391 258.499 196.398 258.771C196.409 259.142 196.392 259.507 196.363 259.871H190.793L190.793 259.871Z" fill="#42655D"/>
<path fill-rule="evenodd" clip-rule="evenodd" d="M209.117 259.871C209.236 259.517 209.369 259.163 209.469 258.805C210.06 256.68 210.247 254.617 210.078 252.671C209.881 250.392 209.186 248.27 208.25 246.378C207.315 244.487 206.149 242.83 205.064 241.455C203.98 240.079 202.997 238.984 202.394 238.218C201.79 237.452 201.562 237.013 201.949 236.955C202.335 236.897 203.295 237.224 204.619 237.908C205.944 238.591 207.642 239.633 209.375 240.993C211.108 242.354 212.859 244.038 214.294 245.993C215.729 247.947 216.832 250.17 217.269 252.573C217.641 254.621 217.559 256.794 216.942 259.024C216.863 259.309 216.778 259.589 216.684 259.871H209.117L209.117 259.871Z" fill="#42655D"/>
<path fill-rule="evenodd" clip-rule="evenodd" d="M225.091 259.871C226.592 258.375 228.144 256.951 229.571 255.616C231.109 254.178 232.499 252.837 233.63 251.606C234.29 250.887 234.867 250.207 235.335 249.575C235.802 248.943 236.156 248.358 236.424 247.822C236.686 247.293 236.857 246.812 236.969 246.393C237.08 245.973 237.128 245.616 237.162 245.32C237.196 245.024 237.229 244.789 237.285 244.628C237.341 244.467 237.429 244.379 237.584 244.367C237.738 244.356 237.955 244.424 238.199 244.572C238.442 244.719 238.717 244.949 238.972 245.252C239.226 245.555 239.45 245.932 239.604 246.381C239.758 246.83 239.826 247.347 239.78 247.919C239.736 248.496 239.589 249.133 239.306 249.813C239.022 250.494 238.612 251.222 238.093 251.98C237.208 253.276 236.023 254.677 234.632 256.15C233.504 257.344 232.228 258.593 230.96 259.871H225.091L225.091 259.871Z" fill="#42655D"/>
<path fill-rule="evenodd" clip-rule="evenodd" d="M307.675 259.871C307.643 259.603 307.599 259.339 307.57 259.068C307.566 259.041 307.573 259.013 307.57 258.986C307.332 256.698 307.219 254.515 307.085 252.519C306.951 250.523 306.781 248.714 306.537 247.196C306.293 245.678 305.977 244.452 305.588 243.602C305.198 242.752 304.746 242.281 304.281 242.281C303.815 242.281 303.37 242.749 302.952 243.595C302.535 244.441 302.138 245.662 301.772 247.176C301.405 248.689 301.072 250.496 300.865 252.506C300.658 254.515 300.583 256.73 300.823 259.061C300.826 259.088 300.82 259.115 300.823 259.142C300.848 259.388 300.895 259.628 300.928 259.871H307.675L307.675 259.871Z" fill="#42655D"/>
<path fill-rule="evenodd" clip-rule="evenodd" d="M290.015 259.871C289.873 258.726 289.57 257.627 289.104 256.621C288.538 255.402 287.744 254.316 286.862 253.431C285.979 252.546 285.024 251.859 284.229 251.404C283.434 250.95 282.815 250.726 282.522 250.765C282.229 250.803 282.287 251.101 282.551 251.601C282.815 252.1 283.265 252.803 283.708 253.679C284.151 254.555 284.577 255.603 284.88 256.779C285.126 257.735 285.281 258.778 285.386 259.871H290.015L290.015 259.871Z" fill="#42655D"/>
<path fill-rule="evenodd" clip-rule="evenodd" d="M326.28 241.348C326.106 241.347 325.824 241.418 325.455 241.564C325.032 241.73 324.496 241.996 323.908 242.352C323.321 242.709 322.686 243.158 322.081 243.702C321.476 244.247 320.906 244.888 320.465 245.608C320.06 246.269 319.771 246.997 319.621 247.781C319.471 248.565 319.468 249.405 319.639 250.283C319.893 251.578 320.478 252.955 321.396 254.378C322.313 255.802 323.56 257.271 324.98 258.757C325.27 259.06 325.563 259.357 325.859 259.654C325.974 259.771 326.094 259.884 326.21 260H332.079C331.783 259.702 331.494 259.411 331.2 259.109C330.916 258.815 330.64 258.522 330.357 258.224C328.97 256.765 327.718 255.346 326.72 253.992C325.722 252.639 324.984 251.352 324.541 250.141C324.24 249.323 324.062 248.539 324.014 247.809C323.966 247.079 324.048 246.401 324.207 245.778C324.553 244.422 325.302 243.337 325.841 242.585C326.111 242.208 326.319 241.913 326.421 241.705C326.524 241.497 326.514 241.379 326.351 241.354C326.33 241.35 326.305 241.348 326.281 241.348L326.28 241.348Z" fill="#42655D"/>
<path fill-rule="evenodd" clip-rule="evenodd" d="M259.473 241.477C259.537 241.473 259.622 241.481 259.683 241.511C259.745 241.541 259.774 241.6 259.789 241.64C259.82 241.712 259.823 241.805 259.789 241.912C259.721 242.124 259.524 242.409 259.241 242.748C258.679 243.423 257.73 244.351 256.589 245.481C254.336 247.71 251.277 250.773 248.904 254.385C247.751 256.141 246.787 258.029 246.124 260H239.324C240.045 257.847 241.26 255.796 242.735 253.916C244.193 252.055 245.907 250.359 247.661 248.859C249.416 247.359 251.204 246.057 252.841 244.984C254.505 243.894 255.992 243.048 257.136 242.456C257.716 242.154 258.192 241.925 258.567 241.762C258.759 241.678 258.92 241.618 259.052 241.572C259.137 241.53 259.238 241.524 259.304 241.511C259.37 241.498 259.409 241.481 259.473 241.477L259.473 241.477Z" fill="#42655D"/>
<path fill-rule="evenodd" clip-rule="evenodd" d="M271.831 245.075C272.189 245.114 272.064 245.582 271.603 246.397C271.141 247.211 270.349 248.374 269.424 249.811C268.5 251.248 267.447 252.955 266.648 254.86C265.98 256.452 265.492 258.184 265.418 259.999H259.848C260.002 258.071 260.681 256.25 261.623 254.599C262.743 252.636 264.21 250.907 265.647 249.482C267.083 248.058 268.486 246.942 269.582 246.186C270.679 245.431 271.474 245.036 271.831 245.075V245.075Z" fill="#42655D"/>
<path fill-rule="evenodd" clip-rule="evenodd" d="M341.872 245.44C341.456 245.44 341.066 245.817 340.685 246.485C340.305 247.154 339.926 248.117 339.556 249.312C339.185 250.508 338.833 251.934 338.558 253.525C338.282 255.117 338.092 256.875 338.2 258.729C338.203 258.791 338.214 258.85 338.219 258.912C338.239 259.232 338.274 259.551 338.313 259.866H344.339C344.307 259.536 344.268 259.205 344.244 258.869C344.24 258.809 344.229 258.753 344.226 258.693C344.117 256.885 344.123 255.15 344.094 253.568C344.064 251.985 344.005 250.555 343.83 249.349C343.656 248.143 343.38 247.167 343.039 246.492C342.699 245.816 342.288 245.44 341.872 245.44L341.872 245.44Z" fill="#42655D"/>
<path fill-rule="evenodd" clip-rule="evenodd" d="M347.399 246.941C347.029 246.978 347.058 247.382 347.311 248.081C347.564 248.78 348.043 249.774 348.541 251.003C349.039 252.231 349.542 253.696 349.947 255.331C350.303 256.771 350.571 258.347 350.772 260H356.395C356.164 258.286 355.729 256.644 355.095 255.149C354.386 253.478 353.444 251.985 352.424 250.753C351.404 249.521 350.311 248.548 349.402 247.894C348.493 247.24 347.768 246.904 347.399 246.941L347.399 246.941Z" fill="#42655D"/>
<path fill-rule="evenodd" clip-rule="evenodd" d="M190.793 259.871C190.808 259.514 190.813 259.157 190.793 258.793C190.778 258.538 190.74 258.28 190.705 258.022C190.494 256.438 189.911 254.916 188.913 253.523C187.916 252.13 186.513 250.865 184.802 249.762C183.24 248.738 181.428 247.854 179.601 247.125C177.774 246.395 175.925 245.822 174.295 245.372C170.608 244.578 168.496 244.033 168.689 243.88C168.894 243.728 171.417 243.988 175.788 244.595C177.794 244.973 180.087 245.516 182.395 246.251C184.702 246.986 187.01 247.917 189.018 249.03C191.133 250.217 192.899 251.593 194.149 253.104C195.399 254.614 196.14 256.258 196.345 257.948C196.379 258.223 196.391 258.499 196.398 258.771C196.409 259.142 196.392 259.507 196.363 259.871H190.793L190.793 259.871Z" fill="#42655D"/>
<path fill-rule="evenodd" clip-rule="evenodd" d="M209.117 259.871C209.236 259.517 209.369 259.163 209.469 258.805C210.06 256.68 210.247 254.617 210.078 252.671C209.881 250.392 209.186 248.27 208.25 246.378C207.315 244.487 206.149 242.83 205.064 241.455C203.98 240.079 202.997 238.984 202.394 238.218C201.79 237.452 201.562 237.013 201.949 236.955C202.335 236.897 203.295 237.224 204.619 237.908C205.944 238.591 207.642 239.633 209.375 240.993C211.108 242.354 212.859 244.038 214.294 245.993C215.729 247.947 216.832 250.17 217.269 252.573C217.641 254.621 217.559 256.794 216.942 259.024C216.863 259.309 216.778 259.589 216.684 259.871H209.117L209.117 259.871Z" fill="#42655D"/>
<path fill-rule="evenodd" clip-rule="evenodd" d="M225.091 259.871C226.592 258.375 228.144 256.951 229.571 255.616C231.109 254.178 232.499 252.837 233.63 251.606C234.29 250.887 234.867 250.207 235.335 249.575C235.802 248.943 236.156 248.358 236.424 247.822C236.686 247.293 236.857 246.812 236.969 246.393C237.08 245.973 237.128 245.616 237.162 245.32C237.196 245.024 237.229 244.789 237.285 244.628C237.341 244.467 237.429 244.379 237.584 244.367C237.738 244.356 237.955 244.424 238.199 244.572C238.442 244.719 238.717 244.949 238.972 245.252C239.226 245.555 239.45 245.932 239.604 246.381C239.758 246.83 239.826 247.347 239.78 247.919C239.736 248.496 239.589 249.133 239.306 249.813C239.022 250.494 238.612 251.222 238.093 251.98C237.208 253.276 236.023 254.677 234.632 256.15C233.504 257.344 232.228 258.593 230.96 259.871H225.091L225.091 259.871Z" fill="#42655D"/>
<path fill-rule="evenodd" clip-rule="evenodd" d="M307.675 259.871C307.643 259.603 307.599 259.339 307.57 259.068C307.566 259.041 307.573 259.013 307.57 258.986C307.332 256.698 307.219 254.515 307.085 252.519C306.951 250.523 306.781 248.714 306.537 247.196C306.293 245.678 305.977 244.452 305.588 243.602C305.198 242.752 304.746 242.281 304.281 242.281C303.815 242.281 303.37 242.749 302.952 243.595C302.535 244.441 302.138 245.662 301.772 247.176C301.405 248.689 301.072 250.496 300.865 252.506C300.658 254.515 300.583 256.73 300.823 259.061C300.826 259.088 300.82 259.115 300.823 259.142C300.848 259.388 300.895 259.628 300.928 259.871H307.675L307.675 259.871Z" fill="#42655D"/>
<path fill-rule="evenodd" clip-rule="evenodd" d="M290.015 259.871C289.873 258.726 289.57 257.627 289.104 256.621C288.538 255.402 287.744 254.316 286.862 253.431C285.979 252.546 285.024 251.859 284.229 251.404C283.434 250.95 282.815 250.726 282.522 250.765C282.229 250.803 282.287 251.101 282.551 251.601C282.815 252.1 283.265 252.803 283.708 253.679C284.151 254.555 284.577 255.603 284.88 256.779C285.126 257.735 285.281 258.778 285.386 259.871H290.015L290.015 259.871Z" fill="#42655D"/>
<path fill-rule="evenodd" clip-rule="evenodd" d="M326.28 241.348C326.106 241.347 325.824 241.418 325.455 241.564C325.032 241.73 324.496 241.996 323.908 242.352C323.321 242.709 322.686 243.158 322.081 243.702C321.476 244.247 320.906 244.888 320.465 245.608C320.06 246.269 319.771 246.997 319.621 247.781C319.471 248.565 319.468 249.405 319.639 250.283C319.893 251.578 320.478 252.955 321.396 254.378C322.313 255.802 323.56 257.271 324.98 258.757C325.27 259.06 325.563 259.357 325.859 259.654C325.974 259.771 326.094 259.884 326.21 260H332.079C331.783 259.702 331.494 259.411 331.2 259.109C330.916 258.815 330.64 258.522 330.357 258.224C328.97 256.765 327.718 255.346 326.72 253.992C325.722 252.639 324.984 251.352 324.541 250.141C324.24 249.323 324.062 248.539 324.014 247.809C323.966 247.079 324.048 246.401 324.207 245.778C324.553 244.422 325.302 243.337 325.841 242.585C326.111 242.208 326.319 241.913 326.421 241.705C326.524 241.497 326.514 241.379 326.351 241.354C326.33 241.35 326.305 241.348 326.281 241.348L326.28 241.348Z" fill="#42655D"/>
<path fill-rule="evenodd" clip-rule="evenodd" d="M259.473 241.477C259.537 241.473 259.622 241.481 259.683 241.511C259.745 241.541 259.774 241.6 259.789 241.64C259.82 241.712 259.823 241.805 259.789 241.912C259.721 242.124 259.524 242.409 259.241 242.748C258.679 243.423 257.73 244.351 256.589 245.481C254.336 247.71 251.277 250.773 248.904 254.385C247.751 256.141 246.787 258.029 246.124 260H239.324C240.045 257.847 241.26 255.796 242.735 253.916C244.193 252.055 245.907 250.359 247.661 248.859C249.416 247.359 251.204 246.057 252.841 244.984C254.505 243.894 255.992 243.048 257.136 242.456C257.716 242.154 258.192 241.925 258.567 241.762C258.759 241.678 258.92 241.618 259.052 241.572C259.137 241.53 259.238 241.524 259.304 241.511C259.37 241.498 259.409 241.481 259.473 241.477L259.473 241.477Z" fill="#42655D"/>
<path fill-rule="evenodd" clip-rule="evenodd" d="M271.831 245.075C272.189 245.114 272.064 245.582 271.603 246.397C271.141 247.211 270.349 248.374 269.424 249.811C268.5 251.248 267.447 252.955 266.648 254.86C265.98 256.452 265.492 258.184 265.418 259.999H259.848C260.002 258.071 260.681 256.25 261.623 254.599C262.743 252.636 264.21 250.907 265.647 249.482C267.083 248.058 268.486 246.942 269.582 246.186C270.679 245.431 271.474 245.036 271.831 245.075V245.075Z" fill="#42655D"/>
<path fill-rule="evenodd" clip-rule="evenodd" d="M341.872 245.44C341.456 245.44 341.066 245.817 340.685 246.485C340.305 247.154 339.926 248.117 339.556 249.312C339.185 250.508 338.833 251.934 338.558 253.525C338.282 255.117 338.092 256.875 338.2 258.729C338.203 258.791 338.214 258.85 338.219 258.912C338.239 259.232 338.274 259.551 338.313 259.866H344.339C344.307 259.536 344.268 259.205 344.244 258.869C344.24 258.809 344.229 258.753 344.226 258.693C344.117 256.885 344.123 255.15 344.094 253.568C344.064 251.985 344.005 250.555 343.83 249.349C343.656 248.143 343.38 247.167 343.039 246.492C342.699 245.816 342.288 245.44 341.872 245.44L341.872 245.44Z" fill="#42655D"/>
<path fill-rule="evenodd" clip-rule="evenodd" d="M347.399 246.941C347.029 246.978 347.058 247.382 347.311 248.081C347.564 248.78 348.043 249.774 348.541 251.003C349.039 252.231 349.542 253.696 349.947 255.331C350.303 256.771 350.571 258.347 350.772 260H356.395C356.164 258.286 355.729 256.644 355.095 255.149C354.386 253.478 353.444 251.985 352.424 250.753C351.404 249.521 350.311 248.548 349.402 247.894C348.493 247.24 347.768 246.904 347.399 246.941L347.399 246.941Z" fill="#42655D"/>
<path fill-rule="evenodd" clip-rule="evenodd" d="M195.325 258.052C195.34 257.685 195.345 257.318 195.325 256.945C195.309 256.683 195.27 256.418 195.235 256.153C195.017 254.527 194.419 252.964 193.394 251.533C192.37 250.103 190.929 248.804 189.172 247.671C187.568 246.619 185.707 245.711 183.831 244.962C181.955 244.213 180.056 243.624 178.382 243.162C174.595 242.347 172.427 241.787 172.626 241.63C172.836 241.474 175.427 241.741 179.915 242.364C181.976 242.753 184.331 243.31 186.7 244.065C189.069 244.819 191.44 245.776 193.503 246.919C195.674 248.138 197.488 249.551 198.772 251.102C200.055 252.654 200.816 254.341 201.027 256.077C201.062 256.36 201.075 256.643 201.081 256.922C201.093 257.304 201.075 257.678 201.045 258.052H195.326L195.325 258.052Z" fill="#42655D"/>
<path fill-rule="evenodd" clip-rule="evenodd" d="M212.35 258.052C212.498 257.638 212.663 257.224 212.786 256.805C213.52 254.32 213.753 251.908 213.542 249.632C213.298 246.967 212.435 244.484 211.274 242.273C210.113 240.06 208.665 238.123 207.319 236.514C205.973 234.906 204.753 233.625 204.004 232.729C203.255 231.833 202.972 231.32 203.452 231.252C203.931 231.183 205.123 231.567 206.767 232.366C208.411 233.165 210.519 234.383 212.67 235.975C214.821 237.566 216.995 239.536 218.777 241.821C220.558 244.107 221.926 246.707 222.47 249.517C222.931 251.912 222.829 254.454 222.063 257.061C221.965 257.395 221.86 257.723 221.743 258.052H212.35L212.35 258.052Z" fill="#42655D"/>
<path fill-rule="evenodd" clip-rule="evenodd" d="M230.55 258.052C232.092 256.516 233.686 255.053 235.152 253.683C236.731 252.206 238.158 250.828 239.32 249.564C239.997 248.826 240.59 248.128 241.07 247.479C241.55 246.829 241.914 246.229 242.189 245.679C242.458 245.135 242.634 244.641 242.748 244.211C242.863 243.78 242.912 243.414 242.947 243.11C242.982 242.806 243.015 242.564 243.073 242.399C243.131 242.233 243.221 242.142 243.38 242.131C243.539 242.119 243.762 242.189 244.011 242.341C244.261 242.492 244.544 242.728 244.805 243.04C245.067 243.351 245.297 243.738 245.455 244.199C245.613 244.66 245.683 245.19 245.635 245.778C245.59 246.371 245.439 247.025 245.148 247.723C244.857 248.422 244.436 249.17 243.903 249.949C242.994 251.279 241.777 252.718 240.348 254.231C239.19 255.457 237.88 256.74 236.577 258.052H230.55L230.55 258.052Z" fill="#42655D"/>
<path fill-rule="evenodd" clip-rule="evenodd" d="M301.552 258.052C301.519 257.777 301.474 257.506 301.444 257.227C301.441 257.2 301.447 257.171 301.444 257.143C301.2 254.794 301.084 252.552 300.946 250.502C300.808 248.452 300.634 246.594 300.383 245.036C300.133 243.477 299.809 242.217 299.409 241.344C299.009 240.472 298.544 239.988 298.066 239.988C297.588 239.988 297.131 240.469 296.702 241.337C296.273 242.206 295.866 243.46 295.489 245.015C295.113 246.569 294.771 248.425 294.558 250.488C294.346 252.552 294.269 254.827 294.515 257.22C294.518 257.248 294.512 257.276 294.515 257.304C294.541 257.556 294.59 257.803 294.623 258.052H301.552L301.552 258.052Z" fill="#42655D"/>
<path fill-rule="evenodd" clip-rule="evenodd" d="M283.42 258.052C283.274 256.876 282.963 255.748 282.484 254.714C281.903 253.462 281.087 252.348 280.181 251.439C279.275 250.53 278.294 249.824 277.478 249.357C276.662 248.89 276.026 248.661 275.725 248.7C275.424 248.74 275.484 249.046 275.755 249.559C276.026 250.072 276.488 250.793 276.943 251.693C277.398 252.593 277.835 253.669 278.146 254.877C278.399 255.858 278.558 256.93 278.666 258.052H283.42L283.42 258.052Z" fill="#42655D"/>
<path fill-rule="evenodd" clip-rule="evenodd" d="M334.467 239.03C334.288 239.029 333.998 239.102 333.619 239.251C333.185 239.423 332.634 239.695 332.031 240.061C331.427 240.427 330.776 240.889 330.154 241.448C329.533 242.007 328.948 242.665 328.494 243.405C328.079 244.084 327.782 244.831 327.628 245.636C327.474 246.441 327.471 247.304 327.646 248.205C327.907 249.535 328.508 250.949 329.451 252.411C330.393 253.873 331.673 255.382 333.132 256.909C333.429 257.22 333.73 257.524 334.034 257.829C334.153 257.949 334.275 258.065 334.395 258.184H340.421C340.118 257.879 339.821 257.58 339.519 257.27C339.227 256.968 338.944 256.667 338.653 256.361C337.229 254.863 335.943 253.405 334.918 252.015C333.893 250.626 333.135 249.304 332.681 248.06C332.372 247.22 332.188 246.415 332.139 245.665C332.09 244.916 332.174 244.22 332.338 243.58C332.692 242.187 333.462 241.072 334.016 240.3C334.293 239.914 334.506 239.61 334.611 239.397C334.717 239.184 334.707 239.062 334.539 239.036C334.518 239.033 334.492 239.03 334.467 239.03L334.467 239.03Z" fill="#42655D"/>
<path fill-rule="evenodd" clip-rule="evenodd" d="M305.274 239.163C305.209 239.158 305.121 239.166 305.058 239.197C304.995 239.229 304.966 239.288 304.95 239.33C304.918 239.404 304.915 239.499 304.95 239.609C305.02 239.827 305.222 240.119 305.512 240.468C306.09 241.161 307.065 242.114 308.237 243.274C310.55 245.564 313.691 248.709 316.128 252.419C317.312 254.222 318.302 256.161 318.982 258.185H325.966C325.225 255.974 323.978 253.868 322.464 251.937C320.966 250.025 319.206 248.284 317.404 246.744C315.603 245.203 313.766 243.866 312.085 242.765C310.376 241.645 308.849 240.776 307.674 240.168C307.079 239.859 306.589 239.623 306.204 239.456C306.007 239.37 305.842 239.308 305.707 239.261C305.619 239.217 305.516 239.211 305.447 239.198C305.379 239.185 305.34 239.167 305.275 239.163L305.274 239.163Z" fill="#42655D"/>
<path fill-rule="evenodd" clip-rule="evenodd" d="M264.747 242.857C265.114 242.897 264.986 243.378 264.512 244.214C264.038 245.05 263.224 246.245 262.275 247.721C261.325 249.197 260.244 250.949 259.424 252.906C258.738 254.541 258.237 256.319 258.161 258.184H252.441C252.598 256.204 253.296 254.334 254.263 252.638C255.414 250.622 256.92 248.846 258.396 247.383C259.871 245.921 261.311 244.775 262.437 243.999C263.564 243.222 264.38 242.817 264.747 242.857L264.747 242.857Z" fill="#42655D"/>
<path fill-rule="evenodd" clip-rule="evenodd" d="M350.48 243.232C350.053 243.232 349.652 243.62 349.262 244.306C348.871 244.993 348.482 245.981 348.101 247.209C347.721 248.437 347.359 249.902 347.076 251.536C346.794 253.17 346.598 254.976 346.709 256.88C346.712 256.944 346.724 257.004 346.728 257.068C346.749 257.396 346.785 257.724 346.825 258.048H353.013C352.981 257.709 352.941 257.369 352.917 257.024C352.913 256.962 352.901 256.904 352.897 256.843C352.786 254.986 352.792 253.205 352.762 251.58C352.732 249.954 352.67 248.485 352.491 247.247C352.312 246.008 352.028 245.006 351.679 244.313C351.33 243.619 350.907 243.232 350.48 243.232L350.48 243.232Z" fill="#42655D"/>
<path fill-rule="evenodd" clip-rule="evenodd" d="M356.153 244.774C355.774 244.812 355.803 245.227 356.063 245.945C356.323 246.662 356.815 247.683 357.326 248.945C357.837 250.206 358.354 251.711 358.77 253.39C359.135 254.869 359.411 256.487 359.618 258.184H365.392C365.155 256.425 364.708 254.739 364.057 253.203C363.329 251.486 362.361 249.954 361.314 248.688C360.267 247.423 359.144 246.424 358.211 245.752C357.277 245.081 356.533 244.735 356.153 244.773L356.153 244.774Z" fill="#42655D"/>
<path fill-rule="evenodd" clip-rule="evenodd" d="M206.621 258.615C206.634 258.299 206.638 257.982 206.621 257.661C206.607 257.435 206.574 257.206 206.543 256.978C206.356 255.576 205.84 254.229 204.957 252.996C204.074 251.763 202.831 250.643 201.317 249.666C199.934 248.76 198.33 247.977 196.713 247.331C195.096 246.686 193.46 246.178 192.016 245.78C188.752 245.077 186.883 244.595 187.054 244.459C187.235 244.325 189.469 244.555 193.338 245.092C195.114 245.427 197.144 245.908 199.186 246.558C201.228 247.208 203.272 248.033 205.05 249.019C206.921 250.069 208.485 251.287 209.592 252.624C210.698 253.961 211.354 255.416 211.536 256.912C211.565 257.156 211.577 257.4 211.582 257.641C211.592 257.97 211.577 258.292 211.551 258.615H206.621V258.615Z" fill="#42655D"/>
<path fill-rule="evenodd" clip-rule="evenodd" d="M223.404 258.615C223.51 258.302 223.627 257.988 223.715 257.671C224.239 255.79 224.405 253.964 224.254 252.241C224.08 250.224 223.465 248.345 222.637 246.671C221.809 244.997 220.776 243.53 219.817 242.313C218.857 241.095 217.987 240.125 217.453 239.447C216.918 238.769 216.717 238.381 217.059 238.329C217.401 238.278 218.25 238.568 219.423 239.173C220.595 239.778 222.098 240.7 223.632 241.904C225.166 243.109 226.717 244.6 227.987 246.33C229.257 248.06 230.233 250.028 230.621 252.154C230.95 253.967 230.877 255.892 230.33 257.865C230.26 258.117 230.186 258.365 230.102 258.615H223.404L223.404 258.615Z" fill="#42655D"/>
<path fill-rule="evenodd" clip-rule="evenodd" d="M236.983 258.615C238.312 257.291 239.685 256.03 240.949 254.849C242.31 253.576 243.54 252.388 244.542 251.298C245.126 250.662 245.637 250.06 246.05 249.501C246.464 248.941 246.778 248.423 247.015 247.949C247.247 247.481 247.398 247.055 247.497 246.684C247.596 246.312 247.638 245.997 247.668 245.735C247.698 245.473 247.727 245.265 247.777 245.122C247.827 244.979 247.905 244.901 248.041 244.891C248.178 244.881 248.37 244.941 248.586 245.072C248.801 245.202 249.045 245.406 249.27 245.674C249.496 245.943 249.694 246.276 249.83 246.674C249.966 247.071 250.026 247.528 249.986 248.034C249.947 248.546 249.816 249.109 249.566 249.712C249.315 250.314 248.952 250.959 248.492 251.63C247.709 252.777 246.66 254.017 245.428 255.321C244.43 256.378 243.3 257.483 242.178 258.615H236.983L236.983 258.615Z" fill="#42655D"/>
<path fill-rule="evenodd" clip-rule="evenodd" d="M298.606 258.615C298.577 258.378 298.539 258.144 298.513 257.904C298.51 257.88 298.515 257.855 298.513 257.831C298.302 255.806 298.202 253.874 298.083 252.107C297.965 250.34 297.814 248.738 297.598 247.395C297.382 246.051 297.103 244.965 296.758 244.213C296.414 243.461 296.013 243.044 295.601 243.044C295.189 243.044 294.795 243.458 294.425 244.207C294.056 244.956 293.705 246.037 293.38 247.377C293.056 248.716 292.761 250.316 292.578 252.095C292.395 253.874 292.328 255.834 292.54 257.898C292.542 257.922 292.538 257.946 292.54 257.97C292.563 258.187 292.604 258.4 292.634 258.615H298.606L298.606 258.615Z" fill="#42655D"/>
<path fill-rule="evenodd" clip-rule="evenodd" d="M282.975 258.615C282.849 257.601 282.582 256.629 282.169 255.738C281.668 254.658 280.965 253.698 280.184 252.914C279.403 252.13 278.557 251.523 277.854 251.12C277.15 250.718 276.602 250.52 276.343 250.554C276.083 250.588 276.135 250.852 276.368 251.294C276.602 251.736 277.001 252.358 277.393 253.133C277.785 253.909 278.162 254.837 278.43 255.878C278.647 256.724 278.785 257.647 278.878 258.615H282.975H282.975Z" fill="#42655D"/>
<path fill-rule="evenodd" clip-rule="evenodd" d="M326.556 242.218C326.402 242.217 326.152 242.279 325.825 242.408C325.451 242.556 324.976 242.791 324.456 243.106C323.936 243.422 323.374 243.82 322.838 244.302C322.303 244.783 321.799 245.351 321.407 245.989C321.049 246.574 320.794 247.218 320.661 247.912C320.528 248.606 320.526 249.35 320.676 250.126C320.901 251.273 321.419 252.492 322.232 253.752C323.044 255.012 324.147 256.313 325.405 257.629C325.661 257.897 325.921 258.159 326.182 258.422C326.285 258.526 326.39 258.626 326.494 258.728H331.688C331.427 258.465 331.171 258.207 330.911 257.94C330.659 257.68 330.415 257.42 330.164 257.157C328.936 255.865 327.828 254.608 326.945 253.411C326.061 252.213 325.408 251.073 325.016 250.001C324.75 249.277 324.592 248.583 324.549 247.937C324.507 247.291 324.579 246.691 324.72 246.139C325.026 244.939 325.689 243.978 326.167 243.312C326.406 242.98 326.589 242.718 326.68 242.534C326.771 242.35 326.763 242.245 326.618 242.223C326.6 242.22 326.578 242.218 326.556 242.218L326.556 242.218Z" fill="#42655D"/>
<path fill-rule="evenodd" clip-rule="evenodd" d="M301.395 242.332C301.338 242.328 301.263 242.335 301.208 242.362C301.154 242.389 301.129 242.441 301.115 242.476C301.087 242.54 301.085 242.622 301.115 242.717C301.175 242.905 301.35 243.157 301.6 243.457C302.098 244.055 302.938 244.876 303.948 245.876C305.942 247.85 308.65 250.561 310.751 253.758C311.771 255.313 312.624 256.984 313.211 258.729H319.231C318.593 256.823 317.517 255.007 316.212 253.343C314.921 251.695 313.404 250.194 311.851 248.866C310.298 247.539 308.715 246.386 307.266 245.437C305.792 244.471 304.477 243.723 303.464 243.198C302.95 242.932 302.529 242.729 302.197 242.585C302.027 242.51 301.884 242.457 301.768 242.416C301.693 242.379 301.603 242.373 301.544 242.362C301.486 242.351 301.452 242.336 301.395 242.332L301.395 242.332Z" fill="#42655D"/>
<path fill-rule="evenodd" clip-rule="evenodd" d="M266.872 245.518C267.189 245.552 267.079 245.967 266.67 246.688C266.262 247.409 265.56 248.439 264.741 249.711C263.923 250.983 262.991 252.494 262.284 254.18C261.693 255.589 261.261 257.122 261.195 258.729H256.265C256.4 257.023 257.002 255.411 257.836 253.949C258.827 252.211 260.126 250.68 261.397 249.42C262.669 248.159 263.911 247.171 264.881 246.502C265.852 245.833 266.556 245.483 266.872 245.518L266.872 245.518Z" fill="#42655D"/>
<path fill-rule="evenodd" clip-rule="evenodd" d="M340.359 245.841C339.991 245.841 339.646 246.175 339.309 246.767C338.972 247.358 338.637 248.211 338.309 249.269C337.981 250.327 337.669 251.59 337.426 252.998C337.182 254.407 337.013 255.964 337.109 257.605C337.112 257.66 337.122 257.712 337.126 257.766C337.143 258.05 337.174 258.332 337.209 258.611H342.543C342.515 258.32 342.481 258.026 342.46 257.729C342.456 257.676 342.446 257.626 342.443 257.573C342.347 255.973 342.352 254.437 342.326 253.036C342.3 251.635 342.247 250.369 342.093 249.301C341.938 248.234 341.694 247.369 341.393 246.772C341.092 246.174 340.727 245.841 340.359 245.841L340.359 245.841Z" fill="#42655D"/>
<path fill-rule="evenodd" clip-rule="evenodd" d="M345.251 247.17C344.924 247.202 344.949 247.56 345.173 248.179C345.397 248.797 345.821 249.678 346.262 250.765C346.703 251.852 347.148 253.149 347.506 254.596C347.822 255.871 348.059 257.267 348.237 258.729H353.214C353.01 257.213 352.625 255.759 352.063 254.436C351.436 252.956 350.602 251.635 349.699 250.544C348.797 249.453 347.828 248.592 347.024 248.013C346.22 247.435 345.578 247.137 345.251 247.17V247.17Z" fill="#42655D"/>
<path fill-rule="evenodd" clip-rule="evenodd" d="M270.274 258.615C270.379 258.302 270.497 257.988 270.585 257.671C271.108 255.79 271.274 253.964 271.124 252.241C270.95 250.224 270.335 248.345 269.507 246.671C268.679 244.997 267.646 243.53 266.686 242.313C265.727 241.095 264.857 240.125 264.322 239.447C263.788 238.769 263.586 238.381 263.928 238.329C264.27 238.278 265.12 238.568 266.292 239.173C267.465 239.778 268.968 240.7 270.502 241.904C272.036 243.109 273.586 244.6 274.857 246.33C276.127 248.06 277.103 250.028 277.49 252.154C277.819 253.967 277.746 255.892 277.2 257.865C277.13 258.117 277.056 258.365 276.972 258.615H270.274L270.274 258.615Z" fill="#42655D"/>
<path fill-rule="evenodd" clip-rule="evenodd" d="M290.212 242.218C290.057 242.217 289.807 242.279 289.48 242.408C289.107 242.556 288.632 242.791 288.112 243.106C287.592 243.422 287.03 243.82 286.494 244.302C285.959 244.783 285.454 245.351 285.063 245.989C284.705 246.574 284.449 247.218 284.317 247.912C284.184 248.606 284.181 249.35 284.332 250.126C284.557 251.273 285.075 252.492 285.887 253.752C286.7 255.012 287.803 256.313 289.06 257.629C289.317 257.897 289.576 258.159 289.838 258.422C289.941 258.526 290.046 258.626 290.149 258.728H295.344C295.082 258.465 294.826 258.207 294.566 257.94C294.315 257.68 294.07 257.42 293.82 257.157C292.592 255.865 291.484 254.608 290.6 253.411C289.717 252.213 289.063 251.073 288.672 250.001C288.405 249.277 288.247 248.583 288.205 247.937C288.163 247.291 288.235 246.691 288.376 246.139C288.682 244.939 289.345 243.978 289.823 243.312C290.061 242.98 290.245 242.718 290.336 242.534C290.427 242.35 290.419 242.245 290.274 242.223C290.256 242.22 290.233 242.218 290.211 242.218L290.212 242.218Z" fill="#42655D"/>
<path fill-rule="evenodd" clip-rule="evenodd" d="M340.073 243.24C340.129 243.236 340.205 243.243 340.259 243.27C340.313 243.297 340.339 243.348 340.352 243.384C340.38 243.447 340.383 243.53 340.352 243.625C340.292 243.812 340.118 244.064 339.868 244.365C339.369 244.962 338.529 245.783 337.519 246.784C335.525 248.757 332.818 251.468 330.716 254.666C329.696 256.22 328.843 257.892 328.256 259.636H322.236C322.875 257.73 323.95 255.915 325.256 254.251C326.547 252.603 328.064 251.102 329.617 249.774C331.17 248.446 332.752 247.294 334.201 246.344C335.675 245.379 336.991 244.63 338.003 244.106C338.517 243.839 338.939 243.636 339.271 243.492C339.44 243.418 339.583 243.365 339.699 243.324C339.775 243.286 339.864 243.281 339.923 243.27C339.982 243.258 340.016 243.243 340.072 243.239L340.073 243.24Z" fill="#42655D"/>
<path fill-rule="evenodd" clip-rule="evenodd" d="M365.627 245.518C365.944 245.552 365.834 245.967 365.425 246.688C365.016 247.409 364.315 248.439 363.496 249.711C362.678 250.983 361.746 252.494 361.039 254.18C360.448 255.589 360.016 257.122 359.95 258.729H355.02C355.155 257.023 355.756 255.411 356.59 253.949C357.582 252.211 358.881 250.68 360.152 249.42C361.424 248.159 362.665 247.171 363.636 246.502C364.607 245.833 365.311 245.483 365.627 245.518V245.518Z" fill="#42655D"/>
<path fill-rule="evenodd" clip-rule="evenodd" d="M315.822 245.296C315.454 245.296 315.109 245.63 314.772 246.222C314.435 246.814 314.1 247.666 313.772 248.724C313.444 249.783 313.132 251.045 312.889 252.454C312.645 253.863 312.476 255.419 312.572 257.06C312.575 257.115 312.585 257.168 312.589 257.222C312.606 257.505 312.637 257.788 312.672 258.067H318.006C317.978 257.775 317.944 257.482 317.923 257.184C317.919 257.131 317.909 257.081 317.906 257.028C317.81 255.428 317.816 253.893 317.789 252.492C317.763 251.091 317.71 249.824 317.556 248.757C317.401 247.689 317.157 246.825 316.856 246.227C316.555 245.63 316.19 245.296 315.822 245.296V245.296Z" fill="#42655D"/>
<path fill-rule="evenodd" clip-rule="evenodd" d="M279.107 246.443C278.78 246.476 278.805 246.834 279.029 247.453C279.253 248.071 279.677 248.952 280.118 250.039C280.559 251.126 281.004 252.423 281.362 253.87C281.678 255.145 281.915 256.541 282.093 258.003H287.071C286.866 256.486 286.481 255.033 285.92 253.71C285.292 252.23 284.458 250.909 283.555 249.818C282.653 248.727 281.685 247.866 280.88 247.287C280.076 246.708 279.434 246.411 279.107 246.443V246.443Z" fill="#42655D"/>
<path fill-rule="evenodd" clip-rule="evenodd" d="M48.5533 256.266C50.9032 256.416 54.7432 257.641 54.7522 256.087C68.6928 243.03 74.6449 229.002 69.9281 215.239C67.9161 206.082 72.0359 196.405 88.6889 188.73C95.1538 185.598 102.868 182.761 110.761 180C92.4802 185.892 75.9487 192.876 70.609 201.206C65.5027 208.094 67.2132 215.216 68.2193 222.214C68.4631 233.815 61.3457 245.442 48.5538 256.266L48.5533 256.266Z" fill="#42655D"/>
<path fill-rule="evenodd" clip-rule="evenodd" d="M113.664 191.16C95.9432 195.988 79.4488 201.869 72.3846 209.331C70.0366 211.57 68.4702 213.866 67.377 216.192C67.9865 216.3 68.6026 216.405 69.2277 216.504C71.9909 209.934 78.7484 203.529 91.8096 198.469C98.3762 195.801 105.95 193.443 113.664 191.159L113.664 191.16Z" fill="#42655D"/>
<path d="M106.248 183.319C107.584 182.734 107.197 181.91 105.384 181.479C103.572 181.048 101.02 181.173 99.6846 181.758L83.5085 188.845C82.1731 189.431 82.5597 190.254 84.3722 190.686C86.1846 191.117 88.7365 190.992 90.072 190.407L106.248 183.319Z" fill="#42655D"/>
<path d="M107.565 194.325C108.847 193.884 108.778 193.191 107.412 192.777C106.047 192.363 103.9 192.385 102.619 192.826L87.0961 198.168C85.8145 198.609 85.8829 199.302 87.2488 199.716C88.6147 200.129 90.7609 200.107 92.0424 199.666L107.565 194.325Z" fill="#42655D"/>
<path d="M24.9329 225.033C24.9325 225.036 24.9411 225.04 24.9409 225.044C18.4563 226.125 12.6617 227.362 11.7919 228.059C13.9898 228.374 20.7543 228.147 27.7578 227.663C33.4461 231.287 46.2397 236.868 52.2081 237.358C54.832 237.529 57.4635 237.704 59.9459 238.037L60.1198 238.053L60.2515 238.061C60.7041 237.752 59.3772 235.609 59.774 235.133C58.5854 232.798 31.5222 225.039 24.9331 225.033L24.9329 225.033Z" fill="#42655D"/>
<path d="M75.156 229.681C76.6707 229.372 78.3449 229.16 80.0096 228.952C84.946 228.241 94.5715 221.302 93.6235 219.856C89.2948 220.101 74.2211 226.188 74.2577 227.766C74.6855 228.064 74.5614 229.522 74.9669 229.708L75.0515 229.698L75.1562 229.681L75.156 229.681Z" fill="#42655D"/>
<path d="M54.5526 234.703C53.5236 234.784 52.553 234.898 51.6535 235.037C56.3596 236.779 60.807 238.636 64.41 240.63C65.6801 240.466 66.8206 240.256 67.8011 240.001C64.0518 238.086 59.5072 236.322 54.5531 234.702L54.5526 234.703Z" fill="#42655D"/>
<path d="M78.2113 227.078C79.0512 227.145 79.8435 227.238 80.5778 227.352C76.7363 228.773 73.1059 230.289 70.1653 231.917C69.1285 231.783 68.1977 231.611 67.3973 231.403C70.4576 229.84 74.1674 228.4 78.2112 227.078L78.2113 227.078Z" fill="#42655D"/>
<path fill-rule="evenodd" clip-rule="evenodd" d="M46.8264 195.929C42.0858 199.903 38.9918 203.92 39.712 208.07C40.1455 214.547 47.4764 220.592 54.0092 226.595C63.4387 236.681 65.6399 247.474 61.6315 258.096C64.0621 258.008 68.8031 258.719 67.5814 257.364C70.9498 244.689 65.705 231.909 50.1636 220.358C41.0927 212.704 37.4469 204.06 47.0943 195.947C46.8811 195.911 47.0333 195.97 46.8268 195.929L46.8264 195.929Z" fill="#42655D"/>
<path fill-rule="evenodd" clip-rule="evenodd" d="M74.0999 195.301C60.4941 201.159 48.93 207.82 47.8927 214.98C47.3573 217.15 47.6354 219.297 48.4021 221.425C49.0873 221.462 49.7768 221.497 50.4698 221.524C47.9835 215.543 49.5563 209.332 58.3942 203.706C62.7396 200.769 68.321 198.009 74.0994 195.301L74.0999 195.301Z" fill="#42655D"/>
<path d="M65.3104 204.218C64.8068 204.685 63.9353 205.15 62.1414 205.819C58.4167 206.551 52.3597 207.236 52.8993 208.705C52.8585 208.725 52.8406 208.739 52.8158 208.754C52.0621 209.049 51.3302 209.35 50.6363 209.658C50.8618 209.75 51.1465 209.833 51.4745 209.899C52.086 209.603 52.7382 209.313 53.4022 209.027C58.9422 208.935 60.5369 207.192 62.8147 206.046C64.8741 205.44 66.3079 205.142 67.7547 204.967C66.6233 205.067 65.1928 205.27 63.6806 205.534C64.4534 205.044 65.0303 204.583 65.3105 204.218L65.3104 204.218Z" fill="#42655D"/>
<path d="M66.9646 217.715C66.9792 217.761 66.9858 217.802 66.9987 217.847C61.0034 219.746 59.6712 223.598 59.1374 226.963C58.6274 227.231 59.14 228.063 59.694 228.549C59.2466 228.95 58.8139 229.355 58.4218 229.765C58.869 229.895 59.3892 230.003 59.9489 230.078C60.3376 229.61 60.7693 229.151 61.2209 228.691C62.0544 228.584 62.434 228.246 63.5894 227.732C67.0079 224.521 70.517 220.616 67.1103 217.842C67.146 217.82 67.177 217.8 67.2137 217.778C67.1681 217.791 67.1252 217.806 67.0801 217.82C67.0378 217.786 67.0091 217.749 66.9647 217.715L66.9646 217.715ZM67.0067 217.906C67.4312 219.432 66.7751 220.271 64.0061 222.996C64.5428 220.092 64.8702 219.242 67.0067 217.906V217.906Z" fill="#42655D"/>
<path d="M53.4403 199.797C53.1047 200.312 52.3828 200.839 50.7787 201.619C47.178 202.542 41.1147 203.506 42.2836 205.043C42.2493 205.066 42.2361 205.081 42.2164 205.098C41.5479 205.44 40.9049 205.788 40.305 206.143C40.579 206.231 40.9111 206.308 41.2819 206.365C41.8008 206.027 42.3648 205.694 42.9425 205.364C48.7074 205.049 49.6622 203.138 51.5765 201.833C53.4848 201.11 54.8641 200.737 56.3077 200.494C55.1637 200.645 53.7488 200.916 52.2733 201.256C52.8816 200.706 53.2962 200.194 53.44 199.797L53.4403 199.797Z" fill="#42655D"/>
<path d="M31.8837 196.146C32.9976 196.53 33.9208 197.023 34.9801 197.895C35.2544 199.377 34.2215 201.533 38.791 202.106C38.8306 202.128 38.8614 202.14 38.8937 202.155C39.377 202.528 39.8908 202.898 40.4466 203.26C40.8289 203.239 41.2133 203.195 41.572 203.13C41.0119 202.798 40.4903 202.458 39.9847 202.116C42.492 200.411 38.1919 199.062 35.9803 197.807C35.2403 196.887 35.0864 196.309 35.2991 195.788C35.0244 196.177 34.9011 196.706 34.9165 197.292C33.8711 196.815 32.8096 196.412 31.8837 196.146L31.8837 196.146Z" fill="#42655D"/>
<path d="M29.9538 207.988C31.5035 208.326 32.9261 208.802 34.8 209.69C36.2767 211.325 36.8243 213.823 42.389 214.087C42.451 214.109 42.4951 214.12 42.5431 214.134C43.3783 214.512 44.2451 214.883 45.153 215.242C45.5636 215.187 45.9589 215.106 46.3089 215.004C45.4207 214.679 44.5684 214.341 43.7325 214C45.1909 211.886 39.3146 210.731 35.8491 209.509C34.295 208.541 33.6659 207.906 33.4924 207.306C33.4923 207.764 33.7726 208.367 34.2521 209.02C32.7063 208.573 31.2 208.209 29.954 207.988L29.9538 207.988Z" fill="#42655D"/>
<path d="M66.8492 208.941C66.0408 209.358 64.8912 209.738 62.7335 210.234C58.7316 210.611 52.5908 210.721 52.0265 212.232C51.9736 212.249 51.9471 212.26 51.9128 212.273C50.9969 212.495 50.0963 212.725 49.2254 212.967C49.3687 213.079 49.5739 213.188 49.8313 213.285C50.6161 213.048 51.4345 212.822 52.2612 212.599C57.4895 213.029 60.2418 211.447 63.1962 210.523C65.5549 210.115 67.1075 209.953 68.5826 209.915C67.4558 209.908 65.9757 209.975 64.3746 210.095C65.4504 209.681 66.3232 209.277 66.8491 208.941L66.8492 208.941Z" fill="#42655D"/>
<path d="M50.6685 196.539C48.4674 197.152 46.2925 197.782 44.1529 198.422C44.2336 198.437 44.3241 198.451 44.4084 198.465C46.471 197.815 48.5633 197.175 50.6683 196.539L50.6685 196.539Z" fill="#42655D"/>
<path fill-rule="evenodd" clip-rule="evenodd" d="M74.1002 195.301C60.4944 201.159 48.9303 207.82 47.893 214.981C47.3576 217.151 47.6357 219.297 48.4024 221.425C49.0876 221.463 49.7771 221.497 50.4701 221.525C47.9838 215.543 49.5566 209.333 58.3945 203.706C62.7399 200.77 68.3213 198.009 74.0997 195.301L74.1002 195.301Z" fill="#42655D"/>
<path d="M32.5944 217.346C32.6361 217.387 32.6799 217.423 32.7213 217.462C40.883 218.184 46.8801 221.239 51.5052 224C52.3287 224.15 52.8441 224.928 52.8973 225.42C53.8227 225.692 54.7378 225.97 55.6209 226.259C55.3437 226.434 54.9677 226.602 54.5131 226.747C53.5639 226.409 52.5828 226.085 51.5813 225.763C50.6392 225.796 49.8571 225.567 48.1031 225.302C40.8538 223.095 32.6698 220.316 32.6067 217.474C32.5449 217.461 32.4908 217.449 32.4277 217.435C32.489 217.44 32.5484 217.446 32.6095 217.451C32.6093 217.417 32.5921 217.381 32.5944 217.346L32.5944 217.346ZM32.7856 217.513C34.234 218.864 35.8967 219.475 41.9204 221.368C37.8548 218.996 36.4986 218.327 32.7856 217.513Z" fill="#42655D"/>
<defs>
<filter id="filter0_f" x="252" y="16" width="109" height="104" filterUnits="userSpaceOnUse" color-interpolation-filters="sRGB">
<feFlood flood-opacity="0" result="BackgroundImageFix"/>
<feBlend mode="normal" in="SourceGraphic" in2="BackgroundImageFix" result="shape"/>
<feGaussianBlur stdDeviation="2" result="effect1_foregroundBlur"/>
</filter>
<filter id="filter1_d" x="253.017" y="34.2695" width="87.7657" height="88.0189" filterUnits="userSpaceOnUse" color-interpolation-filters="sRGB">
<feFlood flood-opacity="0" result="BackgroundImageFix"/>
<feColorMatrix in="SourceAlpha" type="matrix" values="0 0 0 0 0 0 0 0 0 0 0 0 0 0 0 0 0 0 127 0"/>
<feOffset dy="2.52941"/>
<feGaussianBlur stdDeviation="8.85294"/>
<feColorMatrix type="matrix" values="0 0 0 0 1 0 0 0 0 1 0 0 0 0 1 0 0 0 0.07 0"/>
<feBlend mode="normal" in2="BackgroundImageFix" result="effect1_dropShadow"/>
<feBlend mode="normal" in="SourceGraphic" in2="effect1_dropShadow" result="shape"/>
</filter>
<filter id="filter2_df" x="137.234" y="58.8096" width="15.3052" height="14.2143" filterUnits="userSpaceOnUse" color-interpolation-filters="sRGB">
<feFlood flood-opacity="0" result="BackgroundImageFix"/>
<feColorMatrix in="SourceAlpha" type="matrix" values="0 0 0 0 0 0 0 0 0 0 0 0 0 0 0 0 0 0 127 0"/>
<feOffset dy="0.666667"/>
<feGaussianBlur stdDeviation="2"/>
<feColorMatrix type="matrix" values="0 0 0 0 1 0 0 0 0 1 0 0 0 0 1 0 0 0 0.25 0"/>
<feBlend mode="normal" in2="BackgroundImageFix" result="effect1_dropShadow"/>
<feBlend mode="normal" in="SourceGraphic" in2="effect1_dropShadow" result="shape"/>
<feGaussianBlur stdDeviation="0.00833335" result="effect2_foregroundBlur"/>
</filter>
<filter id="filter3_df" x="183.5" y="96.0953" width="15.3052" height="14.2143" filterUnits="userSpaceOnUse" color-interpolation-filters="sRGB">
<feFlood flood-opacity="0" result="BackgroundImageFix"/>
<feColorMatrix in="SourceAlpha" type="matrix" values="0 0 0 0 0 0 0 0 0 0 0 0 0 0 0 0 0 0 127 0"/>
<feOffset dy="0.666667"/>
<feGaussianBlur stdDeviation="2"/>
<feColorMatrix type="matrix" values="0 0 0 0 1 0 0 0 0 1 0 0 0 0 1 0 0 0 0.25 0"/>
<feBlend mode="normal" in2="BackgroundImageFix" result="effect1_dropShadow"/>
<feBlend mode="normal" in="SourceGraphic" in2="effect1_dropShadow" result="shape"/>
<feGaussianBlur stdDeviation="0.00833335" result="effect2_foregroundBlur"/>
</filter>
<filter id="filter4_df" x="0.870117" y="108.524" width="15.3052" height="14.2143" filterUnits="userSpaceOnUse" color-interpolation-filters="sRGB">
<feFlood flood-opacity="0" result="BackgroundImageFix"/>
<feColorMatrix in="SourceAlpha" type="matrix" values="0 0 0 0 0 0 0 0 0 0 0 0 0 0 0 0 0 0 127 0"/>
<feOffset dy="0.666667"/>
<feGaussianBlur stdDeviation="2"/>
<feColorMatrix type="matrix" values="0 0 0 0 1 0 0 0 0 1 0 0 0 0 1 0 0 0 0.25 0"/>
<feBlend mode="normal" in2="BackgroundImageFix" result="effect1_dropShadow"/>
<feBlend mode="normal" in="SourceGraphic" in2="effect1_dropShadow" result="shape"/>
<feGaussianBlur stdDeviation="0.075" result="effect2_foregroundBlur"/>
</filter>
<filter id="filter5_df" x="92" y="111.667" width="15.3052" height="14.2143" filterUnits="userSpaceOnUse" color-interpolation-filters="sRGB">
<feFlood flood-opacity="0" result="BackgroundImageFix"/>
<feColorMatrix in="SourceAlpha" type="matrix" values="0 0 0 0 0 0 0 0 0 0 0 0 0 0 0 0 0 0 127 0"/>
<feOffset dy="0.666667"/>
<feGaussianBlur stdDeviation="2"/>
<feColorMatrix type="matrix" values="0 0 0 0 1 0 0 0 0 1 0 0 0 0 1 0 0 0 0.25 0"/>
<feBlend mode="normal" in2="BackgroundImageFix" result="effect1_dropShadow"/>
<feBlend mode="normal" in="SourceGraphic" in2="effect1_dropShadow" result="shape"/>
<feGaussianBlur stdDeviation="0.075" result="effect2_foregroundBlur"/>
</filter>
<filter id="filter6_df" x="141" y="183.667" width="15.3052" height="14.2143" filterUnits="userSpaceOnUse" color-interpolation-filters="sRGB">
<feFlood flood-opacity="0" result="BackgroundImageFix"/>
<feColorMatrix in="SourceAlpha" type="matrix" values="0 0 0 0 0 0 0 0 0 0 0 0 0 0 0 0 0 0 127 0"/>
<feOffset dy="0.666667"/>
<feGaussianBlur stdDeviation="2"/>
<feColorMatrix type="matrix" values="0 0 0 0 1 0 0 0 0 1 0 0 0 0 1 0 0 0 0.25 0"/>
<feBlend mode="normal" in2="BackgroundImageFix" result="effect1_dropShadow"/>
<feBlend mode="normal" in="SourceGraphic" in2="effect1_dropShadow" result="shape"/>
<feGaussianBlur stdDeviation="0.075" result="effect2_foregroundBlur"/>
</filter>
<filter id="filter7_df" x="346" y="120.667" width="15.3052" height="14.2143" filterUnits="userSpaceOnUse" color-interpolation-filters="sRGB">
<feFlood flood-opacity="0" result="BackgroundImageFix"/>
<feColorMatrix in="SourceAlpha" type="matrix" values="0 0 0 0 0 0 0 0 0 0 0 0 0 0 0 0 0 0 127 0"/>
<feOffset dy="0.666667"/>
<feGaussianBlur stdDeviation="2"/>
<feColorMatrix type="matrix" values="0 0 0 0 1 0 0 0 0 1 0 0 0 0 1 0 0 0 0.25 0"/>
<feBlend mode="normal" in2="BackgroundImageFix" result="effect1_dropShadow"/>
<feBlend mode="normal" in="SourceGraphic" in2="effect1_dropShadow" result="shape"/>
<feGaussianBlur stdDeviation="0.075" result="effect2_foregroundBlur"/>
</filter>
<filter id="filter8_df" x="350" y="17.6667" width="15.3052" height="14.2143" filterUnits="userSpaceOnUse" color-interpolation-filters="sRGB">
<feFlood flood-opacity="0" result="BackgroundImageFix"/>
<feColorMatrix in="SourceAlpha" type="matrix" values="0 0 0 0 0 0 0 0 0 0 0 0 0 0 0 0 0 0 127 0"/>
<feOffset dy="0.666667"/>
<feGaussianBlur stdDeviation="2"/>
<feColorMatrix type="matrix" values="0 0 0 0 1 0 0 0 0 1 0 0 0 0 1 0 0 0 0.25 0"/>
<feBlend mode="normal" in2="BackgroundImageFix" result="effect1_dropShadow"/>
<feBlend mode="normal" in="SourceGraphic" in2="effect1_dropShadow" result="shape"/>
<feGaussianBlur stdDeviation="0.075" result="effect2_foregroundBlur"/>
</filter>
<filter id="filter9_df" x="45" y="35.6667" width="15.3052" height="14.2143" filterUnits="userSpaceOnUse" color-interpolation-filters="sRGB">
<feFlood flood-opacity="0" result="BackgroundImageFix"/>
<feColorMatrix in="SourceAlpha" type="matrix" values="0 0 0 0 0 0 0 0 0 0 0 0 0 0 0 0 0 0 127 0"/>
<feOffset dy="0.666667"/>
<feGaussianBlur stdDeviation="2"/>
<feColorMatrix type="matrix" values="0 0 0 0 1 0 0 0 0 1 0 0 0 0 1 0 0 0 0.25 0"/>
<feBlend mode="normal" in2="BackgroundImageFix" result="effect1_dropShadow"/>
<feBlend mode="normal" in="SourceGraphic" in2="effect1_dropShadow" result="shape"/>
<feGaussianBlur stdDeviation="0.075" result="effect2_foregroundBlur"/>
</filter>
<filter id="filter10_df" x="8" y="180.667" width="15.3052" height="14.2143" filterUnits="userSpaceOnUse" color-interpolation-filters="sRGB">
<feFlood flood-opacity="0" result="BackgroundImageFix"/>
<feColorMatrix in="SourceAlpha" type="matrix" values="0 0 0 0 0 0 0 0 0 0 0 0 0 0 0 0 0 0 127 0"/>
<feOffset dy="0.666667"/>
<feGaussianBlur stdDeviation="2"/>
<feColorMatrix type="matrix" values="0 0 0 0 1 0 0 0 0 1 0 0 0 0 1 0 0 0 0.25 0"/>
<feBlend mode="normal" in2="BackgroundImageFix" result="effect1_dropShadow"/>
<feBlend mode="normal" in="SourceGraphic" in2="effect1_dropShadow" result="shape"/>
<feGaussianBlur stdDeviation="0.075" result="effect2_foregroundBlur"/>
</filter>
<filter id="filter11_df" x="206" y="193.667" width="15.3052" height="14.2143" filterUnits="userSpaceOnUse" color-interpolation-filters="sRGB">
<feFlood flood-opacity="0" result="BackgroundImageFix"/>
<feColorMatrix in="SourceAlpha" type="matrix" values="0 0 0 0 0 0 0 0 0 0 0 0 0 0 0 0 0 0 127 0"/>
<feOffset dy="0.666667"/>
<feGaussianBlur stdDeviation="2"/>
<feColorMatrix type="matrix" values="0 0 0 0 1 0 0 0 0 1 0 0 0 0 1 0 0 0 0.25 0"/>
<feBlend mode="normal" in2="BackgroundImageFix" result="effect1_dropShadow"/>
<feBlend mode="normal" in="SourceGraphic" in2="effect1_dropShadow" result="shape"/>
<feGaussianBlur stdDeviation="0.075" result="effect2_foregroundBlur"/>
</filter>
<filter id="filter12_df" x="284.12" y="172.333" width="7.65259" height="6.48572" filterUnits="userSpaceOnUse" color-interpolation-filters="sRGB">
<feFlood flood-opacity="0" result="BackgroundImageFix"/>
<feColorMatrix in="SourceAlpha" type="matrix" values="0 0 0 0 0 0 0 0 0 0 0 0 0 0 0 0 0 0 127 0"/>
<feOffset dy="0.333333"/>
<feGaussianBlur stdDeviation="1"/>
<feColorMatrix type="matrix" values="0 0 0 0 1 0 0 0 0 1 0 0 0 0 1 0 0 0 0.25 0"/>
<feBlend mode="normal" in2="BackgroundImageFix" result="effect1_dropShadow"/>
<feBlend mode="normal" in="SourceGraphic" in2="effect1_dropShadow" result="shape"/>
<feGaussianBlur stdDeviation="0.00416667" result="effect2_foregroundBlur"/>
</filter>
<filter id="filter13_df" x="46.7013" y="253.119" width="7.6526" height="6.48572" filterUnits="userSpaceOnUse" color-interpolation-filters="sRGB">
<feFlood flood-opacity="0" result="BackgroundImageFix"/>
<feColorMatrix in="SourceAlpha" type="matrix" values="0 0 0 0 0 0 0 0 0 0 0 0 0 0 0 0 0 0 127 0"/>
<feOffset dy="0.333333"/>
<feGaussianBlur stdDeviation="1"/>
<feColorMatrix type="matrix" values="0 0 0 0 1 0 0 0 0 1 0 0 0 0 1 0 0 0 0.25 0"/>
<feBlend mode="normal" in2="BackgroundImageFix" result="effect1_dropShadow"/>
<feBlend mode="normal" in="SourceGraphic" in2="effect1_dropShadow" result="shape"/>
<feGaussianBlur stdDeviation="0.00416667" result="effect2_foregroundBlur"/>
</filter>
<filter id="filter14_df" x="334.039" y="164.876" width="7.65262" height="6.48572" filterUnits="userSpaceOnUse" color-interpolation-filters="sRGB">
<feFlood flood-opacity="0" result="BackgroundImageFix"/>
<feColorMatrix in="SourceAlpha" type="matrix" values="0 0 0 0 0 0 0 0 0 0 0 0 0 0 0 0 0 0 127 0"/>
<feOffset dy="0.333333"/>
<feGaussianBlur stdDeviation="1"/>
<feColorMatrix type="matrix" values="0 0 0 0 1 0 0 0 0 1 0 0 0 0 1 0 0 0 0.25 0"/>
<feBlend mode="normal" in2="BackgroundImageFix" result="effect1_dropShadow"/>
<feBlend mode="normal" in="SourceGraphic" in2="effect1_dropShadow" result="shape"/>
<feGaussianBlur stdDeviation="0.00416667" result="effect2_foregroundBlur"/>
</filter>
<filter id="filter15_df" x="96.6201" y="245.662" width="7.6526" height="7.72858" filterUnits="userSpaceOnUse" color-interpolation-filters="sRGB">
<feFlood flood-opacity="0" result="BackgroundImageFix"/>
<feColorMatrix in="SourceAlpha" type="matrix" values="0 0 0 0 0 0 0 0 0 0 0 0 0 0 0 0 0 0 127 0"/>
<feOffset dy="0.333333"/>
<feGaussianBlur stdDeviation="1"/>
<feColorMatrix type="matrix" values="0 0 0 0 1 0 0 0 0 1 0 0 0 0 1 0 0 0 0.25 0"/>
<feBlend mode="normal" in2="BackgroundImageFix" result="effect1_dropShadow"/>
<feBlend mode="normal" in="SourceGraphic" in2="effect1_dropShadow" result="shape"/>
<feGaussianBlur stdDeviation="0.00416667" result="effect2_foregroundBlur"/>
</filter>
<filter id="filter16_df" x="231.766" y="33.1333" width="7.6526" height="7.72857" filterUnits="userSpaceOnUse" color-interpolation-filters="sRGB">
<feFlood flood-opacity="0" result="BackgroundImageFix"/>
<feColorMatrix in="SourceAlpha" type="matrix" values="0 0 0 0 0 0 0 0 0 0 0 0 0 0 0 0 0 0 127 0"/>
<feOffset dy="0.333333"/>
<feGaussianBlur stdDeviation="1"/>
<feColorMatrix type="matrix" values="0 0 0 0 1 0 0 0 0 1 0 0 0 0 1 0 0 0 0.25 0"/>
<feBlend mode="normal" in2="BackgroundImageFix" result="effect1_dropShadow"/>
<feBlend mode="normal" in="SourceGraphic" in2="effect1_dropShadow" result="shape"/>
<feGaussianBlur stdDeviation="0.00416667" result="effect2_foregroundBlur"/>
</filter>
</defs>
</svg>
