<svg width="375" height="261" viewBox="0 0 375 261" fill="none" xmlns="http://www.w3.org/2000/svg">
<g filter="url(#filter0_f)">
<ellipse cx="306.5" cy="68" rx="50.5" ry="48" fill="white" fill-opacity="0.2"/>
</g>
<g filter="url(#filter1_d)">
<path d="M296.9 102.053C311.357 102.053 323.077 90.2766 323.077 75.7496C323.077 61.2225 311.357 49.446 296.9 49.446C282.443 49.446 270.723 61.2225 270.723 75.7496C270.723 90.2766 282.443 102.053 296.9 102.053Z" fill="white" fill-opacity="0.04"/>
</g>
<path d="M294.599 90.2654C300.432 93.0506 307.127 93.3934 313.211 91.2181C319.296 89.043 324.271 84.5281 327.044 78.6668C329.816 72.8054 330.157 66.0777 327.992 59.9636C325.827 53.8496 321.333 48.8501 315.5 46.0649C309.668 43.2796 302.972 42.937 296.888 45.1121C290.803 47.2872 285.828 51.8022 283.055 57.6635C280.284 63.5248 279.943 70.2525 282.108 76.3666C284.273 82.4806 288.766 87.4802 294.599 90.2654Z" fill="#D6D6D6"/>
<path d="M294.6 90.2653C301.795 93.701 309.814 93.2538 316.366 89.8005C311.379 90.8193 306.04 90.3096 301.089 87.9457C288.943 82.1461 283.775 67.5486 289.546 55.3438C291.898 50.369 295.718 46.585 300.225 44.21C292.974 45.6908 286.476 50.4334 283.056 57.6635C277.285 69.8683 282.454 84.4658 294.6 90.2653Z" fill="#FFFEFE"/>
<path d="M316.597 73.6785C317.326 74.0267 318.164 74.0694 318.924 73.7976C319.685 73.5257 320.307 72.9613 320.653 72.2286C321 71.496 321.042 70.655 320.772 69.8908C320.502 69.1264 319.939 68.5015 319.21 68.1534C318.482 67.8053 317.644 67.7624 316.883 68.0343C316.123 68.3062 315.501 68.8705 315.154 69.6032C314.808 70.3359 314.766 71.1769 315.036 71.9411C315.306 72.7054 315.869 73.3303 316.597 73.6785ZM293.917 56.0766C294.646 56.4247 295.484 56.4674 296.244 56.1956C297.004 55.9237 297.627 55.3593 297.974 54.6267C298.319 53.894 298.362 53.0531 298.092 52.2888C297.821 51.5245 297.259 50.8996 296.53 50.5515C295.802 50.2033 294.964 50.1604 294.204 50.4324C293.443 50.7042 292.821 51.2686 292.474 52.0012C292.128 52.7339 292.086 53.575 292.356 54.3392C292.626 55.1034 293.189 55.7283 293.917 56.0766ZM301.557 84.1055C302.723 84.6625 304.062 84.7311 305.279 84.2961C306.496 83.861 307.491 82.9581 308.045 81.7858C308.6 80.6135 308.668 79.268 308.235 78.0452C307.803 76.8223 306.904 75.8225 305.737 75.2654C304.57 74.7084 303.231 74.6399 302.015 75.0749C300.797 75.5099 299.802 76.4128 299.248 77.5852C298.693 78.7575 298.625 80.103 299.058 81.3257C299.492 82.5486 300.39 83.5484 301.557 84.1055ZM309.312 63.4277C310.334 63.915 311.505 63.975 312.571 63.5944C313.635 63.2138 314.506 62.4236 314.991 61.3979C315.476 60.3721 315.535 59.1948 315.157 58.1249C314.778 57.0549 313.991 56.18 312.971 55.6925C311.95 55.2052 310.778 55.1452 309.714 55.5259C308.649 55.9065 307.778 56.6966 307.293 57.7224C306.808 58.7481 306.748 59.9255 307.127 60.9954C307.506 62.0653 308.292 62.9402 309.312 63.4277Z" fill="#AFB1B4"/>
<path d="M303.826 75.0303C305.952 76.0453 306.857 78.5997 305.846 80.7356C304.836 82.8716 302.295 83.7804 300.169 82.7655C299.984 82.6772 299.822 82.5645 299.655 82.454C300.125 83.1389 300.754 83.7228 301.557 84.1055C303.986 85.2655 306.891 84.2268 308.045 81.7858C309.201 79.3449 308.167 76.4254 305.737 75.2654C304.935 74.8826 304.087 74.7607 303.261 74.8272C303.453 74.8869 303.641 74.9422 303.826 75.0303ZM295.774 53.5766C295.239 54.7081 294.099 55.3549 292.928 55.3183C293.196 55.6275 293.526 55.8897 293.917 56.0766C295.436 56.8017 297.252 56.1528 297.974 54.6267C298.694 53.1007 298.049 51.2766 296.53 50.5515C296.139 50.3645 295.727 50.2727 295.321 50.2595C296.088 51.1503 296.309 52.445 295.774 53.5766ZM318.454 71.1785C317.919 72.31 316.78 72.9568 315.608 72.9203C315.876 73.2295 316.206 73.4915 316.597 73.6786C318.116 74.4036 319.932 73.7547 320.653 72.2286C321.375 70.7027 320.729 68.8785 319.21 68.1534C318.819 67.9665 318.407 67.8747 318.001 67.8615C318.768 68.7522 318.989 70.0469 318.454 71.1785ZM312.791 60.3478C311.964 62.097 310.111 63.0012 308.298 62.7236C308.598 62.9967 308.928 63.2439 309.313 63.4277C311.438 64.4426 313.981 63.5339 314.991 61.3979C316.002 59.2619 315.097 56.7076 312.971 55.6925C312.586 55.5089 312.187 55.4074 311.787 55.3465C313.145 56.5833 313.619 58.5985 312.791 60.3478Z" fill="#929293"/>
<g filter="url(#filter2_df)">
<path d="M144.886 62.1429L145.873 64.4108L148.539 65.25L145.873 66.0892L144.886 68.3572L143.9 66.0892L141.234 65.25L143.9 64.4108L144.886 62.1429Z" fill="white"/>
</g>
<g filter="url(#filter3_df)">
<path d="M191.153 99.4286L192.139 101.697L194.805 102.536L192.139 103.375L191.153 105.643L190.166 103.375L187.5 102.536L190.166 101.697L191.153 99.4286Z" fill="white"/>
</g>
<g filter="url(#filter4_df)">
<path d="M8.52271 111.857L9.50924 114.125L12.1753 114.964L9.50924 115.803L8.52271 118.071L7.53618 115.803L4.87012 114.964L7.53618 114.125L8.52271 111.857Z" fill="white"/>
</g>
<g filter="url(#filter5_df)">
<path d="M99.6526 115L100.639 117.268L103.305 118.107L100.639 118.946L99.6526 121.214L98.6661 118.946L96 118.107L98.6661 117.268L99.6526 115Z" fill="white"/>
</g>
<g filter="url(#filter6_df)">
<path d="M148.653 187L149.639 189.268L152.305 190.107L149.639 190.946L148.653 193.214L147.666 190.946L145 190.107L147.666 189.268L148.653 187Z" fill="white"/>
</g>
<g filter="url(#filter7_df)">
<path d="M353.653 124L354.639 126.268L357.305 127.107L354.639 127.946L353.653 130.214L352.666 127.946L350 127.107L352.666 126.268L353.653 124Z" fill="white"/>
</g>
<g filter="url(#filter8_df)">
<path d="M357.653 21L358.639 23.268L361.305 24.1071L358.639 24.9463L357.653 27.2143L356.666 24.9463L354 24.1071L356.666 23.268L357.653 21Z" fill="white"/>
</g>
<g filter="url(#filter9_df)">
<path d="M52.6526 39L53.6391 41.268L56.3052 42.1071L53.6391 42.9463L52.6526 45.2143L51.6661 42.9463L49 42.1071L51.6661 41.268L52.6526 39Z" fill="white"/>
</g>
<g filter="url(#filter10_df)">
<path d="M15.6526 184L16.6391 186.268L19.3052 187.107L16.6391 187.946L15.6526 190.214L14.6661 187.946L12 187.107L14.6661 186.268L15.6526 184Z" fill="white"/>
</g>
<g filter="url(#filter11_df)">
<path d="M213.653 197L214.639 199.268L217.305 200.107L214.639 200.946L213.653 203.214L212.666 200.946L210 200.107L212.666 199.268L213.653 197Z" fill="white"/>
</g>
<g filter="url(#filter12_df)">
<path d="M287.946 174L288.44 174.907L289.773 175.243L288.44 175.578L287.946 176.486L287.453 175.578L286.12 175.243L287.453 174.907L287.946 174Z" fill="white"/>
</g>
<g filter="url(#filter13_df)">
<path d="M50.5276 254.786L51.0208 255.693L52.3539 256.029L51.0208 256.364L50.5276 257.271L50.0344 256.364L48.7013 256.029L50.0344 255.693L50.5276 254.786Z" fill="white"/>
</g>
<g filter="url(#filter14_df)">
<path d="M337.865 166.543L338.358 167.45L339.692 167.786L338.358 168.121L337.865 169.029L337.372 168.121L336.039 167.786L337.372 167.45L337.865 166.543Z" fill="white"/>
</g>
<g filter="url(#filter15_df)">
<path d="M100.446 247.329L100.94 248.689L102.273 249.193L100.94 249.696L100.446 251.057L99.9532 249.696L98.6201 249.193L99.9532 248.689L100.446 247.329Z" fill="white"/>
</g>
<g filter="url(#filter16_df)">
<path d="M235.593 34.8L236.086 36.1608L237.419 36.6643L236.086 37.1678L235.593 38.5286L235.099 37.1678L233.766 36.6643L235.099 36.1608L235.593 34.8Z" fill="white"/>
</g>
<defs>
<filter id="filter0_f" x="252" y="16" width="109" height="104" filterUnits="userSpaceOnUse" color-interpolation-filters="sRGB">
<feFlood flood-opacity="0" result="BackgroundImageFix"/>
<feBlend mode="normal" in="SourceGraphic" in2="BackgroundImageFix" result="shape"/>
<feGaussianBlur stdDeviation="2" result="effect1_foregroundBlur"/>
</filter>
<filter id="filter1_d" x="253.017" y="34.2695" width="87.7657" height="88.0189" filterUnits="userSpaceOnUse" color-interpolation-filters="sRGB">
<feFlood flood-opacity="0" result="BackgroundImageFix"/>
<feColorMatrix in="SourceAlpha" type="matrix" values="0 0 0 0 0 0 0 0 0 0 0 0 0 0 0 0 0 0 127 0"/>
<feOffset dy="2.52941"/>
<feGaussianBlur stdDeviation="8.85294"/>
<feColorMatrix type="matrix" values="0 0 0 0 1 0 0 0 0 1 0 0 0 0 1 0 0 0 0.07 0"/>
<feBlend mode="normal" in2="BackgroundImageFix" result="effect1_dropShadow"/>
<feBlend mode="normal" in="SourceGraphic" in2="effect1_dropShadow" result="shape"/>
</filter>
<filter id="filter2_df" x="137.234" y="58.8096" width="15.3052" height="14.2143" filterUnits="userSpaceOnUse" color-interpolation-filters="sRGB">
<feFlood flood-opacity="0" result="BackgroundImageFix"/>
<feColorMatrix in="SourceAlpha" type="matrix" values="0 0 0 0 0 0 0 0 0 0 0 0 0 0 0 0 0 0 127 0"/>
<feOffset dy="0.666667"/>
<feGaussianBlur stdDeviation="2"/>
<feColorMatrix type="matrix" values="0 0 0 0 1 0 0 0 0 1 0 0 0 0 1 0 0 0 0.25 0"/>
<feBlend mode="normal" in2="BackgroundImageFix" result="effect1_dropShadow"/>
<feBlend mode="normal" in="SourceGraphic" in2="effect1_dropShadow" result="shape"/>
<feGaussianBlur stdDeviation="0.00833335" result="effect2_foregroundBlur"/>
</filter>
<filter id="filter3_df" x="183.5" y="96.0953" width="15.3052" height="14.2143" filterUnits="userSpaceOnUse" color-interpolation-filters="sRGB">
<feFlood flood-opacity="0" result="BackgroundImageFix"/>
<feColorMatrix in="SourceAlpha" type="matrix" values="0 0 0 0 0 0 0 0 0 0 0 0 0 0 0 0 0 0 127 0"/>
<feOffset dy="0.666667"/>
<feGaussianBlur stdDeviation="2"/>
<feColorMatrix type="matrix" values="0 0 0 0 1 0 0 0 0 1 0 0 0 0 1 0 0 0 0.25 0"/>
<feBlend mode="normal" in2="BackgroundImageFix" result="effect1_dropShadow"/>
<feBlend mode="normal" in="SourceGraphic" in2="effect1_dropShadow" result="shape"/>
<feGaussianBlur stdDeviation="0.00833335" result="effect2_foregroundBlur"/>
</filter>
<filter id="filter4_df" x="0.870117" y="108.524" width="15.3052" height="14.2143" filterUnits="userSpaceOnUse" color-interpolation-filters="sRGB">
<feFlood flood-opacity="0" result="BackgroundImageFix"/>
<feColorMatrix in="SourceAlpha" type="matrix" values="0 0 0 0 0 0 0 0 0 0 0 0 0 0 0 0 0 0 127 0"/>
<feOffset dy="0.666667"/>
<feGaussianBlur stdDeviation="2"/>
<feColorMatrix type="matrix" values="0 0 0 0 1 0 0 0 0 1 0 0 0 0 1 0 0 0 0.25 0"/>
<feBlend mode="normal" in2="BackgroundImageFix" result="effect1_dropShadow"/>
<feBlend mode="normal" in="SourceGraphic" in2="effect1_dropShadow" result="shape"/>
<feGaussianBlur stdDeviation="0.075" result="effect2_foregroundBlur"/>
</filter>
<filter id="filter5_df" x="92" y="111.667" width="15.3052" height="14.2143" filterUnits="userSpaceOnUse" color-interpolation-filters="sRGB">
<feFlood flood-opacity="0" result="BackgroundImageFix"/>
<feColorMatrix in="SourceAlpha" type="matrix" values="0 0 0 0 0 0 0 0 0 0 0 0 0 0 0 0 0 0 127 0"/>
<feOffset dy="0.666667"/>
<feGaussianBlur stdDeviation="2"/>
<feColorMatrix type="matrix" values="0 0 0 0 1 0 0 0 0 1 0 0 0 0 1 0 0 0 0.25 0"/>
<feBlend mode="normal" in2="BackgroundImageFix" result="effect1_dropShadow"/>
<feBlend mode="normal" in="SourceGraphic" in2="effect1_dropShadow" result="shape"/>
<feGaussianBlur stdDeviation="0.075" result="effect2_foregroundBlur"/>
</filter>
<filter id="filter6_df" x="141" y="183.667" width="15.3052" height="14.2143" filterUnits="userSpaceOnUse" color-interpolation-filters="sRGB">
<feFlood flood-opacity="0" result="BackgroundImageFix"/>
<feColorMatrix in="SourceAlpha" type="matrix" values="0 0 0 0 0 0 0 0 0 0 0 0 0 0 0 0 0 0 127 0"/>
<feOffset dy="0.666667"/>
<feGaussianBlur stdDeviation="2"/>
<feColorMatrix type="matrix" values="0 0 0 0 1 0 0 0 0 1 0 0 0 0 1 0 0 0 0.25 0"/>
<feBlend mode="normal" in2="BackgroundImageFix" result="effect1_dropShadow"/>
<feBlend mode="normal" in="SourceGraphic" in2="effect1_dropShadow" result="shape"/>
<feGaussianBlur stdDeviation="0.075" result="effect2_foregroundBlur"/>
</filter>
<filter id="filter7_df" x="346" y="120.667" width="15.3052" height="14.2143" filterUnits="userSpaceOnUse" color-interpolation-filters="sRGB">
<feFlood flood-opacity="0" result="BackgroundImageFix"/>
<feColorMatrix in="SourceAlpha" type="matrix" values="0 0 0 0 0 0 0 0 0 0 0 0 0 0 0 0 0 0 127 0"/>
<feOffset dy="0.666667"/>
<feGaussianBlur stdDeviation="2"/>
<feColorMatrix type="matrix" values="0 0 0 0 1 0 0 0 0 1 0 0 0 0 1 0 0 0 0.25 0"/>
<feBlend mode="normal" in2="BackgroundImageFix" result="effect1_dropShadow"/>
<feBlend mode="normal" in="SourceGraphic" in2="effect1_dropShadow" result="shape"/>
<feGaussianBlur stdDeviation="0.075" result="effect2_foregroundBlur"/>
</filter>
<filter id="filter8_df" x="350" y="17.6667" width="15.3052" height="14.2143" filterUnits="userSpaceOnUse" color-interpolation-filters="sRGB">
<feFlood flood-opacity="0" result="BackgroundImageFix"/>
<feColorMatrix in="SourceAlpha" type="matrix" values="0 0 0 0 0 0 0 0 0 0 0 0 0 0 0 0 0 0 127 0"/>
<feOffset dy="0.666667"/>
<feGaussianBlur stdDeviation="2"/>
<feColorMatrix type="matrix" values="0 0 0 0 1 0 0 0 0 1 0 0 0 0 1 0 0 0 0.25 0"/>
<feBlend mode="normal" in2="BackgroundImageFix" result="effect1_dropShadow"/>
<feBlend mode="normal" in="SourceGraphic" in2="effect1_dropShadow" result="shape"/>
<feGaussianBlur stdDeviation="0.075" result="effect2_foregroundBlur"/>
</filter>
<filter id="filter9_df" x="45" y="35.6667" width="15.3052" height="14.2143" filterUnits="userSpaceOnUse" color-interpolation-filters="sRGB">
<feFlood flood-opacity="0" result="BackgroundImageFix"/>
<feColorMatrix in="SourceAlpha" type="matrix" values="0 0 0 0 0 0 0 0 0 0 0 0 0 0 0 0 0 0 127 0"/>
<feOffset dy="0.666667"/>
<feGaussianBlur stdDeviation="2"/>
<feColorMatrix type="matrix" values="0 0 0 0 1 0 0 0 0 1 0 0 0 0 1 0 0 0 0.25 0"/>
<feBlend mode="normal" in2="BackgroundImageFix" result="effect1_dropShadow"/>
<feBlend mode="normal" in="SourceGraphic" in2="effect1_dropShadow" result="shape"/>
<feGaussianBlur stdDeviation="0.075" result="effect2_foregroundBlur"/>
</filter>
<filter id="filter10_df" x="8" y="180.667" width="15.3052" height="14.2143" filterUnits="userSpaceOnUse" color-interpolation-filters="sRGB">
<feFlood flood-opacity="0" result="BackgroundImageFix"/>
<feColorMatrix in="SourceAlpha" type="matrix" values="0 0 0 0 0 0 0 0 0 0 0 0 0 0 0 0 0 0 127 0"/>
<feOffset dy="0.666667"/>
<feGaussianBlur stdDeviation="2"/>
<feColorMatrix type="matrix" values="0 0 0 0 1 0 0 0 0 1 0 0 0 0 1 0 0 0 0.25 0"/>
<feBlend mode="normal" in2="BackgroundImageFix" result="effect1_dropShadow"/>
<feBlend mode="normal" in="SourceGraphic" in2="effect1_dropShadow" result="shape"/>
<feGaussianBlur stdDeviation="0.075" result="effect2_foregroundBlur"/>
</filter>
<filter id="filter11_df" x="206" y="193.667" width="15.3052" height="14.2143" filterUnits="userSpaceOnUse" color-interpolation-filters="sRGB">
<feFlood flood-opacity="0" result="BackgroundImageFix"/>
<feColorMatrix in="SourceAlpha" type="matrix" values="0 0 0 0 0 0 0 0 0 0 0 0 0 0 0 0 0 0 127 0"/>
<feOffset dy="0.666667"/>
<feGaussianBlur stdDeviation="2"/>
<feColorMatrix type="matrix" values="0 0 0 0 1 0 0 0 0 1 0 0 0 0 1 0 0 0 0.25 0"/>
<feBlend mode="normal" in2="BackgroundImageFix" result="effect1_dropShadow"/>
<feBlend mode="normal" in="SourceGraphic" in2="effect1_dropShadow" result="shape"/>
<feGaussianBlur stdDeviation="0.075" result="effect2_foregroundBlur"/>
</filter>
<filter id="filter12_df" x="284.12" y="172.333" width="7.65259" height="6.48572" filterUnits="userSpaceOnUse" color-interpolation-filters="sRGB">
<feFlood flood-opacity="0" result="BackgroundImageFix"/>
<feColorMatrix in="SourceAlpha" type="matrix" values="0 0 0 0 0 0 0 0 0 0 0 0 0 0 0 0 0 0 127 0"/>
<feOffset dy="0.333333"/>
<feGaussianBlur stdDeviation="1"/>
<feColorMatrix type="matrix" values="0 0 0 0 1 0 0 0 0 1 0 0 0 0 1 0 0 0 0.25 0"/>
<feBlend mode="normal" in2="BackgroundImageFix" result="effect1_dropShadow"/>
<feBlend mode="normal" in="SourceGraphic" in2="effect1_dropShadow" result="shape"/>
<feGaussianBlur stdDeviation="0.00416667" result="effect2_foregroundBlur"/>
</filter>
<filter id="filter13_df" x="46.7013" y="253.119" width="7.6526" height="6.48572" filterUnits="userSpaceOnUse" color-interpolation-filters="sRGB">
<feFlood flood-opacity="0" result="BackgroundImageFix"/>
<feColorMatrix in="SourceAlpha" type="matrix" values="0 0 0 0 0 0 0 0 0 0 0 0 0 0 0 0 0 0 127 0"/>
<feOffset dy="0.333333"/>
<feGaussianBlur stdDeviation="1"/>
<feColorMatrix type="matrix" values="0 0 0 0 1 0 0 0 0 1 0 0 0 0 1 0 0 0 0.25 0"/>
<feBlend mode="normal" in2="BackgroundImageFix" result="effect1_dropShadow"/>
<feBlend mode="normal" in="SourceGraphic" in2="effect1_dropShadow" result="shape"/>
<feGaussianBlur stdDeviation="0.00416667" result="effect2_foregroundBlur"/>
</filter>
<filter id="filter14_df" x="334.039" y="164.876" width="7.65262" height="6.48572" filterUnits="userSpaceOnUse" color-interpolation-filters="sRGB">
<feFlood flood-opacity="0" result="BackgroundImageFix"/>
<feColorMatrix in="SourceAlpha" type="matrix" values="0 0 0 0 0 0 0 0 0 0 0 0 0 0 0 0 0 0 127 0"/>
<feOffset dy="0.333333"/>
<feGaussianBlur stdDeviation="1"/>
<feColorMatrix type="matrix" values="0 0 0 0 1 0 0 0 0 1 0 0 0 0 1 0 0 0 0.25 0"/>
<feBlend mode="normal" in2="BackgroundImageFix" result="effect1_dropShadow"/>
<feBlend mode="normal" in="SourceGraphic" in2="effect1_dropShadow" result="shape"/>
<feGaussianBlur stdDeviation="0.00416667" result="effect2_foregroundBlur"/>
</filter>
<filter id="filter15_df" x="96.6201" y="245.662" width="7.6526" height="7.72858" filterUnits="userSpaceOnUse" color-interpolation-filters="sRGB">
<feFlood flood-opacity="0" result="BackgroundImageFix"/>
<feColorMatrix in="SourceAlpha" type="matrix" values="0 0 0 0 0 0 0 0 0 0 0 0 0 0 0 0 0 0 127 0"/>
<feOffset dy="0.333333"/>
<feGaussianBlur stdDeviation="1"/>
<feColorMatrix type="matrix" values="0 0 0 0 1 0 0 0 0 1 0 0 0 0 1 0 0 0 0.25 0"/>
<feBlend mode="normal" in2="BackgroundImageFix" result="effect1_dropShadow"/>
<feBlend mode="normal" in="SourceGraphic" in2="effect1_dropShadow" result="shape"/>
<feGaussianBlur stdDeviation="0.00416667" result="effect2_foregroundBlur"/>
</filter>
<filter id="filter16_df" x="231.766" y="33.1333" width="7.6526" height="7.72857" filterUnits="userSpaceOnUse" color-interpolation-filters="sRGB">
<feFlood flood-opacity="0" result="BackgroundImageFix"/>
<feColorMatrix in="SourceAlpha" type="matrix" values="0 0 0 0 0 0 0 0 0 0 0 0 0 0 0 0 0 0 127 0"/>
<feOffset dy="0.333333"/>
<feGaussianBlur stdDeviation="1"/>
<feColorMatrix type="matrix" values="0 0 0 0 1 0 0 0 0 1 0 0 0 0 1 0 0 0 0.25 0"/>
<feBlend mode="normal" in2="BackgroundImageFix" result="effect1_dropShadow"/>
<feBlend mode="normal" in="SourceGraphic" in2="effect1_dropShadow" result="shape"/>
<feGaussianBlur stdDeviation="0.00416667" result="effect2_foregroundBlur"/>
</filter>
</defs>
</svg>
