<svg width="323" height="226" viewBox="0 0 323 226" fill="none" xmlns="http://www.w3.org/2000/svg">
<g filter="url(#filter0_df)">
<path d="M119 66L119.81 67.8248L122 68.5L119.81 69.1752L119 71L118.19 69.1752L116 68.5L118.19 67.8248L119 66Z" fill="white"/>
</g>
<g filter="url(#filter1_df)">
<path d="M119 96L119.81 97.8248L122 98.5L119.81 99.1752L119 101L118.19 99.1752L116 98.5L118.19 97.8248L119 96Z" fill="white"/>
</g>
<g filter="url(#filter2_df)">
<path d="M172 163L172.81 164.825L175 165.5L172.81 166.175L172 168L171.19 166.175L169 165.5L171.19 164.825L172 163Z" fill="white"/>
</g>
<g filter="url(#filter3_df)">
<path d="M166 93L166.81 94.8248L169 95.5L166.81 96.1752L166 98L165.19 96.1752L163 95.5L165.19 94.8248L166 93Z" fill="white"/>
</g>
<g filter="url(#filter4_df)">
<path d="M38 61L38.8103 62.8248L41 63.5L38.8103 64.1752L38 66L37.1897 64.1752L35 63.5L37.1897 62.8248L38 61Z" fill="white"/>
</g>
<g filter="url(#filter5_df)">
<path d="M87 158L87.8103 159.825L90 160.5L87.8103 161.175L87 163L86.1897 161.175L84 160.5L86.1897 159.825L87 158Z" fill="white"/>
</g>
<g filter="url(#filter6_df)">
<path d="M7 106L7.81027 107.825L10 108.5L7.81027 109.175L7 111L6.18973 109.175L4 108.5L6.18973 107.825L7 106Z" fill="white"/>
</g>
<g filter="url(#filter7_df)">
<path d="M236.5 156L236.905 156.73L238 157L236.905 157.27L236.5 158L236.095 157.27L235 157L236.095 156.73L236.5 156Z" fill="white"/>
</g>
<g filter="url(#filter8_df)">
<path d="M41.5 221L41.9051 221.73L43 222L41.9051 222.27L41.5 223L41.0949 222.27L40 222L41.0949 221.73L41.5 221Z" fill="white"/>
</g>
<g filter="url(#filter9_df)">
<path d="M277.5 150L277.905 150.73L279 151L277.905 151.27L277.5 152L277.095 151.27L276 151L277.095 150.73L277.5 150Z" fill="white"/>
</g>
<g filter="url(#filter10_df)">
<path d="M82.5 215L82.9051 216.095L84 216.5L82.9051 216.905L82.5 218L82.0949 216.905L81 216.5L82.0949 216.095L82.5 215Z" fill="white"/>
</g>
<g filter="url(#filter11_df)">
<path d="M193.5 44L193.905 45.0949L195 45.5L193.905 45.9051L193.5 47L193.095 45.9051L192 45.5L193.095 45.0949L193.5 44Z" fill="white"/>
</g>
<g filter="url(#filter12_d)">
<ellipse cx="263.5" cy="60.1638" rx="20.5" ry="20.1638" fill="white" fill-opacity="0.1"/>
</g>
<g clip-path="url(#clip0)">
<path d="M251.394 79.2595C256.185 81.5005 261.684 81.7762 266.681 80.0261C271.679 78.276 275.765 74.6433 278.042 69.9273C280.319 65.2112 280.599 59.7981 278.821 54.8788C277.043 49.9595 273.352 45.9368 268.562 43.6959C263.771 41.4549 258.271 41.1791 253.274 42.9293C248.277 44.6794 244.19 48.312 241.913 53.0281C239.637 57.7441 239.357 63.1572 241.135 68.0766C242.913 72.9959 246.603 77.0185 251.394 79.2595V79.2595Z" fill="#D6D6D6"/>
<path d="M251.394 79.2595C257.304 82.0238 263.89 81.664 269.271 78.8855C265.175 79.7052 260.79 79.2951 256.724 77.3931C246.748 72.7268 242.503 60.9817 247.243 51.1617C249.175 47.159 252.312 44.1144 256.014 42.2035C250.059 43.3949 244.722 47.2108 241.913 53.0281C237.173 62.8481 241.418 74.5932 251.394 79.2595Z" fill="#FFFEFE"/>
<path d="M269.461 65.9138C270.06 66.1939 270.748 66.2284 271.372 66.0096C271.997 65.7909 272.508 65.3368 272.792 64.7473C273.077 64.1578 273.112 63.4811 272.89 62.8662C272.668 62.2513 272.206 61.7485 271.607 61.4684C271.009 61.1882 270.321 61.1538 269.696 61.3725C269.072 61.5913 268.561 62.0454 268.276 62.6349C267.992 63.2244 267.957 63.901 268.179 64.5159C268.401 65.1309 268.863 65.6337 269.461 65.9138V65.9138ZM250.833 51.7513C251.432 52.0314 252.12 52.0659 252.744 51.8471C253.369 51.6284 253.88 51.1743 254.165 50.5848C254.449 49.9953 254.484 49.3186 254.262 48.7037C254.04 48.0888 253.578 47.586 252.979 47.3059C252.381 47.0257 251.693 46.9913 251.069 47.21C250.444 47.4288 249.933 47.8829 249.648 48.4724C249.364 49.0619 249.329 49.7385 249.551 50.3534C249.773 50.9684 250.235 51.4712 250.833 51.7513V51.7513ZM257.108 74.3034C258.066 74.7516 259.166 74.8067 260.165 74.4567C261.165 74.1067 261.982 73.3802 262.437 72.437C262.893 71.4937 262.949 70.4111 262.593 69.4273C262.238 68.4434 261.5 67.6389 260.541 67.1907C259.583 66.7425 258.483 66.6873 257.484 67.0374C256.484 67.3874 255.667 68.1139 255.212 69.0571C254.756 70.0003 254.7 71.0829 255.056 72.0668C255.412 73.0507 256.15 73.8552 257.108 74.3034V74.3034ZM263.478 57.666C264.317 58.0582 265.279 58.1065 266.154 57.8002C267.028 57.4939 267.743 56.8582 268.142 56.0329C268.54 55.2076 268.589 54.2603 268.278 53.3994C267.967 52.5385 267.321 51.8346 266.483 51.4424C265.644 51.0502 264.682 51.002 263.808 51.3082C262.933 51.6145 262.218 52.2502 261.819 53.0755C261.421 53.9008 261.372 54.8481 261.683 55.709C261.994 56.5699 262.64 57.2739 263.478 57.666Z" fill="#AFB1B4"/>
<path d="M258.972 67.0015C260.718 67.8181 261.461 69.8734 260.631 71.592C259.801 73.3106 257.714 74.0418 255.968 73.2251C255.816 73.1542 255.683 73.0634 255.546 72.9746C255.932 73.5257 256.449 73.9954 257.108 74.3034C259.103 75.2367 261.489 74.401 262.437 72.437C263.386 70.473 262.537 68.1239 260.541 67.1907C259.883 66.8827 259.186 66.7846 258.508 66.838C258.665 66.886 258.82 66.9305 258.972 67.0015ZM252.358 49.7398C251.919 50.6503 250.983 51.1707 250.021 51.1412C250.241 51.3901 250.512 51.6009 250.833 51.7513C252.081 52.3348 253.572 51.8126 254.165 50.5848C254.757 49.357 254.227 47.8893 252.979 47.3059C252.658 47.1555 252.32 47.0815 251.986 47.071C252.616 47.7877 252.798 48.8294 252.358 49.7398ZM270.986 63.9023C270.547 64.8128 269.611 65.3332 268.649 65.3037C268.869 65.5526 269.14 65.7634 269.461 65.9138C270.709 66.4973 272.2 65.9751 272.792 64.7473C273.385 63.5194 272.855 62.0518 271.607 61.4684C271.286 61.318 270.948 61.244 270.614 61.2335C271.244 61.9502 271.426 62.9919 270.986 63.9023ZM266.335 55.1879C265.656 56.5954 264.134 57.3229 262.645 57.0995C262.891 57.3192 263.162 57.5182 263.478 57.666C265.224 58.4827 267.312 57.7515 268.142 56.0329C268.972 54.3143 268.229 52.259 266.483 51.4424C266.167 51.2945 265.838 51.2129 265.51 51.1639C266.626 52.159 267.015 53.7805 266.335 55.1879Z" fill="#929293"/>
</g>
<defs>
<filter id="filter0_df" x="112" y="62.6667" width="14" height="13" filterUnits="userSpaceOnUse" color-interpolation-filters="sRGB">
<feFlood flood-opacity="0" result="BackgroundImageFix"/>
<feColorMatrix in="SourceAlpha" type="matrix" values="0 0 0 0 0 0 0 0 0 0 0 0 0 0 0 0 0 0 127 0"/>
<feOffset dy="0.666667"/>
<feGaussianBlur stdDeviation="2"/>
<feColorMatrix type="matrix" values="0 0 0 0 1 0 0 0 0 1 0 0 0 0 1 0 0 0 0.25 0"/>
<feBlend mode="normal" in2="BackgroundImageFix" result="effect1_dropShadow"/>
<feBlend mode="normal" in="SourceGraphic" in2="effect1_dropShadow" result="shape"/>
<feGaussianBlur stdDeviation="0.0166667" result="effect2_foregroundBlur"/>
</filter>
<filter id="filter1_df" x="112" y="92.6667" width="14" height="13" filterUnits="userSpaceOnUse" color-interpolation-filters="sRGB">
<feFlood flood-opacity="0" result="BackgroundImageFix"/>
<feColorMatrix in="SourceAlpha" type="matrix" values="0 0 0 0 0 0 0 0 0 0 0 0 0 0 0 0 0 0 127 0"/>
<feOffset dy="0.666667"/>
<feGaussianBlur stdDeviation="2"/>
<feColorMatrix type="matrix" values="0 0 0 0 1 0 0 0 0 1 0 0 0 0 1 0 0 0 0.25 0"/>
<feBlend mode="normal" in2="BackgroundImageFix" result="effect1_dropShadow"/>
<feBlend mode="normal" in="SourceGraphic" in2="effect1_dropShadow" result="shape"/>
<feGaussianBlur stdDeviation="0.0166667" result="effect2_foregroundBlur"/>
</filter>
<filter id="filter2_df" x="165" y="159.667" width="14" height="13" filterUnits="userSpaceOnUse" color-interpolation-filters="sRGB">
<feFlood flood-opacity="0" result="BackgroundImageFix"/>
<feColorMatrix in="SourceAlpha" type="matrix" values="0 0 0 0 0 0 0 0 0 0 0 0 0 0 0 0 0 0 127 0"/>
<feOffset dy="0.666667"/>
<feGaussianBlur stdDeviation="2"/>
<feColorMatrix type="matrix" values="0 0 0 0 1 0 0 0 0 1 0 0 0 0 1 0 0 0 0.25 0"/>
<feBlend mode="normal" in2="BackgroundImageFix" result="effect1_dropShadow"/>
<feBlend mode="normal" in="SourceGraphic" in2="effect1_dropShadow" result="shape"/>
<feGaussianBlur stdDeviation="0.0166667" result="effect2_foregroundBlur"/>
</filter>
<filter id="filter3_df" x="159" y="89.6667" width="14" height="13" filterUnits="userSpaceOnUse" color-interpolation-filters="sRGB">
<feFlood flood-opacity="0" result="BackgroundImageFix"/>
<feColorMatrix in="SourceAlpha" type="matrix" values="0 0 0 0 0 0 0 0 0 0 0 0 0 0 0 0 0 0 127 0"/>
<feOffset dy="0.666667"/>
<feGaussianBlur stdDeviation="2"/>
<feColorMatrix type="matrix" values="0 0 0 0 1 0 0 0 0 1 0 0 0 0 1 0 0 0 0.25 0"/>
<feBlend mode="normal" in2="BackgroundImageFix" result="effect1_dropShadow"/>
<feBlend mode="normal" in="SourceGraphic" in2="effect1_dropShadow" result="shape"/>
<feGaussianBlur stdDeviation="0.0166667" result="effect2_foregroundBlur"/>
</filter>
<filter id="filter4_df" x="31" y="57.6667" width="14" height="13" filterUnits="userSpaceOnUse" color-interpolation-filters="sRGB">
<feFlood flood-opacity="0" result="BackgroundImageFix"/>
<feColorMatrix in="SourceAlpha" type="matrix" values="0 0 0 0 0 0 0 0 0 0 0 0 0 0 0 0 0 0 127 0"/>
<feOffset dy="0.666667"/>
<feGaussianBlur stdDeviation="2"/>
<feColorMatrix type="matrix" values="0 0 0 0 1 0 0 0 0 1 0 0 0 0 1 0 0 0 0.25 0"/>
<feBlend mode="normal" in2="BackgroundImageFix" result="effect1_dropShadow"/>
<feBlend mode="normal" in="SourceGraphic" in2="effect1_dropShadow" result="shape"/>
<feGaussianBlur stdDeviation="0.0166667" result="effect2_foregroundBlur"/>
</filter>
<filter id="filter5_df" x="80" y="154.667" width="14" height="13" filterUnits="userSpaceOnUse" color-interpolation-filters="sRGB">
<feFlood flood-opacity="0" result="BackgroundImageFix"/>
<feColorMatrix in="SourceAlpha" type="matrix" values="0 0 0 0 0 0 0 0 0 0 0 0 0 0 0 0 0 0 127 0"/>
<feOffset dy="0.666667"/>
<feGaussianBlur stdDeviation="2"/>
<feColorMatrix type="matrix" values="0 0 0 0 1 0 0 0 0 1 0 0 0 0 1 0 0 0 0.25 0"/>
<feBlend mode="normal" in2="BackgroundImageFix" result="effect1_dropShadow"/>
<feBlend mode="normal" in="SourceGraphic" in2="effect1_dropShadow" result="shape"/>
<feGaussianBlur stdDeviation="0.0166667" result="effect2_foregroundBlur"/>
</filter>
<filter id="filter6_df" x="0" y="102.667" width="14" height="13" filterUnits="userSpaceOnUse" color-interpolation-filters="sRGB">
<feFlood flood-opacity="0" result="BackgroundImageFix"/>
<feColorMatrix in="SourceAlpha" type="matrix" values="0 0 0 0 0 0 0 0 0 0 0 0 0 0 0 0 0 0 127 0"/>
<feOffset dy="0.666667"/>
<feGaussianBlur stdDeviation="2"/>
<feColorMatrix type="matrix" values="0 0 0 0 1 0 0 0 0 1 0 0 0 0 1 0 0 0 0.25 0"/>
<feBlend mode="normal" in2="BackgroundImageFix" result="effect1_dropShadow"/>
<feBlend mode="normal" in="SourceGraphic" in2="effect1_dropShadow" result="shape"/>
<feGaussianBlur stdDeviation="0.15" result="effect2_foregroundBlur"/>
</filter>
<filter id="filter7_df" x="233" y="154.333" width="7" height="6" filterUnits="userSpaceOnUse" color-interpolation-filters="sRGB">
<feFlood flood-opacity="0" result="BackgroundImageFix"/>
<feColorMatrix in="SourceAlpha" type="matrix" values="0 0 0 0 0 0 0 0 0 0 0 0 0 0 0 0 0 0 127 0"/>
<feOffset dy="0.333333"/>
<feGaussianBlur stdDeviation="1"/>
<feColorMatrix type="matrix" values="0 0 0 0 1 0 0 0 0 1 0 0 0 0 1 0 0 0 0.25 0"/>
<feBlend mode="normal" in2="BackgroundImageFix" result="effect1_dropShadow"/>
<feBlend mode="normal" in="SourceGraphic" in2="effect1_dropShadow" result="shape"/>
<feGaussianBlur stdDeviation="0.00833333" result="effect2_foregroundBlur"/>
</filter>
<filter id="filter8_df" x="38" y="219.333" width="7" height="6" filterUnits="userSpaceOnUse" color-interpolation-filters="sRGB">
<feFlood flood-opacity="0" result="BackgroundImageFix"/>
<feColorMatrix in="SourceAlpha" type="matrix" values="0 0 0 0 0 0 0 0 0 0 0 0 0 0 0 0 0 0 127 0"/>
<feOffset dy="0.333333"/>
<feGaussianBlur stdDeviation="1"/>
<feColorMatrix type="matrix" values="0 0 0 0 1 0 0 0 0 1 0 0 0 0 1 0 0 0 0.25 0"/>
<feBlend mode="normal" in2="BackgroundImageFix" result="effect1_dropShadow"/>
<feBlend mode="normal" in="SourceGraphic" in2="effect1_dropShadow" result="shape"/>
<feGaussianBlur stdDeviation="0.00833333" result="effect2_foregroundBlur"/>
</filter>
<filter id="filter9_df" x="274" y="148.333" width="7" height="6" filterUnits="userSpaceOnUse" color-interpolation-filters="sRGB">
<feFlood flood-opacity="0" result="BackgroundImageFix"/>
<feColorMatrix in="SourceAlpha" type="matrix" values="0 0 0 0 0 0 0 0 0 0 0 0 0 0 0 0 0 0 127 0"/>
<feOffset dy="0.333333"/>
<feGaussianBlur stdDeviation="1"/>
<feColorMatrix type="matrix" values="0 0 0 0 1 0 0 0 0 1 0 0 0 0 1 0 0 0 0.25 0"/>
<feBlend mode="normal" in2="BackgroundImageFix" result="effect1_dropShadow"/>
<feBlend mode="normal" in="SourceGraphic" in2="effect1_dropShadow" result="shape"/>
<feGaussianBlur stdDeviation="0.00833333" result="effect2_foregroundBlur"/>
</filter>
<filter id="filter10_df" x="79" y="213.333" width="7" height="7" filterUnits="userSpaceOnUse" color-interpolation-filters="sRGB">
<feFlood flood-opacity="0" result="BackgroundImageFix"/>
<feColorMatrix in="SourceAlpha" type="matrix" values="0 0 0 0 0 0 0 0 0 0 0 0 0 0 0 0 0 0 127 0"/>
<feOffset dy="0.333333"/>
<feGaussianBlur stdDeviation="1"/>
<feColorMatrix type="matrix" values="0 0 0 0 1 0 0 0 0 1 0 0 0 0 1 0 0 0 0.25 0"/>
<feBlend mode="normal" in2="BackgroundImageFix" result="effect1_dropShadow"/>
<feBlend mode="normal" in="SourceGraphic" in2="effect1_dropShadow" result="shape"/>
<feGaussianBlur stdDeviation="0.00833333" result="effect2_foregroundBlur"/>
</filter>
<filter id="filter11_df" x="190" y="42.3333" width="7" height="7" filterUnits="userSpaceOnUse" color-interpolation-filters="sRGB">
<feFlood flood-opacity="0" result="BackgroundImageFix"/>
<feColorMatrix in="SourceAlpha" type="matrix" values="0 0 0 0 0 0 0 0 0 0 0 0 0 0 0 0 0 0 127 0"/>
<feOffset dy="0.333333"/>
<feGaussianBlur stdDeviation="1"/>
<feColorMatrix type="matrix" values="0 0 0 0 1 0 0 0 0 1 0 0 0 0 1 0 0 0 0.25 0"/>
<feBlend mode="normal" in2="BackgroundImageFix" result="effect1_dropShadow"/>
<feBlend mode="normal" in="SourceGraphic" in2="effect1_dropShadow" result="shape"/>
<feGaussianBlur stdDeviation="0.00833333" result="effect2_foregroundBlur"/>
</filter>
<filter id="filter12_d" x="196.294" y="0.823529" width="126.412" height="125.739" filterUnits="userSpaceOnUse" color-interpolation-filters="sRGB">
<feFlood flood-opacity="0" result="BackgroundImageFix"/>
<feColorMatrix in="SourceAlpha" type="matrix" values="0 0 0 0 0 0 0 0 0 0 0 0 0 0 0 0 0 0 127 0"/>
<feMorphology radius="24" operator="dilate" in="SourceAlpha" result="effect1_dropShadow"/>
<feOffset dy="2.52941"/>
<!-- <feGaussianBlur stdDeviation="15" /> -->
<feGaussianBlur stdDeviation="8.85294"/>
<feColorMatrix type="matrix" values="0 0 0 0 1 0 0 0 0 1 0 0 0 0 1 0 0 0 0.07 0"/>
<feBlend mode="normal" in2="BackgroundImageFix" result="effect1_dropShadow"/>
<feBlend mode="normal" in="SourceGraphic" in2="effect1_dropShadow" result="shape"/>
</filter>
<clipPath id="clip0">
<rect width="47.8626" height="47.3886" fill="white" transform="matrix(-0.905806 -0.423692 0.434728 -0.900562 271.354 92.9554)"/>
</clipPath>
</defs>
</svg>
