<svg width="308" height="212" viewBox="0 0 308 212" fill="none" xmlns="http://www.w3.org/2000/svg">
<g filter="url(#filter0_d)">
<ellipse cx="243.854" cy="57.3807" rx="21.5" ry="18.1383" fill="white" fill-opacity="0.04"/>
</g>
<g clip-path="url(#clip0)">
<path d="M235.394 72.2173C240.185 74.1379 245.684 74.3743 250.681 72.8743C255.679 71.3744 259.765 68.2611 262.042 64.2192C264.319 60.1774 264.599 55.5381 262.821 51.322C261.043 47.106 257.353 43.6584 252.562 41.7378C247.771 39.8172 242.272 39.5809 237.274 41.0808C232.277 42.5807 228.19 45.6941 225.914 49.7359C223.637 53.7777 223.357 58.417 225.135 62.6331C226.913 66.8492 230.603 70.2967 235.394 72.2173V72.2173Z" fill="#D6D6D6"/>
<path d="M235.394 72.2173C241.304 74.5865 247.89 74.278 253.271 71.8968C249.175 72.5993 244.79 72.2478 240.723 70.6177C230.747 66.6185 226.503 56.5525 231.243 48.1363C233.175 44.7058 236.312 42.0965 240.014 40.4588C234.059 41.4799 228.722 44.7502 225.913 49.7359C221.173 58.1521 225.418 68.2181 235.394 72.2173Z" fill="#FFFEFE"/>
<path d="M253.461 60.7795C254.06 61.0196 254.748 61.0491 255.372 60.8616C255.997 60.6742 256.508 60.285 256.792 59.7798C257.077 59.2745 257.112 58.6946 256.89 58.1676C256.667 57.6406 256.206 57.2097 255.607 56.9696C255.008 56.7295 254.321 56.7 253.696 56.8875C253.072 57.0749 252.561 57.4641 252.276 57.9693C251.992 58.4746 251.957 59.0545 252.179 59.5815C252.401 60.1085 252.862 60.5394 253.461 60.7795V60.7795ZM234.833 48.6417C235.432 48.8817 236.12 48.9113 236.744 48.7238C237.369 48.5363 237.88 48.1471 238.164 47.6419C238.449 47.1367 238.484 46.5568 238.262 46.0298C238.039 45.5027 237.578 45.0718 236.979 44.8317C236.38 44.5917 235.693 44.5621 235.068 44.7496C234.444 44.9371 233.933 45.3263 233.648 45.8315C233.364 46.3367 233.329 46.9166 233.551 47.4436C233.773 47.9706 234.235 48.4016 234.833 48.6417V48.6417ZM241.108 67.9697C242.066 68.3539 243.166 68.4011 244.165 68.1011C245.165 67.8012 245.982 67.1785 246.437 66.3701C246.893 65.5618 246.949 64.6339 246.593 63.7907C246.238 62.9475 245.499 62.258 244.541 61.8738C243.583 61.4897 242.483 61.4425 241.484 61.7424C240.484 62.0424 239.667 62.6651 239.212 63.4735C238.756 64.2818 238.7 65.2097 239.056 66.0529C239.411 66.8961 240.15 67.5856 241.108 67.9697V67.9697ZM247.478 53.7108C248.317 54.0469 249.279 54.0883 250.154 53.8258C251.028 53.5633 251.743 53.0185 252.142 52.3112C252.54 51.6038 252.589 50.792 252.278 50.0542C251.967 49.3163 251.321 48.713 250.483 48.3769C249.644 48.0408 248.682 47.9994 247.807 48.2619C246.933 48.5244 246.218 49.0693 245.819 49.7766C245.421 50.4839 245.372 51.2958 245.683 52.0336C245.994 52.7714 246.64 53.3747 247.478 53.7108Z" fill="#AFB1B4"/>
<path d="M242.972 61.7117C244.718 62.4116 245.461 64.173 244.631 65.646C243.801 67.1189 241.713 67.7455 239.968 67.0456C239.816 66.9848 239.682 66.9071 239.546 66.8309C239.932 67.3032 240.449 67.7058 241.108 67.9697C243.103 68.7696 245.489 68.0534 246.437 66.3701C247.385 64.6869 246.536 62.6737 244.541 61.8738C243.883 61.6099 243.186 61.5258 242.508 61.5716C242.664 61.6128 242.82 61.6509 242.972 61.7117ZM236.358 46.9177C235.918 47.698 234.983 48.144 234.021 48.1188C234.24 48.3321 234.512 48.5128 234.833 48.6417C236.081 49.1417 237.572 48.6942 238.164 47.6419C238.757 46.5896 238.227 45.3318 236.979 44.8317C236.658 44.7028 236.32 44.6395 235.986 44.6304C236.616 45.2447 236.797 46.1375 236.358 46.9177ZM254.986 59.0556C254.546 59.8359 253.611 60.2819 252.649 60.2567C252.868 60.4699 253.14 60.6506 253.461 60.7795C254.709 61.2796 256.2 60.8321 256.792 59.7798C257.385 58.7274 256.855 57.4696 255.607 56.9696C255.286 56.8407 254.948 56.7773 254.614 56.7683C255.244 57.3825 255.425 58.2753 254.986 59.0556ZM250.335 51.587C249.656 52.7932 248.133 53.4167 246.645 53.2253C246.891 53.4136 247.162 53.5841 247.478 53.7108C249.224 54.4107 251.312 53.7841 252.142 52.3112C252.971 50.8382 252.229 49.0768 250.483 48.3769C250.167 48.2502 249.838 48.1803 249.51 48.1383C250.626 48.9911 251.015 50.3808 250.335 51.587Z" fill="#929293"/>
</g>
<g filter="url(#filter1_df)">
<path d="M119 51L119.81 51.365L122 51.5L119.81 51.635L119 52L118.19 51.635L116 51.5L118.19 51.365L119 51Z" fill="white"/>
</g>
<g filter="url(#filter2_df)">
<path d="M157 81L157.81 81.365L160 81.5L157.81 81.635L157 82L156.19 81.635L154 81.5L156.19 81.365L157 81Z" fill="white"/>
</g>
<g filter="url(#filter3_df)">
<path d="M7 91L7.81027 93.1897L10 94L7.81027 94.8103L7 97L6.18973 94.8103L4 94L6.18973 93.1897L7 91Z" fill="white"/>
</g>
<g filter="url(#filter4_df)">
<path d="M236.5 141L236.905 142.095L238 142.5L236.905 142.905L236.5 144L236.095 142.905L235 142.5L236.095 142.095L236.5 141Z" fill="white"/>
</g>
<g filter="url(#filter5_df)">
<path d="M41.5 206L41.9051 207.095L43 207.5L41.9051 207.905L41.5 209L41.0949 207.905L40 207.5L41.0949 207.095L41.5 206Z" fill="white"/>
</g>
<g filter="url(#filter6_df)">
<path d="M277.5 135L277.905 136.095L279 136.5L277.905 136.905L277.5 138L277.095 136.905L276 136.5L277.095 136.095L277.5 135Z" fill="white"/>
</g>
<g filter="url(#filter7_df)">
<path d="M82.5 200L82.9051 201.095L84 201.5L82.9051 201.905L82.5 203L82.0949 201.905L81 201.5L82.0949 201.095L82.5 200Z" fill="white"/>
</g>
<g filter="url(#filter8_df)">
<path d="M193.5 29L193.905 30.0949L195 30.5L193.905 30.9051L193.5 32L193.095 30.9051L192 30.5L193.095 30.0949L193.5 29Z" fill="white"/>
</g>
<defs>
<filter id="filter0_d" x="180.648" y="0.0659604" width="126.412" height="119.688" filterUnits="userSpaceOnUse" color-interpolation-filters="sRGB">
<feFlood flood-opacity="0" result="BackgroundImageFix"/>
<feColorMatrix in="SourceAlpha" type="matrix" values="0 0 0 0 0 0 0 0 0 0 0 0 0 0 0 0 0 0 127 0"/>
<feMorphology radius="24" operator="dilate" in="SourceAlpha" result="effect1_dropShadow"/>
<feOffset dy="2.52941"/>
<feGaussianBlur stdDeviation="8.85294"/>
<feColorMatrix type="matrix" values="0 0 0 0 1 0 0 0 0 1 0 0 0 0 1 0 0 0 0.07 0"/>
<feBlend mode="normal" in2="BackgroundImageFix" result="effect1_dropShadow"/>
<feBlend mode="normal" in="SourceGraphic" in2="effect1_dropShadow" result="shape"/>
</filter>
<filter id="filter1_df" x="112" y="47.6667" width="14" height="9" filterUnits="userSpaceOnUse" color-interpolation-filters="sRGB">
<feFlood flood-opacity="0" result="BackgroundImageFix"/>
<feColorMatrix in="SourceAlpha" type="matrix" values="0 0 0 0 0 0 0 0 0 0 0 0 0 0 0 0 0 0 127 0"/>
<feOffset dy="0.666667"/>
<feGaussianBlur stdDeviation="2"/>
<feColorMatrix type="matrix" values="0 0 0 0 1 0 0 0 0 1 0 0 0 0 1 0 0 0 0.25 0"/>
<feBlend mode="normal" in2="BackgroundImageFix" result="effect1_dropShadow"/>
<feBlend mode="normal" in="SourceGraphic" in2="effect1_dropShadow" result="shape"/>
<feGaussianBlur stdDeviation="0.0166667" result="effect2_foregroundBlur"/>
</filter>
<filter id="filter2_df" x="150" y="77.6667" width="14" height="9" filterUnits="userSpaceOnUse" color-interpolation-filters="sRGB">
<feFlood flood-opacity="0" result="BackgroundImageFix"/>
<feColorMatrix in="SourceAlpha" type="matrix" values="0 0 0 0 0 0 0 0 0 0 0 0 0 0 0 0 0 0 127 0"/>
<feOffset dy="0.666667"/>
<feGaussianBlur stdDeviation="2"/>
<feColorMatrix type="matrix" values="0 0 0 0 1 0 0 0 0 1 0 0 0 0 1 0 0 0 0.25 0"/>
<feBlend mode="normal" in2="BackgroundImageFix" result="effect1_dropShadow"/>
<feBlend mode="normal" in="SourceGraphic" in2="effect1_dropShadow" result="shape"/>
<feGaussianBlur stdDeviation="0.0166667" result="effect2_foregroundBlur"/>
</filter>
<filter id="filter3_df" x="0" y="87.6667" width="14" height="14" filterUnits="userSpaceOnUse" color-interpolation-filters="sRGB">
<feFlood flood-opacity="0" result="BackgroundImageFix"/>
<feColorMatrix in="SourceAlpha" type="matrix" values="0 0 0 0 0 0 0 0 0 0 0 0 0 0 0 0 0 0 127 0"/>
<feOffset dy="0.666667"/>
<feGaussianBlur stdDeviation="2"/>
<feColorMatrix type="matrix" values="0 0 0 0 1 0 0 0 0 1 0 0 0 0 1 0 0 0 0.25 0"/>
<feBlend mode="normal" in2="BackgroundImageFix" result="effect1_dropShadow"/>
<feBlend mode="normal" in="SourceGraphic" in2="effect1_dropShadow" result="shape"/>
<feGaussianBlur stdDeviation="0.15" result="effect2_foregroundBlur"/>
</filter>
<filter id="filter4_df" x="233" y="139.333" width="7" height="7" filterUnits="userSpaceOnUse" color-interpolation-filters="sRGB">
<feFlood flood-opacity="0" result="BackgroundImageFix"/>
<feColorMatrix in="SourceAlpha" type="matrix" values="0 0 0 0 0 0 0 0 0 0 0 0 0 0 0 0 0 0 127 0"/>
<feOffset dy="0.333333"/>
<feGaussianBlur stdDeviation="1"/>
<feColorMatrix type="matrix" values="0 0 0 0 1 0 0 0 0 1 0 0 0 0 1 0 0 0 0.25 0"/>
<feBlend mode="normal" in2="BackgroundImageFix" result="effect1_dropShadow"/>
<feBlend mode="normal" in="SourceGraphic" in2="effect1_dropShadow" result="shape"/>
<feGaussianBlur stdDeviation="0.00833333" result="effect2_foregroundBlur"/>
</filter>
<filter id="filter5_df" x="38" y="204.333" width="7" height="7" filterUnits="userSpaceOnUse" color-interpolation-filters="sRGB">
<feFlood flood-opacity="0" result="BackgroundImageFix"/>
<feColorMatrix in="SourceAlpha" type="matrix" values="0 0 0 0 0 0 0 0 0 0 0 0 0 0 0 0 0 0 127 0"/>
<feOffset dy="0.333333"/>
<feGaussianBlur stdDeviation="1"/>
<feColorMatrix type="matrix" values="0 0 0 0 1 0 0 0 0 1 0 0 0 0 1 0 0 0 0.25 0"/>
<feBlend mode="normal" in2="BackgroundImageFix" result="effect1_dropShadow"/>
<feBlend mode="normal" in="SourceGraphic" in2="effect1_dropShadow" result="shape"/>
<feGaussianBlur stdDeviation="0.00833333" result="effect2_foregroundBlur"/>
</filter>
<filter id="filter6_df" x="274" y="133.333" width="7" height="7" filterUnits="userSpaceOnUse" color-interpolation-filters="sRGB">
<feFlood flood-opacity="0" result="BackgroundImageFix"/>
<feColorMatrix in="SourceAlpha" type="matrix" values="0 0 0 0 0 0 0 0 0 0 0 0 0 0 0 0 0 0 127 0"/>
<feOffset dy="0.333333"/>
<feGaussianBlur stdDeviation="1"/>
<feColorMatrix type="matrix" values="0 0 0 0 1 0 0 0 0 1 0 0 0 0 1 0 0 0 0.25 0"/>
<feBlend mode="normal" in2="BackgroundImageFix" result="effect1_dropShadow"/>
<feBlend mode="normal" in="SourceGraphic" in2="effect1_dropShadow" result="shape"/>
<feGaussianBlur stdDeviation="0.00833333" result="effect2_foregroundBlur"/>
</filter>
<filter id="filter7_df" x="79" y="198.333" width="7" height="7" filterUnits="userSpaceOnUse" color-interpolation-filters="sRGB">
<feFlood flood-opacity="0" result="BackgroundImageFix"/>
<feColorMatrix in="SourceAlpha" type="matrix" values="0 0 0 0 0 0 0 0 0 0 0 0 0 0 0 0 0 0 127 0"/>
<feOffset dy="0.333333"/>
<feGaussianBlur stdDeviation="1"/>
<feColorMatrix type="matrix" values="0 0 0 0 1 0 0 0 0 1 0 0 0 0 1 0 0 0 0.25 0"/>
<feBlend mode="normal" in2="BackgroundImageFix" result="effect1_dropShadow"/>
<feBlend mode="normal" in="SourceGraphic" in2="effect1_dropShadow" result="shape"/>
<feGaussianBlur stdDeviation="0.00833333" result="effect2_foregroundBlur"/>
</filter>
<filter id="filter8_df" x="190" y="27.3333" width="7" height="7" filterUnits="userSpaceOnUse" color-interpolation-filters="sRGB">
<feFlood flood-opacity="0" result="BackgroundImageFix"/>
<feColorMatrix in="SourceAlpha" type="matrix" values="0 0 0 0 0 0 0 0 0 0 0 0 0 0 0 0 0 0 127 0"/>
<feOffset dy="0.333333"/>
<feGaussianBlur stdDeviation="1"/>
<feColorMatrix type="matrix" values="0 0 0 0 1 0 0 0 0 1 0 0 0 0 1 0 0 0 0.25 0"/>
<feBlend mode="normal" in2="BackgroundImageFix" result="effect1_dropShadow"/>
<feBlend mode="normal" in="SourceGraphic" in2="effect1_dropShadow" result="shape"/>
<feGaussianBlur stdDeviation="0.00833333" result="effect2_foregroundBlur"/>
</filter>
<clipPath id="clip0">
<rect width="46.7082" height="41.9782" fill="white" transform="matrix(-0.928194 -0.372097 0.490758 -0.871296 255.354 83.9553)"/>
</clipPath>
</defs>
</svg>
