<svg width="308" height="211" viewBox="0 0 308 211" fill="none" xmlns="http://www.w3.org/2000/svg">
<g filter="url(#filter0_d)">
<circle cx="243.854" cy="61.4553" r="21.5" fill="white" fill-opacity="0.04"/>
</g>
<g clip-path="url(#clip0)">
<path d="M235.394 79.0419C240.185 81.3185 245.684 81.5986 250.681 79.8207C255.679 78.0428 259.765 74.3524 262.042 69.5615C264.319 64.7705 264.599 59.2714 262.821 54.2739C261.043 49.2765 257.353 45.1899 252.562 42.9134C247.771 40.6368 242.272 40.3567 237.274 42.1346C232.277 43.9125 228.19 47.6029 225.914 52.3938C223.637 57.1848 223.357 62.6839 225.135 67.6813C226.913 72.6788 230.603 76.7653 235.394 79.0419V79.0419Z" fill="#D6D6D6"/>
<path d="M235.394 79.0419C241.304 81.8501 247.89 81.4845 253.271 78.6619C249.175 79.4946 244.79 79.078 240.723 77.1458C230.747 72.4054 226.503 60.4737 231.243 50.4977C233.175 46.4315 236.312 43.3385 240.014 41.3972C234.059 42.6076 228.722 46.4841 225.913 52.3938C221.173 62.3698 225.418 74.3015 235.394 79.0419Z" fill="#FFFEFE"/>
<path d="M253.461 65.4841C254.06 65.7686 254.748 65.8037 255.372 65.5814C255.997 65.3592 256.508 64.8979 256.792 64.299C257.077 63.7001 257.112 63.0128 256.89 62.3881C256.667 61.7634 256.206 61.2526 255.607 60.968C255.008 60.6834 254.321 60.6484 253.696 60.8707C253.072 61.0929 252.561 61.5542 252.276 62.1531C251.992 62.7519 251.957 63.4393 252.179 64.064C252.401 64.6887 252.862 65.1995 253.461 65.4841V65.4841ZM234.833 51.0966C235.432 51.3812 236.12 51.4162 236.744 51.194C237.369 50.9717 237.88 50.5104 238.164 49.9116C238.449 49.3127 238.484 48.6253 238.262 48.0006C238.039 47.3759 237.578 46.8651 236.979 46.5805C236.38 46.296 235.693 46.261 235.068 46.4832C234.444 46.7054 233.933 47.1667 233.648 47.7656C233.364 48.3645 233.329 49.0519 233.551 49.6765C233.773 50.3012 234.235 50.812 234.833 51.0966V51.0966ZM241.108 74.0069C242.066 74.4622 243.166 74.5183 244.165 74.1627C245.165 73.8071 245.982 73.069 246.437 72.1108C246.893 71.1526 246.949 70.0528 246.593 69.0533C246.238 68.0538 245.499 67.2365 244.541 66.7812C243.583 66.3259 242.483 66.2699 241.484 66.6255C240.484 66.981 239.667 67.7191 239.212 68.6773C238.756 69.6355 238.7 70.7353 239.056 71.7348C239.411 72.7343 240.15 73.5516 241.108 74.0069V74.0069ZM247.478 57.1053C248.317 57.5037 249.279 57.5527 250.154 57.2416C251.028 56.9304 251.743 56.2846 252.142 55.4462C252.54 54.6078 252.589 53.6455 252.278 52.7709C251.967 51.8963 251.321 51.1812 250.483 50.7828C249.644 50.3844 248.682 50.3354 247.807 50.6465C246.933 50.9576 246.218 51.6035 245.819 52.4419C245.421 53.2803 245.372 54.2426 245.683 55.1172C245.994 55.9917 246.64 56.7069 247.478 57.1053Z" fill="#AFB1B4"/>
<path d="M242.972 66.589C244.718 67.4187 245.461 69.5065 244.631 71.2524C243.801 72.9984 241.713 73.7412 239.968 72.9115C239.816 72.8394 239.682 72.7473 239.546 72.657C239.932 73.2169 240.449 73.694 241.108 74.0069C243.103 74.955 245.489 74.106 246.437 72.1108C247.385 70.1156 246.536 67.7293 244.541 66.7812C243.883 66.4683 243.186 66.3687 242.508 66.423C242.664 66.4717 242.82 66.5169 242.972 66.589ZM236.358 49.0532C235.918 49.9781 234.983 50.5068 234.021 50.4768C234.24 50.7296 234.512 50.9438 234.833 51.0966C236.081 51.6893 237.572 51.1589 238.164 49.9116C238.757 48.6642 238.227 47.1733 236.979 46.5805C236.658 46.4278 236.32 46.3527 235.986 46.3419C236.616 47.07 236.797 48.1283 236.358 49.0532ZM254.986 63.4406C254.546 64.3655 253.611 64.8942 252.649 64.8643C252.868 65.1171 253.14 65.3313 253.461 65.4841C254.709 66.0768 256.2 65.5464 256.792 64.299C257.385 63.0517 256.855 61.5607 255.607 60.968C255.286 60.8152 254.948 60.7401 254.614 60.7294C255.244 61.4575 255.425 62.5157 254.986 63.4406ZM250.335 54.5878C249.656 56.0176 248.133 56.7567 246.645 56.5298C246.891 56.753 247.162 56.9551 247.478 57.1053C249.224 57.9349 251.312 57.1921 252.142 55.4462C252.971 53.7003 252.229 51.6124 250.483 50.7828C250.167 50.6326 249.838 50.5497 249.51 50.4999C250.626 51.5108 251.015 53.158 250.335 54.5878Z" fill="#929293"/>
</g>
<g filter="url(#filter1_df)">
<path d="M119 50L119.81 52.1897L122 53L119.81 53.8103L119 56L118.19 53.8103L116 53L118.19 52.1897L119 50Z" fill="white"/>
</g>
<g filter="url(#filter2_df)">
<path d="M157 80L157.81 82.1897L160 83L157.81 83.8103L157 86L156.19 83.8103L154 83L156.19 82.1897L157 80Z" fill="white"/>
</g>
<g filter="url(#filter3_df)">
<path d="M7 90L7.81027 92.1897L10 93L7.81027 93.8103L7 96L6.18973 93.8103L4 93L6.18973 92.1897L7 90Z" fill="white"/>
</g>
<g filter="url(#filter4_df)">
<path d="M236.5 140L236.905 141.095L238 141.5L236.905 141.905L236.5 143L236.095 141.905L235 141.5L236.095 141.095L236.5 140Z" fill="white"/>
</g>
<g filter="url(#filter5_df)">
<path d="M41.5 205L41.9051 206.095L43 206.5L41.9051 206.905L41.5 208L41.0949 206.905L40 206.5L41.0949 206.095L41.5 205Z" fill="white"/>
</g>
<g filter="url(#filter6_df)">
<path d="M277.5 134L277.905 135.095L279 135.5L277.905 135.905L277.5 137L277.095 135.905L276 135.5L277.095 135.095L277.5 134Z" fill="white"/>
</g>
<g filter="url(#filter7_df)">
<path d="M82.5 199L82.9051 200.095L84 200.5L82.9051 200.905L82.5 202L82.0949 200.905L81 200.5L82.0949 200.095L82.5 199Z" fill="white"/>
</g>
<g filter="url(#filter8_df)">
<path d="M193.5 28L193.905 29.0949L195 29.5L193.905 29.9051L193.5 31L193.095 29.9051L192 29.5L193.095 29.0949L193.5 28Z" fill="white"/>
</g>
<defs>
<filter id="filter0_d" x="180.648" y="0.778851" width="126.412" height="126.412" filterUnits="userSpaceOnUse" color-interpolation-filters="sRGB">
<feFlood flood-opacity="0" result="BackgroundImageFix"/>
<feColorMatrix in="SourceAlpha" type="matrix" values="0 0 0 0 0 0 0 0 0 0 0 0 0 0 0 0 0 0 127 0"/>
<feMorphology radius="24" operator="dilate" in="SourceAlpha" result="effect1_dropShadow"/>
<feOffset dy="2.52941"/>
<feGaussianBlur stdDeviation="8.85294"/>
<feColorMatrix type="matrix" values="0 0 0 0 1 0 0 0 0 1 0 0 0 0 1 0 0 0 0.07 0"/>
<feBlend mode="normal" in2="BackgroundImageFix" result="effect1_dropShadow"/>
<feBlend mode="normal" in="SourceGraphic" in2="effect1_dropShadow" result="shape"/>
</filter>
<filter id="filter1_df" x="112" y="46.6667" width="14" height="14" filterUnits="userSpaceOnUse" color-interpolation-filters="sRGB">
<feFlood flood-opacity="0" result="BackgroundImageFix"/>
<feColorMatrix in="SourceAlpha" type="matrix" values="0 0 0 0 0 0 0 0 0 0 0 0 0 0 0 0 0 0 127 0"/>
<feOffset dy="0.666667"/>
<feGaussianBlur stdDeviation="2"/>
<feColorMatrix type="matrix" values="0 0 0 0 1 0 0 0 0 1 0 0 0 0 1 0 0 0 0.25 0"/>
<feBlend mode="normal" in2="BackgroundImageFix" result="effect1_dropShadow"/>
<feBlend mode="normal" in="SourceGraphic" in2="effect1_dropShadow" result="shape"/>
<feGaussianBlur stdDeviation="0.0166667" result="effect2_foregroundBlur"/>
</filter>
<filter id="filter2_df" x="150" y="76.6667" width="14" height="14" filterUnits="userSpaceOnUse" color-interpolation-filters="sRGB">
<feFlood flood-opacity="0" result="BackgroundImageFix"/>
<feColorMatrix in="SourceAlpha" type="matrix" values="0 0 0 0 0 0 0 0 0 0 0 0 0 0 0 0 0 0 127 0"/>
<feOffset dy="0.666667"/>
<feGaussianBlur stdDeviation="2"/>
<feColorMatrix type="matrix" values="0 0 0 0 1 0 0 0 0 1 0 0 0 0 1 0 0 0 0.25 0"/>
<feBlend mode="normal" in2="BackgroundImageFix" result="effect1_dropShadow"/>
<feBlend mode="normal" in="SourceGraphic" in2="effect1_dropShadow" result="shape"/>
<feGaussianBlur stdDeviation="0.0166667" result="effect2_foregroundBlur"/>
</filter>
<filter id="filter3_df" x="0" y="86.6667" width="14" height="14" filterUnits="userSpaceOnUse" color-interpolation-filters="sRGB">
<feFlood flood-opacity="0" result="BackgroundImageFix"/>
<feColorMatrix in="SourceAlpha" type="matrix" values="0 0 0 0 0 0 0 0 0 0 0 0 0 0 0 0 0 0 127 0"/>
<feOffset dy="0.666667"/>
<feGaussianBlur stdDeviation="2"/>
<feColorMatrix type="matrix" values="0 0 0 0 1 0 0 0 0 1 0 0 0 0 1 0 0 0 0.25 0"/>
<feBlend mode="normal" in2="BackgroundImageFix" result="effect1_dropShadow"/>
<feBlend mode="normal" in="SourceGraphic" in2="effect1_dropShadow" result="shape"/>
<feGaussianBlur stdDeviation="0.15" result="effect2_foregroundBlur"/>
</filter>
<filter id="filter4_df" x="233" y="138.333" width="7" height="7" filterUnits="userSpaceOnUse" color-interpolation-filters="sRGB">
<feFlood flood-opacity="0" result="BackgroundImageFix"/>
<feColorMatrix in="SourceAlpha" type="matrix" values="0 0 0 0 0 0 0 0 0 0 0 0 0 0 0 0 0 0 127 0"/>
<feOffset dy="0.333333"/>
<feGaussianBlur stdDeviation="1"/>
<feColorMatrix type="matrix" values="0 0 0 0 1 0 0 0 0 1 0 0 0 0 1 0 0 0 0.25 0"/>
<feBlend mode="normal" in2="BackgroundImageFix" result="effect1_dropShadow"/>
<feBlend mode="normal" in="SourceGraphic" in2="effect1_dropShadow" result="shape"/>
<feGaussianBlur stdDeviation="0.00833333" result="effect2_foregroundBlur"/>
</filter>
<filter id="filter5_df" x="38" y="203.333" width="7" height="7" filterUnits="userSpaceOnUse" color-interpolation-filters="sRGB">
<feFlood flood-opacity="0" result="BackgroundImageFix"/>
<feColorMatrix in="SourceAlpha" type="matrix" values="0 0 0 0 0 0 0 0 0 0 0 0 0 0 0 0 0 0 127 0"/>
<feOffset dy="0.333333"/>
<feGaussianBlur stdDeviation="1"/>
<feColorMatrix type="matrix" values="0 0 0 0 1 0 0 0 0 1 0 0 0 0 1 0 0 0 0.25 0"/>
<feBlend mode="normal" in2="BackgroundImageFix" result="effect1_dropShadow"/>
<feBlend mode="normal" in="SourceGraphic" in2="effect1_dropShadow" result="shape"/>
<feGaussianBlur stdDeviation="0.00833333" result="effect2_foregroundBlur"/>
</filter>
<filter id="filter6_df" x="274" y="132.333" width="7" height="7" filterUnits="userSpaceOnUse" color-interpolation-filters="sRGB">
<feFlood flood-opacity="0" result="BackgroundImageFix"/>
<feColorMatrix in="SourceAlpha" type="matrix" values="0 0 0 0 0 0 0 0 0 0 0 0 0 0 0 0 0 0 127 0"/>
<feOffset dy="0.333333"/>
<feGaussianBlur stdDeviation="1"/>
<feColorMatrix type="matrix" values="0 0 0 0 1 0 0 0 0 1 0 0 0 0 1 0 0 0 0.25 0"/>
<feBlend mode="normal" in2="BackgroundImageFix" result="effect1_dropShadow"/>
<feBlend mode="normal" in="SourceGraphic" in2="effect1_dropShadow" result="shape"/>
<feGaussianBlur stdDeviation="0.00833333" result="effect2_foregroundBlur"/>
</filter>
<filter id="filter7_df" x="79" y="197.333" width="7" height="7" filterUnits="userSpaceOnUse" color-interpolation-filters="sRGB">
<feFlood flood-opacity="0" result="BackgroundImageFix"/>
<feColorMatrix in="SourceAlpha" type="matrix" values="0 0 0 0 0 0 0 0 0 0 0 0 0 0 0 0 0 0 127 0"/>
<feOffset dy="0.333333"/>
<feGaussianBlur stdDeviation="1"/>
<feColorMatrix type="matrix" values="0 0 0 0 1 0 0 0 0 1 0 0 0 0 1 0 0 0 0.25 0"/>
<feBlend mode="normal" in2="BackgroundImageFix" result="effect1_dropShadow"/>
<feBlend mode="normal" in="SourceGraphic" in2="effect1_dropShadow" result="shape"/>
<feGaussianBlur stdDeviation="0.00833333" result="effect2_foregroundBlur"/>
</filter>
<filter id="filter8_df" x="190" y="26.3333" width="7" height="7" filterUnits="userSpaceOnUse" color-interpolation-filters="sRGB">
<feFlood flood-opacity="0" result="BackgroundImageFix"/>
<feColorMatrix in="SourceAlpha" type="matrix" values="0 0 0 0 0 0 0 0 0 0 0 0 0 0 0 0 0 0 127 0"/>
<feOffset dy="0.333333"/>
<feGaussianBlur stdDeviation="1"/>
<feColorMatrix type="matrix" values="0 0 0 0 1 0 0 0 0 1 0 0 0 0 1 0 0 0 0.25 0"/>
<feBlend mode="normal" in2="BackgroundImageFix" result="effect1_dropShadow"/>
<feBlend mode="normal" in="SourceGraphic" in2="effect1_dropShadow" result="shape"/>
<feGaussianBlur stdDeviation="0.00833333" result="effect2_foregroundBlur"/>
</filter>
<clipPath id="clip0">
<rect width="48" height="48" fill="white" transform="translate(255.354 92.9553) rotate(-154.584)"/>
</clipPath>
</defs>
</svg>
