<svg width="24" height="24" viewBox="0 0 24 24" fill="none" xmlns="http://www.w3.org/2000/svg">
<path d="M11.9785 0.999987C9.74722 1.04615 7.95509 2.9132 8 5.14452V6.81835L5.27539 6.03905C5.17895 6.0112 5.07887 5.99804 4.97852 5.99999C4.72849 6.00532 4.48953 6.10414 4.30876 6.27696C4.12799 6.44977 4.01853 6.68404 4.00195 6.93358L3.00195 21.9336C2.99287 22.0702 3.01195 22.2073 3.058 22.3362C3.10405 22.4652 3.17609 22.5833 3.26966 22.6833C3.36323 22.7833 3.47633 22.8629 3.60196 22.9174C3.72759 22.9719 3.86307 23 4 23H20C20.1369 23 20.2724 22.9719 20.398 22.9174C20.5237 22.8629 20.6368 22.7833 20.7303 22.6833C20.8239 22.5833 20.896 22.4652 20.942 22.3362C20.988 22.2073 21.0071 22.0702 20.998 21.9336L19.998 6.93358C19.9881 6.78469 19.9449 6.63992 19.8717 6.50989C19.7985 6.37985 19.6972 6.26784 19.5751 6.18206C19.4529 6.09629 19.3132 6.03893 19.166 6.01418C19.0189 5.98943 18.8681 5.99793 18.7246 6.03905L16 6.81835V5.14452C16.0449 2.9132 14.2528 1.04615 12.0215 0.999987C12.0072 0.999679 11.9928 0.999679 11.9785 0.999987ZM12 3.00975C13.1386 3.04677 14.023 3.96299 14 5.10546C13.9999 5.11197 13.9999 5.11848 14 5.12499V7.38866L12 7.96092L10 7.38866V5.12499C10.0001 5.11848 10.0001 5.11197 10 5.10546C9.97701 3.96299 10.8614 3.04677 12 3.00975ZM5.91602 8.30077L8 8.89647V11C7.99813 11.1325 8.02261 11.2641 8.07202 11.387C8.12143 11.51 8.1948 11.6219 8.28784 11.7163C8.38088 11.8107 8.49176 11.8856 8.61401 11.9367C8.73627 11.9879 8.86747 12.0142 9 12.0142C9.13252 12.0142 9.26373 11.9879 9.38599 11.9367C9.50824 11.8856 9.61912 11.8107 9.71216 11.7163C9.8052 11.6219 9.87857 11.51 9.92798 11.387C9.97739 11.2641 10.0019 11.1325 10 11V9.46874L11.7246 9.96092C11.9046 10.0125 12.0954 10.0125 12.2754 9.96092L14 9.46874V11C13.9981 11.1325 14.0226 11.2641 14.072 11.387C14.1214 11.51 14.1948 11.6219 14.2878 11.7163C14.3809 11.8107 14.4918 11.8856 14.614 11.9367C14.7363 11.9879 14.8675 12.0142 15 12.0142C15.1325 12.0142 15.2637 11.9879 15.386 11.9367C15.5082 11.8856 15.6191 11.8107 15.7122 11.7163C15.8052 11.6219 15.8786 11.51 15.928 11.387C15.9774 11.2641 16.0019 11.1325 16 11V8.89647L18.084 8.30077L18.9316 21H5.06836L5.91602 8.30077ZM10.5488 14C10.3446 13.9937 10.1411 14.0285 9.95057 14.1023C9.76001 14.1762 9.58621 14.2875 9.43945 14.4297C9.30072 14.564 9.19041 14.7249 9.11507 14.9027C9.03974 15.0805 9.00092 15.2717 9.00092 15.4648C9.00092 15.658 9.03974 15.8491 9.11507 16.0269C9.19041 16.2048 9.30072 16.3656 9.43945 16.5L12 19L14.5605 16.5C14.6993 16.3656 14.8096 16.2048 14.8849 16.0269C14.9603 15.8491 14.9991 15.658 14.9991 15.4648C14.9991 15.2717 14.9603 15.0805 14.8849 14.9027C14.8096 14.7249 14.6993 14.564 14.5605 14.4297C14.2759 14.1549 13.8957 14.0013 13.5 14.0013C13.1043 14.0013 12.7241 14.1549 12.4395 14.4297L12 14.8574L11.5605 14.4297C11.2883 14.1658 10.9277 14.0127 10.5488 14Z" fill="#E2E6E8"/>
</svg>
